<svg width="20" height="20" viewBox="0 0 20 20" fill="none" xmlns="http://www.w3.org/2000/svg">
<path fill-rule="evenodd" clip-rule="evenodd" d="M14.375 1.33623C14.1288 1.33623 13.885 1.38794 13.6575 1.48842C13.43 1.58889 13.2233 1.73616 13.0492 1.92182C12.8751 2.10747 12.737 2.32788 12.6427 2.57045C12.5485 2.81302 12.5 3.073 12.5 3.33556C12.5 3.59812 12.5485 3.8581 12.6427 4.10067C12.737 4.34324 12.8751 4.56365 13.0492 4.7493C13.2233 4.93496 13.43 5.08223 13.6575 5.1827C13.885 5.28318 14.1288 5.33489 14.375 5.33489C14.8723 5.33489 15.3492 5.12425 15.7008 4.7493C16.0525 4.37435 16.25 3.86582 16.25 3.33556C16.25 2.8053 16.0525 2.29677 15.7008 1.92182C15.3492 1.54687 14.8723 1.33623 14.375 1.33623ZM11.3125 2.66912C11.4559 1.91584 11.8392 1.23861 12.3973 0.752172C12.9555 0.265732 13.6542 0 14.375 0C15.0958 0 15.7945 0.265732 16.3527 0.752172C16.9108 1.23861 17.2941 1.91584 17.4375 2.66912H20V4.002H17.4375C17.2941 4.75528 16.9108 5.43251 16.3527 5.91895C15.7945 6.40539 15.0958 6.67112 14.375 6.67112C13.6542 6.67112 12.9555 6.40539 12.3973 5.91895C11.8392 5.43251 11.4559 4.75528 11.3125 4.002H0V2.66912H11.3125ZM5.625 8.00067C5.12772 8.00067 4.65081 8.21131 4.29917 8.58626C3.94754 8.96121 3.75 9.46974 3.75 10C3.75 10.5303 3.94754 11.0388 4.29917 11.4137C4.65081 11.7887 5.12772 11.9993 5.625 11.9993C6.12228 11.9993 6.5992 11.7887 6.95083 11.4137C7.30246 11.0388 7.5 10.5303 7.5 10C7.5 9.46974 7.30246 8.96121 6.95083 8.58626C6.5992 8.21131 6.12228 8.00067 5.625 8.00067ZM2.5625 9.33356C2.70595 8.58028 3.08921 7.90305 3.64734 7.41661C4.20547 6.93017 4.90415 6.66444 5.625 6.66444C6.34585 6.66444 7.04453 6.93017 7.60266 7.41661C8.16079 7.90305 8.54405 8.58028 8.6875 9.33356H20V10.6664H8.6875C8.54405 11.4197 8.16079 12.0969 7.60266 12.5834C7.04453 13.0698 6.34585 13.3356 5.625 13.3356C4.90415 13.3356 4.20547 13.0698 3.64734 12.5834C3.08921 12.0969 2.70595 11.4197 2.5625 10.6664H0V9.33356H2.5625ZM14.375 14.6651C13.8777 14.6651 13.4008 14.8758 13.0492 15.2507C12.6975 15.6256 12.5 16.1342 12.5 16.6644C12.5 17.1947 12.6975 17.7032 13.0492 18.0782C13.4008 18.4531 13.8777 18.6638 14.375 18.6638C14.8723 18.6638 15.3492 18.4531 15.7008 18.0782C16.0525 17.7032 16.25 17.1947 16.25 16.6644C16.25 16.1342 16.0525 15.6256 15.7008 15.2507C15.3492 14.8758 14.8723 14.6651 14.375 14.6651ZM11.3125 15.998C11.4559 15.2447 11.8392 14.5675 12.3973 14.0811C12.9555 13.5946 13.6542 13.3289 14.375 13.3289C15.0958 13.3289 15.7945 13.5946 16.3527 14.0811C16.9108 14.5675 17.2941 15.2447 17.4375 15.998H20V17.3309H17.4375C17.2941 18.0842 16.9108 18.7614 16.3527 19.2478C15.7945 19.7343 15.0958 20 14.375 20C13.6542 20 12.9555 19.7343 12.3973 19.2478C11.8392 18.7614 11.4559 18.0842 11.3125 17.3309H0V15.998H11.3125Z" fill="currentColor"/>
</svg>
