<svg width="248" height="267" viewBox="0 0 248 267" fill="none" xmlns="http://www.w3.org/2000/svg">
<path d="M91.5 238.5C98.6322 238.5 104.5 244.496 104.5 252C104.5 259.504 98.6322 265.5 91.5 265.5C84.3678 265.5 78.5 259.504 78.5 252C78.5 244.496 84.3678 238.5 91.5 238.5Z" fill="#2181E4" stroke="#00FFFF" stroke-width="3"/>
<path d="M94.6211 260L93.6367 255.676H89.1719L88.1875 260H85L89.2422 242.797H93.5664L97.8203 260H94.6211ZM93.0391 252.852L92.125 248.867C92.0703 248.625 91.9453 248.02 91.75 247.051C91.5625 246.074 91.4492 245.422 91.4102 245.094C91.3086 245.766 91.1797 246.508 91.0234 247.32C90.8672 248.125 90.4609 249.969 89.8047 252.852H93.0391Z" fill="#05FEFF"/>
<mask id="path-3-outside-1_127_38" maskUnits="userSpaceOnUse" x="114" y="239" width="59" height="25" fill="black">
<rect fill="white" x="114" y="239" width="59" height="25"/>
<path d="M114.781 263V240.156H118.781V263H114.781ZM139.609 263H134.422L127.359 246.453H127.156C127.417 247.714 127.547 249.068 127.547 250.516V263H123.609V240.156H128.828L135.828 256.531H136C135.802 255.438 135.703 254.135 135.703 252.625V240.156H139.609V263ZM147.859 263H143.641V240.156H153.875V243.828H147.859V250.172H153.469V253.844H147.859V263ZM172.453 251.547C172.453 255.328 171.745 258.234 170.328 260.266C168.911 262.297 166.885 263.312 164.25 263.312C161.604 263.312 159.573 262.302 158.156 260.281C156.74 258.25 156.031 255.328 156.031 251.516C156.031 247.734 156.74 244.839 158.156 242.828C159.573 240.807 161.615 239.797 164.281 239.797C166.917 239.797 168.938 240.812 170.344 242.844C171.75 244.865 172.453 247.766 172.453 251.547ZM160.375 251.547C160.375 254.151 160.703 256.135 161.359 257.5C162.016 258.865 162.979 259.547 164.25 259.547C166.812 259.547 168.094 256.88 168.094 251.547C168.094 246.214 166.823 243.547 164.281 243.547C162.99 243.547 162.016 244.229 161.359 245.594C160.703 246.948 160.375 248.932 160.375 251.547Z"/>
</mask>
<path d="M114.781 263V240.156H118.781V263H114.781ZM139.609 263H134.422L127.359 246.453H127.156C127.417 247.714 127.547 249.068 127.547 250.516V263H123.609V240.156H128.828L135.828 256.531H136C135.802 255.438 135.703 254.135 135.703 252.625V240.156H139.609V263ZM147.859 263H143.641V240.156H153.875V243.828H147.859V250.172H153.469V253.844H147.859V263ZM172.453 251.547C172.453 255.328 171.745 258.234 170.328 260.266C168.911 262.297 166.885 263.312 164.25 263.312C161.604 263.312 159.573 262.302 158.156 260.281C156.74 258.25 156.031 255.328 156.031 251.516C156.031 247.734 156.74 244.839 158.156 242.828C159.573 240.807 161.615 239.797 164.281 239.797C166.917 239.797 168.938 240.812 170.344 242.844C171.75 244.865 172.453 247.766 172.453 251.547ZM160.375 251.547C160.375 254.151 160.703 256.135 161.359 257.5C162.016 258.865 162.979 259.547 164.25 259.547C166.812 259.547 168.094 256.88 168.094 251.547C168.094 246.214 166.823 243.547 164.281 243.547C162.99 243.547 162.016 244.229 161.359 245.594C160.703 246.948 160.375 248.932 160.375 251.547Z" fill="#05FEFF"/>
<path d="M114.781 263H114.281V263.5H114.781V263ZM114.781 240.156V239.656H114.281V240.156H114.781ZM118.781 240.156H119.281V239.656H118.781V240.156ZM118.781 263V263.5H119.281V263H118.781ZM114.781 263H115.281V240.156H114.781H114.281V263H114.781ZM114.781 240.156V240.656H118.781V240.156V239.656H114.781V240.156ZM118.781 240.156H118.281V263H118.781H119.281V240.156H118.781ZM118.781 263V262.5H114.781V263V263.5H118.781V263ZM139.609 263V263.5H140.109V263H139.609ZM134.422 263L133.962 263.196L134.092 263.5H134.422V263ZM127.359 246.453L127.819 246.257L127.69 245.953H127.359V246.453ZM127.156 246.453V245.953H126.542L126.667 246.554L127.156 246.453ZM127.547 263V263.5H128.047V263H127.547ZM123.609 263H123.109V263.5H123.609V263ZM123.609 240.156V239.656H123.109V240.156H123.609ZM128.828 240.156L129.288 239.96L129.158 239.656H128.828V240.156ZM135.828 256.531L135.368 256.728L135.498 257.031H135.828V256.531ZM136 256.531V257.031H136.599L136.492 256.442L136 256.531ZM135.703 240.156V239.656H135.203V240.156H135.703ZM139.609 240.156H140.109V239.656H139.609V240.156ZM139.609 263V262.5H134.422V263V263.5H139.609V263ZM134.422 263L134.882 262.804L127.819 246.257L127.359 246.453L126.9 246.649L133.962 263.196L134.422 263ZM127.359 246.453V245.953H127.156V246.453V246.953H127.359V246.453ZM127.156 246.453L126.667 246.554C126.919 247.778 127.047 249.098 127.047 250.516H127.547H128.047C128.047 249.038 127.914 247.649 127.646 246.352L127.156 246.453ZM127.547 250.516H127.047V263H127.547H128.047V250.516H127.547ZM127.547 263V262.5H123.609V263V263.5H127.547V263ZM123.609 263H124.109V240.156H123.609H123.109V263H123.609ZM123.609 240.156V240.656H128.828V240.156V239.656H123.609V240.156ZM128.828 240.156L128.368 240.353L135.368 256.728L135.828 256.531L136.288 256.335L129.288 239.96L128.828 240.156ZM135.828 256.531V257.031H136V256.531V256.031H135.828V256.531ZM136 256.531L136.492 256.442C136.301 255.386 136.203 254.115 136.203 252.625H135.703H135.203C135.203 254.155 135.303 255.489 135.508 256.62L136 256.531ZM135.703 252.625H136.203V240.156H135.703H135.203V252.625H135.703ZM135.703 240.156V240.656H139.609V240.156V239.656H135.703V240.156ZM139.609 240.156H139.109V263H139.609H140.109V240.156H139.609ZM147.859 263V263.5H148.359V263H147.859ZM143.641 263H143.141V263.5H143.641V263ZM143.641 240.156V239.656H143.141V240.156H143.641ZM153.875 240.156H154.375V239.656H153.875V240.156ZM153.875 243.828V244.328H154.375V243.828H153.875ZM147.859 243.828V243.328H147.359V243.828H147.859ZM147.859 250.172H147.359V250.672H147.859V250.172ZM153.469 250.172H153.969V249.672H153.469V250.172ZM153.469 253.844V254.344H153.969V253.844H153.469ZM147.859 253.844V253.344H147.359V253.844H147.859ZM147.859 263V262.5H143.641V263V263.5H147.859V263ZM143.641 263H144.141V240.156H143.641H143.141V263H143.641ZM143.641 240.156V240.656H153.875V240.156V239.656H143.641V240.156ZM153.875 240.156H153.375V243.828H153.875H154.375V240.156H153.875ZM153.875 243.828V243.328H147.859V243.828V244.328H153.875V243.828ZM147.859 243.828H147.359V250.172H147.859H148.359V243.828H147.859ZM147.859 250.172V250.672H153.469V250.172V249.672H147.859V250.172ZM153.469 250.172H152.969V253.844H153.469H153.969V250.172H153.469ZM153.469 253.844V253.344H147.859V253.844V254.344H153.469V253.844ZM147.859 253.844H147.359V263H147.859H148.359V253.844H147.859ZM170.328 260.266L169.918 259.98L170.328 260.266ZM158.156 260.281L157.746 260.567L157.747 260.568L158.156 260.281ZM158.156 242.828L158.565 243.116L158.566 243.115L158.156 242.828ZM170.344 242.844L169.933 243.128L169.933 243.129L170.344 242.844ZM161.359 245.594L161.809 245.812L161.81 245.81L161.359 245.594ZM172.453 251.547H171.953C171.953 255.276 171.253 258.066 169.918 259.98L170.328 260.266L170.738 260.552C172.237 258.403 172.953 255.38 172.953 251.547H172.453ZM170.328 260.266L169.918 259.98C168.602 261.867 166.734 262.812 164.25 262.812V263.312V263.812C167.036 263.812 169.221 262.727 170.738 260.552L170.328 260.266ZM164.25 263.312V262.812C161.753 262.812 159.881 261.871 158.566 259.994L158.156 260.281L157.747 260.568C159.265 262.734 161.455 263.812 164.25 263.812V263.312ZM158.156 260.281L158.566 259.995C157.232 258.082 156.531 255.277 156.531 251.516H156.031H155.531C155.531 255.379 156.247 258.418 157.746 260.567L158.156 260.281ZM156.031 251.516H156.531C156.531 247.786 157.232 245.008 158.565 243.116L158.156 242.828L157.748 242.54C156.247 244.669 155.531 247.683 155.531 251.516H156.031ZM158.156 242.828L158.566 243.115C159.88 241.24 161.762 240.297 164.281 240.297V239.797V239.297C161.467 239.297 159.266 240.375 157.747 242.541L158.156 242.828ZM164.281 239.797V240.297C166.766 240.297 168.627 241.242 169.933 243.128L170.344 242.844L170.755 242.559C169.248 240.383 167.068 239.297 164.281 239.297V239.797ZM170.344 242.844L169.933 243.129C171.258 245.032 171.953 247.817 171.953 251.547H172.453H172.953C172.953 247.715 172.242 244.697 170.754 242.558L170.344 242.844ZM160.375 251.547H159.875C159.875 254.179 160.205 256.252 160.909 257.717L161.359 257.5L161.81 257.283C161.202 256.019 160.875 254.123 160.875 251.547H160.375ZM161.359 257.5L160.909 257.717C161.264 258.454 161.717 259.041 162.285 259.443C162.858 259.849 163.519 260.047 164.25 260.047V259.547V259.047C163.71 259.047 163.254 258.904 162.863 258.627C162.468 258.347 162.111 257.91 161.81 257.283L161.359 257.5ZM164.25 259.547V260.047C164.982 260.047 165.644 259.855 166.217 259.458C166.785 259.064 167.235 258.488 167.583 257.763C168.273 256.328 168.594 254.238 168.594 251.547H168.094H167.594C167.594 254.189 167.274 256.099 166.682 257.33C166.39 257.939 166.04 258.363 165.647 258.636C165.258 258.906 164.799 259.047 164.25 259.047V259.547ZM168.094 251.547H168.594C168.594 248.856 168.276 246.767 167.592 245.332C167.247 244.608 166.8 244.032 166.236 243.637C165.667 243.24 165.009 243.047 164.281 243.047V243.547V244.047C164.824 244.047 165.278 244.187 165.663 244.457C166.052 244.729 166.399 245.153 166.689 245.762C167.276 246.994 167.594 248.904 167.594 251.547H168.094ZM164.281 243.547V243.047C163.542 243.047 162.874 243.244 162.295 243.649C161.721 244.051 161.264 244.638 160.909 245.377L161.359 245.594L161.81 245.81C162.111 245.185 162.469 244.748 162.869 244.468C163.265 244.191 163.729 244.047 164.281 244.047V243.547ZM161.359 245.594L160.909 245.376C160.204 246.831 159.875 248.905 159.875 251.547H160.375H160.875C160.875 248.96 161.202 247.065 161.809 245.812L161.359 245.594Z" fill="#2181E4" mask="url(#path-3-outside-1_127_38)"/>
<path d="M8.44131 200.122C11.1713 222.362 30.1241 239.583 53.1015 239.583H53.6269V243.583H53.1015L52.4677 243.579C27.565 243.263 7.13924 224.371 4.41104 200.122H8.44131ZM247.375 200.122C244.647 224.371 224.22 243.264 199.317 243.579L198.684 243.583H198.159V239.583H198.684C221.662 239.583 240.615 222.361 243.345 200.122H247.375Z" fill="#05FEFF"/>
<path d="M4.03027 43.4609C6.76028 21.2215 25.7131 4 48.6904 4H49.2158V0H48.6904L48.0566 0.00390625C23.1539 0.319552 2.7282 19.2122 0 43.4609H4.03027ZM242.964 43.4609C240.236 19.212 219.809 0.319245 194.906 0.00390625L194.273 0H193.748V4H194.273C217.251 4.00015 236.204 21.2216 238.934 43.4609H242.964Z" fill="#05FEFF"/>
</svg>
