<svg width="25" height="25" viewBox="0 0 25 25" fill="none" xmlns="http://www.w3.org/2000/svg">
<path d="M0.30545 1.7803C0.20861 1.68346 0.131793 1.56849 0.079384 1.44196C0.0269748 1.31544 1.02037e-09 1.17982 0 1.04287C-1.02037e-09 0.905921 0.0269748 0.77031 0.079384 0.643783C0.131793 0.517255 0.20861 0.40229 0.30545 0.30545C0.40229 0.20861 0.517255 0.131793 0.643783 0.079384C0.77031 0.0269748 0.905921 -1.02037e-09 1.04287 0C1.17982 1.02037e-09 1.31544 0.0269748 1.44196 0.079384C1.56849 0.131793 1.68346 0.20861 1.7803 0.30545L12.5 11.0272L23.2197 0.30545C23.3165 0.20861 23.4315 0.131793 23.558 0.079384C23.6846 0.0269748 23.8202 0 23.9571 0C24.0941 0 24.2297 0.0269748 24.3562 0.079384C24.4827 0.131793 24.5977 0.20861 24.6945 0.30545C24.7914 0.40229 24.8682 0.517255 24.9206 0.643783C24.973 0.77031 25 0.905921 25 1.04287C25 1.17982 24.973 1.31544 24.9206 1.44196C24.8682 1.56849 24.7914 1.68346 24.6945 1.7803L13.9728 12.5L24.6945 23.2197C24.7914 23.3165 24.8682 23.4315 24.9206 23.558C24.973 23.6846 25 23.8202 25 23.9571C25 24.0941 24.973 24.2297 24.9206 24.3562C24.8682 24.4827 24.7914 24.5977 24.6945 24.6945C24.5977 24.7914 24.4827 24.8682 24.3562 24.9206C24.2297 24.973 24.0941 25 23.9571 25C23.8202 25 23.6846 24.973 23.558 24.9206C23.4315 24.8682 23.3165 24.7914 23.2197 24.6945L12.5 13.9728L1.7803 24.6945C1.68346 24.7914 1.56849 24.8682 1.44196 24.9206C1.31544 24.973 1.17982 25 1.04287 25C0.905921 25 0.77031 24.973 0.643783 24.9206C0.517255 24.8682 0.40229 24.7914 0.30545 24.6945C0.20861 24.5977 0.131793 24.4827 0.079384 24.3562C0.0269748 24.2297 0 24.0941 0 23.9571C0 23.8202 0.0269748 23.6846 0.079384 23.558C0.131793 23.4315 0.20861 23.3165 0.30545 23.2197L11.0272 12.5L0.30545 1.7803Z" fill="currentColor"/>
</svg>
