<svg width="81" height="27" viewBox="0 0 81 27" fill="none" xmlns="http://www.w3.org/2000/svg">
<g filter="url(#filter0_i_216_154)">
<rect y="0.00012207" width="80.8925" height="26.9642" rx="12" fill="#9DFF00"/>
</g>
<rect x="0.5" y="0.500122" width="79.8925" height="25.9642" rx="11.5" stroke="black"/>
<mask id="path-3-outside-1_216_154" maskUnits="userSpaceOnUse" x="26" y="4.96777" width="28" height="16" fill="black">
<rect fill="white" x="26" y="4.96777" width="28" height="16"/>
<path d="M33.8075 12.2418C34.6308 12.5331 35.0425 13.2044 35.0425 14.2558V16.4598C35.0425 18.1318 34.2572 18.9678 32.6865 18.9678H27.8035V6.67477H32.5345C34.1052 6.67477 34.8905 7.51077 34.8905 9.18277V10.3038C34.8905 11.3171 34.5295 11.9631 33.8075 12.2418ZM31.8695 8.47977H30.4635V11.7668H31.8695C31.9708 11.7668 32.0532 11.7288 32.1165 11.6528C32.1925 11.5768 32.2305 11.4881 32.2305 11.3868V8.85977C32.2305 8.75844 32.1925 8.66977 32.1165 8.59377C32.0532 8.51777 31.9708 8.47977 31.8695 8.47977ZM32.3825 16.7638V14.0088C32.3825 13.9074 32.3445 13.8188 32.2685 13.7428C32.2052 13.6668 32.1228 13.6288 32.0215 13.6288H30.4635V17.1438H32.0215C32.1228 17.1438 32.2052 17.1058 32.2685 17.0298C32.3445 16.9538 32.3825 16.8651 32.3825 16.7638ZM41.2472 6.67477H43.9072V16.6498C43.9072 18.3218 43.1218 19.1578 41.5512 19.1578H39.1952C37.6245 19.1578 36.8392 18.3218 36.8392 16.6498V6.67477H39.4992V16.8778C39.4992 16.9791 39.5308 17.0678 39.5942 17.1438C39.6702 17.2198 39.7588 17.2578 39.8602 17.2578H40.8862C40.9875 17.2578 41.0698 17.2198 41.1332 17.1438C41.2092 17.0678 41.2472 16.9791 41.2472 16.8778V6.67477ZM49.3183 14.0848V12.1278H52.8333V16.6498C52.8333 18.3218 52.048 19.1578 50.4773 19.1578H48.0833C46.5127 19.1578 45.7273 18.3218 45.7273 16.6498V8.99277C45.7273 7.32077 46.5127 6.48477 48.0833 6.48477H50.4773C52.048 6.48477 52.8333 7.32077 52.8333 8.99277V10.1518H50.3063V8.66977C50.3063 8.56844 50.2683 8.47977 50.1923 8.40377C50.129 8.32777 50.0467 8.28977 49.9453 8.28977H48.7483C48.647 8.28977 48.5583 8.32777 48.4823 8.40377C48.419 8.47977 48.3873 8.56844 48.3873 8.66977V16.9538C48.3873 17.0551 48.419 17.1438 48.4823 17.2198C48.5583 17.2958 48.647 17.3338 48.7483 17.3338H49.9453C50.0467 17.3338 50.129 17.2958 50.1923 17.2198C50.2683 17.1438 50.3063 17.0551 50.3063 16.9538V14.0848H49.3183Z"/>
</mask>
<path d="M33.8075 12.2418C34.6308 12.5331 35.0425 13.2044 35.0425 14.2558V16.4598C35.0425 18.1318 34.2572 18.9678 32.6865 18.9678H27.8035V6.67477H32.5345C34.1052 6.67477 34.8905 7.51077 34.8905 9.18277V10.3038C34.8905 11.3171 34.5295 11.9631 33.8075 12.2418ZM31.8695 8.47977H30.4635V11.7668H31.8695C31.9708 11.7668 32.0532 11.7288 32.1165 11.6528C32.1925 11.5768 32.2305 11.4881 32.2305 11.3868V8.85977C32.2305 8.75844 32.1925 8.66977 32.1165 8.59377C32.0532 8.51777 31.9708 8.47977 31.8695 8.47977ZM32.3825 16.7638V14.0088C32.3825 13.9074 32.3445 13.8188 32.2685 13.7428C32.2052 13.6668 32.1228 13.6288 32.0215 13.6288H30.4635V17.1438H32.0215C32.1228 17.1438 32.2052 17.1058 32.2685 17.0298C32.3445 16.9538 32.3825 16.8651 32.3825 16.7638ZM41.2472 6.67477H43.9072V16.6498C43.9072 18.3218 43.1218 19.1578 41.5512 19.1578H39.1952C37.6245 19.1578 36.8392 18.3218 36.8392 16.6498V6.67477H39.4992V16.8778C39.4992 16.9791 39.5308 17.0678 39.5942 17.1438C39.6702 17.2198 39.7588 17.2578 39.8602 17.2578H40.8862C40.9875 17.2578 41.0698 17.2198 41.1332 17.1438C41.2092 17.0678 41.2472 16.9791 41.2472 16.8778V6.67477ZM49.3183 14.0848V12.1278H52.8333V16.6498C52.8333 18.3218 52.048 19.1578 50.4773 19.1578H48.0833C46.5127 19.1578 45.7273 18.3218 45.7273 16.6498V8.99277C45.7273 7.32077 46.5127 6.48477 48.0833 6.48477H50.4773C52.048 6.48477 52.8333 7.32077 52.8333 8.99277V10.1518H50.3063V8.66977C50.3063 8.56844 50.2683 8.47977 50.1923 8.40377C50.129 8.32777 50.0467 8.28977 49.9453 8.28977H48.7483C48.647 8.28977 48.5583 8.32777 48.4823 8.40377C48.419 8.47977 48.3873 8.56844 48.3873 8.66977V16.9538C48.3873 17.0551 48.419 17.1438 48.4823 17.2198C48.5583 17.2958 48.647 17.3338 48.7483 17.3338H49.9453C50.0467 17.3338 50.129 17.2958 50.1923 17.2198C50.2683 17.1438 50.3063 17.0551 50.3063 16.9538V14.0848H49.3183Z" fill="white"/>
<path d="M33.8075 12.2418L33.4474 11.3089L30.9248 12.2825L33.4739 13.1845L33.8075 12.2418ZM27.8035 18.9678H26.8035V19.9678H27.8035V18.9678ZM27.8035 6.67477V5.67477H26.8035V6.67477H27.8035ZM30.4635 8.47977V7.47977H29.4635V8.47977H30.4635ZM30.4635 11.7668H29.4635V12.7668H30.4635V11.7668ZM32.1165 11.6528L31.4094 10.9457L31.3773 10.9777L31.3483 11.0126L32.1165 11.6528ZM32.1165 8.59377L31.3483 9.23395L31.3773 9.2688L31.4094 9.30088L32.1165 8.59377ZM32.2685 13.7428L31.5003 14.383L31.5293 14.4178L31.5614 14.4499L32.2685 13.7428ZM30.4635 13.6288V12.6288H29.4635V13.6288H30.4635ZM30.4635 17.1438H29.4635V18.1438H30.4635V17.1438ZM32.2685 17.0298L31.5614 16.3227L31.5293 16.3547L31.5003 16.3896L32.2685 17.0298ZM33.8075 12.2418L33.4739 13.1845C33.6946 13.2626 33.8084 13.3677 33.8813 13.4865C33.9634 13.6205 34.0425 13.8546 34.0425 14.2558H35.0425H36.0425C36.0425 13.6056 35.9157 12.9783 35.5862 12.441C35.2475 11.8886 34.7437 11.5123 34.1411 11.2991L33.8075 12.2418ZM35.0425 14.2558H34.0425V16.4598H35.0425H36.0425V14.2558H35.0425ZM35.0425 16.4598H34.0425C34.0425 17.1567 33.8776 17.4933 33.7246 17.6561C33.5827 17.8072 33.3011 17.9678 32.6865 17.9678V18.9678V19.9678C33.6425 19.9678 34.5389 19.7104 35.1823 19.0254C35.8147 18.3523 36.0425 17.4349 36.0425 16.4598H35.0425ZM32.6865 18.9678V17.9678H27.8035V18.9678V19.9678H32.6865V18.9678ZM27.8035 18.9678H28.8035V6.67477H27.8035H26.8035V18.9678H27.8035ZM27.8035 6.67477V7.67477H32.5345V6.67477V5.67477H27.8035V6.67477ZM32.5345 6.67477V7.67477C33.1491 7.67477 33.4307 7.83536 33.5726 7.98645C33.7256 8.14929 33.8905 8.48589 33.8905 9.18277H34.8905H35.8905C35.8905 8.20765 35.6627 7.29025 35.0303 6.6171C34.3869 5.93219 33.4905 5.67477 32.5345 5.67477V6.67477ZM34.8905 9.18277H33.8905V10.3038H34.8905H35.8905V9.18277H34.8905ZM34.8905 10.3038H33.8905C33.8905 10.6999 33.8188 10.9315 33.7468 11.0605C33.6856 11.1699 33.6016 11.2493 33.4474 11.3089L33.8075 12.2418L34.1676 13.1747C34.7354 12.9555 35.1929 12.5726 35.4927 12.0361C35.7816 11.519 35.8905 10.921 35.8905 10.3038H34.8905ZM31.8695 8.47977V7.47977H30.4635V8.47977V9.47977H31.8695V8.47977ZM30.4635 8.47977H29.4635V11.7668H30.4635H31.4635V8.47977H30.4635ZM30.4635 11.7668V12.7668H31.8695V11.7668V10.7668H30.4635V11.7668ZM31.8695 11.7668V12.7668C32.2593 12.7668 32.6261 12.6033 32.8847 12.293L32.1165 11.6528L31.3483 11.0126C31.4029 10.947 31.4826 10.879 31.5882 10.8303C31.6931 10.7819 31.7926 10.7668 31.8695 10.7668V11.7668ZM32.1165 11.6528L32.8236 12.3599C33.0745 12.109 33.2305 11.7707 33.2305 11.3868H32.2305H31.2305C31.2305 11.309 31.2458 11.2217 31.2828 11.1354C31.3194 11.0501 31.3677 10.9874 31.4094 10.9457L32.1165 11.6528ZM32.2305 11.3868H33.2305V8.85977H32.2305H31.2305V11.3868H32.2305ZM32.2305 8.85977H33.2305C33.2305 8.47589 33.0745 8.13758 32.8236 7.88666L32.1165 8.59377L31.4094 9.30088C31.3677 9.25918 31.3194 9.19642 31.2828 9.11119C31.2458 9.02481 31.2305 8.93757 31.2305 8.85977H32.2305ZM32.1165 8.59377L32.8847 7.95359C32.6261 7.64328 32.2593 7.47977 31.8695 7.47977V8.47977V9.47977C31.7926 9.47977 31.6931 9.46465 31.5882 9.41623C31.4826 9.36751 31.4029 9.2995 31.3483 9.23395L32.1165 8.59377ZM32.3825 16.7638H33.3825V14.0088H32.3825H31.3825V16.7638H32.3825ZM32.3825 14.0088H33.3825C33.3825 13.6249 33.2265 13.2866 32.9756 13.0357L32.2685 13.7428L31.5614 14.4499C31.5197 14.4082 31.4714 14.3454 31.4348 14.2602C31.3978 14.1738 31.3825 14.0866 31.3825 14.0088H32.3825ZM32.2685 13.7428L33.0367 13.1026C32.7781 12.7923 32.4113 12.6288 32.0215 12.6288V13.6288V14.6288C31.9446 14.6288 31.8451 14.6136 31.7402 14.5652C31.6346 14.5165 31.5549 14.4485 31.5003 14.383L32.2685 13.7428ZM32.0215 13.6288V12.6288H30.4635V13.6288V14.6288H32.0215V13.6288ZM30.4635 13.6288H29.4635V17.1438H30.4635H31.4635V13.6288H30.4635ZM30.4635 17.1438V18.1438H32.0215V17.1438V16.1438H30.4635V17.1438ZM32.0215 17.1438V18.1438C32.4113 18.1438 32.7781 17.9803 33.0367 17.67L32.2685 17.0298L31.5003 16.3896C31.5549 16.324 31.6346 16.256 31.7402 16.2073C31.8451 16.1589 31.9446 16.1438 32.0215 16.1438V17.1438ZM32.2685 17.0298L32.9756 17.7369C33.2265 17.486 33.3825 17.1477 33.3825 16.7638H32.3825H31.3825C31.3825 16.686 31.3978 16.5987 31.4348 16.5124C31.4714 16.4271 31.5197 16.3644 31.5614 16.3227L32.2685 17.0298ZM41.2472 6.67477V5.67477H40.2472V6.67477H41.2472ZM43.9072 6.67477H44.9072V5.67477H43.9072V6.67477ZM36.8392 6.67477V5.67477H35.8392V6.67477H36.8392ZM39.4992 6.67477H40.4992V5.67477H39.4992V6.67477ZM39.5942 17.1438L38.826 17.784L38.855 17.8188L38.8871 17.8509L39.5942 17.1438ZM41.1332 17.1438L40.4261 16.4367L40.394 16.4687L40.365 16.5036L41.1332 17.1438ZM41.2472 6.67477V7.67477H43.9072V6.67477V5.67477H41.2472V6.67477ZM43.9072 6.67477H42.9072V16.6498H43.9072H44.9072V6.67477H43.9072ZM43.9072 16.6498H42.9072C42.9072 17.3467 42.7423 17.6833 42.5893 17.8461C42.4474 17.9972 42.1658 18.1578 41.5512 18.1578V19.1578V20.1578C42.5072 20.1578 43.4036 19.9004 44.047 19.2154C44.6794 18.5423 44.9072 17.6249 44.9072 16.6498H43.9072ZM41.5512 19.1578V18.1578H39.1952V19.1578V20.1578H41.5512V19.1578ZM39.1952 19.1578V18.1578C38.5805 18.1578 38.299 17.9972 38.157 17.8461C38.0041 17.6833 37.8392 17.3467 37.8392 16.6498H36.8392H35.8392C35.8392 17.6249 36.067 18.5423 36.6993 19.2154C37.3427 19.9004 38.2392 20.1578 39.1952 20.1578V19.1578ZM36.8392 16.6498H37.8392V6.67477H36.8392H35.8392V16.6498H36.8392ZM36.8392 6.67477V7.67477H39.4992V6.67477V5.67477H36.8392V6.67477ZM39.4992 6.67477H38.4992V16.8778H39.4992H40.4992V6.67477H39.4992ZM39.4992 16.8778H38.4992C38.4992 17.2068 38.6089 17.5235 38.826 17.784L39.5942 17.1438L40.3624 16.5036C40.4021 16.5513 40.439 16.612 40.4647 16.6839C40.4902 16.7555 40.4992 16.8226 40.4992 16.8778H39.4992ZM39.5942 17.1438L38.8871 17.8509C39.138 18.1018 39.4763 18.2578 39.8602 18.2578V17.2578V16.2578C39.938 16.2578 40.0252 16.2731 40.1116 16.3101C40.1968 16.3467 40.2596 16.395 40.3013 16.4367L39.5942 17.1438ZM39.8602 17.2578V18.2578H40.8862V17.2578V16.2578H39.8602V17.2578ZM40.8862 17.2578V18.2578C41.276 18.2578 41.6428 18.0943 41.9014 17.784L41.1332 17.1438L40.365 16.5036C40.4196 16.438 40.4993 16.37 40.6049 16.3213C40.7098 16.2729 40.8092 16.2578 40.8862 16.2578V17.2578ZM41.1332 17.1438L41.8403 17.8509C42.0912 17.6 42.2472 17.2617 42.2472 16.8778H41.2472H40.2472C40.2472 16.8 40.2625 16.7127 40.2995 16.6264C40.3361 16.5411 40.3844 16.4784 40.4261 16.4367L41.1332 17.1438ZM41.2472 16.8778H42.2472V6.67477H41.2472H40.2472V16.8778H41.2472ZM49.3183 14.0848H48.3183V15.0848H49.3183V14.0848ZM49.3183 12.1278V11.1278H48.3183V12.1278H49.3183ZM52.8333 12.1278H53.8333V11.1278H52.8333V12.1278ZM52.8333 10.1518V11.1518H53.8333V10.1518H52.8333ZM50.3063 10.1518H49.3063V11.1518H50.3063V10.1518ZM50.1923 8.40377L49.4241 9.04396L49.4531 9.0788L49.4852 9.11088L50.1923 8.40377ZM48.4823 8.40377L47.7752 7.69666L47.7431 7.72874L47.7141 7.76359L48.4823 8.40377ZM48.4823 17.2198L47.7141 17.86L47.7431 17.8948L47.7752 17.9269L48.4823 17.2198ZM50.1923 17.2198L49.4852 16.5127L49.4531 16.5447L49.4241 16.5796L50.1923 17.2198ZM50.3063 14.0848H51.3063V13.0848H50.3063V14.0848ZM49.3183 14.0848H50.3183V12.1278H49.3183H48.3183V14.0848H49.3183ZM49.3183 12.1278V13.1278H52.8333V12.1278V11.1278H49.3183V12.1278ZM52.8333 12.1278H51.8333V16.6498H52.8333H53.8333V12.1278H52.8333ZM52.8333 16.6498H51.8333C51.8333 17.3467 51.6684 17.6833 51.5155 17.8461C51.3735 17.9972 51.092 18.1578 50.4773 18.1578V19.1578V20.1578C51.4333 20.1578 52.3298 19.9004 52.9732 19.2154C53.6055 18.5423 53.8333 17.6249 53.8333 16.6498H52.8333ZM50.4773 19.1578V18.1578H48.0833V19.1578V20.1578H50.4773V19.1578ZM48.0833 19.1578V18.1578C47.4687 18.1578 47.1871 17.9972 47.0452 17.8461C46.8922 17.6833 46.7273 17.3467 46.7273 16.6498H45.7273H44.7273C44.7273 17.6249 44.9551 18.5423 45.5875 19.2154C46.2309 19.9004 47.1273 20.1578 48.0833 20.1578V19.1578ZM45.7273 16.6498H46.7273V8.99277H45.7273H44.7273V16.6498H45.7273ZM45.7273 8.99277H46.7273C46.7273 8.29589 46.8922 7.95929 47.0452 7.79645C47.1871 7.64536 47.4687 7.48477 48.0833 7.48477V6.48477V5.48477C47.1273 5.48477 46.2309 5.74219 45.5875 6.4271C44.9551 7.10025 44.7273 8.01765 44.7273 8.99277H45.7273ZM48.0833 6.48477V7.48477H50.4773V6.48477V5.48477H48.0833V6.48477ZM50.4773 6.48477V7.48477C51.092 7.48477 51.3735 7.64536 51.5155 7.79645C51.6684 7.95929 51.8333 8.29589 51.8333 8.99277H52.8333H53.8333C53.8333 8.01765 53.6055 7.10025 52.9732 6.4271C52.3298 5.74219 51.4333 5.48477 50.4773 5.48477V6.48477ZM52.8333 8.99277H51.8333V10.1518H52.8333H53.8333V8.99277H52.8333ZM52.8333 10.1518V9.15177H50.3063V10.1518V11.1518H52.8333V10.1518ZM50.3063 10.1518H51.3063V8.66977H50.3063H49.3063V10.1518H50.3063ZM50.3063 8.66977H51.3063C51.3063 8.28589 51.1503 7.94758 50.8994 7.69667L50.1923 8.40377L49.4852 9.11088C49.4435 9.06917 49.3952 9.00642 49.3587 8.92119C49.3217 8.83481 49.3063 8.74757 49.3063 8.66977H50.3063ZM50.1923 8.40377L50.9605 7.76359C50.7019 7.45327 50.3351 7.28977 49.9453 7.28977V8.28977V9.28977C49.8684 9.28977 49.7689 9.27465 49.664 9.22623C49.5584 9.17751 49.4787 9.10951 49.4241 9.04396L50.1923 8.40377ZM49.9453 8.28977V7.28977H48.7483V8.28977V9.28977H49.9453V8.28977ZM48.7483 8.28977V7.28977C48.3644 7.28977 48.0261 7.44575 47.7752 7.69666L48.4823 8.40377L49.1894 9.11088C49.1477 9.15258 49.085 9.20089 48.9997 9.23742C48.9134 9.27444 48.8261 9.28977 48.7483 9.28977V8.28977ZM48.4823 8.40377L47.7141 7.76359C47.4971 8.02401 47.3873 8.3407 47.3873 8.66977H48.3873H49.3873C49.3873 8.72496 49.3784 8.79204 49.3528 8.86361C49.3271 8.93551 49.2903 8.99629 49.2505 9.04395L48.4823 8.40377ZM48.3873 8.66977H47.3873V16.9538H48.3873H49.3873V8.66977H48.3873ZM48.3873 16.9538H47.3873C47.3873 17.2828 47.4971 17.5995 47.7141 17.86L48.4823 17.2198L49.2505 16.5796C49.2903 16.6273 49.3271 16.688 49.3528 16.7599C49.3784 16.8315 49.3873 16.8986 49.3873 16.9538H48.3873ZM48.4823 17.2198L47.7752 17.9269C48.0261 18.1778 48.3644 18.3338 48.7483 18.3338V17.3338V16.3338C48.8261 16.3338 48.9134 16.3491 48.9997 16.3861C49.085 16.4227 49.1477 16.471 49.1894 16.5127L48.4823 17.2198ZM48.7483 17.3338V18.3338H49.9453V17.3338V16.3338H48.7483V17.3338ZM49.9453 17.3338V18.3338C50.3351 18.3338 50.7019 18.1703 50.9605 17.86L50.1923 17.2198L49.4241 16.5796C49.4787 16.514 49.5584 16.446 49.664 16.3973C49.7689 16.3489 49.8684 16.3338 49.9453 16.3338V17.3338ZM50.1923 17.2198L50.8994 17.9269C51.1503 17.676 51.3063 17.3377 51.3063 16.9538H50.3063H49.3063C49.3063 16.876 49.3217 16.7887 49.3587 16.7024C49.3952 16.6171 49.4435 16.5544 49.4852 16.5127L50.1923 17.2198ZM50.3063 16.9538H51.3063V14.0848H50.3063H49.3063V16.9538H50.3063ZM50.3063 14.0848V13.0848H49.3183V14.0848V15.0848H50.3063V14.0848Z" fill="black" mask="url(#path-3-outside-1_216_154)"/>
<defs>
<filter id="filter0_i_216_154" x="-2" y="-2.99988" width="82.8926" height="29.9641" filterUnits="userSpaceOnUse" color-interpolation-filters="sRGB">
<feFlood flood-opacity="0" result="BackgroundImageFix"/>
<feBlend mode="normal" in="SourceGraphic" in2="BackgroundImageFix" result="shape"/>
<feColorMatrix in="SourceAlpha" type="matrix" values="0 0 0 0 0 0 0 0 0 0 0 0 0 0 0 0 0 0 127 0" result="hardAlpha"/>
<feOffset dx="-2" dy="-3"/>
<feGaussianBlur stdDeviation="2"/>
<feComposite in2="hardAlpha" operator="arithmetic" k2="-1" k3="1"/>
<feColorMatrix type="matrix" values="0 0 0 0 0.00961538 0 0 0 0 0.00961538 0 0 0 0 0.00961538 0 0 0 0.25 0"/>
<feBlend mode="normal" in2="shape" result="effect1_innerShadow_216_154"/>
</filter>
</defs>
</svg>
