<svg width="81" height="28" viewBox="0 0 81 28" fill="none" xmlns="http://www.w3.org/2000/svg">
<g filter="url(#filter0_i_216_166)">
<rect y="0.00012207" width="80.8925" height="26.9642" rx="12" fill="#464646"/>
</g>
<rect x="0.5" y="0.500122" width="79.8925" height="25.9642" rx="11.5" stroke="black"/>
<mask id="path-3-outside-1_216_166" maskUnits="userSpaceOnUse" x="21.1929" y="5.96777" width="39" height="15" fill="black">
<rect fill="white" x="21.1929" y="5.96777" width="39" height="15"/>
<path d="M28.0273 7.67477C29.598 7.67477 30.3833 8.51077 30.3833 10.1828V17.4598C30.3833 19.1318 29.598 19.9678 28.0273 19.9678H23.1443V7.67477H28.0273ZM27.7233 17.7638V9.85977C27.7233 9.75844 27.6853 9.66977 27.6093 9.59377C27.546 9.51777 27.4636 9.47977 27.3623 9.47977H25.8043V18.1438H27.3623C27.4636 18.1438 27.546 18.1058 27.6093 18.0298C27.6853 17.9538 27.7233 17.8651 27.7233 17.7638ZM37.249 7.48477C38.8197 7.48477 39.605 8.32077 39.605 9.99277V19.9678H36.945V15.8448H35.026V19.9678H32.366V9.99277C32.366 8.32077 33.1513 7.48477 34.722 7.48477H37.249ZM35.026 13.7928H36.945V9.66977C36.945 9.56844 36.907 9.47977 36.831 9.40377C36.7677 9.32777 36.6853 9.28977 36.584 9.28977H35.387C35.2857 9.28977 35.197 9.32777 35.121 9.40377C35.0577 9.47977 35.026 9.56844 35.026 9.66977V13.7928ZM44.2477 14.9328V19.9678H41.5877V7.67477H46.3187C47.8893 7.67477 48.6747 8.51077 48.6747 10.1828V11.6078C48.6747 12.6211 48.3137 13.2671 47.5917 13.5458C48.225 13.7738 48.5417 14.2931 48.5417 15.1038V19.9678H45.8817V15.3128C45.8817 15.0594 45.7613 14.9328 45.5207 14.9328H44.2477ZM44.2477 9.47977V13.0708H45.6537C45.755 13.0708 45.8373 13.0328 45.9007 12.9568C45.9767 12.8808 46.0147 12.7921 46.0147 12.6908V9.85977C46.0147 9.75844 45.9767 9.66977 45.9007 9.59377C45.8373 9.51777 45.755 9.47977 45.6537 9.47977H44.2477ZM58.0396 7.67477L55.9496 13.3178L58.4386 19.9678H55.7216L53.8976 15.1038H53.0426V19.9678H50.3826V7.67477H53.0426V12.8238H53.6886L55.6076 7.67477H58.0396Z"/>
</mask>
<path d="M28.0273 7.67477C29.598 7.67477 30.3833 8.51077 30.3833 10.1828V17.4598C30.3833 19.1318 29.598 19.9678 28.0273 19.9678H23.1443V7.67477H28.0273ZM27.7233 17.7638V9.85977C27.7233 9.75844 27.6853 9.66977 27.6093 9.59377C27.546 9.51777 27.4636 9.47977 27.3623 9.47977H25.8043V18.1438H27.3623C27.4636 18.1438 27.546 18.1058 27.6093 18.0298C27.6853 17.9538 27.7233 17.8651 27.7233 17.7638ZM37.249 7.48477C38.8197 7.48477 39.605 8.32077 39.605 9.99277V19.9678H36.945V15.8448H35.026V19.9678H32.366V9.99277C32.366 8.32077 33.1513 7.48477 34.722 7.48477H37.249ZM35.026 13.7928H36.945V9.66977C36.945 9.56844 36.907 9.47977 36.831 9.40377C36.7677 9.32777 36.6853 9.28977 36.584 9.28977H35.387C35.2857 9.28977 35.197 9.32777 35.121 9.40377C35.0577 9.47977 35.026 9.56844 35.026 9.66977V13.7928ZM44.2477 14.9328V19.9678H41.5877V7.67477H46.3187C47.8893 7.67477 48.6747 8.51077 48.6747 10.1828V11.6078C48.6747 12.6211 48.3137 13.2671 47.5917 13.5458C48.225 13.7738 48.5417 14.2931 48.5417 15.1038V19.9678H45.8817V15.3128C45.8817 15.0594 45.7613 14.9328 45.5207 14.9328H44.2477ZM44.2477 9.47977V13.0708H45.6537C45.755 13.0708 45.8373 13.0328 45.9007 12.9568C45.9767 12.8808 46.0147 12.7921 46.0147 12.6908V9.85977C46.0147 9.75844 45.9767 9.66977 45.9007 9.59377C45.8373 9.51777 45.755 9.47977 45.6537 9.47977H44.2477ZM58.0396 7.67477L55.9496 13.3178L58.4386 19.9678H55.7216L53.8976 15.1038H53.0426V19.9678H50.3826V7.67477H53.0426V12.8238H53.6886L55.6076 7.67477H58.0396Z" fill="white"/>
<path d="M23.1443 19.9678H22.1443V20.9678H23.1443V19.9678ZM23.1443 7.67477V6.67477H22.1443V7.67477H23.1443ZM27.6093 9.59377L26.8411 10.234L26.8701 10.2688L26.9022 10.3009L27.6093 9.59377ZM25.8043 9.47977V8.47977H24.8043V9.47977H25.8043ZM25.8043 18.1438H24.8043V19.1438H25.8043V18.1438ZM27.6093 18.0298L26.9022 17.3227L26.8701 17.3547L26.8411 17.3896L27.6093 18.0298ZM28.0273 7.67477V8.67477C28.642 8.67477 28.9235 8.83536 29.0655 8.98645C29.2184 9.14929 29.3833 9.48589 29.3833 10.1828H30.3833H31.3833C31.3833 9.20765 31.1555 8.29025 30.5232 7.6171C29.8798 6.93219 28.9833 6.67477 28.0273 6.67477V7.67477ZM30.3833 10.1828H29.3833V17.4598H30.3833H31.3833V10.1828H30.3833ZM30.3833 17.4598H29.3833C29.3833 18.1567 29.2184 18.4933 29.0655 18.6561C28.9235 18.8072 28.642 18.9678 28.0273 18.9678V19.9678V20.9678C28.9833 20.9678 29.8798 20.7104 30.5232 20.0254C31.1555 19.3523 31.3833 18.4349 31.3833 17.4598H30.3833ZM28.0273 19.9678V18.9678H23.1443V19.9678V20.9678H28.0273V19.9678ZM23.1443 19.9678H24.1443V7.67477H23.1443H22.1443V19.9678H23.1443ZM23.1443 7.67477V8.67477H28.0273V7.67477V6.67477H23.1443V7.67477ZM27.7233 17.7638H28.7233V9.85977H27.7233H26.7233V17.7638H27.7233ZM27.7233 9.85977H28.7233C28.7233 9.47589 28.5673 9.13758 28.3164 8.88667L27.6093 9.59377L26.9022 10.3009C26.8605 10.2592 26.8122 10.1964 26.7757 10.1112C26.7386 10.0248 26.7233 9.93757 26.7233 9.85977H27.7233ZM27.6093 9.59377L28.3775 8.95359C28.1189 8.64328 27.7521 8.47977 27.3623 8.47977V9.47977V10.4798C27.2854 10.4798 27.1859 10.4646 27.081 10.4162C26.9754 10.3675 26.8957 10.2995 26.8411 10.234L27.6093 9.59377ZM27.3623 9.47977V8.47977H25.8043V9.47977V10.4798H27.3623V9.47977ZM25.8043 9.47977H24.8043V18.1438H25.8043H26.8043V9.47977H25.8043ZM25.8043 18.1438V19.1438H27.3623V18.1438V17.1438H25.8043V18.1438ZM27.3623 18.1438V19.1438C27.7521 19.1438 28.1189 18.9803 28.3775 18.67L27.6093 18.0298L26.8411 17.3896C26.8957 17.324 26.9754 17.256 27.081 17.2073C27.1859 17.1589 27.2854 17.1438 27.3623 17.1438V18.1438ZM27.6093 18.0298L28.3164 18.7369C28.5673 18.486 28.7233 18.1477 28.7233 17.7638H27.7233H26.7233C26.7233 17.686 26.7386 17.5987 26.7757 17.5124C26.8122 17.4271 26.8605 17.3644 26.9022 17.3227L27.6093 18.0298ZM39.605 19.9678V20.9678H40.605V19.9678H39.605ZM36.945 19.9678H35.945V20.9678H36.945V19.9678ZM36.945 15.8448H37.945V14.8448H36.945V15.8448ZM35.026 15.8448V14.8448H34.026V15.8448H35.026ZM35.026 19.9678V20.9678H36.026V19.9678H35.026ZM32.366 19.9678H31.366V20.9678H32.366V19.9678ZM35.026 13.7928H34.026V14.7928H35.026V13.7928ZM36.945 13.7928V14.7928H37.945V13.7928H36.945ZM36.831 9.40377L36.0628 10.044L36.0918 10.0788L36.1239 10.1109L36.831 9.40377ZM35.121 9.40377L34.4139 8.69666L34.3818 8.72874L34.3528 8.76359L35.121 9.40377ZM37.249 7.48477V8.48477C37.8636 8.48477 38.1452 8.64536 38.2871 8.79645C38.4401 8.95929 38.605 9.29589 38.605 9.99277H39.605H40.605C40.605 9.01765 40.3772 8.10025 39.7448 7.4271C39.1014 6.74219 38.205 6.48477 37.249 6.48477V7.48477ZM39.605 9.99277H38.605V19.9678H39.605H40.605V9.99277H39.605ZM39.605 19.9678V18.9678H36.945V19.9678V20.9678H39.605V19.9678ZM36.945 19.9678H37.945V15.8448H36.945H35.945V19.9678H36.945ZM36.945 15.8448V14.8448H35.026V15.8448V16.8448H36.945V15.8448ZM35.026 15.8448H34.026V19.9678H35.026H36.026V15.8448H35.026ZM35.026 19.9678V18.9678H32.366V19.9678V20.9678H35.026V19.9678ZM32.366 19.9678H33.366V9.99277H32.366H31.366V19.9678H32.366ZM32.366 9.99277H33.366C33.366 9.29589 33.5309 8.95929 33.6838 8.79645C33.8258 8.64536 34.1073 8.48477 34.722 8.48477V7.48477V6.48477C33.766 6.48477 32.8695 6.74219 32.2261 7.4271C31.5938 8.10025 31.366 9.01765 31.366 9.99277H32.366ZM34.722 7.48477V8.48477H37.249V7.48477V6.48477H34.722V7.48477ZM35.026 13.7928V14.7928H36.945V13.7928V12.7928H35.026V13.7928ZM36.945 13.7928H37.945V9.66977H36.945H35.945V13.7928H36.945ZM36.945 9.66977H37.945C37.945 9.28589 37.789 8.94758 37.5381 8.69667L36.831 9.40377L36.1239 10.1109C36.0822 10.0692 36.0339 10.0064 35.9973 9.92119C35.9603 9.83481 35.945 9.74757 35.945 9.66977H36.945ZM36.831 9.40377L37.5992 8.76359C37.3406 8.45327 36.9738 8.28977 36.584 8.28977V9.28977V10.2898C36.5071 10.2898 36.4076 10.2746 36.3027 10.2262C36.1971 10.1775 36.1174 10.1095 36.0628 10.044L36.831 9.40377ZM36.584 9.28977V8.28977H35.387V9.28977V10.2898H36.584V9.28977ZM35.387 9.28977V8.28977C35.0031 8.28977 34.6648 8.44575 34.4139 8.69666L35.121 9.40377L35.8281 10.1109C35.7864 10.1526 35.7236 10.2009 35.6384 10.2374C35.552 10.2744 35.4648 10.2898 35.387 10.2898V9.28977ZM35.121 9.40377L34.3528 8.76359C34.1358 9.02401 34.026 9.3407 34.026 9.66977H35.026H36.026C36.026 9.72496 36.017 9.79204 35.9915 9.86361C35.9658 9.93551 35.9289 9.99629 35.8892 10.044L35.121 9.40377ZM35.026 9.66977H34.026V13.7928H35.026H36.026V9.66977H35.026ZM44.2477 14.9328V13.9328H43.2477V14.9328H44.2477ZM44.2477 19.9678V20.9678H45.2477V19.9678H44.2477ZM41.5877 19.9678H40.5877V20.9678H41.5877V19.9678ZM41.5877 7.67477V6.67477H40.5877V7.67477H41.5877ZM47.5917 13.5458L47.2316 12.6129L44.73 13.5784L47.2529 14.4867L47.5917 13.5458ZM48.5417 19.9678V20.9678H49.5417V19.9678H48.5417ZM45.8817 19.9678H44.8817V20.9678H45.8817V19.9678ZM44.2477 9.47977V8.47977H43.2477V9.47977H44.2477ZM44.2477 13.0708H43.2477V14.0708H44.2477V13.0708ZM45.9007 12.9568L45.1936 12.2497L45.1615 12.2817L45.1324 12.3166L45.9007 12.9568ZM45.9007 9.59377L45.1324 10.234L45.1615 10.2688L45.1936 10.3009L45.9007 9.59377ZM44.2477 14.9328H43.2477V19.9678H44.2477H45.2477V14.9328H44.2477ZM44.2477 19.9678V18.9678H41.5877V19.9678V20.9678H44.2477V19.9678ZM41.5877 19.9678H42.5877V7.67477H41.5877H40.5877V19.9678H41.5877ZM41.5877 7.67477V8.67477H46.3187V7.67477V6.67477H41.5877V7.67477ZM46.3187 7.67477V8.67477C46.9333 8.67477 47.2149 8.83536 47.3568 8.98645C47.5098 9.14929 47.6747 9.48589 47.6747 10.1828H48.6747H49.6747C49.6747 9.20765 49.4469 8.29025 48.8145 7.6171C48.1711 6.93219 47.2747 6.67477 46.3187 6.67477V7.67477ZM48.6747 10.1828H47.6747V11.6078H48.6747H49.6747V10.1828H48.6747ZM48.6747 11.6078H47.6747C47.6747 12.0039 47.603 12.2355 47.531 12.3645C47.4698 12.4739 47.3858 12.5533 47.2316 12.6129L47.5917 13.5458L47.9517 14.4787C48.5196 14.2595 48.977 13.8766 49.2769 13.3401C49.5658 12.823 49.6747 12.225 49.6747 11.6078H48.6747ZM47.5917 13.5458L47.2529 14.4867C47.3793 14.5322 47.4236 14.5829 47.4504 14.6269C47.4863 14.6858 47.5417 14.8227 47.5417 15.1038H48.5417H49.5417C49.5417 14.5742 49.4387 14.0461 49.158 13.5857C48.8681 13.1103 48.4373 12.7874 47.9304 12.6049L47.5917 13.5458ZM48.5417 15.1038H47.5417V19.9678H48.5417H49.5417V15.1038H48.5417ZM48.5417 19.9678V18.9678H45.8817V19.9678V20.9678H48.5417V19.9678ZM45.8817 19.9678H46.8817V15.3128H45.8817H44.8817V19.9678H45.8817ZM45.8817 15.3128H46.8817C46.8817 15.0444 46.8188 14.6574 46.5164 14.339C46.2049 14.0111 45.8086 13.9328 45.5207 13.9328V14.9328V15.9328C45.4734 15.9328 45.2576 15.9178 45.0664 15.7165C44.8843 15.5249 44.8817 15.3278 44.8817 15.3128H45.8817ZM45.5207 14.9328V13.9328H44.2477V14.9328V15.9328H45.5207V14.9328ZM44.2477 9.47977H43.2477V13.0708H44.2477H45.2477V9.47977H44.2477ZM44.2477 13.0708V14.0708H45.6537V13.0708V12.0708H44.2477V13.0708ZM45.6537 13.0708V14.0708C46.0435 14.0708 46.4103 13.9073 46.6689 13.597L45.9007 12.9568L45.1324 12.3166C45.1871 12.251 45.2668 12.183 45.3724 12.1343C45.4773 12.0859 45.5767 12.0708 45.6537 12.0708V13.0708ZM45.9007 12.9568L46.6078 13.6639C46.8587 13.413 47.0147 13.0747 47.0147 12.6908H46.0147H45.0147C45.0147 12.613 45.03 12.5257 45.067 12.4394C45.1035 12.3541 45.1519 12.2914 45.1936 12.2497L45.9007 12.9568ZM46.0147 12.6908H47.0147V9.85977H46.0147H45.0147V12.6908H46.0147ZM46.0147 9.85977H47.0147C47.0147 9.47589 46.8587 9.13758 46.6078 8.88666L45.9007 9.59377L45.1936 10.3009C45.1519 10.2592 45.1035 10.1964 45.067 10.1112C45.03 10.0248 45.0147 9.93757 45.0147 9.85977H46.0147ZM45.9007 9.59377L46.6689 8.95359C46.4103 8.64328 46.0435 8.47977 45.6537 8.47977V9.47977V10.4798C45.5767 10.4798 45.4773 10.4646 45.3724 10.4162C45.2668 10.3675 45.1871 10.2995 45.1324 10.234L45.9007 9.59377ZM45.6537 9.47977V8.47977H44.2477V9.47977V10.4798H45.6537V9.47977ZM58.0396 7.67477L58.9773 8.02209L59.4763 6.67477H58.0396V7.67477ZM55.9496 13.3178L55.0118 12.9705L54.8825 13.3196L55.013 13.6683L55.9496 13.3178ZM58.4386 19.9678V20.9678H59.8806L59.3751 19.6172L58.4386 19.9678ZM55.7216 19.9678L54.7853 20.3189L55.0286 20.9678H55.7216V19.9678ZM53.8976 15.1038L54.8339 14.7526L54.5906 14.1038H53.8976V15.1038ZM53.0426 15.1038V14.1038H52.0426V15.1038H53.0426ZM53.0426 19.9678V20.9678H54.0426V19.9678H53.0426ZM50.3826 19.9678H49.3826V20.9678H50.3826V19.9678ZM50.3826 7.67477V6.67477H49.3826V7.67477H50.3826ZM53.0426 7.67477H54.0426V6.67477H53.0426V7.67477ZM53.0426 12.8238H52.0426V13.8238H53.0426V12.8238ZM53.6886 12.8238V13.8238H54.3831L54.6256 13.173L53.6886 12.8238ZM55.6076 7.67477V6.67477H54.9131L54.6706 7.32555L55.6076 7.67477ZM58.0396 7.67477L57.1018 7.32746L55.0118 12.9705L55.9496 13.3178L56.8873 13.6651L58.9773 8.02209L58.0396 7.67477ZM55.9496 13.3178L55.013 13.6683L57.502 20.3183L58.4386 19.9678L59.3751 19.6172L56.8861 12.9672L55.9496 13.3178ZM58.4386 19.9678V18.9678H55.7216V19.9678V20.9678H58.4386V19.9678ZM55.7216 19.9678L56.6579 19.6166L54.8339 14.7526L53.8976 15.1038L52.9613 15.4549L54.7853 20.3189L55.7216 19.9678ZM53.8976 15.1038V14.1038H53.0426V15.1038V16.1038H53.8976V15.1038ZM53.0426 15.1038H52.0426V19.9678H53.0426H54.0426V15.1038H53.0426ZM53.0426 19.9678V18.9678H50.3826V19.9678V20.9678H53.0426V19.9678ZM50.3826 19.9678H51.3826V7.67477H50.3826H49.3826V19.9678H50.3826ZM50.3826 7.67477V8.67477H53.0426V7.67477V6.67477H50.3826V7.67477ZM53.0426 7.67477H52.0426V12.8238H53.0426H54.0426V7.67477H53.0426ZM53.0426 12.8238V13.8238H53.6886V12.8238V11.8238H53.0426V12.8238ZM53.6886 12.8238L54.6256 13.173L56.5446 8.024L55.6076 7.67477L54.6706 7.32555L52.7516 12.4745L53.6886 12.8238ZM55.6076 7.67477V8.67477H58.0396V7.67477V6.67477H55.6076V7.67477Z" fill="black" mask="url(#path-3-outside-1_216_166)"/>
<defs>
<filter id="filter0_i_216_166" x="-2" y="-2.99988" width="82.8926" height="29.9641" filterUnits="userSpaceOnUse" color-interpolation-filters="sRGB">
<feFlood flood-opacity="0" result="BackgroundImageFix"/>
<feBlend mode="normal" in="SourceGraphic" in2="BackgroundImageFix" result="shape"/>
<feColorMatrix in="SourceAlpha" type="matrix" values="0 0 0 0 0 0 0 0 0 0 0 0 0 0 0 0 0 0 127 0" result="hardAlpha"/>
<feOffset dx="-2" dy="-3"/>
<feGaussianBlur stdDeviation="2"/>
<feComposite in2="hardAlpha" operator="arithmetic" k2="-1" k3="1"/>
<feColorMatrix type="matrix" values="0 0 0 0 0.00961538 0 0 0 0 0.00961538 0 0 0 0 0.00961538 0 0 0 0.25 0"/>
<feBlend mode="normal" in2="shape" result="effect1_innerShadow_216_166"/>
</filter>
</defs>
</svg>
