<svg width="81" height="27" viewBox="0 0 81 27" fill="none" xmlns="http://www.w3.org/2000/svg">
<g filter="url(#filter0_i_216_160)">
<rect y="0.00012207" width="80.8925" height="26.9642" rx="12" fill="#351AAC"/>
</g>
<rect x="0.5" y="0.500122" width="79.8925" height="25.9642" rx="11.5" stroke="black"/>
<mask id="path-3-outside-1_216_160" maskUnits="userSpaceOnUse" x="13.5273" y="4.96777" width="55" height="16" fill="black">
<rect fill="white" x="13.5273" y="4.96777" width="55" height="16"/>
<path d="M19.539 6.67477C21.1097 6.67477 21.895 7.51077 21.895 9.18277V16.4598C21.895 18.1318 21.1097 18.9678 19.539 18.9678H14.656V6.67477H19.539ZM19.235 16.7638V8.85977C19.235 8.75844 19.197 8.66977 19.121 8.59377C19.0577 8.51777 18.9754 8.47977 18.874 8.47977H17.316V17.1438H18.874C18.9754 17.1438 19.0577 17.1058 19.121 17.0298C19.197 16.9538 19.235 16.8651 19.235 16.7638ZM26.5377 13.9328V18.9678H23.8777V6.67477H28.6087C30.1794 6.67477 30.9647 7.51077 30.9647 9.18277V10.6078C30.9647 11.6211 30.6037 12.2671 29.8817 12.5458C30.515 12.7738 30.8317 13.2931 30.8317 14.1038V18.9678H28.1717V14.3128C28.1717 14.0594 28.0514 13.9328 27.8107 13.9328H26.5377ZM26.5377 8.47977V12.0708H27.9437C28.045 12.0708 28.1274 12.0328 28.1907 11.9568C28.2667 11.8808 28.3047 11.7921 28.3047 11.6908V8.85977C28.3047 8.75844 28.2667 8.66977 28.1907 8.59377C28.1274 8.51777 28.045 8.47977 27.9437 8.47977H26.5377ZM37.5556 6.48477C39.1263 6.48477 39.9116 7.32077 39.9116 8.99277V18.9678H37.2516V14.8448H35.3326V18.9678H32.6726V8.99277C32.6726 7.32077 33.458 6.48477 35.0286 6.48477H37.5556ZM35.3326 12.7928H37.2516V8.66977C37.2516 8.56844 37.2136 8.47977 37.1376 8.40377C37.0743 8.32777 36.992 8.28977 36.8906 8.28977H35.6936C35.5923 8.28977 35.5036 8.32777 35.4276 8.40377C35.3643 8.47977 35.3326 8.56844 35.3326 8.66977V12.7928ZM45.4853 14.0848V12.1278H49.0003V16.6498C49.0003 18.3218 48.215 19.1578 46.6443 19.1578H44.2503C42.6796 19.1578 41.8943 18.3218 41.8943 16.6498V8.99277C41.8943 7.32077 42.6796 6.48477 44.2503 6.48477H46.6443C48.215 6.48477 49.0003 7.32077 49.0003 8.99277V10.1518H46.4733V8.66977C46.4733 8.56844 46.4353 8.47977 46.3593 8.40377C46.296 8.32777 46.2136 8.28977 46.1123 8.28977H44.9153C44.814 8.28977 44.7253 8.32777 44.6493 8.40377C44.586 8.47977 44.5543 8.56844 44.5543 8.66977V16.9538C44.5543 17.0551 44.586 17.1438 44.6493 17.2198C44.7253 17.2958 44.814 17.3338 44.9153 17.3338H46.1123C46.2136 17.3338 46.296 17.2958 46.3593 17.2198C46.4353 17.1438 46.4733 17.0551 46.4733 16.9538V14.0848H45.4853ZM57.7056 8.99277V16.6498C57.7056 18.3218 56.9202 19.1578 55.3496 19.1578H52.8226C51.2519 19.1578 50.4666 18.3218 50.4666 16.6498V8.99277C50.4666 7.32077 51.2519 6.48477 52.8226 6.48477H55.3496C56.9202 6.48477 57.7056 7.32077 57.7056 8.99277ZM55.0456 16.9538V8.66977C55.0456 8.56844 55.0076 8.47977 54.9316 8.40377C54.8682 8.32777 54.7859 8.28977 54.6846 8.28977H53.4876C53.3862 8.28977 53.2976 8.32777 53.2216 8.40377C53.1582 8.47977 53.1266 8.56844 53.1266 8.66977V16.9538C53.1266 17.0551 53.1582 17.1438 53.2216 17.2198C53.2976 17.2958 53.3862 17.3338 53.4876 17.3338H54.6846C54.7859 17.3338 54.8682 17.2958 54.9316 17.2198C55.0076 17.1438 55.0456 17.0551 55.0456 16.9538ZM66.7187 18.9678H64.0587V8.76477C64.0587 8.66344 64.0207 8.57477 63.9447 8.49877C63.8814 8.42277 63.799 8.38477 63.6977 8.38477H62.6717C62.5704 8.38477 62.4817 8.42277 62.4057 8.49877C62.3424 8.57477 62.3107 8.66344 62.3107 8.76477V18.9678H59.6507V8.99277C59.6507 7.32077 60.436 6.48477 62.0067 6.48477H64.3627C65.9334 6.48477 66.7187 7.32077 66.7187 8.99277V18.9678Z"/>
</mask>
<path d="M19.539 6.67477C21.1097 6.67477 21.895 7.51077 21.895 9.18277V16.4598C21.895 18.1318 21.1097 18.9678 19.539 18.9678H14.656V6.67477H19.539ZM19.235 16.7638V8.85977C19.235 8.75844 19.197 8.66977 19.121 8.59377C19.0577 8.51777 18.9754 8.47977 18.874 8.47977H17.316V17.1438H18.874C18.9754 17.1438 19.0577 17.1058 19.121 17.0298C19.197 16.9538 19.235 16.8651 19.235 16.7638ZM26.5377 13.9328V18.9678H23.8777V6.67477H28.6087C30.1794 6.67477 30.9647 7.51077 30.9647 9.18277V10.6078C30.9647 11.6211 30.6037 12.2671 29.8817 12.5458C30.515 12.7738 30.8317 13.2931 30.8317 14.1038V18.9678H28.1717V14.3128C28.1717 14.0594 28.0514 13.9328 27.8107 13.9328H26.5377ZM26.5377 8.47977V12.0708H27.9437C28.045 12.0708 28.1274 12.0328 28.1907 11.9568C28.2667 11.8808 28.3047 11.7921 28.3047 11.6908V8.85977C28.3047 8.75844 28.2667 8.66977 28.1907 8.59377C28.1274 8.51777 28.045 8.47977 27.9437 8.47977H26.5377ZM37.5556 6.48477C39.1263 6.48477 39.9116 7.32077 39.9116 8.99277V18.9678H37.2516V14.8448H35.3326V18.9678H32.6726V8.99277C32.6726 7.32077 33.458 6.48477 35.0286 6.48477H37.5556ZM35.3326 12.7928H37.2516V8.66977C37.2516 8.56844 37.2136 8.47977 37.1376 8.40377C37.0743 8.32777 36.992 8.28977 36.8906 8.28977H35.6936C35.5923 8.28977 35.5036 8.32777 35.4276 8.40377C35.3643 8.47977 35.3326 8.56844 35.3326 8.66977V12.7928ZM45.4853 14.0848V12.1278H49.0003V16.6498C49.0003 18.3218 48.215 19.1578 46.6443 19.1578H44.2503C42.6796 19.1578 41.8943 18.3218 41.8943 16.6498V8.99277C41.8943 7.32077 42.6796 6.48477 44.2503 6.48477H46.6443C48.215 6.48477 49.0003 7.32077 49.0003 8.99277V10.1518H46.4733V8.66977C46.4733 8.56844 46.4353 8.47977 46.3593 8.40377C46.296 8.32777 46.2136 8.28977 46.1123 8.28977H44.9153C44.814 8.28977 44.7253 8.32777 44.6493 8.40377C44.586 8.47977 44.5543 8.56844 44.5543 8.66977V16.9538C44.5543 17.0551 44.586 17.1438 44.6493 17.2198C44.7253 17.2958 44.814 17.3338 44.9153 17.3338H46.1123C46.2136 17.3338 46.296 17.2958 46.3593 17.2198C46.4353 17.1438 46.4733 17.0551 46.4733 16.9538V14.0848H45.4853ZM57.7056 8.99277V16.6498C57.7056 18.3218 56.9202 19.1578 55.3496 19.1578H52.8226C51.2519 19.1578 50.4666 18.3218 50.4666 16.6498V8.99277C50.4666 7.32077 51.2519 6.48477 52.8226 6.48477H55.3496C56.9202 6.48477 57.7056 7.32077 57.7056 8.99277ZM55.0456 16.9538V8.66977C55.0456 8.56844 55.0076 8.47977 54.9316 8.40377C54.8682 8.32777 54.7859 8.28977 54.6846 8.28977H53.4876C53.3862 8.28977 53.2976 8.32777 53.2216 8.40377C53.1582 8.47977 53.1266 8.56844 53.1266 8.66977V16.9538C53.1266 17.0551 53.1582 17.1438 53.2216 17.2198C53.2976 17.2958 53.3862 17.3338 53.4876 17.3338H54.6846C54.7859 17.3338 54.8682 17.2958 54.9316 17.2198C55.0076 17.1438 55.0456 17.0551 55.0456 16.9538ZM66.7187 18.9678H64.0587V8.76477C64.0587 8.66344 64.0207 8.57477 63.9447 8.49877C63.8814 8.42277 63.799 8.38477 63.6977 8.38477H62.6717C62.5704 8.38477 62.4817 8.42277 62.4057 8.49877C62.3424 8.57477 62.3107 8.66344 62.3107 8.76477V18.9678H59.6507V8.99277C59.6507 7.32077 60.436 6.48477 62.0067 6.48477H64.3627C65.9334 6.48477 66.7187 7.32077 66.7187 8.99277V18.9678Z" fill="white"/>
<path d="M14.656 18.9678H13.656V19.9678H14.656V18.9678ZM14.656 6.67477V5.67477H13.656V6.67477H14.656ZM19.121 8.59377L18.3528 9.23396L18.3818 9.2688L18.4139 9.30088L19.121 8.59377ZM17.316 8.47977V7.47977H16.316V8.47977H17.316ZM17.316 17.1438H16.316V18.1438H17.316V17.1438ZM19.121 17.0298L18.4139 16.3227L18.3818 16.3547L18.3528 16.3896L19.121 17.0298ZM19.539 6.67477V7.67477C20.1537 7.67477 20.4352 7.83536 20.5772 7.98645C20.7302 8.14929 20.895 8.48589 20.895 9.18277H21.895H22.895C22.895 8.20765 22.6672 7.29025 22.0349 6.6171C21.3915 5.93219 20.4951 5.67477 19.539 5.67477V6.67477ZM21.895 9.18277H20.895V16.4598H21.895H22.895V9.18277H21.895ZM21.895 16.4598H20.895C20.895 17.1567 20.7302 17.4933 20.5772 17.6561C20.4352 17.8072 20.1537 17.9678 19.539 17.9678V18.9678V19.9678C20.4951 19.9678 21.3915 19.7104 22.0349 19.0254C22.6672 18.3523 22.895 17.4349 22.895 16.4598H21.895ZM19.539 18.9678V17.9678H14.656V18.9678V19.9678H19.539V18.9678ZM14.656 18.9678H15.656V6.67477H14.656H13.656V18.9678H14.656ZM14.656 6.67477V7.67477H19.539V6.67477V5.67477H14.656V6.67477ZM19.235 16.7638H20.235V8.85977H19.235H18.235V16.7638H19.235ZM19.235 8.85977H20.235C20.235 8.47589 20.079 8.13758 19.8281 7.88667L19.121 8.59377L18.4139 9.30088C18.3722 9.25918 18.3239 9.19642 18.2874 9.11119C18.2504 9.02481 18.235 8.93757 18.235 8.85977H19.235ZM19.121 8.59377L19.8892 7.95359C19.6307 7.64328 19.2638 7.47977 18.874 7.47977V8.47977V9.47977C18.7971 9.47977 18.6976 9.46465 18.5927 9.41623C18.4871 9.36751 18.4074 9.2995 18.3528 9.23396L19.121 8.59377ZM18.874 8.47977V7.47977H17.316V8.47977V9.47977H18.874V8.47977ZM17.316 8.47977H16.316V17.1438H17.316H18.316V8.47977H17.316ZM17.316 17.1438V18.1438H18.874V17.1438V16.1438H17.316V17.1438ZM18.874 17.1438V18.1438C19.2638 18.1438 19.6307 17.9803 19.8892 17.67L19.121 17.0298L18.3528 16.3896C18.4074 16.324 18.4871 16.256 18.5927 16.2073C18.6976 16.1589 18.7971 16.1438 18.874 16.1438V17.1438ZM19.121 17.0298L19.8281 17.7369C20.079 17.486 20.235 17.1477 20.235 16.7638H19.235H18.235C18.235 16.686 18.2504 16.5987 18.2874 16.5124C18.3239 16.4271 18.3722 16.3644 18.4139 16.3227L19.121 17.0298ZM26.5377 13.9328V12.9328H25.5377V13.9328H26.5377ZM26.5377 18.9678V19.9678H27.5377V18.9678H26.5377ZM23.8777 18.9678H22.8777V19.9678H23.8777V18.9678ZM23.8777 6.67477V5.67477H22.8777V6.67477H23.8777ZM29.8817 12.5458L29.5216 11.6129L27.02 12.5784L29.543 13.4867L29.8817 12.5458ZM30.8317 18.9678V19.9678H31.8317V18.9678H30.8317ZM28.1717 18.9678H27.1717V19.9678H28.1717V18.9678ZM26.5377 8.47977V7.47977H25.5377V8.47977H26.5377ZM26.5377 12.0708H25.5377V13.0708H26.5377V12.0708ZM28.1907 11.9568L27.4836 11.2497L27.4515 11.2817L27.4225 11.3166L28.1907 11.9568ZM28.1907 8.59377L27.4225 9.23395L27.4515 9.2688L27.4836 9.30088L28.1907 8.59377ZM26.5377 13.9328H25.5377V18.9678H26.5377H27.5377V13.9328H26.5377ZM26.5377 18.9678V17.9678H23.8777V18.9678V19.9678H26.5377V18.9678ZM23.8777 18.9678H24.8777V6.67477H23.8777H22.8777V18.9678H23.8777ZM23.8777 6.67477V7.67477H28.6087V6.67477V5.67477H23.8777V6.67477ZM28.6087 6.67477V7.67477C29.2233 7.67477 29.5049 7.83536 29.6469 7.98645C29.7998 8.14929 29.9647 8.48589 29.9647 9.18277H30.9647H31.9647C31.9647 8.20765 31.7369 7.29025 31.1046 6.6171C30.4612 5.93219 29.5647 5.67477 28.6087 5.67477V6.67477ZM30.9647 9.18277H29.9647V10.6078H30.9647H31.9647V9.18277H30.9647ZM30.9647 10.6078H29.9647C29.9647 11.0039 29.8931 11.2355 29.821 11.3645C29.7598 11.4739 29.6758 11.5533 29.5216 11.6129L29.8817 12.5458L30.2418 13.4787C30.8096 13.2595 31.2671 12.8766 31.5669 12.3401C31.8559 11.823 31.9647 11.225 31.9647 10.6078H30.9647ZM29.8817 12.5458L29.543 13.4867C29.6694 13.5322 29.7136 13.5829 29.7404 13.6269C29.7763 13.6858 29.8317 13.8227 29.8317 14.1038H30.8317H31.8317C31.8317 13.5742 31.7288 13.0461 31.448 12.5857C31.1581 12.1103 30.7274 11.7874 30.2204 11.6049L29.8817 12.5458ZM30.8317 14.1038H29.8317V18.9678H30.8317H31.8317V14.1038H30.8317ZM30.8317 18.9678V17.9678H28.1717V18.9678V19.9678H30.8317V18.9678ZM28.1717 18.9678H29.1717V14.3128H28.1717H27.1717V18.9678H28.1717ZM28.1717 14.3128H29.1717C29.1717 14.0444 29.1089 13.6574 28.8065 13.339C28.4949 13.0111 28.0986 12.9328 27.8107 12.9328V13.9328V14.9328C27.7634 14.9328 27.5477 14.9178 27.3565 14.7165C27.1744 14.5249 27.1717 14.3278 27.1717 14.3128H28.1717ZM27.8107 13.9328V12.9328H26.5377V13.9328V14.9328H27.8107V13.9328ZM26.5377 8.47977H25.5377V12.0708H26.5377H27.5377V8.47977H26.5377ZM26.5377 12.0708V13.0708H27.9437V12.0708V11.0708H26.5377V12.0708ZM27.9437 12.0708V13.0708C28.3335 13.0708 28.7003 12.9073 28.9589 12.597L28.1907 11.9568L27.4225 11.3166C27.4771 11.251 27.5568 11.183 27.6624 11.1343C27.7673 11.0859 27.8668 11.0708 27.9437 11.0708V12.0708ZM28.1907 11.9568L28.8978 12.6639C29.1487 12.413 29.3047 12.0747 29.3047 11.6908H28.3047H27.3047C27.3047 11.613 27.32 11.5257 27.3571 11.4394C27.3936 11.3541 27.4419 11.2914 27.4836 11.2497L28.1907 11.9568ZM28.3047 11.6908H29.3047V8.85977H28.3047H27.3047V11.6908H28.3047ZM28.3047 8.85977H29.3047C29.3047 8.47589 29.1487 8.13758 28.8978 7.88666L28.1907 8.59377L27.4836 9.30088C27.4419 9.25918 27.3936 9.19642 27.3571 9.11119C27.32 9.02481 27.3047 8.93757 27.3047 8.85977H28.3047ZM28.1907 8.59377L28.9589 7.95359C28.7003 7.64328 28.3335 7.47977 27.9437 7.47977V8.47977V9.47977C27.8668 9.47977 27.7673 9.46465 27.6624 9.41623C27.5568 9.36751 27.4771 9.2995 27.4225 9.23395L28.1907 8.59377ZM27.9437 8.47977V7.47977H26.5377V8.47977V9.47977H27.9437V8.47977ZM39.9116 18.9678V19.9678H40.9116V18.9678H39.9116ZM37.2516 18.9678H36.2516V19.9678H37.2516V18.9678ZM37.2516 14.8448H38.2516V13.8448H37.2516V14.8448ZM35.3326 14.8448V13.8448H34.3326V14.8448H35.3326ZM35.3326 18.9678V19.9678H36.3326V18.9678H35.3326ZM32.6726 18.9678H31.6726V19.9678H32.6726V18.9678ZM35.3326 12.7928H34.3326V13.7928H35.3326V12.7928ZM37.2516 12.7928V13.7928H38.2516V12.7928H37.2516ZM37.1376 8.40377L36.3694 9.04396L36.3984 9.0788L36.4305 9.11088L37.1376 8.40377ZM35.4276 8.40377L34.7205 7.69666L34.6884 7.72874L34.6594 7.76359L35.4276 8.40377ZM37.5556 6.48477V7.48477C38.1703 7.48477 38.4518 7.64536 38.5938 7.79645C38.7468 7.95929 38.9116 8.29589 38.9116 8.99277H39.9116H40.9116C40.9116 8.01765 40.6838 7.10025 40.0515 6.4271C39.4081 5.74219 38.5117 5.48477 37.5556 5.48477V6.48477ZM39.9116 8.99277H38.9116V18.9678H39.9116H40.9116V8.99277H39.9116ZM39.9116 18.9678V17.9678H37.2516V18.9678V19.9678H39.9116V18.9678ZM37.2516 18.9678H38.2516V14.8448H37.2516H36.2516V18.9678H37.2516ZM37.2516 14.8448V13.8448H35.3326V14.8448V15.8448H37.2516V14.8448ZM35.3326 14.8448H34.3326V18.9678H35.3326H36.3326V14.8448H35.3326ZM35.3326 18.9678V17.9678H32.6726V18.9678V19.9678H35.3326V18.9678ZM32.6726 18.9678H33.6726V8.99277H32.6726H31.6726V18.9678H32.6726ZM32.6726 8.99277H33.6726C33.6726 8.29589 33.8375 7.95929 33.9905 7.79645C34.1324 7.64536 34.414 7.48477 35.0286 7.48477V6.48477V5.48477C34.0726 5.48477 33.1762 5.74219 32.5328 6.4271C31.9004 7.10025 31.6726 8.01765 31.6726 8.99277H32.6726ZM35.0286 6.48477V7.48477H37.5556V6.48477V5.48477H35.0286V6.48477ZM35.3326 12.7928V13.7928H37.2516V12.7928V11.7928H35.3326V12.7928ZM37.2516 12.7928H38.2516V8.66977H37.2516H36.2516V12.7928H37.2516ZM37.2516 8.66977H38.2516C38.2516 8.28589 38.0956 7.94758 37.8447 7.69667L37.1376 8.40377L36.4305 9.11088C36.3888 9.06917 36.3405 9.00642 36.304 8.92119C36.267 8.83481 36.2516 8.74757 36.2516 8.66977H37.2516ZM37.1376 8.40377L37.9058 7.76359C37.6473 7.45327 37.2804 7.28977 36.8906 7.28977V8.28977V9.28977C36.8137 9.28977 36.7142 9.27465 36.6093 9.22623C36.5038 9.17751 36.424 9.10951 36.3694 9.04396L37.1376 8.40377ZM36.8906 8.28977V7.28977H35.6936V8.28977V9.28977H36.8906V8.28977ZM35.6936 8.28977V7.28977C35.3097 7.28977 34.9714 7.44575 34.7205 7.69666L35.4276 8.40377L36.1347 9.11088C36.093 9.15258 36.0303 9.20089 35.945 9.23742C35.8587 9.27444 35.7714 9.28977 35.6936 9.28977V8.28977ZM35.4276 8.40377L34.6594 7.76359C34.4424 8.02401 34.3326 8.3407 34.3326 8.66977H35.3326H36.3326C36.3326 8.72496 36.3237 8.79204 36.2981 8.86361C36.2724 8.93551 36.2356 8.99629 36.1959 9.04395L35.4276 8.40377ZM35.3326 8.66977H34.3326V12.7928H35.3326H36.3326V8.66977H35.3326ZM45.4853 14.0848H44.4853V15.0848H45.4853V14.0848ZM45.4853 12.1278V11.1278H44.4853V12.1278H45.4853ZM49.0003 12.1278H50.0003V11.1278H49.0003V12.1278ZM49.0003 10.1518V11.1518H50.0003V10.1518H49.0003ZM46.4733 10.1518H45.4733V11.1518H46.4733V10.1518ZM46.3593 8.40377L45.5911 9.04396L45.6201 9.0788L45.6522 9.11088L46.3593 8.40377ZM44.6493 8.40377L43.9422 7.69666L43.9101 7.72874L43.8811 7.76359L44.6493 8.40377ZM44.6493 17.2198L43.8811 17.86L43.9101 17.8948L43.9422 17.9269L44.6493 17.2198ZM46.3593 17.2198L45.6522 16.5127L45.6201 16.5447L45.5911 16.5796L46.3593 17.2198ZM46.4733 14.0848H47.4733V13.0848H46.4733V14.0848ZM45.4853 14.0848H46.4853V12.1278H45.4853H44.4853V14.0848H45.4853ZM45.4853 12.1278V13.1278H49.0003V12.1278V11.1278H45.4853V12.1278ZM49.0003 12.1278H48.0003V16.6498H49.0003H50.0003V12.1278H49.0003ZM49.0003 16.6498H48.0003C48.0003 17.3467 47.8354 17.6833 47.6825 17.8461C47.5405 17.9972 47.2589 18.1578 46.6443 18.1578V19.1578V20.1578C47.6003 20.1578 48.4968 19.9004 49.1402 19.2154C49.7725 18.5423 50.0003 17.6249 50.0003 16.6498H49.0003ZM46.6443 19.1578V18.1578H44.2503V19.1578V20.1578H46.6443V19.1578ZM44.2503 19.1578V18.1578C43.6357 18.1578 43.3541 17.9972 43.2122 17.8461C43.0592 17.6833 42.8943 17.3467 42.8943 16.6498H41.8943H40.8943C40.8943 17.6249 41.1221 18.5423 41.7545 19.2154C42.3979 19.9004 43.2943 20.1578 44.2503 20.1578V19.1578ZM41.8943 16.6498H42.8943V8.99277H41.8943H40.8943V16.6498H41.8943ZM41.8943 8.99277H42.8943C42.8943 8.29589 43.0592 7.95929 43.2122 7.79645C43.3541 7.64536 43.6357 7.48477 44.2503 7.48477V6.48477V5.48477C43.2943 5.48477 42.3979 5.74219 41.7545 6.4271C41.1221 7.10025 40.8943 8.01765 40.8943 8.99277H41.8943ZM44.2503 6.48477V7.48477H46.6443V6.48477V5.48477H44.2503V6.48477ZM46.6443 6.48477V7.48477C47.2589 7.48477 47.5405 7.64536 47.6825 7.79645C47.8354 7.95929 48.0003 8.29589 48.0003 8.99277H49.0003H50.0003C50.0003 8.01765 49.7725 7.10025 49.1402 6.4271C48.4968 5.74219 47.6003 5.48477 46.6443 5.48477V6.48477ZM49.0003 8.99277H48.0003V10.1518H49.0003H50.0003V8.99277H49.0003ZM49.0003 10.1518V9.15177H46.4733V10.1518V11.1518H49.0003V10.1518ZM46.4733 10.1518H47.4733V8.66977H46.4733H45.4733V10.1518H46.4733ZM46.4733 8.66977H47.4733C47.4733 8.28589 47.3173 7.94758 47.0664 7.69667L46.3593 8.40377L45.6522 9.11088C45.6105 9.06917 45.5622 9.00642 45.5257 8.92119C45.4886 8.83481 45.4733 8.74757 45.4733 8.66977H46.4733ZM46.3593 8.40377L47.1275 7.76359C46.8689 7.45327 46.5021 7.28977 46.1123 7.28977V8.28977V9.28977C46.0354 9.28977 45.9359 9.27465 45.831 9.22623C45.7254 9.17751 45.6457 9.10951 45.5911 9.04396L46.3593 8.40377ZM46.1123 8.28977V7.28977H44.9153V8.28977V9.28977H46.1123V8.28977ZM44.9153 8.28977V7.28977C44.5314 7.28977 44.1931 7.44575 43.9422 7.69666L44.6493 8.40377L45.3564 9.11088C45.3147 9.15258 45.252 9.20089 45.1667 9.23742C45.0803 9.27444 44.9931 9.28977 44.9153 9.28977V8.28977ZM44.6493 8.40377L43.8811 7.76359C43.6641 8.02401 43.5543 8.3407 43.5543 8.66977H44.5543H45.5543C45.5543 8.72496 45.5454 8.79204 45.5198 8.86361C45.4941 8.93551 45.4573 8.99629 45.4175 9.04395L44.6493 8.40377ZM44.5543 8.66977H43.5543V16.9538H44.5543H45.5543V8.66977H44.5543ZM44.5543 16.9538H43.5543C43.5543 17.2828 43.6641 17.5995 43.8811 17.86L44.6493 17.2198L45.4175 16.5796C45.4573 16.6273 45.4941 16.688 45.5198 16.7599C45.5454 16.8315 45.5543 16.8986 45.5543 16.9538H44.5543ZM44.6493 17.2198L43.9422 17.9269C44.1931 18.1778 44.5314 18.3338 44.9153 18.3338V17.3338V16.3338C44.9931 16.3338 45.0803 16.3491 45.1667 16.3861C45.252 16.4227 45.3147 16.471 45.3564 16.5127L44.6493 17.2198ZM44.9153 17.3338V18.3338H46.1123V17.3338V16.3338H44.9153V17.3338ZM46.1123 17.3338V18.3338C46.5021 18.3338 46.8689 18.1703 47.1275 17.86L46.3593 17.2198L45.5911 16.5796C45.6457 16.514 45.7254 16.446 45.831 16.3973C45.9359 16.3489 46.0354 16.3338 46.1123 16.3338V17.3338ZM46.3593 17.2198L47.0664 17.9269C47.3173 17.676 47.4733 17.3377 47.4733 16.9538H46.4733H45.4733C45.4733 16.876 45.4886 16.7887 45.5257 16.7024C45.5622 16.6171 45.6105 16.5544 45.6522 16.5127L46.3593 17.2198ZM46.4733 16.9538H47.4733V14.0848H46.4733H45.4733V16.9538H46.4733ZM46.4733 14.0848V13.0848H45.4853V14.0848V15.0848H46.4733V14.0848ZM54.9316 8.40377L54.1634 9.04396L54.1924 9.0788L54.2245 9.11088L54.9316 8.40377ZM53.2216 8.40377L52.5145 7.69666L52.4824 7.72874L52.4534 7.76359L53.2216 8.40377ZM53.2216 17.2198L52.4534 17.86L52.4824 17.8948L52.5145 17.9269L53.2216 17.2198ZM54.9316 17.2198L54.2245 16.5127L54.1924 16.5447L54.1634 16.5796L54.9316 17.2198ZM57.7056 8.99277H56.7056V16.6498H57.7056H58.7056V8.99277H57.7056ZM57.7056 16.6498H56.7056C56.7056 17.3467 56.5407 17.6833 56.3877 17.8461C56.2458 17.9972 55.9642 18.1578 55.3496 18.1578V19.1578V20.1578C56.3056 20.1578 57.202 19.9004 57.8454 19.2154C58.4778 18.5423 58.7056 17.6249 58.7056 16.6498H57.7056ZM55.3496 19.1578V18.1578H52.8226V19.1578V20.1578H55.3496V19.1578ZM52.8226 19.1578V18.1578C52.2079 18.1578 51.9264 17.9972 51.7844 17.8461C51.6314 17.6833 51.4666 17.3467 51.4666 16.6498H50.4666H49.4666C49.4666 17.6249 49.6944 18.5423 50.3267 19.2154C50.9701 19.9004 51.8666 20.1578 52.8226 20.1578V19.1578ZM50.4666 16.6498H51.4666V8.99277H50.4666H49.4666V16.6498H50.4666ZM50.4666 8.99277H51.4666C51.4666 8.29589 51.6314 7.95929 51.7844 7.79645C51.9264 7.64536 52.2079 7.48477 52.8226 7.48477V6.48477V5.48477C51.8666 5.48477 50.9701 5.74219 50.3267 6.4271C49.6944 7.10025 49.4666 8.01765 49.4666 8.99277H50.4666ZM52.8226 6.48477V7.48477H55.3496V6.48477V5.48477H52.8226V6.48477ZM55.3496 6.48477V7.48477C55.9642 7.48477 56.2458 7.64536 56.3877 7.79645C56.5407 7.95929 56.7056 8.29589 56.7056 8.99277H57.7056H58.7056C58.7056 8.01765 58.4778 7.10025 57.8454 6.4271C57.202 5.74219 56.3056 5.48477 55.3496 5.48477V6.48477ZM55.0456 16.9538H56.0456V8.66977H55.0456H54.0456V16.9538H55.0456ZM55.0456 8.66977H56.0456C56.0456 8.28589 55.8896 7.94758 55.6387 7.69667L54.9316 8.40377L54.2245 9.11088C54.1828 9.06917 54.1345 9.00642 54.0979 8.92119C54.0609 8.83481 54.0456 8.74757 54.0456 8.66977H55.0456ZM54.9316 8.40377L55.6998 7.76359C55.4412 7.45327 55.0744 7.28977 54.6846 7.28977V8.28977V9.28977C54.6076 9.28977 54.5082 9.27465 54.4033 9.22623C54.2977 9.17751 54.218 9.10951 54.1634 9.04396L54.9316 8.40377ZM54.6846 8.28977V7.28977H53.4876V8.28977V9.28977H54.6846V8.28977ZM53.4876 8.28977V7.28977C53.1037 7.28977 52.7654 7.44575 52.5145 7.69666L53.2216 8.40377L53.9287 9.11088C53.887 9.15258 53.8242 9.20089 53.739 9.23742C53.6526 9.27444 53.5654 9.28977 53.4876 9.28977V8.28977ZM53.2216 8.40377L52.4534 7.76359C52.2363 8.02401 52.1266 8.3407 52.1266 8.66977H53.1266H54.1266C54.1266 8.72496 54.1176 8.79204 54.0921 8.86361C54.0664 8.93551 54.0295 8.99629 53.9898 9.04395L53.2216 8.40377ZM53.1266 8.66977H52.1266V16.9538H53.1266H54.1266V8.66977H53.1266ZM53.1266 16.9538H52.1266C52.1266 17.2828 52.2363 17.5995 52.4534 17.86L53.2216 17.2198L53.9898 16.5796C54.0295 16.6273 54.0664 16.688 54.0921 16.7599C54.1176 16.8315 54.1266 16.8986 54.1266 16.9538H53.1266ZM53.2216 17.2198L52.5145 17.9269C52.7654 18.1778 53.1037 18.3338 53.4876 18.3338V17.3338V16.3338C53.5654 16.3338 53.6526 16.3491 53.739 16.3861C53.8242 16.4227 53.887 16.471 53.9287 16.5127L53.2216 17.2198ZM53.4876 17.3338V18.3338H54.6846V17.3338V16.3338H53.4876V17.3338ZM54.6846 17.3338V18.3338C55.0744 18.3338 55.4412 18.1703 55.6998 17.86L54.9316 17.2198L54.1634 16.5796C54.218 16.514 54.2977 16.446 54.4033 16.3973C54.5082 16.3489 54.6076 16.3338 54.6846 16.3338V17.3338ZM54.9316 17.2198L55.6387 17.9269C55.8896 17.676 56.0456 17.3377 56.0456 16.9538H55.0456H54.0456C54.0456 16.876 54.0609 16.7887 54.0979 16.7024C54.1345 16.6171 54.1828 16.5544 54.2245 16.5127L54.9316 17.2198ZM66.7187 18.9678V19.9678H67.7187V18.9678H66.7187ZM64.0587 18.9678H63.0587V19.9678H64.0587V18.9678ZM63.9447 8.49877L63.1765 9.13896L63.2055 9.1738L63.2376 9.20588L63.9447 8.49877ZM62.4057 8.49877L61.6986 7.79167L61.6665 7.82374L61.6375 7.85859L62.4057 8.49877ZM62.3107 18.9678V19.9678H63.3107V18.9678H62.3107ZM59.6507 18.9678H58.6507V19.9678H59.6507V18.9678ZM66.7187 18.9678V17.9678H64.0587V18.9678V19.9678H66.7187V18.9678ZM64.0587 18.9678H65.0587V8.76477H64.0587H63.0587V18.9678H64.0587ZM64.0587 8.76477H65.0587C65.0587 8.38089 64.9027 8.04258 64.6518 7.79167L63.9447 8.49877L63.2376 9.20588C63.1959 9.16418 63.1476 9.10142 63.1111 9.01619C63.074 8.92981 63.0587 8.84258 63.0587 8.76477H64.0587ZM63.9447 8.49877L64.7129 7.85859C64.4543 7.54828 64.0875 7.38477 63.6977 7.38477V8.38477V9.38477C63.6208 9.38477 63.5213 9.36965 63.4164 9.32123C63.3108 9.2725 63.2311 9.2045 63.1765 9.13896L63.9447 8.49877ZM63.6977 8.38477V7.38477H62.6717V8.38477V9.38477H63.6977V8.38477ZM62.6717 8.38477V7.38477C62.2878 7.38477 61.9495 7.54076 61.6986 7.79167L62.4057 8.49877L63.1128 9.20588C63.0711 9.24758 63.0084 9.29589 62.9231 9.33242C62.8367 9.36944 62.7495 9.38477 62.6717 9.38477V8.38477ZM62.4057 8.49877L61.6375 7.85859C61.4205 8.11901 61.3107 8.4357 61.3107 8.76477H62.3107H63.3107C63.3107 8.81996 63.3018 8.88704 63.2762 8.95861C63.2505 9.03051 63.2136 9.09129 63.1739 9.13896L62.4057 8.49877ZM62.3107 8.76477H61.3107V18.9678H62.3107H63.3107V8.76477H62.3107ZM62.3107 18.9678V17.9678H59.6507V18.9678V19.9678H62.3107V18.9678ZM59.6507 18.9678H60.6507V8.99277H59.6507H58.6507V18.9678H59.6507ZM59.6507 8.99277H60.6507C60.6507 8.29589 60.8156 7.95929 60.9685 7.79645C61.1105 7.64536 61.3921 7.48477 62.0067 7.48477V6.48477V5.48477C61.0507 5.48477 60.1543 5.74219 59.5109 6.4271C58.8785 7.10025 58.6507 8.01765 58.6507 8.99277H59.6507ZM62.0067 6.48477V7.48477H64.3627V6.48477V5.48477H62.0067V6.48477ZM64.3627 6.48477V7.48477C64.9773 7.48477 65.2589 7.64536 65.4009 7.79645C65.5538 7.95929 65.7187 8.29589 65.7187 8.99277H66.7187H67.7187C67.7187 8.01765 67.4909 7.10025 66.8586 6.4271C66.2152 5.74219 65.3187 5.48477 64.3627 5.48477V6.48477ZM66.7187 8.99277H65.7187V18.9678H66.7187H67.7187V8.99277H66.7187Z" fill="black" mask="url(#path-3-outside-1_216_160)"/>
<defs>
<filter id="filter0_i_216_160" x="-2" y="-2.99988" width="82.8926" height="29.9641" filterUnits="userSpaceOnUse" color-interpolation-filters="sRGB">
<feFlood flood-opacity="0" result="BackgroundImageFix"/>
<feBlend mode="normal" in="SourceGraphic" in2="BackgroundImageFix" result="shape"/>
<feColorMatrix in="SourceAlpha" type="matrix" values="0 0 0 0 0 0 0 0 0 0 0 0 0 0 0 0 0 0 127 0" result="hardAlpha"/>
<feOffset dx="-2" dy="-3"/>
<feGaussianBlur stdDeviation="2"/>
<feComposite in2="hardAlpha" operator="arithmetic" k2="-1" k3="1"/>
<feColorMatrix type="matrix" values="0 0 0 0 0.00961538 0 0 0 0 0.00961538 0 0 0 0 0.00961538 0 0 0 0.25 0"/>
<feBlend mode="normal" in2="shape" result="effect1_innerShadow_216_160"/>
</filter>
</defs>
</svg>
