<svg width="81" height="27" viewBox="0 0 81 27" fill="none" xmlns="http://www.w3.org/2000/svg">
<g filter="url(#filter0_i_216_131)">
<rect width="80.8925" height="26.9642" rx="12" fill="#FFEA00"/>
</g>
<rect x="0.5" y="0.5" width="79.8925" height="25.9642" rx="11.5" stroke="black"/>
<mask id="path-3-outside-1_216_131" maskUnits="userSpaceOnUse" x="10" y="5.00012" width="61" height="16" fill="black">
<rect fill="white" x="10" y="5.00012" width="61" height="16"/>
<path d="M14.1539 16.7961H17.0989V19.0001H11.4939V6.70712H17.0989V8.87312H14.1539V11.7611H16.9089V13.8511H14.1539V16.7961ZM21.2975 16.7581H24.2045V19.0001H18.6375V6.70712H21.2975V16.7581ZM28.1256 16.7961H31.0706V19.0001H25.4656V6.70712H31.0706V8.87312H28.1256V11.7611H30.8806V13.8511H28.1256V16.7961ZM37.1882 16.9861V15.0861H39.7152V16.6821C39.7152 18.3541 38.9298 19.1901 37.3592 19.1901H34.9652C33.3945 19.1901 32.6092 18.3541 32.6092 16.6821V9.02512C32.6092 7.35312 33.3945 6.51712 34.9652 6.51712H37.3592C38.9298 6.51712 39.7152 7.35312 39.7152 9.02512V10.1841H37.1882V8.70212C37.1882 8.60079 37.1502 8.51212 37.0742 8.43612C37.0108 8.36012 36.9285 8.32212 36.8272 8.32212H35.6302C35.5288 8.32212 35.4402 8.36012 35.3642 8.43612C35.3008 8.51212 35.2692 8.60079 35.2692 8.70212V16.9861C35.2692 17.0875 35.3008 17.1761 35.3642 17.2521C35.4402 17.3281 35.5288 17.3661 35.6302 17.3661H36.8272C36.9285 17.3661 37.0108 17.3281 37.0742 17.2521C37.1502 17.1761 37.1882 17.0875 37.1882 16.9861ZM40.6083 8.96812V6.70712H47.2583V8.96812H45.2633V19.0001H42.6033V8.96812H40.6083ZM51.1334 13.9651V19.0001H48.4734V6.70712H53.2044C54.7751 6.70712 55.5604 7.54312 55.5604 9.21512V10.6401C55.5604 11.6535 55.1994 12.2995 54.4774 12.5781C55.1107 12.8061 55.4274 13.3255 55.4274 14.1361V19.0001H52.7674V14.3451C52.7674 14.0918 52.6471 13.9651 52.4064 13.9651H51.1334ZM51.1334 8.51212V12.1031H52.5394C52.6407 12.1031 52.7231 12.0651 52.7864 11.9891C52.8624 11.9131 52.9004 11.8245 52.9004 11.7231V8.89212C52.9004 8.79079 52.8624 8.70212 52.7864 8.62612C52.7231 8.55012 52.6407 8.51212 52.5394 8.51212H51.1334ZM59.9283 6.70712V19.0001H57.2683V6.70712H59.9283ZM66.486 16.9861V15.0861H69.013V16.6821C69.013 18.3541 68.2277 19.1901 66.657 19.1901H64.263C62.6923 19.1901 61.907 18.3541 61.907 16.6821V9.02512C61.907 7.35312 62.6923 6.51712 64.263 6.51712H66.657C68.2277 6.51712 69.013 7.35312 69.013 9.02512V10.1841H66.486V8.70212C66.486 8.60079 66.448 8.51212 66.372 8.43612C66.3087 8.36012 66.2263 8.32212 66.125 8.32212H64.928C64.8267 8.32212 64.738 8.36012 64.662 8.43612C64.5987 8.51212 64.567 8.60079 64.567 8.70212V16.9861C64.567 17.0875 64.5987 17.1761 64.662 17.2521C64.738 17.3281 64.8267 17.3661 64.928 17.3661H66.125C66.2263 17.3661 66.3087 17.3281 66.372 17.2521C66.448 17.1761 66.486 17.0875 66.486 16.9861Z"/>
</mask>
<path d="M14.1539 16.7961H17.0989V19.0001H11.4939V6.70712H17.0989V8.87312H14.1539V11.7611H16.9089V13.8511H14.1539V16.7961ZM21.2975 16.7581H24.2045V19.0001H18.6375V6.70712H21.2975V16.7581ZM28.1256 16.7961H31.0706V19.0001H25.4656V6.70712H31.0706V8.87312H28.1256V11.7611H30.8806V13.8511H28.1256V16.7961ZM37.1882 16.9861V15.0861H39.7152V16.6821C39.7152 18.3541 38.9298 19.1901 37.3592 19.1901H34.9652C33.3945 19.1901 32.6092 18.3541 32.6092 16.6821V9.02512C32.6092 7.35312 33.3945 6.51712 34.9652 6.51712H37.3592C38.9298 6.51712 39.7152 7.35312 39.7152 9.02512V10.1841H37.1882V8.70212C37.1882 8.60079 37.1502 8.51212 37.0742 8.43612C37.0108 8.36012 36.9285 8.32212 36.8272 8.32212H35.6302C35.5288 8.32212 35.4402 8.36012 35.3642 8.43612C35.3008 8.51212 35.2692 8.60079 35.2692 8.70212V16.9861C35.2692 17.0875 35.3008 17.1761 35.3642 17.2521C35.4402 17.3281 35.5288 17.3661 35.6302 17.3661H36.8272C36.9285 17.3661 37.0108 17.3281 37.0742 17.2521C37.1502 17.1761 37.1882 17.0875 37.1882 16.9861ZM40.6083 8.96812V6.70712H47.2583V8.96812H45.2633V19.0001H42.6033V8.96812H40.6083ZM51.1334 13.9651V19.0001H48.4734V6.70712H53.2044C54.7751 6.70712 55.5604 7.54312 55.5604 9.21512V10.6401C55.5604 11.6535 55.1994 12.2995 54.4774 12.5781C55.1107 12.8061 55.4274 13.3255 55.4274 14.1361V19.0001H52.7674V14.3451C52.7674 14.0918 52.6471 13.9651 52.4064 13.9651H51.1334ZM51.1334 8.51212V12.1031H52.5394C52.6407 12.1031 52.7231 12.0651 52.7864 11.9891C52.8624 11.9131 52.9004 11.8245 52.9004 11.7231V8.89212C52.9004 8.79079 52.8624 8.70212 52.7864 8.62612C52.7231 8.55012 52.6407 8.51212 52.5394 8.51212H51.1334ZM59.9283 6.70712V19.0001H57.2683V6.70712H59.9283ZM66.486 16.9861V15.0861H69.013V16.6821C69.013 18.3541 68.2277 19.1901 66.657 19.1901H64.263C62.6923 19.1901 61.907 18.3541 61.907 16.6821V9.02512C61.907 7.35312 62.6923 6.51712 64.263 6.51712H66.657C68.2277 6.51712 69.013 7.35312 69.013 9.02512V10.1841H66.486V8.70212C66.486 8.60079 66.448 8.51212 66.372 8.43612C66.3087 8.36012 66.2263 8.32212 66.125 8.32212H64.928C64.8267 8.32212 64.738 8.36012 64.662 8.43612C64.5987 8.51212 64.567 8.60079 64.567 8.70212V16.9861C64.567 17.0875 64.5987 17.1761 64.662 17.2521C64.738 17.3281 64.8267 17.3661 64.928 17.3661H66.125C66.2263 17.3661 66.3087 17.3281 66.372 17.2521C66.448 17.1761 66.486 17.0875 66.486 16.9861Z" fill="white"/>
<path d="M14.1539 16.7961H13.1539V17.7961H14.1539V16.7961ZM17.0989 16.7961H18.0989V15.7961H17.0989V16.7961ZM17.0989 19.0001V20.0001H18.0989V19.0001H17.0989ZM11.4939 19.0001H10.4939V20.0001H11.4939V19.0001ZM11.4939 6.70712V5.70712H10.4939V6.70712H11.4939ZM17.0989 6.70712H18.0989V5.70712H17.0989V6.70712ZM17.0989 8.87312V9.87312H18.0989V8.87312H17.0989ZM14.1539 8.87312V7.87312H13.1539V8.87312H14.1539ZM14.1539 11.7611H13.1539V12.7611H14.1539V11.7611ZM16.9089 11.7611H17.9089V10.7611H16.9089V11.7611ZM16.9089 13.8511V14.8511H17.9089V13.8511H16.9089ZM14.1539 13.8511V12.8511H13.1539V13.8511H14.1539ZM14.1539 16.7961V17.7961H17.0989V16.7961V15.7961H14.1539V16.7961ZM17.0989 16.7961H16.0989V19.0001H17.0989H18.0989V16.7961H17.0989ZM17.0989 19.0001V18.0001H11.4939V19.0001V20.0001H17.0989V19.0001ZM11.4939 19.0001H12.4939V6.70712H11.4939H10.4939V19.0001H11.4939ZM11.4939 6.70712V7.70712H17.0989V6.70712V5.70712H11.4939V6.70712ZM17.0989 6.70712H16.0989V8.87312H17.0989H18.0989V6.70712H17.0989ZM17.0989 8.87312V7.87312H14.1539V8.87312V9.87312H17.0989V8.87312ZM14.1539 8.87312H13.1539V11.7611H14.1539H15.1539V8.87312H14.1539ZM14.1539 11.7611V12.7611H16.9089V11.7611V10.7611H14.1539V11.7611ZM16.9089 11.7611H15.9089V13.8511H16.9089H17.9089V11.7611H16.9089ZM16.9089 13.8511V12.8511H14.1539V13.8511V14.8511H16.9089V13.8511ZM14.1539 13.8511H13.1539V16.7961H14.1539H15.1539V13.8511H14.1539ZM21.2975 16.7581H20.2975V17.7581H21.2975V16.7581ZM24.2045 16.7581H25.2045V15.7581H24.2045V16.7581ZM24.2045 19.0001V20.0001H25.2045V19.0001H24.2045ZM18.6375 19.0001H17.6375V20.0001H18.6375V19.0001ZM18.6375 6.70712V5.70712H17.6375V6.70712H18.6375ZM21.2975 6.70712H22.2975V5.70712H21.2975V6.70712ZM21.2975 16.7581V17.7581H24.2045V16.7581V15.7581H21.2975V16.7581ZM24.2045 16.7581H23.2045V19.0001H24.2045H25.2045V16.7581H24.2045ZM24.2045 19.0001V18.0001H18.6375V19.0001V20.0001H24.2045V19.0001ZM18.6375 19.0001H19.6375V6.70712H18.6375H17.6375V19.0001H18.6375ZM18.6375 6.70712V7.70712H21.2975V6.70712V5.70712H18.6375V6.70712ZM21.2975 6.70712H20.2975V16.7581H21.2975H22.2975V6.70712H21.2975ZM28.1256 16.7961H27.1256V17.7961H28.1256V16.7961ZM31.0706 16.7961H32.0706V15.7961H31.0706V16.7961ZM31.0706 19.0001V20.0001H32.0706V19.0001H31.0706ZM25.4656 19.0001H24.4656V20.0001H25.4656V19.0001ZM25.4656 6.70712V5.70712H24.4656V6.70712H25.4656ZM31.0706 6.70712H32.0706V5.70712H31.0706V6.70712ZM31.0706 8.87312V9.87312H32.0706V8.87312H31.0706ZM28.1256 8.87312V7.87312H27.1256V8.87312H28.1256ZM28.1256 11.7611H27.1256V12.7611H28.1256V11.7611ZM30.8806 11.7611H31.8806V10.7611H30.8806V11.7611ZM30.8806 13.8511V14.8511H31.8806V13.8511H30.8806ZM28.1256 13.8511V12.8511H27.1256V13.8511H28.1256ZM28.1256 16.7961V17.7961H31.0706V16.7961V15.7961H28.1256V16.7961ZM31.0706 16.7961H30.0706V19.0001H31.0706H32.0706V16.7961H31.0706ZM31.0706 19.0001V18.0001H25.4656V19.0001V20.0001H31.0706V19.0001ZM25.4656 19.0001H26.4656V6.70712H25.4656H24.4656V19.0001H25.4656ZM25.4656 6.70712V7.70712H31.0706V6.70712V5.70712H25.4656V6.70712ZM31.0706 6.70712H30.0706V8.87312H31.0706H32.0706V6.70712H31.0706ZM31.0706 8.87312V7.87312H28.1256V8.87312V9.87312H31.0706V8.87312ZM28.1256 8.87312H27.1256V11.7611H28.1256H29.1256V8.87312H28.1256ZM28.1256 11.7611V12.7611H30.8806V11.7611V10.7611H28.1256V11.7611ZM30.8806 11.7611H29.8806V13.8511H30.8806H31.8806V11.7611H30.8806ZM30.8806 13.8511V12.8511H28.1256V13.8511V14.8511H30.8806V13.8511ZM28.1256 13.8511H27.1256V16.7961H28.1256H29.1256V13.8511H28.1256ZM37.1882 15.0861V14.0861H36.1882V15.0861H37.1882ZM39.7152 15.0861H40.7152V14.0861H39.7152V15.0861ZM39.7152 10.1841V11.1841H40.7152V10.1841H39.7152ZM37.1882 10.1841H36.1882V11.1841H37.1882V10.1841ZM37.0742 8.43612L36.3059 9.07631L36.335 9.11115L36.367 9.14322L37.0742 8.43612ZM35.3642 8.43612L34.657 7.72901L34.625 7.76109L34.5959 7.79594L35.3642 8.43612ZM35.3642 17.2521L34.5959 17.8923L34.625 17.9272L34.657 17.9592L35.3642 17.2521ZM37.0742 17.2521L36.367 16.545L36.335 16.5771L36.3059 16.6119L37.0742 17.2521ZM37.1882 16.9861H38.1882V15.0861H37.1882H36.1882V16.9861H37.1882ZM37.1882 15.0861V16.0861H39.7152V15.0861V14.0861H37.1882V15.0861ZM39.7152 15.0861H38.7152V16.6821H39.7152H40.7152V15.0861H39.7152ZM39.7152 16.6821H38.7152C38.7152 17.379 38.5503 17.7156 38.3973 17.8784C38.2554 18.0295 37.9738 18.1901 37.3592 18.1901V19.1901V20.1901C38.3152 20.1901 39.2116 19.9327 39.855 19.2478C40.4874 18.5746 40.7152 17.6572 40.7152 16.6821H39.7152ZM37.3592 19.1901V18.1901H34.9652V19.1901V20.1901H37.3592V19.1901ZM34.9652 19.1901V18.1901C34.3505 18.1901 34.0689 18.0295 33.927 17.8784C33.774 17.7156 33.6092 17.379 33.6092 16.6821H32.6092H31.6092C31.6092 17.6572 31.8369 18.5746 32.4693 19.2478C33.1127 19.9327 34.0091 20.1901 34.9652 20.1901V19.1901ZM32.6092 16.6821H33.6092V9.02512H32.6092H31.6092V16.6821H32.6092ZM32.6092 9.02512H33.6092C33.6092 8.32824 33.774 7.99164 33.927 7.8288C34.0689 7.6777 34.3505 7.51712 34.9652 7.51712V6.51712V5.51712C34.0091 5.51712 33.1127 5.77454 32.4693 6.45945C31.8369 7.1326 31.6092 8.05 31.6092 9.02512H32.6092ZM34.9652 6.51712V7.51712H37.3592V6.51712V5.51712H34.9652V6.51712ZM37.3592 6.51712V7.51712C37.9738 7.51712 38.2554 7.6777 38.3973 7.8288C38.5503 7.99164 38.7152 8.32824 38.7152 9.02512H39.7152H40.7152C40.7152 8.05 40.4874 7.1326 39.855 6.45945C39.2116 5.77454 38.3152 5.51712 37.3592 5.51712V6.51712ZM39.7152 9.02512H38.7152V10.1841H39.7152H40.7152V9.02512H39.7152ZM39.7152 10.1841V9.18412H37.1882V10.1841V11.1841H39.7152V10.1841ZM37.1882 10.1841H38.1882V8.70212H37.1882H36.1882V10.1841H37.1882ZM37.1882 8.70212H38.1882C38.1882 8.31823 38.0322 7.97993 37.7813 7.72902L37.0742 8.43612L36.367 9.14322C36.3253 9.10152 36.277 9.03877 36.2405 8.95354C36.2035 8.86716 36.1882 8.77992 36.1882 8.70212H37.1882ZM37.0742 8.43612L37.8424 7.79593C37.5838 7.48562 37.2169 7.32212 36.8272 7.32212V8.32212V9.32212C36.7502 9.32212 36.6507 9.307 36.5458 9.25858C36.4403 9.20986 36.3606 9.14186 36.3059 9.07631L37.0742 8.43612ZM36.8272 8.32212V7.32212H35.6302V8.32212V9.32212H36.8272V8.32212ZM35.6302 8.32212V7.32212C35.2463 7.32212 34.908 7.4781 34.657 7.72901L35.3642 8.43612L36.0713 9.14323C36.0296 9.18493 35.9668 9.23324 35.8816 9.26977C35.7952 9.30679 35.708 9.32212 35.6302 9.32212V8.32212ZM35.3642 8.43612L34.5959 7.79594C34.3789 8.05636 34.2692 8.37305 34.2692 8.70212H35.2692H36.2692C36.2692 8.75731 36.2602 8.82439 36.2346 8.89596C36.209 8.96786 36.1721 9.02864 36.1324 9.0763L35.3642 8.43612ZM35.2692 8.70212H34.2692V16.9861H35.2692H36.2692V8.70212H35.2692ZM35.2692 16.9861H34.2692C34.2692 17.3152 34.3789 17.6319 34.5959 17.8923L35.3642 17.2521L36.1324 16.6119C36.1721 16.6596 36.209 16.7204 36.2346 16.7923C36.2602 16.8639 36.2692 16.9309 36.2692 16.9861H35.2692ZM35.3642 17.2521L34.657 17.9592C34.908 18.2101 35.2463 18.3661 35.6302 18.3661V17.3661V16.3661C35.708 16.3661 35.7952 16.3815 35.8816 16.4185C35.9668 16.455 36.0296 16.5033 36.0713 16.545L35.3642 17.2521ZM35.6302 17.3661V18.3661H36.8272V17.3661V16.3661H35.6302V17.3661ZM36.8272 17.3661V18.3661C37.2169 18.3661 37.5838 18.2026 37.8424 17.8923L37.0742 17.2521L36.3059 16.6119C36.3606 16.5464 36.4403 16.4784 36.5458 16.4297C36.6507 16.3812 36.7502 16.3661 36.8272 16.3661V17.3661ZM37.0742 17.2521L37.7813 17.9592C38.0322 17.7083 38.1882 17.37 38.1882 16.9861H37.1882H36.1882C36.1882 16.9083 36.2035 16.8211 36.2405 16.7347C36.277 16.6495 36.3253 16.5867 36.367 16.545L37.0742 17.2521ZM40.6083 8.96812H39.6083V9.96812H40.6083V8.96812ZM40.6083 6.70712V5.70712H39.6083V6.70712H40.6083ZM47.2583 6.70712H48.2583V5.70712H47.2583V6.70712ZM47.2583 8.96812V9.96812H48.2583V8.96812H47.2583ZM45.2633 8.96812V7.96812H44.2633V8.96812H45.2633ZM45.2633 19.0001V20.0001H46.2633V19.0001H45.2633ZM42.6033 19.0001H41.6033V20.0001H42.6033V19.0001ZM42.6033 8.96812H43.6033V7.96812H42.6033V8.96812ZM40.6083 8.96812H41.6083V6.70712H40.6083H39.6083V8.96812H40.6083ZM40.6083 6.70712V7.70712H47.2583V6.70712V5.70712H40.6083V6.70712ZM47.2583 6.70712H46.2583V8.96812H47.2583H48.2583V6.70712H47.2583ZM47.2583 8.96812V7.96812H45.2633V8.96812V9.96812H47.2583V8.96812ZM45.2633 8.96812H44.2633V19.0001H45.2633H46.2633V8.96812H45.2633ZM45.2633 19.0001V18.0001H42.6033V19.0001V20.0001H45.2633V19.0001ZM42.6033 19.0001H43.6033V8.96812H42.6033H41.6033V19.0001H42.6033ZM42.6033 8.96812V7.96812H40.6083V8.96812V9.96812H42.6033V8.96812ZM51.1334 13.9651V12.9651H50.1334V13.9651H51.1334ZM51.1334 19.0001V20.0001H52.1334V19.0001H51.1334ZM48.4734 19.0001H47.4734V20.0001H48.4734V19.0001ZM48.4734 6.70712V5.70712H47.4734V6.70712H48.4734ZM54.4774 12.5781L54.1173 11.6452L51.6157 12.6107L54.1387 13.519L54.4774 12.5781ZM55.4274 19.0001V20.0001H56.4274V19.0001H55.4274ZM52.7674 19.0001H51.7674V20.0001H52.7674V19.0001ZM51.1334 8.51212V7.51212H50.1334V8.51212H51.1334ZM51.1334 12.1031H50.1334V13.1031H51.1334V12.1031ZM52.7864 11.9891L52.0793 11.282L52.0472 11.3141L52.0182 11.3489L52.7864 11.9891ZM52.7864 8.62612L52.0182 9.2663L52.0472 9.30115L52.0793 9.33323L52.7864 8.62612ZM51.1334 13.9651H50.1334V19.0001H51.1334H52.1334V13.9651H51.1334ZM51.1334 19.0001V18.0001H48.4734V19.0001V20.0001H51.1334V19.0001ZM48.4734 19.0001H49.4734V6.70712H48.4734H47.4734V19.0001H48.4734ZM48.4734 6.70712V7.70712H53.2044V6.70712V5.70712H48.4734V6.70712ZM53.2044 6.70712V7.70712C53.8191 7.70712 54.1006 7.8677 54.2426 8.0188C54.3955 8.18164 54.5604 8.51824 54.5604 9.21512H55.5604H56.5604C56.5604 8.24 56.3326 7.3226 55.7003 6.64945C55.0569 5.96454 54.1604 5.70712 53.2044 5.70712V6.70712ZM55.5604 9.21512H54.5604V10.6401H55.5604H56.5604V9.21512H55.5604ZM55.5604 10.6401H54.5604C54.5604 11.0362 54.4888 11.2679 54.4167 11.3968C54.3555 11.5063 54.2715 11.5857 54.1173 11.6452L54.4774 12.5781L54.8375 13.511C55.4053 13.2919 55.8628 12.909 56.1626 12.3724C56.4516 11.8554 56.5604 11.2573 56.5604 10.6401H55.5604ZM54.4774 12.5781L54.1387 13.519C54.2651 13.5645 54.3093 13.6153 54.3361 13.6592C54.372 13.7181 54.4274 13.8551 54.4274 14.1361H55.4274H56.4274C56.4274 13.6065 56.3245 13.0785 56.0437 12.618C55.7538 12.1426 55.3231 11.8197 54.8161 11.6372L54.4774 12.5781ZM55.4274 14.1361H54.4274V19.0001H55.4274H56.4274V14.1361H55.4274ZM55.4274 19.0001V18.0001H52.7674V19.0001V20.0001H55.4274V19.0001ZM52.7674 19.0001H53.7674V14.3451H52.7674H51.7674V19.0001H52.7674ZM52.7674 14.3451H53.7674C53.7674 14.0767 53.7046 13.6897 53.4022 13.3714C53.0906 13.0434 52.6944 12.9651 52.4064 12.9651V13.9651V14.9651C52.3591 14.9651 52.1434 14.9501 51.9522 14.7489C51.7701 14.5572 51.7674 14.3602 51.7674 14.3451H52.7674ZM52.4064 13.9651V12.9651H51.1334V13.9651V14.9651H52.4064V13.9651ZM51.1334 8.51212H50.1334V12.1031H51.1334H52.1334V8.51212H51.1334ZM51.1334 12.1031V13.1031H52.5394V12.1031V11.1031H51.1334V12.1031ZM52.5394 12.1031V13.1031C52.9292 13.1031 53.296 12.9396 53.5546 12.6293L52.7864 11.9891L52.0182 11.3489C52.0728 11.2834 52.1525 11.2154 52.2581 11.1667C52.363 11.1182 52.4625 11.1031 52.5394 11.1031V12.1031ZM52.7864 11.9891L53.4935 12.6962C53.7444 12.4453 53.9004 12.107 53.9004 11.7231H52.9004H51.9004C51.9004 11.6453 51.9157 11.5581 51.9528 11.4717C51.9893 11.3865 52.0376 11.3237 52.0793 11.282L52.7864 11.9891ZM52.9004 11.7231H53.9004V8.89212H52.9004H51.9004V11.7231H52.9004ZM52.9004 8.89212H53.9004C53.9004 8.50823 53.7444 8.16992 53.4935 7.91901L52.7864 8.62612L52.0793 9.33323C52.0376 9.29153 51.9893 9.22877 51.9528 9.14354C51.9157 9.05716 51.9004 8.96992 51.9004 8.89212H52.9004ZM52.7864 8.62612L53.5546 7.98594C53.296 7.67563 52.9292 7.51212 52.5394 7.51212V8.51212V9.51212C52.4625 9.51212 52.363 9.497 52.2581 9.44858C52.1525 9.39985 52.0728 9.33185 52.0182 9.2663L52.7864 8.62612ZM52.5394 8.51212V7.51212H51.1334V8.51212V9.51212H52.5394V8.51212ZM59.9283 6.70712H60.9283V5.70712H59.9283V6.70712ZM59.9283 19.0001V20.0001H60.9283V19.0001H59.9283ZM57.2683 19.0001H56.2683V20.0001H57.2683V19.0001ZM57.2683 6.70712V5.70712H56.2683V6.70712H57.2683ZM59.9283 6.70712H58.9283V19.0001H59.9283H60.9283V6.70712H59.9283ZM59.9283 19.0001V18.0001H57.2683V19.0001V20.0001H59.9283V19.0001ZM57.2683 19.0001H58.2683V6.70712H57.2683H56.2683V19.0001H57.2683ZM57.2683 6.70712V7.70712H59.9283V6.70712V5.70712H57.2683V6.70712ZM66.486 15.0861V14.0861H65.486V15.0861H66.486ZM69.013 15.0861H70.013V14.0861H69.013V15.0861ZM69.013 10.1841V11.1841H70.013V10.1841H69.013ZM66.486 10.1841H65.486V11.1841H66.486V10.1841ZM66.372 8.43612L65.6038 9.07631L65.6328 9.11115L65.6649 9.14322L66.372 8.43612ZM64.662 8.43612L63.9549 7.72901L63.9228 7.76109L63.8938 7.79594L64.662 8.43612ZM64.662 17.2521L63.8938 17.8923L63.9228 17.9272L63.9549 17.9592L64.662 17.2521ZM66.372 17.2521L65.6649 16.545L65.6328 16.5771L65.6038 16.6119L66.372 17.2521ZM66.486 16.9861H67.486V15.0861H66.486H65.486V16.9861H66.486ZM66.486 15.0861V16.0861H69.013V15.0861V14.0861H66.486V15.0861ZM69.013 15.0861H68.013V16.6821H69.013H70.013V15.0861H69.013ZM69.013 16.6821H68.013C68.013 17.379 67.8481 17.7156 67.6952 17.8784C67.5532 18.0295 67.2716 18.1901 66.657 18.1901V19.1901V20.1901C67.613 20.1901 68.5095 19.9327 69.1529 19.2478C69.7852 18.5746 70.013 17.6572 70.013 16.6821H69.013ZM66.657 19.1901V18.1901H64.263V19.1901V20.1901H66.657V19.1901ZM64.263 19.1901V18.1901C63.6484 18.1901 63.3668 18.0295 63.2249 17.8784C63.0719 17.7156 62.907 17.379 62.907 16.6821H61.907H60.907C60.907 17.6572 61.1348 18.5746 61.7672 19.2478C62.4106 19.9327 63.307 20.1901 64.263 20.1901V19.1901ZM61.907 16.6821H62.907V9.02512H61.907H60.907V16.6821H61.907ZM61.907 9.02512H62.907C62.907 8.32824 63.0719 7.99164 63.2249 7.8288C63.3668 7.6777 63.6484 7.51712 64.263 7.51712V6.51712V5.51712C63.307 5.51712 62.4106 5.77454 61.7672 6.45945C61.1348 7.1326 60.907 8.05 60.907 9.02512H61.907ZM64.263 6.51712V7.51712H66.657V6.51712V5.51712H64.263V6.51712ZM66.657 6.51712V7.51712C67.2716 7.51712 67.5532 7.6777 67.6952 7.8288C67.8481 7.99164 68.013 8.32824 68.013 9.02512H69.013H70.013C70.013 8.05 69.7852 7.1326 69.1529 6.45945C68.5095 5.77454 67.613 5.51712 66.657 5.51712V6.51712ZM69.013 9.02512H68.013V10.1841H69.013H70.013V9.02512H69.013ZM69.013 10.1841V9.18412H66.486V10.1841V11.1841H69.013V10.1841ZM66.486 10.1841H67.486V8.70212H66.486H65.486V10.1841H66.486ZM66.486 8.70212H67.486C67.486 8.31823 67.33 7.97993 67.0791 7.72902L66.372 8.43612L65.6649 9.14322C65.6232 9.10152 65.5749 9.03877 65.5384 8.95354C65.5013 8.86716 65.486 8.77992 65.486 8.70212H66.486ZM66.372 8.43612L67.1402 7.79593C66.8816 7.48562 66.5148 7.32212 66.125 7.32212V8.32212V9.32212C66.0481 9.32212 65.9486 9.307 65.8437 9.25858C65.7381 9.20986 65.6584 9.14186 65.6038 9.07631L66.372 8.43612ZM66.125 8.32212V7.32212H64.928V8.32212V9.32212H66.125V8.32212ZM64.928 8.32212V7.32212C64.5441 7.32212 64.2058 7.4781 63.9549 7.72901L64.662 8.43612L65.3691 9.14323C65.3274 9.18493 65.2647 9.23324 65.1794 9.26977C65.093 9.30679 65.0058 9.32212 64.928 9.32212V8.32212ZM64.662 8.43612L63.8938 7.79594C63.6768 8.05636 63.567 8.37305 63.567 8.70212H64.567H65.567C65.567 8.75731 65.5581 8.82439 65.5325 8.89596C65.5068 8.96786 65.4699 9.02864 65.4302 9.0763L64.662 8.43612ZM64.567 8.70212H63.567V16.9861H64.567H65.567V8.70212H64.567ZM64.567 16.9861H63.567C63.567 17.3152 63.6768 17.6319 63.8938 17.8923L64.662 17.2521L65.4302 16.6119C65.4699 16.6596 65.5068 16.7204 65.5325 16.7923C65.5581 16.8639 65.567 16.9309 65.567 16.9861H64.567ZM64.662 17.2521L63.9549 17.9592C64.2058 18.2101 64.5441 18.3661 64.928 18.3661V17.3661V16.3661C65.0058 16.3661 65.093 16.3815 65.1794 16.4185C65.2647 16.455 65.3274 16.5033 65.3691 16.545L64.662 17.2521ZM64.928 17.3661V18.3661H66.125V17.3661V16.3661H64.928V17.3661ZM66.125 17.3661V18.3661C66.5148 18.3661 66.8816 18.2026 67.1402 17.8923L66.372 17.2521L65.6038 16.6119C65.6584 16.5464 65.7381 16.4784 65.8437 16.4297C65.9486 16.3812 66.0481 16.3661 66.125 16.3661V17.3661ZM66.372 17.2521L67.0791 17.9592C67.33 17.7083 67.486 17.37 67.486 16.9861H66.486H65.486C65.486 16.9083 65.5013 16.8211 65.5384 16.7347C65.5749 16.6495 65.6232 16.5867 65.6649 16.545L66.372 17.2521Z" fill="black" mask="url(#path-3-outside-1_216_131)"/>
<defs>
<filter id="filter0_i_216_131" x="-2" y="-3" width="82.8926" height="29.9641" filterUnits="userSpaceOnUse" color-interpolation-filters="sRGB">
<feFlood flood-opacity="0" result="BackgroundImageFix"/>
<feBlend mode="normal" in="SourceGraphic" in2="BackgroundImageFix" result="shape"/>
<feColorMatrix in="SourceAlpha" type="matrix" values="0 0 0 0 0 0 0 0 0 0 0 0 0 0 0 0 0 0 127 0" result="hardAlpha"/>
<feOffset dx="-2" dy="-3"/>
<feGaussianBlur stdDeviation="2"/>
<feComposite in2="hardAlpha" operator="arithmetic" k2="-1" k3="1"/>
<feColorMatrix type="matrix" values="0 0 0 0 0.00961538 0 0 0 0 0.00961538 0 0 0 0 0.00961538 0 0 0 0.25 0"/>
<feBlend mode="normal" in2="shape" result="effect1_innerShadow_216_131"/>
</filter>
</defs>
</svg>
