<svg width="81" height="27" viewBox="0 0 81 27" fill="none" xmlns="http://www.w3.org/2000/svg">
<g filter="url(#filter0_i_216_157)">
<rect width="80.8925" height="26.9642" rx="12" fill="#FF7CCF"/>
</g>
<rect x="0.5" y="0.5" width="79.8925" height="25.9642" rx="11.5" stroke="black"/>
<mask id="path-3-outside-1_216_157" maskUnits="userSpaceOnUse" x="21.1775" y="4.96765" width="40" height="15" fill="black">
<rect fill="white" x="21.1775" y="4.96765" width="40" height="15"/>
<path d="M24.8797 14.1417V18.9677H22.2197V6.67465H27.7677V8.97365H24.8797V11.9187H27.5777V14.1417H24.8797ZM34.2092 6.48465C35.7799 6.48465 36.5652 7.32065 36.5652 8.99265V18.9677H33.9052V14.8447H31.9862V18.9677H29.3262V8.99265C29.3262 7.32065 30.1115 6.48465 31.6822 6.48465H34.2092ZM31.9862 12.7927H33.9052V8.66965C33.9052 8.56832 33.8672 8.47965 33.7912 8.40365C33.7279 8.32765 33.6455 8.28965 33.5442 8.28965H32.3472C32.2459 8.28965 32.1572 8.32765 32.0812 8.40365C32.0179 8.47965 31.9862 8.56832 31.9862 8.66965V12.7927ZM41.2079 6.67465V18.9677H38.5479V6.67465H41.2079ZM45.8465 13.9327V18.9677H43.1865V6.67465H47.9175C49.4882 6.67465 50.2735 7.51065 50.2735 9.18265V10.6077C50.2735 11.621 49.9125 12.267 49.1905 12.5457C49.8239 12.7737 50.1405 13.293 50.1405 14.1037V18.9677H47.4805V14.3127C47.4805 14.0593 47.3602 13.9327 47.1195 13.9327H45.8465ZM45.8465 8.47965V12.0707H47.2525C47.3539 12.0707 47.4362 12.0327 47.4995 11.9567C47.5755 11.8807 47.6135 11.792 47.6135 11.6907V8.85965C47.6135 8.75832 47.5755 8.66965 47.4995 8.59365C47.4362 8.51765 47.3539 8.47965 47.2525 8.47965H45.8465ZM59.1065 6.67465L56.4655 14.4837V18.9677H53.8055V14.4837L51.1645 6.67465H53.6725L55.1355 11.8047L56.5985 6.67465H59.1065Z"/>
</mask>
<path d="M24.8797 14.1417V18.9677H22.2197V6.67465H27.7677V8.97365H24.8797V11.9187H27.5777V14.1417H24.8797ZM34.2092 6.48465C35.7799 6.48465 36.5652 7.32065 36.5652 8.99265V18.9677H33.9052V14.8447H31.9862V18.9677H29.3262V8.99265C29.3262 7.32065 30.1115 6.48465 31.6822 6.48465H34.2092ZM31.9862 12.7927H33.9052V8.66965C33.9052 8.56832 33.8672 8.47965 33.7912 8.40365C33.7279 8.32765 33.6455 8.28965 33.5442 8.28965H32.3472C32.2459 8.28965 32.1572 8.32765 32.0812 8.40365C32.0179 8.47965 31.9862 8.56832 31.9862 8.66965V12.7927ZM41.2079 6.67465V18.9677H38.5479V6.67465H41.2079ZM45.8465 13.9327V18.9677H43.1865V6.67465H47.9175C49.4882 6.67465 50.2735 7.51065 50.2735 9.18265V10.6077C50.2735 11.621 49.9125 12.267 49.1905 12.5457C49.8239 12.7737 50.1405 13.293 50.1405 14.1037V18.9677H47.4805V14.3127C47.4805 14.0593 47.3602 13.9327 47.1195 13.9327H45.8465ZM45.8465 8.47965V12.0707H47.2525C47.3539 12.0707 47.4362 12.0327 47.4995 11.9567C47.5755 11.8807 47.6135 11.792 47.6135 11.6907V8.85965C47.6135 8.75832 47.5755 8.66965 47.4995 8.59365C47.4362 8.51765 47.3539 8.47965 47.2525 8.47965H45.8465ZM59.1065 6.67465L56.4655 14.4837V18.9677H53.8055V14.4837L51.1645 6.67465H53.6725L55.1355 11.8047L56.5985 6.67465H59.1065Z" fill="white"/>
<path d="M24.8797 14.1417V13.1417H23.8797V14.1417H24.8797ZM24.8797 18.9677V19.9677H25.8797V18.9677H24.8797ZM22.2197 18.9677H21.2197V19.9677H22.2197V18.9677ZM22.2197 6.67465V5.67465H21.2197V6.67465H22.2197ZM27.7677 6.67465H28.7677V5.67465H27.7677V6.67465ZM27.7677 8.97365V9.97365H28.7677V8.97365H27.7677ZM24.8797 8.97365V7.97365H23.8797V8.97365H24.8797ZM24.8797 11.9187H23.8797V12.9187H24.8797V11.9187ZM27.5777 11.9187H28.5777V10.9187H27.5777V11.9187ZM27.5777 14.1417V15.1417H28.5777V14.1417H27.5777ZM24.8797 14.1417H23.8797V18.9677H24.8797H25.8797V14.1417H24.8797ZM24.8797 18.9677V17.9677H22.2197V18.9677V19.9677H24.8797V18.9677ZM22.2197 18.9677H23.2197V6.67465H22.2197H21.2197V18.9677H22.2197ZM22.2197 6.67465V7.67465H27.7677V6.67465V5.67465H22.2197V6.67465ZM27.7677 6.67465H26.7677V8.97365H27.7677H28.7677V6.67465H27.7677ZM27.7677 8.97365V7.97365H24.8797V8.97365V9.97365H27.7677V8.97365ZM24.8797 8.97365H23.8797V11.9187H24.8797H25.8797V8.97365H24.8797ZM24.8797 11.9187V12.9187H27.5777V11.9187V10.9187H24.8797V11.9187ZM27.5777 11.9187H26.5777V14.1417H27.5777H28.5777V11.9187H27.5777ZM27.5777 14.1417V13.1417H24.8797V14.1417V15.1417H27.5777V14.1417ZM36.5652 18.9677V19.9677H37.5652V18.9677H36.5652ZM33.9052 18.9677H32.9052V19.9677H33.9052V18.9677ZM33.9052 14.8447H34.9052V13.8447H33.9052V14.8447ZM31.9862 14.8447V13.8447H30.9862V14.8447H31.9862ZM31.9862 18.9677V19.9677H32.9862V18.9677H31.9862ZM29.3262 18.9677H28.3262V19.9677H29.3262V18.9677ZM31.9862 12.7927H30.9862V13.7927H31.9862V12.7927ZM33.9052 12.7927V13.7927H34.9052V12.7927H33.9052ZM33.7912 8.40365L33.023 9.04384L33.052 9.07868L33.0841 9.11075L33.7912 8.40365ZM32.0812 8.40365L31.3741 7.69654L31.342 7.72862L31.313 7.76347L32.0812 8.40365ZM34.2092 6.48465V7.48465C34.8238 7.48465 35.1054 7.64523 35.2473 7.79633C35.4003 7.95917 35.5652 8.29577 35.5652 8.99265H36.5652H37.5652C37.5652 8.01753 37.3374 7.10013 36.705 6.42698C36.0616 5.74207 35.1652 5.48465 34.2092 5.48465V6.48465ZM36.5652 8.99265H35.5652V18.9677H36.5652H37.5652V8.99265H36.5652ZM36.5652 18.9677V17.9677H33.9052V18.9677V19.9677H36.5652V18.9677ZM33.9052 18.9677H34.9052V14.8447H33.9052H32.9052V18.9677H33.9052ZM33.9052 14.8447V13.8447H31.9862V14.8447V15.8447H33.9052V14.8447ZM31.9862 14.8447H30.9862V18.9677H31.9862H32.9862V14.8447H31.9862ZM31.9862 18.9677V17.9677H29.3262V18.9677V19.9677H31.9862V18.9677ZM29.3262 18.9677H30.3262V8.99265H29.3262H28.3262V18.9677H29.3262ZM29.3262 8.99265H30.3262C30.3262 8.29577 30.4911 7.95917 30.644 7.79633C30.786 7.64523 31.0676 7.48465 31.6822 7.48465V6.48465V5.48465C30.7262 5.48465 29.8297 5.74207 29.1863 6.42698C28.554 7.10013 28.3262 8.01753 28.3262 8.99265H29.3262ZM31.6822 6.48465V7.48465H34.2092V6.48465V5.48465H31.6822V6.48465ZM31.9862 12.7927V13.7927H33.9052V12.7927V11.7927H31.9862V12.7927ZM33.9052 12.7927H34.9052V8.66965H33.9052H32.9052V12.7927H33.9052ZM33.9052 8.66965H34.9052C34.9052 8.28576 34.7492 7.94746 34.4983 7.69655L33.7912 8.40365L33.0841 9.11075C33.0424 9.06905 32.9941 9.0063 32.9575 8.92107C32.9205 8.83469 32.9052 8.74745 32.9052 8.66965H33.9052ZM33.7912 8.40365L34.5594 7.76346C34.3008 7.45315 33.934 7.28965 33.5442 7.28965V8.28965V9.28965C33.4673 9.28965 33.3678 9.27453 33.2629 9.22611C33.1573 9.17739 33.0776 9.10938 33.023 9.04384L33.7912 8.40365ZM33.5442 8.28965V7.28965H32.3472V8.28965V9.28965H33.5442V8.28965ZM32.3472 8.28965V7.28965C31.9633 7.28965 31.625 7.44563 31.3741 7.69654L32.0812 8.40365L32.7883 9.11076C32.7466 9.15246 32.6838 9.20077 32.5986 9.2373C32.5122 9.27432 32.425 9.28965 32.3472 9.28965V8.28965ZM32.0812 8.40365L31.313 7.76347C31.096 8.02389 30.9862 8.34058 30.9862 8.66965H31.9862H32.9862C32.9862 8.72484 32.9772 8.79192 32.9517 8.86349C32.926 8.93538 32.8891 8.99617 32.8494 9.04383L32.0812 8.40365ZM31.9862 8.66965H30.9862V12.7927H31.9862H32.9862V8.66965H31.9862ZM41.2079 6.67465H42.2079V5.67465H41.2079V6.67465ZM41.2079 18.9677V19.9677H42.2079V18.9677H41.2079ZM38.5479 18.9677H37.5479V19.9677H38.5479V18.9677ZM38.5479 6.67465V5.67465H37.5479V6.67465H38.5479ZM41.2079 6.67465H40.2079V18.9677H41.2079H42.2079V6.67465H41.2079ZM41.2079 18.9677V17.9677H38.5479V18.9677V19.9677H41.2079V18.9677ZM38.5479 18.9677H39.5479V6.67465H38.5479H37.5479V18.9677H38.5479ZM38.5479 6.67465V7.67465H41.2079V6.67465V5.67465H38.5479V6.67465ZM45.8465 13.9327V12.9327H44.8465V13.9327H45.8465ZM45.8465 18.9677V19.9677H46.8465V18.9677H45.8465ZM43.1865 18.9677H42.1865V19.9677H43.1865V18.9677ZM43.1865 6.67465V5.67465H42.1865V6.67465H43.1865ZM49.1905 12.5457L48.8305 11.6127L46.3288 12.5783L48.8518 13.4865L49.1905 12.5457ZM50.1405 18.9677V19.9677H51.1405V18.9677H50.1405ZM47.4805 18.9677H46.4805V19.9677H47.4805V18.9677ZM45.8465 8.47965V7.47965H44.8465V8.47965H45.8465ZM45.8465 12.0707H44.8465V13.0707H45.8465V12.0707ZM47.4995 11.9567L46.7924 11.2495L46.7604 11.2816L46.7313 11.3165L47.4995 11.9567ZM47.4995 8.59365L46.7313 9.23383L46.7604 9.26868L46.7924 9.30076L47.4995 8.59365ZM45.8465 13.9327H44.8465V18.9677H45.8465H46.8465V13.9327H45.8465ZM45.8465 18.9677V17.9677H43.1865V18.9677V19.9677H45.8465V18.9677ZM43.1865 18.9677H44.1865V6.67465H43.1865H42.1865V18.9677H43.1865ZM43.1865 6.67465V7.67465H47.9175V6.67465V5.67465H43.1865V6.67465ZM47.9175 6.67465V7.67465C48.5322 7.67465 48.8138 7.83523 48.9557 7.98633C49.1087 8.14917 49.2735 8.48577 49.2735 9.18265H50.2735H51.2735C51.2735 8.20753 51.0458 7.29013 50.4134 6.61698C49.77 5.93207 48.8736 5.67465 47.9175 5.67465V6.67465ZM50.2735 9.18265H49.2735V10.6077H50.2735H51.2735V9.18265H50.2735ZM50.2735 10.6077H49.2735C49.2735 11.0038 49.2019 11.2354 49.1299 11.3643C49.0687 11.4738 48.9846 11.5532 48.8305 11.6127L49.1905 12.5457L49.5506 13.4786C50.1185 13.2594 50.5759 12.8765 50.8757 12.34C51.1647 11.8229 51.2735 11.2249 51.2735 10.6077H50.2735ZM49.1905 12.5457L48.8518 13.4865C48.9782 13.532 49.0224 13.5828 49.0492 13.6268C49.0852 13.6857 49.1405 13.8226 49.1405 14.1037H50.1405H51.1405C51.1405 13.574 51.0376 13.046 50.7568 12.5855C50.467 12.1102 50.0362 11.7873 49.5293 11.6048L49.1905 12.5457ZM50.1405 14.1037H49.1405V18.9677H50.1405H51.1405V14.1037H50.1405ZM50.1405 18.9677V17.9677H47.4805V18.9677V19.9677H50.1405V18.9677ZM47.4805 18.9677H48.4805V14.3127H47.4805H46.4805V18.9677H47.4805ZM47.4805 14.3127H48.4805C48.4805 14.0443 48.4177 13.6572 48.1153 13.3389C47.8038 13.011 47.4075 12.9327 47.1195 12.9327V13.9327V14.9327C47.0723 14.9327 46.8565 14.9177 46.6653 14.7164C46.4832 14.5247 46.4805 14.3277 46.4805 14.3127H47.4805ZM47.1195 13.9327V12.9327H45.8465V13.9327V14.9327H47.1195V13.9327ZM45.8465 8.47965H44.8465V12.0707H45.8465H46.8465V8.47965H45.8465ZM45.8465 12.0707V13.0707H47.2525V12.0707V11.0707H45.8465V12.0707ZM47.2525 12.0707V13.0707C47.6423 13.0707 48.0092 12.9071 48.2678 12.5968L47.4995 11.9567L46.7313 11.3165C46.7859 11.2509 46.8657 11.1829 46.9712 11.1342C47.0761 11.0858 47.1756 11.0707 47.2525 11.0707V12.0707ZM47.4995 11.9567L48.2067 12.6638C48.4576 12.4128 48.6135 12.0745 48.6135 11.6907H47.6135H46.6135C46.6135 11.6128 46.6289 11.5256 46.6659 11.4392C46.7024 11.354 46.7507 11.2912 46.7924 11.2495L47.4995 11.9567ZM47.6135 11.6907H48.6135V8.85965H47.6135H46.6135V11.6907H47.6135ZM47.6135 8.85965H48.6135C48.6135 8.47576 48.4576 8.13745 48.2066 7.88654L47.4995 8.59365L46.7924 9.30076C46.7507 9.25906 46.7024 9.1963 46.6659 9.11107C46.6289 9.02469 46.6135 8.93745 46.6135 8.85965H47.6135ZM47.4995 8.59365L48.2678 7.95347C48.0092 7.64316 47.6423 7.47965 47.2525 7.47965V8.47965V9.47965C47.1756 9.47965 47.0761 9.46453 46.9712 9.41611C46.8657 9.36738 46.7859 9.29938 46.7313 9.23383L47.4995 8.59365ZM47.2525 8.47965V7.47965H45.8465V8.47965V9.47965H47.2525V8.47965ZM59.1065 6.67465L60.0538 6.99502L60.5003 5.67465H59.1065V6.67465ZM56.4655 14.4837L55.5182 14.1633L55.4655 14.3191V14.4837H56.4655ZM56.4655 18.9677V19.9677H57.4655V18.9677H56.4655ZM53.8055 18.9677H52.8055V19.9677H53.8055V18.9677ZM53.8055 14.4837H54.8055V14.3191L54.7528 14.1633L53.8055 14.4837ZM51.1645 6.67465V5.67465H49.7706L50.2172 6.99502L51.1645 6.67465ZM53.6725 6.67465L54.6341 6.4004L54.4272 5.67465H53.6725V6.67465ZM55.1355 11.8047L54.1738 12.0789L55.1355 15.451L56.0971 12.0789L55.1355 11.8047ZM56.5985 6.67465V5.67465H55.8438L55.6368 6.4004L56.5985 6.67465ZM59.1065 6.67465L58.1592 6.35428L55.5182 14.1633L56.4655 14.4837L57.4128 14.804L60.0538 6.99502L59.1065 6.67465ZM56.4655 14.4837H55.4655V18.9677H56.4655H57.4655V14.4837H56.4655ZM56.4655 18.9677V17.9677H53.8055V18.9677V19.9677H56.4655V18.9677ZM53.8055 18.9677H54.8055V14.4837H53.8055H52.8055V18.9677H53.8055ZM53.8055 14.4837L54.7528 14.1633L52.1118 6.35428L51.1645 6.67465L50.2172 6.99502L52.8582 14.804L53.8055 14.4837ZM51.1645 6.67465V7.67465H53.6725V6.67465V5.67465H51.1645V6.67465ZM53.6725 6.67465L52.7108 6.9489L54.1738 12.0789L55.1355 11.8047L56.0971 11.5304L54.6341 6.4004L53.6725 6.67465ZM55.1355 11.8047L56.0971 12.0789L57.5601 6.9489L56.5985 6.67465L55.6368 6.4004L54.1738 11.5304L55.1355 11.8047ZM56.5985 6.67465V7.67465H59.1065V6.67465V5.67465H56.5985V6.67465Z" fill="black" mask="url(#path-3-outside-1_216_157)"/>
<defs>
<filter id="filter0_i_216_157" x="-2" y="-3" width="82.8926" height="29.9641" filterUnits="userSpaceOnUse" color-interpolation-filters="sRGB">
<feFlood flood-opacity="0" result="BackgroundImageFix"/>
<feBlend mode="normal" in="SourceGraphic" in2="BackgroundImageFix" result="shape"/>
<feColorMatrix in="SourceAlpha" type="matrix" values="0 0 0 0 0 0 0 0 0 0 0 0 0 0 0 0 0 0 127 0" result="hardAlpha"/>
<feOffset dx="-2" dy="-3"/>
<feGaussianBlur stdDeviation="2"/>
<feComposite in2="hardAlpha" operator="arithmetic" k2="-1" k3="1"/>
<feColorMatrix type="matrix" values="0 0 0 0 0.00961538 0 0 0 0 0.00961538 0 0 0 0 0.00961538 0 0 0 0.25 0"/>
<feBlend mode="normal" in2="shape" result="effect1_innerShadow_216_157"/>
</filter>
</defs>
</svg>
