<svg width="81" height="28" viewBox="0 0 81 28" fill="none" xmlns="http://www.w3.org/2000/svg">
<g filter="url(#filter0_i_216_336)">
<rect width="80.8925" height="26.9642" rx="12" fill="#FFC400"/>
</g>
<rect x="0.5" y="0.5" width="79.8925" height="25.9642" rx="11.5" stroke="black"/>
<mask id="path-3-outside-1_216_336" maskUnits="userSpaceOnUse" x="10.5273" y="5.9353" width="61" height="16" fill="black">
<rect fill="white" x="10.5273" y="5.9353" width="61" height="16"/>
<path d="M14.8111 15.1093V19.9353H12.1511V7.6423H17.6991V9.9413H14.8111V12.8863H17.5091V15.1093H14.8111ZM21.9176 7.6423V19.9353H19.2576V7.6423H21.9176ZM27.4873 15.0523V13.0953H31.0023V17.6173C31.0023 19.2893 30.2169 20.1253 28.6463 20.1253H26.2523C24.6816 20.1253 23.8963 19.2893 23.8963 17.6173V9.9603C23.8963 8.2883 24.6816 7.4523 26.2523 7.4523H28.6463C30.2169 7.4523 31.0023 8.2883 31.0023 9.9603V11.1193H28.4753V9.6373C28.4753 9.53597 28.4373 9.4473 28.3613 9.3713C28.2979 9.2953 28.2156 9.2573 28.1143 9.2573H26.9173C26.8159 9.2573 26.7273 9.2953 26.6513 9.3713C26.5879 9.4473 26.5563 9.53597 26.5563 9.6373V17.9213C26.5563 18.0226 26.5879 18.1113 26.6513 18.1873C26.7273 18.2633 26.8159 18.3013 26.9173 18.3013H28.1143C28.2156 18.3013 28.2979 18.2633 28.3613 18.1873C28.4373 18.1113 28.4753 18.0226 28.4753 17.9213V15.0523H27.4873ZM35.1285 15.1093V19.9353H32.4685V7.6423H35.1285V12.7913H37.2375V7.6423H39.8975V19.9353H37.2375V15.1093H35.1285ZM41.0985 9.9033V7.6423H47.7485V9.9033H45.7535V19.9353H43.0935V9.9033H41.0985ZM51.6236 7.6423V19.9353H48.9636V7.6423H51.6236ZM60.6513 19.9353H57.9913V9.7323C57.9913 9.63097 57.9533 9.5423 57.8773 9.4663C57.814 9.3903 57.7317 9.3523 57.6303 9.3523H56.6043C56.503 9.3523 56.4143 9.3903 56.3383 9.4663C56.275 9.5423 56.2433 9.63097 56.2433 9.7323V19.9353H53.5833V9.9603C53.5833 8.2883 54.3687 7.4523 55.9393 7.4523H58.2953C59.866 7.4523 60.6513 8.2883 60.6513 9.9603V19.9353ZM66.0253 15.0523V13.0953H69.5403V17.6173C69.5403 19.2893 68.755 20.1253 67.1843 20.1253H64.7903C63.2197 20.1253 62.4343 19.2893 62.4343 17.6173V9.9603C62.4343 8.2883 63.2197 7.4523 64.7903 7.4523H67.1843C68.755 7.4523 69.5403 8.2883 69.5403 9.9603V11.1193H67.0133V9.6373C67.0133 9.53597 66.9753 9.4473 66.8993 9.3713C66.836 9.2953 66.7537 9.2573 66.6523 9.2573H65.4553C65.354 9.2573 65.2653 9.2953 65.1893 9.3713C65.126 9.4473 65.0943 9.53597 65.0943 9.6373V17.9213C65.0943 18.0226 65.126 18.1113 65.1893 18.1873C65.2653 18.2633 65.354 18.3013 65.4553 18.3013H66.6523C66.7537 18.3013 66.836 18.2633 66.8993 18.1873C66.9753 18.1113 67.0133 18.0226 67.0133 17.9213V15.0523H66.0253Z"/>
</mask>
<path d="M14.8111 15.1093V19.9353H12.1511V7.6423H17.6991V9.9413H14.8111V12.8863H17.5091V15.1093H14.8111ZM21.9176 7.6423V19.9353H19.2576V7.6423H21.9176ZM27.4873 15.0523V13.0953H31.0023V17.6173C31.0023 19.2893 30.2169 20.1253 28.6463 20.1253H26.2523C24.6816 20.1253 23.8963 19.2893 23.8963 17.6173V9.9603C23.8963 8.2883 24.6816 7.4523 26.2523 7.4523H28.6463C30.2169 7.4523 31.0023 8.2883 31.0023 9.9603V11.1193H28.4753V9.6373C28.4753 9.53597 28.4373 9.4473 28.3613 9.3713C28.2979 9.2953 28.2156 9.2573 28.1143 9.2573H26.9173C26.8159 9.2573 26.7273 9.2953 26.6513 9.3713C26.5879 9.4473 26.5563 9.53597 26.5563 9.6373V17.9213C26.5563 18.0226 26.5879 18.1113 26.6513 18.1873C26.7273 18.2633 26.8159 18.3013 26.9173 18.3013H28.1143C28.2156 18.3013 28.2979 18.2633 28.3613 18.1873C28.4373 18.1113 28.4753 18.0226 28.4753 17.9213V15.0523H27.4873ZM35.1285 15.1093V19.9353H32.4685V7.6423H35.1285V12.7913H37.2375V7.6423H39.8975V19.9353H37.2375V15.1093H35.1285ZM41.0985 9.9033V7.6423H47.7485V9.9033H45.7535V19.9353H43.0935V9.9033H41.0985ZM51.6236 7.6423V19.9353H48.9636V7.6423H51.6236ZM60.6513 19.9353H57.9913V9.7323C57.9913 9.63097 57.9533 9.5423 57.8773 9.4663C57.814 9.3903 57.7317 9.3523 57.6303 9.3523H56.6043C56.503 9.3523 56.4143 9.3903 56.3383 9.4663C56.275 9.5423 56.2433 9.63097 56.2433 9.7323V19.9353H53.5833V9.9603C53.5833 8.2883 54.3687 7.4523 55.9393 7.4523H58.2953C59.866 7.4523 60.6513 8.2883 60.6513 9.9603V19.9353ZM66.0253 15.0523V13.0953H69.5403V17.6173C69.5403 19.2893 68.755 20.1253 67.1843 20.1253H64.7903C63.2197 20.1253 62.4343 19.2893 62.4343 17.6173V9.9603C62.4343 8.2883 63.2197 7.4523 64.7903 7.4523H67.1843C68.755 7.4523 69.5403 8.2883 69.5403 9.9603V11.1193H67.0133V9.6373C67.0133 9.53597 66.9753 9.4473 66.8993 9.3713C66.836 9.2953 66.7537 9.2573 66.6523 9.2573H65.4553C65.354 9.2573 65.2653 9.2953 65.1893 9.3713C65.126 9.4473 65.0943 9.53597 65.0943 9.6373V17.9213C65.0943 18.0226 65.126 18.1113 65.1893 18.1873C65.2653 18.2633 65.354 18.3013 65.4553 18.3013H66.6523C66.7537 18.3013 66.836 18.2633 66.8993 18.1873C66.9753 18.1113 67.0133 18.0226 67.0133 17.9213V15.0523H66.0253Z" fill="white"/>
<path d="M14.8111 15.1093V14.1093H13.8111V15.1093H14.8111ZM14.8111 19.9353V20.9353H15.8111V19.9353H14.8111ZM12.1511 19.9353H11.1511V20.9353H12.1511V19.9353ZM12.1511 7.6423V6.6423H11.1511V7.6423H12.1511ZM17.6991 7.6423H18.6991V6.6423H17.6991V7.6423ZM17.6991 9.9413V10.9413H18.6991V9.9413H17.6991ZM14.8111 9.9413V8.9413H13.8111V9.9413H14.8111ZM14.8111 12.8863H13.8111V13.8863H14.8111V12.8863ZM17.5091 12.8863H18.5091V11.8863H17.5091V12.8863ZM17.5091 15.1093V16.1093H18.5091V15.1093H17.5091ZM14.8111 15.1093H13.8111V19.9353H14.8111H15.8111V15.1093H14.8111ZM14.8111 19.9353V18.9353H12.1511V19.9353V20.9353H14.8111V19.9353ZM12.1511 19.9353H13.1511V7.6423H12.1511H11.1511V19.9353H12.1511ZM12.1511 7.6423V8.6423H17.6991V7.6423V6.6423H12.1511V7.6423ZM17.6991 7.6423H16.6991V9.9413H17.6991H18.6991V7.6423H17.6991ZM17.6991 9.9413V8.9413H14.8111V9.9413V10.9413H17.6991V9.9413ZM14.8111 9.9413H13.8111V12.8863H14.8111H15.8111V9.9413H14.8111ZM14.8111 12.8863V13.8863H17.5091V12.8863V11.8863H14.8111V12.8863ZM17.5091 12.8863H16.5091V15.1093H17.5091H18.5091V12.8863H17.5091ZM17.5091 15.1093V14.1093H14.8111V15.1093V16.1093H17.5091V15.1093ZM21.9176 7.6423H22.9176V6.6423H21.9176V7.6423ZM21.9176 19.9353V20.9353H22.9176V19.9353H21.9176ZM19.2576 19.9353H18.2576V20.9353H19.2576V19.9353ZM19.2576 7.6423V6.6423H18.2576V7.6423H19.2576ZM21.9176 7.6423H20.9176V19.9353H21.9176H22.9176V7.6423H21.9176ZM21.9176 19.9353V18.9353H19.2576V19.9353V20.9353H21.9176V19.9353ZM19.2576 19.9353H20.2576V7.6423H19.2576H18.2576V19.9353H19.2576ZM19.2576 7.6423V8.6423H21.9176V7.6423V6.6423H19.2576V7.6423ZM27.4873 15.0523H26.4873V16.0523H27.4873V15.0523ZM27.4873 13.0953V12.0953H26.4873V13.0953H27.4873ZM31.0023 13.0953H32.0023V12.0953H31.0023V13.0953ZM31.0023 11.1193V12.1193H32.0023V11.1193H31.0023ZM28.4753 11.1193H27.4753V12.1193H28.4753V11.1193ZM28.3613 9.3713L27.593 10.0115L27.6221 10.0463L27.6542 10.0784L28.3613 9.3713ZM26.6513 9.3713L25.9442 8.66419L25.9121 8.69627L25.883 8.73112L26.6513 9.3713ZM26.6513 18.1873L25.883 18.8275L25.9121 18.8623L25.9442 18.8944L26.6513 18.1873ZM28.3613 18.1873L27.6542 17.4802L27.6221 17.5123L27.593 17.5471L28.3613 18.1873ZM28.4753 15.0523H29.4753V14.0523H28.4753V15.0523ZM27.4873 15.0523H28.4873V13.0953H27.4873H26.4873V15.0523H27.4873ZM27.4873 13.0953V14.0953H31.0023V13.0953V12.0953H27.4873V13.0953ZM31.0023 13.0953H30.0023V17.6173H31.0023H32.0023V13.0953H31.0023ZM31.0023 17.6173H30.0023C30.0023 18.3142 29.8374 18.6508 29.6844 18.8136C29.5425 18.9647 29.2609 19.1253 28.6463 19.1253V20.1253V21.1253C29.6023 21.1253 30.4987 20.8679 31.1421 20.183C31.7745 19.5098 32.0023 18.5924 32.0023 17.6173H31.0023ZM28.6463 20.1253V19.1253H26.2523V20.1253V21.1253H28.6463V20.1253ZM26.2523 20.1253V19.1253C25.6376 19.1253 25.356 18.9647 25.2141 18.8136C25.0611 18.6508 24.8963 18.3142 24.8963 17.6173H23.8963H22.8963C22.8963 18.5924 23.1241 19.5098 23.7564 20.183C24.3998 20.8679 25.2962 21.1253 26.2523 21.1253V20.1253ZM23.8963 17.6173H24.8963V9.9603H23.8963H22.8963V17.6173H23.8963ZM23.8963 9.9603H24.8963C24.8963 9.26342 25.0611 8.92682 25.2141 8.76398C25.356 8.61288 25.6376 8.4523 26.2523 8.4523V7.4523V6.4523C25.2962 6.4523 24.3998 6.70972 23.7564 7.39463C23.1241 8.06778 22.8963 8.98518 22.8963 9.9603H23.8963ZM26.2523 7.4523V8.4523H28.6463V7.4523V6.4523H26.2523V7.4523ZM28.6463 7.4523V8.4523C29.2609 8.4523 29.5425 8.61288 29.6844 8.76398C29.8374 8.92682 30.0023 9.26342 30.0023 9.9603H31.0023H32.0023C32.0023 8.98518 31.7745 8.06778 31.1421 7.39463C30.4987 6.70972 29.6023 6.4523 28.6463 6.4523V7.4523ZM31.0023 9.9603H30.0023V11.1193H31.0023H32.0023V9.9603H31.0023ZM31.0023 11.1193V10.1193H28.4753V11.1193V12.1193H31.0023V11.1193ZM28.4753 11.1193H29.4753V9.6373H28.4753H27.4753V11.1193H28.4753ZM28.4753 9.6373H29.4753C29.4753 9.25342 29.3193 8.91511 29.0684 8.6642L28.3613 9.3713L27.6542 10.0784C27.6124 10.0367 27.5641 9.97395 27.5276 9.88872C27.4906 9.80234 27.4753 9.7151 27.4753 9.6373H28.4753ZM28.3613 9.3713L29.1295 8.73111C28.8709 8.4208 28.504 8.2573 28.1143 8.2573V9.2573V10.2573C28.0373 10.2573 27.9379 10.2422 27.833 10.1938C27.7274 10.145 27.6477 10.077 27.593 10.0115L28.3613 9.3713ZM28.1143 9.2573V8.2573H26.9173V9.2573V10.2573H28.1143V9.2573ZM26.9173 9.2573V8.2573C26.5334 8.2573 26.1951 8.41328 25.9442 8.66419L26.6513 9.3713L27.3584 10.0784C27.3167 10.1201 27.2539 10.1684 27.1687 10.2049C27.0823 10.242 26.9951 10.2573 26.9173 10.2573V9.2573ZM26.6513 9.3713L25.883 8.73112C25.666 8.99154 25.5563 9.30823 25.5563 9.6373H26.5563H27.5563C27.5563 9.69249 27.5473 9.75957 27.5218 9.83114C27.4961 9.90304 27.4592 9.96382 27.4195 10.0115L26.6513 9.3713ZM26.5563 9.6373H25.5563V17.9213H26.5563H27.5563V9.6373H26.5563ZM26.5563 17.9213H25.5563C25.5563 18.2504 25.666 18.5671 25.883 18.8275L26.6513 18.1873L27.4195 17.5471C27.4592 17.5948 27.4961 17.6556 27.5218 17.7275C27.5473 17.799 27.5563 17.8661 27.5563 17.9213H26.5563ZM26.6513 18.1873L25.9442 18.8944C26.1951 19.1453 26.5334 19.3013 26.9173 19.3013V18.3013V17.3013C26.9951 17.3013 27.0823 17.3166 27.1687 17.3537C27.2539 17.3902 27.3167 17.4385 27.3584 17.4802L26.6513 18.1873ZM26.9173 18.3013V19.3013H28.1143V18.3013V17.3013H26.9173V18.3013ZM28.1143 18.3013V19.3013C28.5041 19.3013 28.8709 19.1378 29.1295 18.8275L28.3613 18.1873L27.593 17.5471C27.6477 17.4816 27.7274 17.4136 27.833 17.3648C27.9379 17.3164 28.0373 17.3013 28.1143 17.3013V18.3013ZM28.3613 18.1873L29.0684 18.8944C29.3193 18.6435 29.4753 18.3052 29.4753 17.9213H28.4753H27.4753C27.4753 17.8435 27.4906 17.7563 27.5276 17.6699C27.5641 17.5847 27.6125 17.5219 27.6542 17.4802L28.3613 18.1873ZM28.4753 17.9213H29.4753V15.0523H28.4753H27.4753V17.9213H28.4753ZM28.4753 15.0523V14.0523H27.4873V15.0523V16.0523H28.4753V15.0523ZM35.1285 15.1093V14.1093H34.1285V15.1093H35.1285ZM35.1285 19.9353V20.9353H36.1285V19.9353H35.1285ZM32.4685 19.9353H31.4685V20.9353H32.4685V19.9353ZM32.4685 7.6423V6.6423H31.4685V7.6423H32.4685ZM35.1285 7.6423H36.1285V6.6423H35.1285V7.6423ZM35.1285 12.7913H34.1285V13.7913H35.1285V12.7913ZM37.2375 12.7913V13.7913H38.2375V12.7913H37.2375ZM37.2375 7.6423V6.6423H36.2375V7.6423H37.2375ZM39.8975 7.6423H40.8975V6.6423H39.8975V7.6423ZM39.8975 19.9353V20.9353H40.8975V19.9353H39.8975ZM37.2375 19.9353H36.2375V20.9353H37.2375V19.9353ZM37.2375 15.1093H38.2375V14.1093H37.2375V15.1093ZM35.1285 15.1093H34.1285V19.9353H35.1285H36.1285V15.1093H35.1285ZM35.1285 19.9353V18.9353H32.4685V19.9353V20.9353H35.1285V19.9353ZM32.4685 19.9353H33.4685V7.6423H32.4685H31.4685V19.9353H32.4685ZM32.4685 7.6423V8.6423H35.1285V7.6423V6.6423H32.4685V7.6423ZM35.1285 7.6423H34.1285V12.7913H35.1285H36.1285V7.6423H35.1285ZM35.1285 12.7913V13.7913H37.2375V12.7913V11.7913H35.1285V12.7913ZM37.2375 12.7913H38.2375V7.6423H37.2375H36.2375V12.7913H37.2375ZM37.2375 7.6423V8.6423H39.8975V7.6423V6.6423H37.2375V7.6423ZM39.8975 7.6423H38.8975V19.9353H39.8975H40.8975V7.6423H39.8975ZM39.8975 19.9353V18.9353H37.2375V19.9353V20.9353H39.8975V19.9353ZM37.2375 19.9353H38.2375V15.1093H37.2375H36.2375V19.9353H37.2375ZM37.2375 15.1093V14.1093H35.1285V15.1093V16.1093H37.2375V15.1093ZM41.0985 9.9033H40.0985V10.9033H41.0985V9.9033ZM41.0985 7.6423V6.6423H40.0985V7.6423H41.0985ZM47.7485 7.6423H48.7485V6.6423H47.7485V7.6423ZM47.7485 9.9033V10.9033H48.7485V9.9033H47.7485ZM45.7535 9.9033V8.9033H44.7535V9.9033H45.7535ZM45.7535 19.9353V20.9353H46.7535V19.9353H45.7535ZM43.0935 19.9353H42.0935V20.9353H43.0935V19.9353ZM43.0935 9.9033H44.0935V8.9033H43.0935V9.9033ZM41.0985 9.9033H42.0985V7.6423H41.0985H40.0985V9.9033H41.0985ZM41.0985 7.6423V8.6423H47.7485V7.6423V6.6423H41.0985V7.6423ZM47.7485 7.6423H46.7485V9.9033H47.7485H48.7485V7.6423H47.7485ZM47.7485 9.9033V8.9033H45.7535V9.9033V10.9033H47.7485V9.9033ZM45.7535 9.9033H44.7535V19.9353H45.7535H46.7535V9.9033H45.7535ZM45.7535 19.9353V18.9353H43.0935V19.9353V20.9353H45.7535V19.9353ZM43.0935 19.9353H44.0935V9.9033H43.0935H42.0935V19.9353H43.0935ZM43.0935 9.9033V8.9033H41.0985V9.9033V10.9033H43.0935V9.9033ZM51.6236 7.6423H52.6236V6.6423H51.6236V7.6423ZM51.6236 19.9353V20.9353H52.6236V19.9353H51.6236ZM48.9636 19.9353H47.9636V20.9353H48.9636V19.9353ZM48.9636 7.6423V6.6423H47.9636V7.6423H48.9636ZM51.6236 7.6423H50.6236V19.9353H51.6236H52.6236V7.6423H51.6236ZM51.6236 19.9353V18.9353H48.9636V19.9353V20.9353H51.6236V19.9353ZM48.9636 19.9353H49.9636V7.6423H48.9636H47.9636V19.9353H48.9636ZM48.9636 7.6423V8.6423H51.6236V7.6423V6.6423H48.9636V7.6423ZM60.6513 19.9353V20.9353H61.6513V19.9353H60.6513ZM57.9913 19.9353H56.9913V20.9353H57.9913V19.9353ZM57.8773 9.4663L57.1091 10.1065L57.1381 10.1413L57.1702 10.1734L57.8773 9.4663ZM56.3383 9.4663L55.6312 8.7592L55.5991 8.79127L55.5701 8.82612L56.3383 9.4663ZM56.2433 19.9353V20.9353H57.2433V19.9353H56.2433ZM53.5833 19.9353H52.5833V20.9353H53.5833V19.9353ZM60.6513 19.9353V18.9353H57.9913V19.9353V20.9353H60.6513V19.9353ZM57.9913 19.9353H58.9913V9.7323H57.9913H56.9913V19.9353H57.9913ZM57.9913 9.7323H58.9913C58.9913 9.34842 58.8353 9.01011 58.5844 8.75919L57.8773 9.4663L57.1702 10.1734C57.1285 10.1317 57.0802 10.069 57.0437 9.98372C57.0066 9.89734 56.9913 9.8101 56.9913 9.7323H57.9913ZM57.8773 9.4663L58.6455 8.82612C58.3869 8.51581 58.0201 8.3523 57.6303 8.3523V9.3523V10.3523C57.5534 10.3523 57.4539 10.3372 57.349 10.2888C57.2434 10.24 57.1637 10.172 57.1091 10.1065L57.8773 9.4663ZM57.6303 9.3523V8.3523H56.6043V9.3523V10.3523H57.6303V9.3523ZM56.6043 9.3523V8.3523C56.2204 8.3523 55.8821 8.50829 55.6312 8.7592L56.3383 9.4663L57.0454 10.1734C57.0037 10.2151 56.941 10.2634 56.8557 10.2999C56.7694 10.337 56.6821 10.3523 56.6043 10.3523V9.3523ZM56.3383 9.4663L55.5701 8.82612C55.3531 9.08654 55.2433 9.40323 55.2433 9.7323H56.2433H57.2433C57.2433 9.78749 57.2344 9.85457 57.2088 9.92614C57.1831 9.99804 57.1463 10.0588 57.1065 10.1065L56.3383 9.4663ZM56.2433 9.7323H55.2433V19.9353H56.2433H57.2433V9.7323H56.2433ZM56.2433 19.9353V18.9353H53.5833V19.9353V20.9353H56.2433V19.9353ZM53.5833 19.9353H54.5833V9.9603H53.5833H52.5833V19.9353H53.5833ZM53.5833 9.9603H54.5833C54.5833 9.26342 54.7482 8.92682 54.9012 8.76398C55.0431 8.61288 55.3247 8.4523 55.9393 8.4523V7.4523V6.4523C54.9833 6.4523 54.0869 6.70972 53.4435 7.39463C52.8111 8.06778 52.5833 8.98518 52.5833 9.9603H53.5833ZM55.9393 7.4523V8.4523H58.2953V7.4523V6.4523H55.9393V7.4523ZM58.2953 7.4523V8.4523C58.91 8.4523 59.1915 8.61288 59.3335 8.76398C59.4864 8.92682 59.6513 9.26342 59.6513 9.9603H60.6513H61.6513C61.6513 8.98518 61.4235 8.06778 60.7912 7.39463C60.1478 6.70972 59.2513 6.4523 58.2953 6.4523V7.4523ZM60.6513 9.9603H59.6513V19.9353H60.6513H61.6513V9.9603H60.6513ZM66.0253 15.0523H65.0253V16.0523H66.0253V15.0523ZM66.0253 13.0953V12.0953H65.0253V13.0953H66.0253ZM69.5404 13.0953H70.5404V12.0953H69.5404V13.0953ZM69.5404 11.1193V12.1193H70.5404V11.1193H69.5404ZM67.0134 11.1193H66.0133V12.1193H67.0134V11.1193ZM66.8993 9.3713L66.1311 10.0115L66.1602 10.0463L66.1922 10.0784L66.8993 9.3713ZM65.1894 9.3713L64.4822 8.66419L64.4502 8.69627L64.4211 8.73112L65.1894 9.3713ZM65.1894 18.1873L64.4211 18.8275L64.4502 18.8623L64.4822 18.8944L65.1894 18.1873ZM66.8993 18.1873L66.1922 17.4802L66.1602 17.5123L66.1311 17.5471L66.8993 18.1873ZM67.0134 15.0523H68.0134V14.0523H67.0134V15.0523ZM66.0253 15.0523H67.0253V13.0953H66.0253H65.0253V15.0523H66.0253ZM66.0253 13.0953V14.0953H69.5404V13.0953V12.0953H66.0253V13.0953ZM69.5404 13.0953H68.5404V17.6173H69.5404H70.5404V13.0953H69.5404ZM69.5404 17.6173H68.5404C68.5404 18.3142 68.3755 18.6508 68.2225 18.8136C68.0806 18.9647 67.799 19.1253 67.1843 19.1253V20.1253V21.1253C68.1404 21.1253 69.0368 20.8679 69.6802 20.183C70.3126 19.5098 70.5404 18.5924 70.5404 17.6173H69.5404ZM67.1843 20.1253V19.1253H64.7903V20.1253V21.1253H67.1843V20.1253ZM64.7903 20.1253V19.1253C64.1757 19.1253 63.8941 18.9647 63.7522 18.8136C63.5992 18.6508 63.4343 18.3142 63.4343 17.6173H62.4343H61.4343C61.4343 18.5924 61.6621 19.5098 62.2945 20.183C62.9379 20.8679 63.8343 21.1253 64.7903 21.1253V20.1253ZM62.4343 17.6173H63.4343V9.9603H62.4343H61.4343V17.6173H62.4343ZM62.4343 9.9603H63.4343C63.4343 9.26342 63.5992 8.92682 63.7522 8.76398C63.8941 8.61288 64.1757 8.4523 64.7903 8.4523V7.4523V6.4523C63.8343 6.4523 62.9379 6.70972 62.2945 7.39463C61.6621 8.06778 61.4343 8.98518 61.4343 9.9603H62.4343ZM64.7903 7.4523V8.4523H67.1843V7.4523V6.4523H64.7903V7.4523ZM67.1843 7.4523V8.4523C67.799 8.4523 68.0806 8.61288 68.2225 8.76398C68.3755 8.92682 68.5404 9.26342 68.5404 9.9603H69.5404H70.5404C70.5404 8.98518 70.3126 8.06778 69.6802 7.39463C69.0368 6.70972 68.1404 6.4523 67.1843 6.4523V7.4523ZM69.5404 9.9603H68.5404V11.1193H69.5404H70.5404V9.9603H69.5404ZM69.5404 11.1193V10.1193H67.0134V11.1193V12.1193H69.5404V11.1193ZM67.0134 11.1193H68.0134V9.6373H67.0134H66.0133V11.1193H67.0134ZM67.0134 9.6373H68.0134C68.0134 9.25342 67.8574 8.91511 67.6065 8.6642L66.8993 9.3713L66.1922 10.0784C66.1505 10.0367 66.1022 9.97395 66.0657 9.88872C66.0287 9.80234 66.0133 9.7151 66.0133 9.6373H67.0134ZM66.8993 9.3713L67.6676 8.73111C67.409 8.4208 67.0421 8.2573 66.6524 8.2573V9.2573V10.2573C66.5754 10.2573 66.4759 10.2422 66.371 10.1938C66.2655 10.145 66.1858 10.077 66.1311 10.0115L66.8993 9.3713ZM66.6524 9.2573V8.2573H65.4553V9.2573V10.2573H66.6524V9.2573ZM65.4553 9.2573V8.2573C65.0715 8.2573 64.7332 8.41328 64.4822 8.66419L65.1894 9.3713L65.8965 10.0784C65.8548 10.1201 65.792 10.1684 65.7068 10.2049C65.6204 10.242 65.5331 10.2573 65.4553 10.2573V9.2573ZM65.1894 9.3713L64.4211 8.73112C64.2041 8.99154 64.0943 9.30823 64.0943 9.6373H65.0943H66.0943C66.0943 9.69249 66.0854 9.75957 66.0598 9.83114C66.0342 9.90304 65.9973 9.96382 65.9576 10.0115L65.1894 9.3713ZM65.0943 9.6373H64.0943V17.9213H65.0943H66.0943V9.6373H65.0943ZM65.0943 17.9213H64.0943C64.0943 18.2504 64.2041 18.5671 64.4211 18.8275L65.1894 18.1873L65.9576 17.5471C65.9973 17.5948 66.0342 17.6556 66.0598 17.7275C66.0854 17.799 66.0943 17.8661 66.0943 17.9213H65.0943ZM65.1894 18.1873L64.4822 18.8944C64.7332 19.1453 65.0715 19.3013 65.4553 19.3013V18.3013V17.3013C65.5331 17.3013 65.6204 17.3166 65.7068 17.3537C65.792 17.3902 65.8548 17.4385 65.8965 17.4802L65.1894 18.1873ZM65.4553 18.3013V19.3013H66.6524V18.3013V17.3013H65.4553V18.3013ZM66.6524 18.3013V19.3013C67.0421 19.3013 67.409 19.1378 67.6676 18.8275L66.8993 18.1873L66.1311 17.5471C66.1858 17.4816 66.2655 17.4136 66.371 17.3648C66.4759 17.3164 66.5754 17.3013 66.6524 17.3013V18.3013ZM66.8993 18.1873L67.6065 18.8944C67.8574 18.6435 68.0134 18.3052 68.0134 17.9213H67.0134H66.0133C66.0133 17.8435 66.0287 17.7563 66.0657 17.6699C66.1022 17.5847 66.1505 17.5219 66.1922 17.4802L66.8993 18.1873ZM67.0134 17.9213H68.0134V15.0523H67.0134H66.0133V17.9213H67.0134ZM67.0134 15.0523V14.0523H66.0253V15.0523V16.0523H67.0134V15.0523Z" fill="black" mask="url(#path-3-outside-1_216_336)"/>
<defs>
<filter id="filter0_i_216_336" x="-2" y="-3" width="82.8926" height="29.9641" filterUnits="userSpaceOnUse" color-interpolation-filters="sRGB">
<feFlood flood-opacity="0" result="BackgroundImageFix"/>
<feBlend mode="normal" in="SourceGraphic" in2="BackgroundImageFix" result="shape"/>
<feColorMatrix in="SourceAlpha" type="matrix" values="0 0 0 0 0 0 0 0 0 0 0 0 0 0 0 0 0 0 127 0" result="hardAlpha"/>
<feOffset dx="-2" dy="-3"/>
<feGaussianBlur stdDeviation="2"/>
<feComposite in2="hardAlpha" operator="arithmetic" k2="-1" k3="1"/>
<feColorMatrix type="matrix" values="0 0 0 0 0.00961538 0 0 0 0 0.00961538 0 0 0 0 0.00961538 0 0 0 0.25 0"/>
<feBlend mode="normal" in2="shape" result="effect1_innerShadow_216_336"/>
</filter>
</defs>
</svg>
