<svg width="81" height="27" viewBox="0 0 81 27" fill="none" xmlns="http://www.w3.org/2000/svg">
<g filter="url(#filter0_i_216_132)">
<rect width="80.8925" height="26.9642" rx="12" fill="#FF0000"/>
</g>
<rect x="0.5" y="0.5" width="79.8925" height="25.9642" rx="11.5" stroke="black"/>
<mask id="path-3-outside-1_216_132" maskUnits="userSpaceOnUse" x="26.1775" y="5.00012" width="29" height="15" fill="black">
<rect fill="white" x="26.1775" y="5.00012" width="29" height="15"/>
<path d="M30.0472 14.1741V19.0001H27.3872V6.70712H32.9352V9.00612H30.0472V11.9511H32.7452V14.1741H30.0472ZM37.1537 6.70712V19.0001H34.4937V6.70712H37.1537ZM41.7923 13.9651V19.0001H39.1323V6.70712H43.8633C45.434 6.70712 46.2193 7.54312 46.2193 9.21512V10.6401C46.2193 11.6535 45.8583 12.2995 45.1363 12.5781C45.7697 12.8061 46.0863 13.3255 46.0863 14.1361V19.0001H43.4263V14.3451C43.4263 14.0918 43.306 13.9651 43.0653 13.9651H41.7923ZM41.7923 8.51212V12.1031H43.1983C43.2997 12.1031 43.382 12.0651 43.4453 11.9891C43.5213 11.9131 43.5593 11.8245 43.5593 11.7231V8.89212C43.5593 8.79079 43.5213 8.70212 43.4453 8.62612C43.382 8.55012 43.2997 8.51212 43.1983 8.51212H41.7923ZM50.5873 16.7961H53.5323V19.0001H47.9273V6.70712H53.5323V8.87312H50.5873V11.7611H53.3423V13.8511H50.5873V16.7961Z"/>
</mask>
<path d="M30.0472 14.1741V19.0001H27.3872V6.70712H32.9352V9.00612H30.0472V11.9511H32.7452V14.1741H30.0472ZM37.1537 6.70712V19.0001H34.4937V6.70712H37.1537ZM41.7923 13.9651V19.0001H39.1323V6.70712H43.8633C45.434 6.70712 46.2193 7.54312 46.2193 9.21512V10.6401C46.2193 11.6535 45.8583 12.2995 45.1363 12.5781C45.7697 12.8061 46.0863 13.3255 46.0863 14.1361V19.0001H43.4263V14.3451C43.4263 14.0918 43.306 13.9651 43.0653 13.9651H41.7923ZM41.7923 8.51212V12.1031H43.1983C43.2997 12.1031 43.382 12.0651 43.4453 11.9891C43.5213 11.9131 43.5593 11.8245 43.5593 11.7231V8.89212C43.5593 8.79079 43.5213 8.70212 43.4453 8.62612C43.382 8.55012 43.2997 8.51212 43.1983 8.51212H41.7923ZM50.5873 16.7961H53.5323V19.0001H47.9273V6.70712H53.5323V8.87312H50.5873V11.7611H53.3423V13.8511H50.5873V16.7961Z" fill="white"/>
<path d="M30.0472 14.1741V13.1741H29.0472V14.1741H30.0472ZM30.0472 19.0001V20.0001H31.0472V19.0001H30.0472ZM27.3872 19.0001H26.3872V20.0001H27.3872V19.0001ZM27.3872 6.70712V5.70712H26.3872V6.70712H27.3872ZM32.9352 6.70712H33.9352V5.70712H32.9352V6.70712ZM32.9352 9.00612V10.0061H33.9352V9.00612H32.9352ZM30.0472 9.00612V8.00612H29.0472V9.00612H30.0472ZM30.0472 11.9511H29.0472V12.9511H30.0472V11.9511ZM32.7452 11.9511H33.7452V10.9511H32.7452V11.9511ZM32.7452 14.1741V15.1741H33.7452V14.1741H32.7452ZM30.0472 14.1741H29.0472V19.0001H30.0472H31.0472V14.1741H30.0472ZM30.0472 19.0001V18.0001H27.3872V19.0001V20.0001H30.0472V19.0001ZM27.3872 19.0001H28.3872V6.70712H27.3872H26.3872V19.0001H27.3872ZM27.3872 6.70712V7.70712H32.9352V6.70712V5.70712H27.3872V6.70712ZM32.9352 6.70712H31.9352V9.00612H32.9352H33.9352V6.70712H32.9352ZM32.9352 9.00612V8.00612H30.0472V9.00612V10.0061H32.9352V9.00612ZM30.0472 9.00612H29.0472V11.9511H30.0472H31.0472V9.00612H30.0472ZM30.0472 11.9511V12.9511H32.7452V11.9511V10.9511H30.0472V11.9511ZM32.7452 11.9511H31.7452V14.1741H32.7452H33.7452V11.9511H32.7452ZM32.7452 14.1741V13.1741H30.0472V14.1741V15.1741H32.7452V14.1741ZM37.1537 6.70712H38.1537V5.70712H37.1537V6.70712ZM37.1537 19.0001V20.0001H38.1537V19.0001H37.1537ZM34.4937 19.0001H33.4937V20.0001H34.4937V19.0001ZM34.4937 6.70712V5.70712H33.4937V6.70712H34.4937ZM37.1537 6.70712H36.1537V19.0001H37.1537H38.1537V6.70712H37.1537ZM37.1537 19.0001V18.0001H34.4937V19.0001V20.0001H37.1537V19.0001ZM34.4937 19.0001H35.4937V6.70712H34.4937H33.4937V19.0001H34.4937ZM34.4937 6.70712V7.70712H37.1537V6.70712V5.70712H34.4937V6.70712ZM41.7923 13.9651V12.9651H40.7923V13.9651H41.7923ZM41.7923 19.0001V20.0001H42.7923V19.0001H41.7923ZM39.1323 19.0001H38.1323V20.0001H39.1323V19.0001ZM39.1323 6.70712V5.70712H38.1323V6.70712H39.1323ZM45.1363 12.5781L44.7763 11.6452L42.2747 12.6107L44.7976 13.519L45.1363 12.5781ZM46.0863 19.0001V20.0001H47.0863V19.0001H46.0863ZM43.4263 19.0001H42.4263V20.0001H43.4263V19.0001ZM41.7923 8.51212V7.51212H40.7923V8.51212H41.7923ZM41.7923 12.1031H40.7923V13.1031H41.7923V12.1031ZM43.4453 11.9891L42.7382 11.282L42.7062 11.3141L42.6771 11.3489L43.4453 11.9891ZM43.4453 8.62612L42.6771 9.2663L42.7062 9.30115L42.7382 9.33323L43.4453 8.62612ZM41.7923 13.9651H40.7923V19.0001H41.7923H42.7923V13.9651H41.7923ZM41.7923 19.0001V18.0001H39.1323V19.0001V20.0001H41.7923V19.0001ZM39.1323 19.0001H40.1323V6.70712H39.1323H38.1323V19.0001H39.1323ZM39.1323 6.70712V7.70712H43.8633V6.70712V5.70712H39.1323V6.70712ZM43.8633 6.70712V7.70712C44.478 7.70712 44.7596 7.8677 44.9015 8.0188C45.0545 8.18164 45.2193 8.51824 45.2193 9.21512H46.2193H47.2193C47.2193 8.24 46.9916 7.3226 46.3592 6.64945C45.7158 5.96454 44.8194 5.70712 43.8633 5.70712V6.70712ZM46.2193 9.21512H45.2193V10.6401H46.2193H47.2193V9.21512H46.2193ZM46.2193 10.6401H45.2193C45.2193 11.0362 45.1477 11.2679 45.0757 11.3968C45.0145 11.5063 44.9304 11.5857 44.7763 11.6452L45.1363 12.5781L45.4964 13.511C46.0643 13.2919 46.5217 12.909 46.8215 12.3724C47.1105 11.8554 47.2193 11.2573 47.2193 10.6401H46.2193ZM45.1363 12.5781L44.7976 13.519C44.924 13.5645 44.9683 13.6153 44.995 13.6592C45.031 13.7181 45.0863 13.8551 45.0863 14.1361H46.0863H47.0863C47.0863 13.6065 46.9834 13.0785 46.7026 12.618C46.4128 12.1426 45.982 11.8197 45.4751 11.6372L45.1363 12.5781ZM46.0863 14.1361H45.0863V19.0001H46.0863H47.0863V14.1361H46.0863ZM46.0863 19.0001V18.0001H43.4263V19.0001V20.0001H46.0863V19.0001ZM43.4263 19.0001H44.4263V14.3451H43.4263H42.4263V19.0001H43.4263ZM43.4263 14.3451H44.4263C44.4263 14.0767 44.3635 13.6897 44.0611 13.3714C43.7496 13.0434 43.3533 12.9651 43.0653 12.9651V13.9651V14.9651C43.0181 14.9651 42.8023 14.9501 42.6111 14.7489C42.429 14.5572 42.4263 14.3602 42.4263 14.3451H43.4263ZM43.0653 13.9651V12.9651H41.7923V13.9651V14.9651H43.0653V13.9651ZM41.7923 8.51212H40.7923V12.1031H41.7923H42.7923V8.51212H41.7923ZM41.7923 12.1031V13.1031H43.1983V12.1031V11.1031H41.7923V12.1031ZM43.1983 12.1031V13.1031C43.5881 13.1031 43.955 12.9396 44.2136 12.6293L43.4453 11.9891L42.6771 11.3489C42.7317 11.2834 42.8115 11.2154 42.917 11.1667C43.0219 11.1182 43.1214 11.1031 43.1983 11.1031V12.1031ZM43.4453 11.9891L44.1525 12.6962C44.4034 12.4453 44.5593 12.107 44.5593 11.7231H43.5593H42.5593C42.5593 11.6453 42.5747 11.5581 42.6117 11.4717C42.6482 11.3865 42.6965 11.3237 42.7382 11.282L43.4453 11.9891ZM43.5593 11.7231H44.5593V8.89212H43.5593H42.5593V11.7231H43.5593ZM43.5593 8.89212H44.5593C44.5593 8.50823 44.4034 8.16992 44.1525 7.91901L43.4453 8.62612L42.7382 9.33323C42.6965 9.29153 42.6482 9.22877 42.6117 9.14354C42.5747 9.05716 42.5593 8.96992 42.5593 8.89212H43.5593ZM43.4453 8.62612L44.2136 7.98594C43.955 7.67563 43.5881 7.51212 43.1983 7.51212V8.51212V9.51212C43.1214 9.51212 43.0219 9.497 42.917 9.44858C42.8115 9.39985 42.7317 9.33185 42.6771 9.2663L43.4453 8.62612ZM43.1983 8.51212V7.51212H41.7923V8.51212V9.51212H43.1983V8.51212ZM50.5873 16.7961H49.5873V17.7961H50.5873V16.7961ZM53.5323 16.7961H54.5323V15.7961H53.5323V16.7961ZM53.5323 19.0001V20.0001H54.5323V19.0001H53.5323ZM47.9273 19.0001H46.9273V20.0001H47.9273V19.0001ZM47.9273 6.70712V5.70712H46.9273V6.70712H47.9273ZM53.5323 6.70712H54.5323V5.70712H53.5323V6.70712ZM53.5323 8.87312V9.87312H54.5323V8.87312H53.5323ZM50.5873 8.87312V7.87312H49.5873V8.87312H50.5873ZM50.5873 11.7611H49.5873V12.7611H50.5873V11.7611ZM53.3423 11.7611H54.3423V10.7611H53.3423V11.7611ZM53.3423 13.8511V14.8511H54.3423V13.8511H53.3423ZM50.5873 13.8511V12.8511H49.5873V13.8511H50.5873ZM50.5873 16.7961V17.7961H53.5323V16.7961V15.7961H50.5873V16.7961ZM53.5323 16.7961H52.5323V19.0001H53.5323H54.5323V16.7961H53.5323ZM53.5323 19.0001V18.0001H47.9273V19.0001V20.0001H53.5323V19.0001ZM47.9273 19.0001H48.9273V6.70712H47.9273H46.9273V19.0001H47.9273ZM47.9273 6.70712V7.70712H53.5323V6.70712V5.70712H47.9273V6.70712ZM53.5323 6.70712H52.5323V8.87312H53.5323H54.5323V6.70712H53.5323ZM53.5323 8.87312V7.87312H50.5873V8.87312V9.87312H53.5323V8.87312ZM50.5873 8.87312H49.5873V11.7611H50.5873H51.5873V8.87312H50.5873ZM50.5873 11.7611V12.7611H53.3423V11.7611V10.7611H50.5873V11.7611ZM53.3423 11.7611H52.3423V13.8511H53.3423H54.3423V11.7611H53.3423ZM53.3423 13.8511V12.8511H50.5873V13.8511V14.8511H53.3423V13.8511ZM50.5873 13.8511H49.5873V16.7961H50.5873H51.5873V13.8511H50.5873Z" fill="black" mask="url(#path-3-outside-1_216_132)"/>
<defs>
<filter id="filter0_i_216_132" x="-2" y="-3" width="82.8926" height="29.9641" filterUnits="userSpaceOnUse" color-interpolation-filters="sRGB">
<feFlood flood-opacity="0" result="BackgroundImageFix"/>
<feBlend mode="normal" in="SourceGraphic" in2="BackgroundImageFix" result="shape"/>
<feColorMatrix in="SourceAlpha" type="matrix" values="0 0 0 0 0 0 0 0 0 0 0 0 0 0 0 0 0 0 127 0" result="hardAlpha"/>
<feOffset dx="-2" dy="-3"/>
<feGaussianBlur stdDeviation="2"/>
<feComposite in2="hardAlpha" operator="arithmetic" k2="-1" k3="1"/>
<feColorMatrix type="matrix" values="0 0 0 0 0.00961538 0 0 0 0 0.00961538 0 0 0 0 0.00961538 0 0 0 0.25 0"/>
<feBlend mode="normal" in2="shape" result="effect1_innerShadow_216_132"/>
</filter>
</defs>
</svg>
