<svg width="81" height="27" viewBox="0 0 81 27" fill="none" xmlns="http://www.w3.org/2000/svg">
<g filter="url(#filter0_i_216_144)">
<rect width="80.8925" height="26.9642" rx="12" fill="#4CBAFF"/>
</g>
<rect x="0.5" y="0.5" width="79.8925" height="25.9642" rx="11.5" stroke="black"/>
<mask id="path-3-outside-1_216_144" maskUnits="userSpaceOnUse" x="17.1929" y="5.00012" width="46" height="16" fill="black">
<rect fill="white" x="17.1929" y="5.00012" width="46" height="16"/>
<path d="M21.7872 14.1741V19.0001H19.1272V6.70712H24.6752V9.00612H21.7872V11.9511H24.4852V14.1741H21.7872ZM28.8937 16.7581H31.8007V19.0001H26.2337V6.70712H28.8937V16.7581ZM40.1868 6.70712L37.5458 14.5161V19.0001H34.8858V14.5161L32.2448 6.70712H34.7528L36.2158 11.8371L37.6788 6.70712H40.1868ZM43.9786 6.70712V19.0001H41.3186V6.70712H43.9786ZM53.0063 19.0001H50.3463V8.79712C50.3463 8.69579 50.3083 8.60712 50.2323 8.53112C50.169 8.45512 50.0866 8.41712 49.9853 8.41712H48.9593C48.858 8.41712 48.7693 8.45512 48.6933 8.53112C48.63 8.60712 48.5983 8.69579 48.5983 8.79712V19.0001H45.9383V9.02512C45.9383 7.35312 46.7236 6.51712 48.2943 6.51712H50.6503C52.221 6.51712 53.0063 7.35312 53.0063 9.02512V19.0001ZM58.3803 14.1171V12.1601H61.8953V16.6821C61.8953 18.3541 61.11 19.1901 59.5393 19.1901H57.1453C55.5747 19.1901 54.7893 18.3541 54.7893 16.6821V9.02512C54.7893 7.35312 55.5747 6.51712 57.1453 6.51712H59.5393C61.11 6.51712 61.8953 7.35312 61.8953 9.02512V10.1841H59.3683V8.70212C59.3683 8.60079 59.3303 8.51212 59.2543 8.43612C59.191 8.36012 59.1087 8.32212 59.0073 8.32212H57.8103C57.709 8.32212 57.6203 8.36012 57.5443 8.43612C57.481 8.51212 57.4493 8.60079 57.4493 8.70212V16.9861C57.4493 17.0875 57.481 17.1761 57.5443 17.2521C57.6203 17.3281 57.709 17.3661 57.8103 17.3661H59.0073C59.1087 17.3661 59.191 17.3281 59.2543 17.2521C59.3303 17.1761 59.3683 17.0875 59.3683 16.9861V14.1171H58.3803Z"/>
</mask>
<path d="M21.7872 14.1741V19.0001H19.1272V6.70712H24.6752V9.00612H21.7872V11.9511H24.4852V14.1741H21.7872ZM28.8937 16.7581H31.8007V19.0001H26.2337V6.70712H28.8937V16.7581ZM40.1868 6.70712L37.5458 14.5161V19.0001H34.8858V14.5161L32.2448 6.70712H34.7528L36.2158 11.8371L37.6788 6.70712H40.1868ZM43.9786 6.70712V19.0001H41.3186V6.70712H43.9786ZM53.0063 19.0001H50.3463V8.79712C50.3463 8.69579 50.3083 8.60712 50.2323 8.53112C50.169 8.45512 50.0866 8.41712 49.9853 8.41712H48.9593C48.858 8.41712 48.7693 8.45512 48.6933 8.53112C48.63 8.60712 48.5983 8.69579 48.5983 8.79712V19.0001H45.9383V9.02512C45.9383 7.35312 46.7236 6.51712 48.2943 6.51712H50.6503C52.221 6.51712 53.0063 7.35312 53.0063 9.02512V19.0001ZM58.3803 14.1171V12.1601H61.8953V16.6821C61.8953 18.3541 61.11 19.1901 59.5393 19.1901H57.1453C55.5747 19.1901 54.7893 18.3541 54.7893 16.6821V9.02512C54.7893 7.35312 55.5747 6.51712 57.1453 6.51712H59.5393C61.11 6.51712 61.8953 7.35312 61.8953 9.02512V10.1841H59.3683V8.70212C59.3683 8.60079 59.3303 8.51212 59.2543 8.43612C59.191 8.36012 59.1087 8.32212 59.0073 8.32212H57.8103C57.709 8.32212 57.6203 8.36012 57.5443 8.43612C57.481 8.51212 57.4493 8.60079 57.4493 8.70212V16.9861C57.4493 17.0875 57.481 17.1761 57.5443 17.2521C57.6203 17.3281 57.709 17.3661 57.8103 17.3661H59.0073C59.1087 17.3661 59.191 17.3281 59.2543 17.2521C59.3303 17.1761 59.3683 17.0875 59.3683 16.9861V14.1171H58.3803Z" fill="white"/>
<path d="M21.7872 14.1741V13.1741H20.7872V14.1741H21.7872ZM21.7872 19.0001V20.0001H22.7872V19.0001H21.7872ZM19.1272 19.0001H18.1272V20.0001H19.1272V19.0001ZM19.1272 6.70712V5.70712H18.1272V6.70712H19.1272ZM24.6752 6.70712H25.6752V5.70712H24.6752V6.70712ZM24.6752 9.00612V10.0061H25.6752V9.00612H24.6752ZM21.7872 9.00612V8.00612H20.7872V9.00612H21.7872ZM21.7872 11.9511H20.7872V12.9511H21.7872V11.9511ZM24.4852 11.9511H25.4852V10.9511H24.4852V11.9511ZM24.4852 14.1741V15.1741H25.4852V14.1741H24.4852ZM21.7872 14.1741H20.7872V19.0001H21.7872H22.7872V14.1741H21.7872ZM21.7872 19.0001V18.0001H19.1272V19.0001V20.0001H21.7872V19.0001ZM19.1272 19.0001H20.1272V6.70712H19.1272H18.1272V19.0001H19.1272ZM19.1272 6.70712V7.70712H24.6752V6.70712V5.70712H19.1272V6.70712ZM24.6752 6.70712H23.6752V9.00612H24.6752H25.6752V6.70712H24.6752ZM24.6752 9.00612V8.00612H21.7872V9.00612V10.0061H24.6752V9.00612ZM21.7872 9.00612H20.7872V11.9511H21.7872H22.7872V9.00612H21.7872ZM21.7872 11.9511V12.9511H24.4852V11.9511V10.9511H21.7872V11.9511ZM24.4852 11.9511H23.4852V14.1741H24.4852H25.4852V11.9511H24.4852ZM24.4852 14.1741V13.1741H21.7872V14.1741V15.1741H24.4852V14.1741ZM28.8937 16.7581H27.8937V17.7581H28.8937V16.7581ZM31.8007 16.7581H32.8007V15.7581H31.8007V16.7581ZM31.8007 19.0001V20.0001H32.8007V19.0001H31.8007ZM26.2337 19.0001H25.2337V20.0001H26.2337V19.0001ZM26.2337 6.70712V5.70712H25.2337V6.70712H26.2337ZM28.8937 6.70712H29.8937V5.70712H28.8937V6.70712ZM28.8937 16.7581V17.7581H31.8007V16.7581V15.7581H28.8937V16.7581ZM31.8007 16.7581H30.8007V19.0001H31.8007H32.8007V16.7581H31.8007ZM31.8007 19.0001V18.0001H26.2337V19.0001V20.0001H31.8007V19.0001ZM26.2337 19.0001H27.2337V6.70712H26.2337H25.2337V19.0001H26.2337ZM26.2337 6.70712V7.70712H28.8937V6.70712V5.70712H26.2337V6.70712ZM28.8937 6.70712H27.8937V16.7581H28.8937H29.8937V6.70712H28.8937ZM40.1868 6.70712L41.1341 7.0275L41.5806 5.70712H40.1868V6.70712ZM37.5458 14.5161L36.5985 14.1957L36.5458 14.3516V14.5161H37.5458ZM37.5458 19.0001V20.0001H38.5458V19.0001H37.5458ZM34.8858 19.0001H33.8858V20.0001H34.8858V19.0001ZM34.8858 14.5161H35.8858V14.3516L35.8331 14.1957L34.8858 14.5161ZM32.2448 6.70712V5.70712H30.8509L31.2975 7.0275L32.2448 6.70712ZM34.7528 6.70712L35.7144 6.43287L35.5075 5.70712H34.7528V6.70712ZM36.2158 11.8371L35.2541 12.1114L36.2158 15.4834L37.1774 12.1114L36.2158 11.8371ZM37.6788 6.70712V5.70712H36.9241L36.7171 6.43287L37.6788 6.70712ZM40.1868 6.70712L39.2395 6.38675L36.5985 14.1957L37.5458 14.5161L38.4931 14.8365L41.1341 7.0275L40.1868 6.70712ZM37.5458 14.5161H36.5458V19.0001H37.5458H38.5458V14.5161H37.5458ZM37.5458 19.0001V18.0001H34.8858V19.0001V20.0001H37.5458V19.0001ZM34.8858 19.0001H35.8858V14.5161H34.8858H33.8858V19.0001H34.8858ZM34.8858 14.5161L35.8331 14.1957L33.1921 6.38675L32.2448 6.70712L31.2975 7.0275L33.9385 14.8365L34.8858 14.5161ZM32.2448 6.70712V7.70712H34.7528V6.70712V5.70712H32.2448V6.70712ZM34.7528 6.70712L33.7911 6.98137L35.2541 12.1114L36.2158 11.8371L37.1774 11.5629L35.7144 6.43287L34.7528 6.70712ZM36.2158 11.8371L37.1774 12.1114L38.6404 6.98137L37.6788 6.70712L36.7171 6.43287L35.2541 11.5629L36.2158 11.8371ZM37.6788 6.70712V7.70712H40.1868V6.70712V5.70712H37.6788V6.70712ZM43.9786 6.70712H44.9786V5.70712H43.9786V6.70712ZM43.9786 19.0001V20.0001H44.9786V19.0001H43.9786ZM41.3186 19.0001H40.3186V20.0001H41.3186V19.0001ZM41.3186 6.70712V5.70712H40.3186V6.70712H41.3186ZM43.9786 6.70712H42.9786V19.0001H43.9786H44.9786V6.70712H43.9786ZM43.9786 19.0001V18.0001H41.3186V19.0001V20.0001H43.9786V19.0001ZM41.3186 19.0001H42.3186V6.70712H41.3186H40.3186V19.0001H41.3186ZM41.3186 6.70712V7.70712H43.9786V6.70712V5.70712H41.3186V6.70712ZM53.0063 19.0001V20.0001H54.0063V19.0001H53.0063ZM50.3463 19.0001H49.3463V20.0001H50.3463V19.0001ZM50.2323 8.53112L49.4641 9.1713L49.4931 9.20615L49.5252 9.23823L50.2323 8.53112ZM48.6933 8.53112L47.9862 7.82402L47.9541 7.85609L47.9251 7.89094L48.6933 8.53112ZM48.5983 19.0001V20.0001H49.5983V19.0001H48.5983ZM45.9383 19.0001H44.9383V20.0001H45.9383V19.0001ZM53.0063 19.0001V18.0001H50.3463V19.0001V20.0001H53.0063V19.0001ZM50.3463 19.0001H51.3463V8.79712H50.3463H49.3463V19.0001H50.3463ZM50.3463 8.79712H51.3463C51.3463 8.41323 51.1903 8.07493 50.9394 7.82401L50.2323 8.53112L49.5252 9.23823C49.4835 9.19653 49.4352 9.13377 49.3987 9.04854C49.3616 8.96216 49.3463 8.87492 49.3463 8.79712H50.3463ZM50.2323 8.53112L51.0005 7.89094C50.7419 7.58063 50.3751 7.41712 49.9853 7.41712V8.41712V9.41712C49.9084 9.41712 49.8089 9.402 49.704 9.35358C49.5984 9.30485 49.5187 9.23685 49.4641 9.1713L50.2323 8.53112ZM49.9853 8.41712V7.41712H48.9593V8.41712V9.41712H49.9853V8.41712ZM48.9593 8.41712V7.41712C48.5754 7.41712 48.2371 7.57311 47.9862 7.82402L48.6933 8.53112L49.4004 9.23823C49.3587 9.27993 49.2959 9.32824 49.2107 9.36477C49.1243 9.40179 49.0371 9.41712 48.9593 9.41712V8.41712ZM48.6933 8.53112L47.9251 7.89094C47.7081 8.15136 47.5983 8.46805 47.5983 8.79712H48.5983H49.5983C49.5983 8.85231 49.5894 8.91939 49.5638 8.99096C49.5381 9.06286 49.5012 9.12364 49.4615 9.17131L48.6933 8.53112ZM48.5983 8.79712H47.5983V19.0001H48.5983H49.5983V8.79712H48.5983ZM48.5983 19.0001V18.0001H45.9383V19.0001V20.0001H48.5983V19.0001ZM45.9383 19.0001H46.9383V9.02512H45.9383H44.9383V19.0001H45.9383ZM45.9383 9.02512H46.9383C46.9383 8.32824 47.1032 7.99164 47.2561 7.8288C47.3981 7.6777 47.6797 7.51712 48.2943 7.51712V6.51712V5.51712C47.3383 5.51712 46.4418 5.77454 45.7985 6.45945C45.1661 7.1326 44.9383 8.05 44.9383 9.02512H45.9383ZM48.2943 6.51712V7.51712H50.6503V6.51712V5.51712H48.2943V6.51712ZM50.6503 6.51712V7.51712C51.2649 7.51712 51.5465 7.6777 51.6884 7.8288C51.8414 7.99164 52.0063 8.32824 52.0063 9.02512H53.0063H54.0063C54.0063 8.05 53.7785 7.1326 53.1461 6.45945C52.5028 5.77454 51.6063 5.51712 50.6503 5.51712V6.51712ZM53.0063 9.02512H52.0063V19.0001H53.0063H54.0063V9.02512H53.0063ZM58.3803 14.1171H57.3803V15.1171H58.3803V14.1171ZM58.3803 12.1601V11.1601H57.3803V12.1601H58.3803ZM61.8953 12.1601H62.8953V11.1601H61.8953V12.1601ZM61.8953 10.1841V11.1841H62.8953V10.1841H61.8953ZM59.3683 10.1841H58.3683V11.1841H59.3683V10.1841ZM59.2543 8.43612L58.4861 9.07631L58.5151 9.11115L58.5472 9.14322L59.2543 8.43612ZM57.5443 8.43612L56.8372 7.72901L56.8051 7.76109L56.7761 7.79594L57.5443 8.43612ZM57.5443 17.2521L56.7761 17.8923L56.8051 17.9272L56.8372 17.9592L57.5443 17.2521ZM59.2543 17.2521L58.5472 16.545L58.5151 16.5771L58.4861 16.6119L59.2543 17.2521ZM59.3683 14.1171H60.3683V13.1171H59.3683V14.1171ZM58.3803 14.1171H59.3803V12.1601H58.3803H57.3803V14.1171H58.3803ZM58.3803 12.1601V13.1601H61.8953V12.1601V11.1601H58.3803V12.1601ZM61.8953 12.1601H60.8953V16.6821H61.8953H62.8953V12.1601H61.8953ZM61.8953 16.6821H60.8953C60.8953 17.379 60.7305 17.7156 60.5775 17.8784C60.4355 18.0295 60.154 18.1901 59.5393 18.1901V19.1901V20.1901C60.4954 20.1901 61.3918 19.9327 62.0352 19.2478C62.6675 18.5746 62.8953 17.6572 62.8953 16.6821H61.8953ZM59.5393 19.1901V18.1901H57.1453V19.1901V20.1901H59.5393V19.1901ZM57.1453 19.1901V18.1901C56.5307 18.1901 56.2491 18.0295 56.1072 17.8784C55.9542 17.7156 55.7893 17.379 55.7893 16.6821H54.7893H53.7893C53.7893 17.6572 54.0171 18.5746 54.6495 19.2478C55.2929 19.9327 56.1893 20.1901 57.1453 20.1901V19.1901ZM54.7893 16.6821H55.7893V9.02512H54.7893H53.7893V16.6821H54.7893ZM54.7893 9.02512H55.7893C55.7893 8.32824 55.9542 7.99164 56.1072 7.8288C56.2491 7.6777 56.5307 7.51712 57.1453 7.51712V6.51712V5.51712C56.1893 5.51712 55.2929 5.77454 54.6495 6.45945C54.0171 7.1326 53.7893 8.05 53.7893 9.02512H54.7893ZM57.1453 6.51712V7.51712H59.5393V6.51712V5.51712H57.1453V6.51712ZM59.5393 6.51712V7.51712C60.154 7.51712 60.4355 7.6777 60.5775 7.8288C60.7305 7.99164 60.8953 8.32824 60.8953 9.02512H61.8953H62.8953C62.8953 8.05 62.6675 7.1326 62.0352 6.45945C61.3918 5.77454 60.4954 5.51712 59.5393 5.51712V6.51712ZM61.8953 9.02512H60.8953V10.1841H61.8953H62.8953V9.02512H61.8953ZM61.8953 10.1841V9.18412H59.3683V10.1841V11.1841H61.8953V10.1841ZM59.3683 10.1841H60.3683V8.70212H59.3683H58.3683V10.1841H59.3683ZM59.3683 8.70212H60.3683C60.3683 8.31823 60.2123 7.97993 59.9614 7.72902L59.2543 8.43612L58.5472 9.14322C58.5055 9.10152 58.4572 9.03877 58.4207 8.95354C58.3837 8.86716 58.3683 8.77992 58.3683 8.70212H59.3683ZM59.2543 8.43612L60.0225 7.79593C59.764 7.48562 59.3971 7.32212 59.0073 7.32212V8.32212V9.32212C58.9304 9.32212 58.8309 9.307 58.726 9.25858C58.6205 9.20986 58.5407 9.14186 58.4861 9.07631L59.2543 8.43612ZM59.0073 8.32212V7.32212H57.8103V8.32212V9.32212H59.0073V8.32212ZM57.8103 8.32212V7.32212C57.4264 7.32212 57.0881 7.4781 56.8372 7.72901L57.5443 8.43612L58.2514 9.14323C58.2097 9.18493 58.147 9.23324 58.0617 9.26977C57.9754 9.30679 57.8881 9.32212 57.8103 9.32212V8.32212ZM57.5443 8.43612L56.7761 7.79594C56.5591 8.05636 56.4493 8.37305 56.4493 8.70212H57.4493H58.4493C58.4493 8.75731 58.4404 8.82439 58.4148 8.89596C58.3891 8.96786 58.3523 9.02864 58.3126 9.0763L57.5443 8.43612ZM57.4493 8.70212H56.4493V16.9861H57.4493H58.4493V8.70212H57.4493ZM57.4493 16.9861H56.4493C56.4493 17.3152 56.5591 17.6319 56.7761 17.8923L57.5443 17.2521L58.3125 16.6119C58.3523 16.6596 58.3891 16.7204 58.4148 16.7923C58.4404 16.8639 58.4493 16.9309 58.4493 16.9861H57.4493ZM57.5443 17.2521L56.8372 17.9592C57.0881 18.2101 57.4264 18.3661 57.8103 18.3661V17.3661V16.3661C57.8881 16.3661 57.9754 16.3815 58.0617 16.4185C58.147 16.455 58.2097 16.5033 58.2514 16.545L57.5443 17.2521ZM57.8103 17.3661V18.3661H59.0073V17.3661V16.3661H57.8103V17.3661ZM59.0073 17.3661V18.3661C59.3971 18.3661 59.764 18.2026 60.0225 17.8923L59.2543 17.2521L58.4861 16.6119C58.5407 16.5464 58.6204 16.4784 58.726 16.4297C58.8309 16.3812 58.9304 16.3661 59.0073 16.3661V17.3661ZM59.2543 17.2521L59.9614 17.9592C60.2123 17.7083 60.3683 17.37 60.3683 16.9861H59.3683H58.3683C58.3683 16.9083 58.3837 16.8211 58.4207 16.7347C58.4572 16.6495 58.5055 16.5867 58.5472 16.545L59.2543 17.2521ZM59.3683 16.9861H60.3683V14.1171H59.3683H58.3683V16.9861H59.3683ZM59.3683 14.1171V13.1171H58.3803V14.1171V15.1171H59.3683V14.1171Z" fill="black" mask="url(#path-3-outside-1_216_144)"/>
<defs>
<filter id="filter0_i_216_144" x="-2" y="-3" width="82.8926" height="29.9641" filterUnits="userSpaceOnUse" color-interpolation-filters="sRGB">
<feFlood flood-opacity="0" result="BackgroundImageFix"/>
<feBlend mode="normal" in="SourceGraphic" in2="BackgroundImageFix" result="shape"/>
<feColorMatrix in="SourceAlpha" type="matrix" values="0 0 0 0 0 0 0 0 0 0 0 0 0 0 0 0 0 0 127 0" result="hardAlpha"/>
<feOffset dx="-2" dy="-3"/>
<feGaussianBlur stdDeviation="2"/>
<feComposite in2="hardAlpha" operator="arithmetic" k2="-1" k3="1"/>
<feColorMatrix type="matrix" values="0 0 0 0 0.00961538 0 0 0 0 0.00961538 0 0 0 0 0.00961538 0 0 0 0.25 0"/>
<feBlend mode="normal" in2="shape" result="effect1_innerShadow_216_144"/>
</filter>
</defs>
</svg>
