<svg width="81" height="27" viewBox="0 0 81 27" fill="none" xmlns="http://www.w3.org/2000/svg">
<g filter="url(#filter0_i_216_163)">
<rect width="80.8925" height="26.9642" rx="12" fill="#8C4AFF"/>
</g>
<rect x="0.5" y="0.5" width="79.8925" height="25.9642" rx="11.5" stroke="black"/>
<mask id="path-3-outside-1_216_163" maskUnits="userSpaceOnUse" x="18.843" y="4.96765" width="45" height="16" fill="black">
<rect fill="white" x="18.843" y="4.96765" width="45" height="16"/>
<path d="M23.9992 14.0847V12.1277H27.5142V16.6497C27.5142 18.3217 26.7289 19.1577 25.1582 19.1577H22.7642C21.1936 19.1577 20.4082 18.3217 20.4082 16.6497V8.99265C20.4082 7.32065 21.1936 6.48465 22.7642 6.48465H25.1582C26.7289 6.48465 27.5142 7.32065 27.5142 8.99265V10.1517H24.9872V8.66965C24.9872 8.56832 24.9492 8.47965 24.8732 8.40365C24.8099 8.32765 24.7276 8.28965 24.6262 8.28965H23.4292C23.3279 8.28965 23.2392 8.32765 23.1632 8.40365C23.0999 8.47965 23.0682 8.56832 23.0682 8.66965V16.9537C23.0682 17.055 23.0999 17.1437 23.1632 17.2197C23.2392 17.2957 23.3279 17.3337 23.4292 17.3337H24.6262C24.7276 17.3337 24.8099 17.2957 24.8732 17.2197C24.9492 17.1437 24.9872 17.055 24.9872 16.9537V14.0847H23.9992ZM31.6405 14.1417V18.9677H28.9805V6.67465H31.6405V11.8237H33.7495V6.67465H36.4095V18.9677H33.7495V14.1417H31.6405ZM45.5525 8.99265V16.6497C45.5525 18.3217 44.7672 19.1577 43.1965 19.1577H40.6695C39.0988 19.1577 38.3135 18.3217 38.3135 16.6497V8.99265C38.3135 7.32065 39.0988 6.48465 40.6695 6.48465H43.1965C44.7672 6.48465 45.5525 7.32065 45.5525 8.99265ZM42.8925 16.9537V8.66965C42.8925 8.56832 42.8545 8.47965 42.7785 8.40365C42.7152 8.32765 42.6328 8.28965 42.5315 8.28965H41.3345C41.2332 8.28965 41.1445 8.32765 41.0685 8.40365C41.0052 8.47965 40.9735 8.56832 40.9735 8.66965V16.9537C40.9735 17.055 41.0052 17.1437 41.0685 17.2197C41.1445 17.2957 41.2332 17.3337 41.3345 17.3337H42.5315C42.6328 17.3337 42.7152 17.2957 42.7785 17.2197C42.8545 17.1437 42.8925 17.055 42.8925 16.9537ZM54.3376 9.90465H51.8106V8.93565C51.8106 8.83432 51.7726 8.74565 51.6966 8.66965C51.6333 8.59365 51.551 8.55565 51.4496 8.55565H50.4046C50.3033 8.55565 50.2146 8.59365 50.1386 8.66965C50.0753 8.74565 50.0436 8.83432 50.0436 8.93565V11.1207C50.0436 11.222 50.0753 11.3107 50.1386 11.3867C50.2146 11.4627 50.3033 11.5007 50.4046 11.5007H52.1146C53.6853 11.526 54.4706 12.362 54.4706 14.0087V16.6497C54.4706 18.3217 53.6853 19.1577 52.1146 19.1577H49.8726C48.302 19.1577 47.5166 18.3217 47.5166 16.6497V15.3767H50.0436V16.7447C50.0436 16.846 50.0753 16.9347 50.1386 17.0107C50.2146 17.0867 50.3033 17.1247 50.4046 17.1247H51.5826C51.684 17.1247 51.7663 17.0867 51.8296 17.0107C51.9056 16.9347 51.9436 16.846 51.9436 16.7447V14.3317C51.9436 14.2303 51.9056 14.1417 51.8296 14.0657C51.7663 13.9897 51.684 13.9517 51.5826 13.9517H49.8726C48.302 13.9517 47.5166 13.1157 47.5166 11.4437V8.99265C47.5166 7.32065 48.302 6.48465 49.8726 6.48465H51.9816C53.5523 6.48465 54.3376 7.32065 54.3376 8.99265V9.90465ZM55.5158 8.93565V6.67465H62.1658V8.93565H60.1708V18.9677H57.5108V8.93565H55.5158Z"/>
</mask>
<path d="M23.9992 14.0847V12.1277H27.5142V16.6497C27.5142 18.3217 26.7289 19.1577 25.1582 19.1577H22.7642C21.1936 19.1577 20.4082 18.3217 20.4082 16.6497V8.99265C20.4082 7.32065 21.1936 6.48465 22.7642 6.48465H25.1582C26.7289 6.48465 27.5142 7.32065 27.5142 8.99265V10.1517H24.9872V8.66965C24.9872 8.56832 24.9492 8.47965 24.8732 8.40365C24.8099 8.32765 24.7276 8.28965 24.6262 8.28965H23.4292C23.3279 8.28965 23.2392 8.32765 23.1632 8.40365C23.0999 8.47965 23.0682 8.56832 23.0682 8.66965V16.9537C23.0682 17.055 23.0999 17.1437 23.1632 17.2197C23.2392 17.2957 23.3279 17.3337 23.4292 17.3337H24.6262C24.7276 17.3337 24.8099 17.2957 24.8732 17.2197C24.9492 17.1437 24.9872 17.055 24.9872 16.9537V14.0847H23.9992ZM31.6405 14.1417V18.9677H28.9805V6.67465H31.6405V11.8237H33.7495V6.67465H36.4095V18.9677H33.7495V14.1417H31.6405ZM45.5525 8.99265V16.6497C45.5525 18.3217 44.7672 19.1577 43.1965 19.1577H40.6695C39.0988 19.1577 38.3135 18.3217 38.3135 16.6497V8.99265C38.3135 7.32065 39.0988 6.48465 40.6695 6.48465H43.1965C44.7672 6.48465 45.5525 7.32065 45.5525 8.99265ZM42.8925 16.9537V8.66965C42.8925 8.56832 42.8545 8.47965 42.7785 8.40365C42.7152 8.32765 42.6328 8.28965 42.5315 8.28965H41.3345C41.2332 8.28965 41.1445 8.32765 41.0685 8.40365C41.0052 8.47965 40.9735 8.56832 40.9735 8.66965V16.9537C40.9735 17.055 41.0052 17.1437 41.0685 17.2197C41.1445 17.2957 41.2332 17.3337 41.3345 17.3337H42.5315C42.6328 17.3337 42.7152 17.2957 42.7785 17.2197C42.8545 17.1437 42.8925 17.055 42.8925 16.9537ZM54.3376 9.90465H51.8106V8.93565C51.8106 8.83432 51.7726 8.74565 51.6966 8.66965C51.6333 8.59365 51.551 8.55565 51.4496 8.55565H50.4046C50.3033 8.55565 50.2146 8.59365 50.1386 8.66965C50.0753 8.74565 50.0436 8.83432 50.0436 8.93565V11.1207C50.0436 11.222 50.0753 11.3107 50.1386 11.3867C50.2146 11.4627 50.3033 11.5007 50.4046 11.5007H52.1146C53.6853 11.526 54.4706 12.362 54.4706 14.0087V16.6497C54.4706 18.3217 53.6853 19.1577 52.1146 19.1577H49.8726C48.302 19.1577 47.5166 18.3217 47.5166 16.6497V15.3767H50.0436V16.7447C50.0436 16.846 50.0753 16.9347 50.1386 17.0107C50.2146 17.0867 50.3033 17.1247 50.4046 17.1247H51.5826C51.684 17.1247 51.7663 17.0867 51.8296 17.0107C51.9056 16.9347 51.9436 16.846 51.9436 16.7447V14.3317C51.9436 14.2303 51.9056 14.1417 51.8296 14.0657C51.7663 13.9897 51.684 13.9517 51.5826 13.9517H49.8726C48.302 13.9517 47.5166 13.1157 47.5166 11.4437V8.99265C47.5166 7.32065 48.302 6.48465 49.8726 6.48465H51.9816C53.5523 6.48465 54.3376 7.32065 54.3376 8.99265V9.90465ZM55.5158 8.93565V6.67465H62.1658V8.93565H60.1708V18.9677H57.5108V8.93565H55.5158Z" fill="white"/>
<path d="M23.9992 14.0847H22.9992V15.0847H23.9992V14.0847ZM23.9992 12.1277V11.1277H22.9992V12.1277H23.9992ZM27.5142 12.1277H28.5142V11.1277H27.5142V12.1277ZM27.5142 10.1517V11.1517H28.5142V10.1517H27.5142ZM24.9872 10.1517H23.9872V11.1517H24.9872V10.1517ZM24.8732 8.40365L24.105 9.04384L24.134 9.07868L24.1661 9.11075L24.8732 8.40365ZM23.1632 8.40365L22.4561 7.69654L22.424 7.72862L22.395 7.76347L23.1632 8.40365ZM23.1632 17.2197L22.395 17.8598L22.424 17.8947L22.4561 17.9268L23.1632 17.2197ZM24.8732 17.2197L24.1661 16.5125L24.134 16.5446L24.105 16.5795L24.8732 17.2197ZM24.9872 14.0847H25.9872V13.0847H24.9872V14.0847ZM23.9992 14.0847H24.9992V12.1277H23.9992H22.9992V14.0847H23.9992ZM23.9992 12.1277V13.1277H27.5142V12.1277V11.1277H23.9992V12.1277ZM27.5142 12.1277H26.5142V16.6497H27.5142H28.5142V12.1277H27.5142ZM27.5142 16.6497H26.5142C26.5142 17.3465 26.3494 17.6831 26.1964 17.846C26.0544 17.9971 25.7729 18.1577 25.1582 18.1577V19.1577V20.1577C26.1143 20.1577 27.0107 19.9002 27.6541 19.2153C28.2864 18.5422 28.5142 17.6248 28.5142 16.6497H27.5142ZM25.1582 19.1577V18.1577H22.7642V19.1577V20.1577H25.1582V19.1577ZM22.7642 19.1577V18.1577C22.1496 18.1577 21.868 17.9971 21.7261 17.846C21.5731 17.6831 21.4082 17.3465 21.4082 16.6497H20.4082H19.4082C19.4082 17.6248 19.636 18.5422 20.2684 19.2153C20.9118 19.9002 21.8082 20.1577 22.7642 20.1577V19.1577ZM20.4082 16.6497H21.4082V8.99265H20.4082H19.4082V16.6497H20.4082ZM20.4082 8.99265H21.4082C21.4082 8.29577 21.5731 7.95917 21.7261 7.79633C21.868 7.64523 22.1496 7.48465 22.7642 7.48465V6.48465V5.48465C21.8082 5.48465 20.9118 5.74207 20.2684 6.42698C19.636 7.10013 19.4082 8.01753 19.4082 8.99265H20.4082ZM22.7642 6.48465V7.48465H25.1582V6.48465V5.48465H22.7642V6.48465ZM25.1582 6.48465V7.48465C25.7729 7.48465 26.0544 7.64523 26.1964 7.79633C26.3494 7.95917 26.5142 8.29577 26.5142 8.99265H27.5142H28.5142C28.5142 8.01753 28.2864 7.10013 27.6541 6.42698C27.0107 5.74207 26.1143 5.48465 25.1582 5.48465V6.48465ZM27.5142 8.99265H26.5142V10.1517H27.5142H28.5142V8.99265H27.5142ZM27.5142 10.1517V9.15165H24.9872V10.1517V11.1517H27.5142V10.1517ZM24.9872 10.1517H25.9872V8.66965H24.9872H23.9872V10.1517H24.9872ZM24.9872 8.66965H25.9872C25.9872 8.28576 25.8312 7.94746 25.5803 7.69655L24.8732 8.40365L24.1661 9.11075C24.1244 9.06905 24.0761 9.0063 24.0396 8.92107C24.0026 8.83469 23.9872 8.74745 23.9872 8.66965H24.9872ZM24.8732 8.40365L25.6414 7.76346C25.3829 7.45315 25.016 7.28965 24.6262 7.28965V8.28965V9.28965C24.5493 9.28965 24.4498 9.27453 24.3449 9.22611C24.2393 9.17739 24.1596 9.10938 24.105 9.04384L24.8732 8.40365ZM24.6262 8.28965V7.28965H23.4292V8.28965V9.28965H24.6262V8.28965ZM23.4292 8.28965V7.28965C23.0453 7.28965 22.707 7.44563 22.4561 7.69654L23.1632 8.40365L23.8703 9.11076C23.8286 9.15246 23.7659 9.20077 23.6806 9.2373C23.5943 9.27432 23.507 9.28965 23.4292 9.28965V8.28965ZM23.1632 8.40365L22.395 7.76347C22.178 8.02389 22.0682 8.34058 22.0682 8.66965H23.0682H24.0682C24.0682 8.72484 24.0593 8.79192 24.0337 8.86349C24.008 8.93538 23.9712 8.99617 23.9314 9.04383L23.1632 8.40365ZM23.0682 8.66965H22.0682V16.9537H23.0682H24.0682V8.66965H23.0682ZM23.0682 16.9537H22.0682C22.0682 17.2827 22.178 17.5994 22.395 17.8598L23.1632 17.2197L23.9314 16.5795C23.9712 16.6271 24.008 16.6879 24.0337 16.7598C24.0593 16.8314 24.0682 16.8985 24.0682 16.9537H23.0682ZM23.1632 17.2197L22.4561 17.9268C22.707 18.1777 23.0453 18.3337 23.4292 18.3337V17.3337V16.3337C23.507 16.3337 23.5943 16.349 23.6806 16.386C23.7659 16.4225 23.8286 16.4708 23.8703 16.5125L23.1632 17.2197ZM23.4292 17.3337V18.3337H24.6262V17.3337V16.3337H23.4292V17.3337ZM24.6262 17.3337V18.3337C25.016 18.3337 25.3829 18.1701 25.6414 17.8598L24.8732 17.2197L24.105 16.5795C24.1596 16.5139 24.2393 16.4459 24.3449 16.3972C24.4498 16.3488 24.5493 16.3337 24.6262 16.3337V17.3337ZM24.8732 17.2197L25.5803 17.9268C25.8312 17.6758 25.9872 17.3375 25.9872 16.9537H24.9872H23.9872C23.9872 16.8759 24.0026 16.7886 24.0396 16.7022C24.0761 16.617 24.1244 16.5542 24.1661 16.5125L24.8732 17.2197ZM24.9872 16.9537H25.9872V14.0847H24.9872H23.9872V16.9537H24.9872ZM24.9872 14.0847V13.0847H23.9992V14.0847V15.0847H24.9872V14.0847ZM31.6405 14.1417V13.1417H30.6405V14.1417H31.6405ZM31.6405 18.9677V19.9677H32.6405V18.9677H31.6405ZM28.9805 18.9677H27.9805V19.9677H28.9805V18.9677ZM28.9805 6.67465V5.67465H27.9805V6.67465H28.9805ZM31.6405 6.67465H32.6405V5.67465H31.6405V6.67465ZM31.6405 11.8237H30.6405V12.8237H31.6405V11.8237ZM33.7495 11.8237V12.8237H34.7495V11.8237H33.7495ZM33.7495 6.67465V5.67465H32.7495V6.67465H33.7495ZM36.4095 6.67465H37.4095V5.67465H36.4095V6.67465ZM36.4095 18.9677V19.9677H37.4095V18.9677H36.4095ZM33.7495 18.9677H32.7495V19.9677H33.7495V18.9677ZM33.7495 14.1417H34.7495V13.1417H33.7495V14.1417ZM31.6405 14.1417H30.6405V18.9677H31.6405H32.6405V14.1417H31.6405ZM31.6405 18.9677V17.9677H28.9805V18.9677V19.9677H31.6405V18.9677ZM28.9805 18.9677H29.9805V6.67465H28.9805H27.9805V18.9677H28.9805ZM28.9805 6.67465V7.67465H31.6405V6.67465V5.67465H28.9805V6.67465ZM31.6405 6.67465H30.6405V11.8237H31.6405H32.6405V6.67465H31.6405ZM31.6405 11.8237V12.8237H33.7495V11.8237V10.8237H31.6405V11.8237ZM33.7495 11.8237H34.7495V6.67465H33.7495H32.7495V11.8237H33.7495ZM33.7495 6.67465V7.67465H36.4095V6.67465V5.67465H33.7495V6.67465ZM36.4095 6.67465H35.4095V18.9677H36.4095H37.4095V6.67465H36.4095ZM36.4095 18.9677V17.9677H33.7495V18.9677V19.9677H36.4095V18.9677ZM33.7495 18.9677H34.7495V14.1417H33.7495H32.7495V18.9677H33.7495ZM33.7495 14.1417V13.1417H31.6405V14.1417V15.1417H33.7495V14.1417ZM42.7785 8.40365L42.0103 9.04384L42.0393 9.07868L42.0714 9.11075L42.7785 8.40365ZM41.0685 8.40365L40.3614 7.69654L40.3293 7.72862L40.3003 7.76347L41.0685 8.40365ZM41.0685 17.2197L40.3003 17.8598L40.3293 17.8947L40.3614 17.9268L41.0685 17.2197ZM42.7785 17.2197L42.0714 16.5125L42.0393 16.5446L42.0103 16.5795L42.7785 17.2197ZM45.5525 8.99265H44.5525V16.6497H45.5525H46.5525V8.99265H45.5525ZM45.5525 16.6497H44.5525C44.5525 17.3465 44.3876 17.6831 44.2346 17.846C44.0927 17.9971 43.8111 18.1577 43.1965 18.1577V19.1577V20.1577C44.1525 20.1577 45.049 19.9002 45.6923 19.2153C46.3247 18.5422 46.5525 17.6248 46.5525 16.6497H45.5525ZM43.1965 19.1577V18.1577H40.6695V19.1577V20.1577H43.1965V19.1577ZM40.6695 19.1577V18.1577C40.0549 18.1577 39.7733 17.9971 39.6313 17.846C39.4784 17.6831 39.3135 17.3465 39.3135 16.6497H38.3135H37.3135C37.3135 17.6248 37.5413 18.5422 38.1736 19.2153C38.817 19.9002 39.7135 20.1577 40.6695 20.1577V19.1577ZM38.3135 16.6497H39.3135V8.99265H38.3135H37.3135V16.6497H38.3135ZM38.3135 8.99265H39.3135C39.3135 8.29577 39.4784 7.95917 39.6313 7.79633C39.7733 7.64523 40.0549 7.48465 40.6695 7.48465V6.48465V5.48465C39.7135 5.48465 38.817 5.74207 38.1737 6.42698C37.5413 7.10013 37.3135 8.01753 37.3135 8.99265H38.3135ZM40.6695 6.48465V7.48465H43.1965V6.48465V5.48465H40.6695V6.48465ZM43.1965 6.48465V7.48465C43.8111 7.48465 44.0927 7.64523 44.2346 7.79633C44.3876 7.95917 44.5525 8.29577 44.5525 8.99265H45.5525H46.5525C46.5525 8.01753 46.3247 7.10013 45.6923 6.42698C45.049 5.74207 44.1525 5.48465 43.1965 5.48465V6.48465ZM42.8925 16.9537H43.8925V8.66965H42.8925H41.8925V16.9537H42.8925ZM42.8925 8.66965H43.8925C43.8925 8.28576 43.7365 7.94746 43.4856 7.69655L42.7785 8.40365L42.0714 9.11075C42.0297 9.06905 41.9814 9.0063 41.9449 8.92107C41.9078 8.83469 41.8925 8.74745 41.8925 8.66965H42.8925ZM42.7785 8.40365L43.5467 7.76346C43.2881 7.45315 42.9213 7.28965 42.5315 7.28965V8.28965V9.28965C42.4546 9.28965 42.3551 9.27453 42.2502 9.22611C42.1446 9.17739 42.0649 9.10938 42.0103 9.04384L42.7785 8.40365ZM42.5315 8.28965V7.28965H41.3345V8.28965V9.28965H42.5315V8.28965ZM41.3345 8.28965V7.28965C40.9506 7.28965 40.6123 7.44563 40.3614 7.69654L41.0685 8.40365L41.7756 9.11076C41.7339 9.15246 41.6711 9.20077 41.5859 9.2373C41.4995 9.27432 41.4123 9.28965 41.3345 9.28965V8.28965ZM41.0685 8.40365L40.3003 7.76347C40.0833 8.02389 39.9735 8.34058 39.9735 8.66965H40.9735H41.9735C41.9735 8.72484 41.9646 8.79192 41.939 8.86349C41.9133 8.93538 41.8764 8.99617 41.8367 9.04383L41.0685 8.40365ZM40.9735 8.66965H39.9735V16.9537H40.9735H41.9735V8.66965H40.9735ZM40.9735 16.9537H39.9735C39.9735 17.2827 40.0833 17.5994 40.3003 17.8598L41.0685 17.2197L41.8367 16.5795C41.8764 16.6271 41.9133 16.6879 41.939 16.7598C41.9646 16.8314 41.9735 16.8985 41.9735 16.9537H40.9735ZM41.0685 17.2197L40.3614 17.9268C40.6123 18.1777 40.9506 18.3337 41.3345 18.3337V17.3337V16.3337C41.4123 16.3337 41.4995 16.349 41.5859 16.386C41.6711 16.4225 41.7339 16.4708 41.7756 16.5125L41.0685 17.2197ZM41.3345 17.3337V18.3337H42.5315V17.3337V16.3337H41.3345V17.3337ZM42.5315 17.3337V18.3337C42.9213 18.3337 43.2881 18.1701 43.5467 17.8598L42.7785 17.2197L42.0103 16.5795C42.0649 16.5139 42.1446 16.4459 42.2502 16.3972C42.3551 16.3488 42.4546 16.3337 42.5315 16.3337V17.3337ZM42.7785 17.2197L43.4856 17.9268C43.7365 17.6758 43.8925 17.3375 43.8925 16.9537H42.8925H41.8925C41.8925 16.8759 41.9078 16.7886 41.9449 16.7022C41.9814 16.617 42.0297 16.5542 42.0714 16.5125L42.7785 17.2197ZM54.3376 9.90465V10.9047H55.3376V9.90465H54.3376ZM51.8106 9.90465H50.8106V10.9047H51.8106V9.90465ZM51.6966 8.66965L50.9284 9.30984L50.9574 9.34468L50.9895 9.37676L51.6966 8.66965ZM50.1386 8.66965L49.4315 7.96254L49.3994 7.99462L49.3704 8.02947L50.1386 8.66965ZM50.1386 11.3867L49.3704 12.0268L49.3994 12.0617L49.4315 12.0938L50.1386 11.3867ZM52.1146 11.5007L52.1308 10.5008L52.1227 10.5007H52.1146V11.5007ZM47.5166 15.3767V14.3767H46.5166V15.3767H47.5166ZM50.0436 15.3767H51.0436V14.3767H50.0436V15.3767ZM50.1386 17.0107L49.3704 17.6508L49.3994 17.6857L49.4315 17.7178L50.1386 17.0107ZM51.8296 17.0107L51.1225 16.3035L51.0904 16.3356L51.0614 16.3705L51.8296 17.0107ZM51.8296 14.0657L51.0614 14.7058L51.0904 14.7407L51.1225 14.7728L51.8296 14.0657ZM54.3376 9.90465V8.90465H51.8106V9.90465V10.9047H54.3376V9.90465ZM51.8106 9.90465H52.8106V8.93565H51.8106H50.8106V9.90465H51.8106ZM51.8106 8.93565H52.8106C52.8106 8.55176 52.6546 8.21346 52.4037 7.96255L51.6966 8.66965L50.9895 9.37676C50.9478 9.33505 50.8995 9.2723 50.863 9.18707C50.826 9.10069 50.8106 9.01345 50.8106 8.93565H51.8106ZM51.6966 8.66965L52.4648 8.02946C52.2062 7.71915 51.8394 7.55565 51.4496 7.55565V8.55565V9.55565C51.3727 9.55565 51.2732 9.54053 51.1683 9.49211C51.0627 9.44339 50.983 9.37538 50.9284 9.30984L51.6966 8.66965ZM51.4496 8.55565V7.55565H50.4046V8.55565V9.55565H51.4496V8.55565ZM50.4046 8.55565V7.55565C50.0207 7.55565 49.6824 7.71163 49.4315 7.96254L50.1386 8.66965L50.8457 9.37676C50.804 9.41846 50.7413 9.46677 50.656 9.5033C50.5697 9.54032 50.4824 9.55565 50.4046 9.55565V8.55565ZM50.1386 8.66965L49.3704 8.02947C49.1534 8.28989 49.0436 8.60658 49.0436 8.93565H50.0436H51.0436C51.0436 8.99084 51.0347 9.05791 51.0091 9.12949C50.9834 9.20138 50.9466 9.26217 50.9068 9.30983L50.1386 8.66965ZM50.0436 8.93565H49.0436V11.1207H50.0436H51.0436V8.93565H50.0436ZM50.0436 11.1207H49.0436C49.0436 11.4497 49.1534 11.7664 49.3704 12.0268L50.1386 11.3867L50.9068 10.7465C50.9466 10.7941 50.9834 10.8549 51.0091 10.9268C51.0347 10.9984 51.0436 11.0655 51.0436 11.1207H50.0436ZM50.1386 11.3867L49.4315 12.0938C49.6824 12.3447 50.0207 12.5007 50.4046 12.5007V11.5007V10.5007C50.4824 10.5007 50.5697 10.516 50.656 10.553C50.7413 10.5895 50.804 10.6378 50.8457 10.6795L50.1386 11.3867ZM50.4046 11.5007V12.5007H52.1146V11.5007V10.5007H50.4046V11.5007ZM52.1146 11.5007L52.0985 12.5005C52.7161 12.5105 53.0055 12.6745 53.1528 12.8313C53.3081 12.9966 53.4706 13.3294 53.4706 14.0087H54.4706H55.4706C55.4706 13.0413 55.2405 12.1327 54.6105 11.462C53.9725 10.7828 53.0838 10.5162 52.1308 10.5008L52.1146 11.5007ZM54.4706 14.0087H53.4706V16.6497H54.4706H55.4706V14.0087H54.4706ZM54.4706 16.6497H53.4706C53.4706 17.3465 53.3058 17.6831 53.1528 17.846C53.0108 17.9971 52.7293 18.1577 52.1146 18.1577V19.1577V20.1577C53.0706 20.1577 53.9671 19.9002 54.6105 19.2153C55.2428 18.5422 55.4706 17.6248 55.4706 16.6497H54.4706ZM52.1146 19.1577V18.1577H49.8726V19.1577V20.1577H52.1146V19.1577ZM49.8726 19.1577V18.1577C49.258 18.1577 48.9764 17.9971 48.8345 17.846C48.6815 17.6831 48.5166 17.3465 48.5166 16.6497H47.5166H46.5166C46.5166 17.6248 46.7444 18.5422 47.3768 19.2153C48.0202 19.9002 48.9166 20.1577 49.8726 20.1577V19.1577ZM47.5166 16.6497H48.5166V15.3767H47.5166H46.5166V16.6497H47.5166ZM47.5166 15.3767V16.3767H50.0436V15.3767V14.3767H47.5166V15.3767ZM50.0436 15.3767H49.0436V16.7447H50.0436H51.0436V15.3767H50.0436ZM50.0436 16.7447H49.0436C49.0436 17.0737 49.1534 17.3904 49.3704 17.6508L50.1386 17.0107L50.9068 16.3705C50.9466 16.4181 50.9834 16.4789 51.0091 16.5508C51.0347 16.6224 51.0436 16.6895 51.0436 16.7447H50.0436ZM50.1386 17.0107L49.4315 17.7178C49.6824 17.9687 50.0207 18.1247 50.4046 18.1247V17.1247V16.1247C50.4824 16.1247 50.5697 16.14 50.656 16.177C50.7413 16.2135 50.804 16.2618 50.8457 16.3035L50.1386 17.0107ZM50.4046 17.1247V18.1247H51.5826V17.1247V16.1247H50.4046V17.1247ZM51.5826 17.1247V18.1247C51.9724 18.1247 52.3393 17.9611 52.5978 17.6508L51.8296 17.0107L51.0614 16.3705C51.116 16.3049 51.1957 16.2369 51.3013 16.1882C51.4062 16.1398 51.5057 16.1247 51.5826 16.1247V17.1247ZM51.8296 17.0107L52.5367 17.7178C52.7876 17.4668 52.9436 17.1285 52.9436 16.7447H51.9436H50.9436C50.9436 16.6668 50.959 16.5796 50.996 16.4932C51.0325 16.408 51.0808 16.3452 51.1225 16.3035L51.8296 17.0107ZM51.9436 16.7447H52.9436V14.3317H51.9436H50.9436V16.7447H51.9436ZM51.9436 14.3317H52.9436C52.9436 13.9478 52.7876 13.6095 52.5367 13.3585L51.8296 14.0657L51.1225 14.7728C51.0808 14.7311 51.0325 14.6683 50.996 14.5831C50.959 14.4967 50.9436 14.4095 50.9436 14.3317H51.9436ZM51.8296 14.0657L52.5978 13.4255C52.3392 13.1152 51.9724 12.9517 51.5826 12.9517V13.9517V14.9517C51.5057 14.9517 51.4062 14.9365 51.3013 14.8881C51.1957 14.8394 51.116 14.7714 51.0614 14.7058L51.8296 14.0657ZM51.5826 13.9517V12.9517H49.8726V13.9517V14.9517H51.5826V13.9517ZM49.8726 13.9517V12.9517C49.258 12.9517 48.9764 12.7911 48.8345 12.64C48.6815 12.4771 48.5166 12.1405 48.5166 11.4437H47.5166H46.5166C46.5166 12.4188 46.7444 13.3362 47.3768 14.0093C48.0202 14.6942 48.9166 14.9517 49.8726 14.9517V13.9517ZM47.5166 11.4437H48.5166V8.99265H47.5166H46.5166V11.4437H47.5166ZM47.5166 8.99265H48.5166C48.5166 8.29577 48.6815 7.95917 48.8345 7.79633C48.9764 7.64523 49.258 7.48465 49.8726 7.48465V6.48465V5.48465C48.9166 5.48465 48.0202 5.74207 47.3768 6.42698C46.7444 7.10013 46.5166 8.01753 46.5166 8.99265H47.5166ZM49.8726 6.48465V7.48465H51.9816V6.48465V5.48465H49.8726V6.48465ZM51.9816 6.48465V7.48465C52.5963 7.48465 52.8778 7.64523 53.0198 7.79633C53.1728 7.95917 53.3376 8.29577 53.3376 8.99265H54.3376H55.3376C55.3376 8.01753 55.1098 7.10013 54.4775 6.42698C53.8341 5.74207 52.9376 5.48465 51.9816 5.48465V6.48465ZM54.3376 8.99265H53.3376V9.90465H54.3376H55.3376V8.99265H54.3376ZM55.5158 8.93565H54.5158V9.93565H55.5158V8.93565ZM55.5158 6.67465V5.67465H54.5158V6.67465H55.5158ZM62.1658 6.67465H63.1658V5.67465H62.1658V6.67465ZM62.1658 8.93565V9.93565H63.1658V8.93565H62.1658ZM60.1708 8.93565V7.93565H59.1708V8.93565H60.1708ZM60.1708 18.9677V19.9677H61.1708V18.9677H60.1708ZM57.5108 18.9677H56.5108V19.9677H57.5108V18.9677ZM57.5108 8.93565H58.5108V7.93565H57.5108V8.93565ZM55.5158 8.93565H56.5158V6.67465H55.5158H54.5158V8.93565H55.5158ZM55.5158 6.67465V7.67465H62.1658V6.67465V5.67465H55.5158V6.67465ZM62.1658 6.67465H61.1658V8.93565H62.1658H63.1658V6.67465H62.1658ZM62.1658 8.93565V7.93565H60.1708V8.93565V9.93565H62.1658V8.93565ZM60.1708 8.93565H59.1708V18.9677H60.1708H61.1708V8.93565H60.1708ZM60.1708 18.9677V17.9677H57.5108V18.9677V19.9677H60.1708V18.9677ZM57.5108 18.9677H58.5108V8.93565H57.5108H56.5108V18.9677H57.5108ZM57.5108 8.93565V7.93565H55.5158V8.93565V9.93565H57.5108V8.93565Z" fill="black" mask="url(#path-3-outside-1_216_163)"/>
<defs>
<filter id="filter0_i_216_163" x="-2" y="-3" width="82.8926" height="29.9641" filterUnits="userSpaceOnUse" color-interpolation-filters="sRGB">
<feFlood flood-opacity="0" result="BackgroundImageFix"/>
<feBlend mode="normal" in="SourceGraphic" in2="BackgroundImageFix" result="shape"/>
<feColorMatrix in="SourceAlpha" type="matrix" values="0 0 0 0 0 0 0 0 0 0 0 0 0 0 0 0 0 0 127 0" result="hardAlpha"/>
<feOffset dx="-2" dy="-3"/>
<feGaussianBlur stdDeviation="2"/>
<feComposite in2="hardAlpha" operator="arithmetic" k2="-1" k3="1"/>
<feColorMatrix type="matrix" values="0 0 0 0 0.00961538 0 0 0 0 0.00961538 0 0 0 0 0.00961538 0 0 0 0.25 0"/>
<feBlend mode="normal" in2="shape" result="effect1_innerShadow_216_163"/>
</filter>
</defs>
</svg>
