<svg width="81" height="27" viewBox="0 0 81 27" fill="none" xmlns="http://www.w3.org/2000/svg">
<g filter="url(#filter0_i_216_140)">
<rect width="80.8925" height="26.9642" rx="12" fill="#12DE00"/>
</g>
<rect x="0.5" y="0.5" width="79.8925" height="25.9642" rx="11.5" stroke="black"/>
<mask id="path-3-outside-1_216_140" maskUnits="userSpaceOnUse" x="18.843" y="5.00012" width="45" height="16" fill="black">
<rect fill="white" x="18.843" y="5.00012" width="45" height="16"/>
<path d="M23.489 14.1171V12.1601H27.004V16.6821C27.004 18.3541 26.2186 19.1901 24.648 19.1901H22.254C20.6833 19.1901 19.898 18.3541 19.898 16.6821V9.02512C19.898 7.35312 20.6833 6.51712 22.254 6.51712H24.648C26.2186 6.51712 27.004 7.35312 27.004 9.02512V10.1841H24.477V8.70212C24.477 8.60079 24.439 8.51212 24.363 8.43612C24.2996 8.36012 24.2173 8.32212 24.116 8.32212H22.919C22.8176 8.32212 22.729 8.36012 22.653 8.43612C22.5896 8.51212 22.558 8.60079 22.558 8.70212V16.9861C22.558 17.0875 22.5896 17.1761 22.653 17.2521C22.729 17.3281 22.8176 17.3661 22.919 17.3661H24.116C24.2173 17.3661 24.2996 17.3281 24.363 17.2521C24.439 17.1761 24.477 17.0875 24.477 16.9861V14.1171H23.489ZM31.1302 13.9651V19.0001H28.4702V6.70712H33.2012C34.7719 6.70712 35.5572 7.54312 35.5572 9.21512V10.6401C35.5572 11.6535 35.1962 12.2995 34.4742 12.5781C35.1076 12.8061 35.4242 13.3255 35.4242 14.1361V19.0001H32.7642V14.3451C32.7642 14.0918 32.6439 13.9651 32.4032 13.9651H31.1302ZM31.1302 8.51212V12.1031H32.5362C32.6376 12.1031 32.7199 12.0651 32.7832 11.9891C32.8592 11.9131 32.8972 11.8245 32.8972 11.7231V8.89212C32.8972 8.79079 32.8592 8.70212 32.7832 8.62612C32.7199 8.55012 32.6376 8.51212 32.5362 8.51212H31.1302ZM42.1482 6.51712C43.7188 6.51712 44.5042 7.35312 44.5042 9.02512V19.0001H41.8442V14.8771H39.9252V19.0001H37.2652V9.02512C37.2652 7.35312 38.0505 6.51712 39.6212 6.51712H42.1482ZM39.9252 12.8251H41.8442V8.70212C41.8442 8.60079 41.8062 8.51212 41.7302 8.43612C41.6668 8.36012 41.5845 8.32212 41.4832 8.32212H40.2862C40.1848 8.32212 40.0962 8.36012 40.0202 8.43612C39.9568 8.51212 39.9252 8.60079 39.9252 8.70212V12.8251ZM53.3078 9.93712H50.7808V8.96812C50.7808 8.86679 50.7428 8.77812 50.6668 8.70212C50.6035 8.62612 50.5212 8.58812 50.4198 8.58812H49.3748C49.2735 8.58812 49.1848 8.62612 49.1088 8.70212C49.0455 8.77812 49.0138 8.86679 49.0138 8.96812V11.1531C49.0138 11.2545 49.0455 11.3431 49.1088 11.4191C49.1848 11.4951 49.2735 11.5331 49.3748 11.5331H51.0848C52.6555 11.5585 53.4408 12.3945 53.4408 14.0411V16.6821C53.4408 18.3541 52.6555 19.1901 51.0848 19.1901H48.8428C47.2722 19.1901 46.4868 18.3541 46.4868 16.6821V15.4091H49.0138V16.7771C49.0138 16.8785 49.0455 16.9671 49.1088 17.0431C49.1848 17.1191 49.2735 17.1571 49.3748 17.1571H50.5528C50.6542 17.1571 50.7365 17.1191 50.7998 17.0431C50.8758 16.9671 50.9138 16.8785 50.9138 16.7771V14.3641C50.9138 14.2628 50.8758 14.1741 50.7998 14.0981C50.7365 14.0221 50.6542 13.9841 50.5528 13.9841H48.8428C47.2722 13.9841 46.4868 13.1481 46.4868 11.4761V9.02512C46.4868 7.35312 47.2722 6.51712 48.8428 6.51712H50.9518C52.5225 6.51712 53.3078 7.35312 53.3078 9.02512V9.93712ZM62.01 9.93712H59.483V8.96812C59.483 8.86679 59.445 8.77812 59.369 8.70212C59.3057 8.62612 59.2233 8.58812 59.122 8.58812H58.077C57.9757 8.58812 57.887 8.62612 57.811 8.70212C57.7477 8.77812 57.716 8.86679 57.716 8.96812V11.1531C57.716 11.2545 57.7477 11.3431 57.811 11.4191C57.887 11.4951 57.9757 11.5331 58.077 11.5331H59.787C61.3577 11.5585 62.143 12.3945 62.143 14.0411V16.6821C62.143 18.3541 61.3577 19.1901 59.787 19.1901H57.545C55.9743 19.1901 55.189 18.3541 55.189 16.6821V15.4091H57.716V16.7771C57.716 16.8785 57.7477 16.9671 57.811 17.0431C57.887 17.1191 57.9757 17.1571 58.077 17.1571H59.255C59.3563 17.1571 59.4387 17.1191 59.502 17.0431C59.578 16.9671 59.616 16.8785 59.616 16.7771V14.3641C59.616 14.2628 59.578 14.1741 59.502 14.0981C59.4387 14.0221 59.3563 13.9841 59.255 13.9841H57.545C55.9743 13.9841 55.189 13.1481 55.189 11.4761V9.02512C55.189 7.35312 55.9743 6.51712 57.545 6.51712H59.654C61.2247 6.51712 62.01 7.35312 62.01 9.02512V9.93712Z"/>
</mask>
<path d="M23.489 14.1171V12.1601H27.004V16.6821C27.004 18.3541 26.2186 19.1901 24.648 19.1901H22.254C20.6833 19.1901 19.898 18.3541 19.898 16.6821V9.02512C19.898 7.35312 20.6833 6.51712 22.254 6.51712H24.648C26.2186 6.51712 27.004 7.35312 27.004 9.02512V10.1841H24.477V8.70212C24.477 8.60079 24.439 8.51212 24.363 8.43612C24.2996 8.36012 24.2173 8.32212 24.116 8.32212H22.919C22.8176 8.32212 22.729 8.36012 22.653 8.43612C22.5896 8.51212 22.558 8.60079 22.558 8.70212V16.9861C22.558 17.0875 22.5896 17.1761 22.653 17.2521C22.729 17.3281 22.8176 17.3661 22.919 17.3661H24.116C24.2173 17.3661 24.2996 17.3281 24.363 17.2521C24.439 17.1761 24.477 17.0875 24.477 16.9861V14.1171H23.489ZM31.1302 13.9651V19.0001H28.4702V6.70712H33.2012C34.7719 6.70712 35.5572 7.54312 35.5572 9.21512V10.6401C35.5572 11.6535 35.1962 12.2995 34.4742 12.5781C35.1076 12.8061 35.4242 13.3255 35.4242 14.1361V19.0001H32.7642V14.3451C32.7642 14.0918 32.6439 13.9651 32.4032 13.9651H31.1302ZM31.1302 8.51212V12.1031H32.5362C32.6376 12.1031 32.7199 12.0651 32.7832 11.9891C32.8592 11.9131 32.8972 11.8245 32.8972 11.7231V8.89212C32.8972 8.79079 32.8592 8.70212 32.7832 8.62612C32.7199 8.55012 32.6376 8.51212 32.5362 8.51212H31.1302ZM42.1482 6.51712C43.7188 6.51712 44.5042 7.35312 44.5042 9.02512V19.0001H41.8442V14.8771H39.9252V19.0001H37.2652V9.02512C37.2652 7.35312 38.0505 6.51712 39.6212 6.51712H42.1482ZM39.9252 12.8251H41.8442V8.70212C41.8442 8.60079 41.8062 8.51212 41.7302 8.43612C41.6668 8.36012 41.5845 8.32212 41.4832 8.32212H40.2862C40.1848 8.32212 40.0962 8.36012 40.0202 8.43612C39.9568 8.51212 39.9252 8.60079 39.9252 8.70212V12.8251ZM53.3078 9.93712H50.7808V8.96812C50.7808 8.86679 50.7428 8.77812 50.6668 8.70212C50.6035 8.62612 50.5212 8.58812 50.4198 8.58812H49.3748C49.2735 8.58812 49.1848 8.62612 49.1088 8.70212C49.0455 8.77812 49.0138 8.86679 49.0138 8.96812V11.1531C49.0138 11.2545 49.0455 11.3431 49.1088 11.4191C49.1848 11.4951 49.2735 11.5331 49.3748 11.5331H51.0848C52.6555 11.5585 53.4408 12.3945 53.4408 14.0411V16.6821C53.4408 18.3541 52.6555 19.1901 51.0848 19.1901H48.8428C47.2722 19.1901 46.4868 18.3541 46.4868 16.6821V15.4091H49.0138V16.7771C49.0138 16.8785 49.0455 16.9671 49.1088 17.0431C49.1848 17.1191 49.2735 17.1571 49.3748 17.1571H50.5528C50.6542 17.1571 50.7365 17.1191 50.7998 17.0431C50.8758 16.9671 50.9138 16.8785 50.9138 16.7771V14.3641C50.9138 14.2628 50.8758 14.1741 50.7998 14.0981C50.7365 14.0221 50.6542 13.9841 50.5528 13.9841H48.8428C47.2722 13.9841 46.4868 13.1481 46.4868 11.4761V9.02512C46.4868 7.35312 47.2722 6.51712 48.8428 6.51712H50.9518C52.5225 6.51712 53.3078 7.35312 53.3078 9.02512V9.93712ZM62.01 9.93712H59.483V8.96812C59.483 8.86679 59.445 8.77812 59.369 8.70212C59.3057 8.62612 59.2233 8.58812 59.122 8.58812H58.077C57.9757 8.58812 57.887 8.62612 57.811 8.70212C57.7477 8.77812 57.716 8.86679 57.716 8.96812V11.1531C57.716 11.2545 57.7477 11.3431 57.811 11.4191C57.887 11.4951 57.9757 11.5331 58.077 11.5331H59.787C61.3577 11.5585 62.143 12.3945 62.143 14.0411V16.6821C62.143 18.3541 61.3577 19.1901 59.787 19.1901H57.545C55.9743 19.1901 55.189 18.3541 55.189 16.6821V15.4091H57.716V16.7771C57.716 16.8785 57.7477 16.9671 57.811 17.0431C57.887 17.1191 57.9757 17.1571 58.077 17.1571H59.255C59.3563 17.1571 59.4387 17.1191 59.502 17.0431C59.578 16.9671 59.616 16.8785 59.616 16.7771V14.3641C59.616 14.2628 59.578 14.1741 59.502 14.0981C59.4387 14.0221 59.3563 13.9841 59.255 13.9841H57.545C55.9743 13.9841 55.189 13.1481 55.189 11.4761V9.02512C55.189 7.35312 55.9743 6.51712 57.545 6.51712H59.654C61.2247 6.51712 62.01 7.35312 62.01 9.02512V9.93712Z" fill="white"/>
<path d="M23.489 14.1171H22.489V15.1171H23.489V14.1171ZM23.489 12.1601V11.1601H22.489V12.1601H23.489ZM27.004 12.1601H28.004V11.1601H27.004V12.1601ZM27.004 10.1841V11.1841H28.004V10.1841H27.004ZM24.477 10.1841H23.477V11.1841H24.477V10.1841ZM24.363 8.43612L23.5948 9.07631L23.6238 9.11115L23.6559 9.14322L24.363 8.43612ZM22.653 8.43612L21.9459 7.72901L21.9138 7.76109L21.8847 7.79594L22.653 8.43612ZM22.653 17.2521L21.8848 17.8923L21.9138 17.9272L21.9459 17.9592L22.653 17.2521ZM24.363 17.2521L23.6559 16.545L23.6238 16.5771L23.5948 16.6119L24.363 17.2521ZM24.477 14.1171H25.477V13.1171H24.477V14.1171ZM23.489 14.1171H24.489V12.1601H23.489H22.489V14.1171H23.489ZM23.489 12.1601V13.1601H27.004V12.1601V11.1601H23.489V12.1601ZM27.004 12.1601H26.004V16.6821H27.004H28.004V12.1601H27.004ZM27.004 16.6821H26.004C26.004 17.379 25.8391 17.7156 25.6861 17.8784C25.5442 18.0295 25.2626 18.1901 24.648 18.1901V19.1901V20.1901C25.604 20.1901 26.5004 19.9327 27.1438 19.2478C27.7762 18.5746 28.004 17.6572 28.004 16.6821H27.004ZM24.648 19.1901V18.1901H22.254V19.1901V20.1901H24.648V19.1901ZM22.254 19.1901V18.1901C21.6393 18.1901 21.3578 18.0295 21.2158 17.8784C21.0628 17.7156 20.898 17.379 20.898 16.6821H19.898H18.898C18.898 17.6572 19.1258 18.5746 19.7581 19.2478C20.4015 19.9327 21.2979 20.1901 22.254 20.1901V19.1901ZM19.898 16.6821H20.898V9.02512H19.898H18.898V16.6821H19.898ZM19.898 9.02512H20.898C20.898 8.32824 21.0628 7.99164 21.2158 7.8288C21.3578 7.6777 21.6393 7.51712 22.254 7.51712V6.51712V5.51712C21.2979 5.51712 20.4015 5.77454 19.7581 6.45945C19.1258 7.1326 18.898 8.05 18.898 9.02512H19.898ZM22.254 6.51712V7.51712H24.648V6.51712V5.51712H22.254V6.51712ZM24.648 6.51712V7.51712C25.2626 7.51712 25.5442 7.6777 25.6861 7.8288C25.8391 7.99164 26.004 8.32824 26.004 9.02512H27.004H28.004C28.004 8.05 27.7762 7.1326 27.1438 6.45945C26.5004 5.77454 25.604 5.51712 24.648 5.51712V6.51712ZM27.004 9.02512H26.004V10.1841H27.004H28.004V9.02512H27.004ZM27.004 10.1841V9.18412H24.477V10.1841V11.1841H27.004V10.1841ZM24.477 10.1841H25.477V8.70212H24.477H23.477V10.1841H24.477ZM24.477 8.70212H25.477C25.477 8.31823 25.321 7.97993 25.0701 7.72902L24.363 8.43612L23.6559 9.14322C23.6142 9.10152 23.5659 9.03877 23.5293 8.95354C23.4923 8.86716 23.477 8.77992 23.477 8.70212H24.477ZM24.363 8.43612L25.1312 7.79593C24.8726 7.48562 24.5058 7.32212 24.116 7.32212V8.32212V9.32212C24.039 9.32212 23.9396 9.307 23.8347 9.25858C23.7291 9.20986 23.6494 9.14186 23.5948 9.07631L24.363 8.43612ZM24.116 8.32212V7.32212H22.919V8.32212V9.32212H24.116V8.32212ZM22.919 8.32212V7.32212C22.5351 7.32212 22.1968 7.4781 21.9459 7.72901L22.653 8.43612L23.3601 9.14323C23.3184 9.18493 23.2556 9.23324 23.1704 9.26977C23.084 9.30679 22.9968 9.32212 22.919 9.32212V8.32212ZM22.653 8.43612L21.8847 7.79594C21.6677 8.05636 21.558 8.37305 21.558 8.70212H22.558H23.558C23.558 8.75731 23.549 8.82439 23.5235 8.89596C23.4978 8.96786 23.4609 9.02864 23.4212 9.0763L22.653 8.43612ZM22.558 8.70212H21.558V16.9861H22.558H23.558V8.70212H22.558ZM22.558 16.9861H21.558C21.558 17.3152 21.6677 17.6319 21.8848 17.8923L22.653 17.2521L23.4212 16.6119C23.4609 16.6596 23.4978 16.7204 23.5235 16.7923C23.549 16.8639 23.558 16.9309 23.558 16.9861H22.558ZM22.653 17.2521L21.9459 17.9592C22.1968 18.2101 22.5351 18.3661 22.919 18.3661V17.3661V16.3661C22.9968 16.3661 23.084 16.3815 23.1704 16.4185C23.2556 16.455 23.3184 16.5033 23.3601 16.545L22.653 17.2521ZM22.919 17.3661V18.3661H24.116V17.3661V16.3661H22.919V17.3661ZM24.116 17.3661V18.3661C24.5058 18.3661 24.8726 18.2026 25.1312 17.8923L24.363 17.2521L23.5948 16.6119C23.6494 16.5464 23.7291 16.4784 23.8347 16.4297C23.9396 16.3812 24.039 16.3661 24.116 16.3661V17.3661ZM24.363 17.2521L25.0701 17.9592C25.321 17.7083 25.477 17.37 25.477 16.9861H24.477H23.477C23.477 16.9083 23.4923 16.8211 23.5293 16.7347C23.5659 16.6495 23.6142 16.5867 23.6559 16.545L24.363 17.2521ZM24.477 16.9861H25.477V14.1171H24.477H23.477V16.9861H24.477ZM24.477 14.1171V13.1171H23.489V14.1171V15.1171H24.477V14.1171ZM31.1302 13.9651V12.9651H30.1302V13.9651H31.1302ZM31.1302 19.0001V20.0001H32.1302V19.0001H31.1302ZM28.4702 19.0001H27.4702V20.0001H28.4702V19.0001ZM28.4702 6.70712V5.70712H27.4702V6.70712H28.4702ZM34.4742 12.5781L34.1142 11.6452L31.6125 12.6107L34.1355 13.519L34.4742 12.5781ZM35.4242 19.0001V20.0001H36.4242V19.0001H35.4242ZM32.7642 19.0001H31.7642V20.0001H32.7642V19.0001ZM31.1302 8.51212V7.51212H30.1302V8.51212H31.1302ZM31.1302 12.1031H30.1302V13.1031H31.1302V12.1031ZM32.7832 11.9891L32.0761 11.282L32.0441 11.3141L32.015 11.3489L32.7832 11.9891ZM32.7832 8.62612L32.015 9.2663L32.0441 9.30115L32.0761 9.33323L32.7832 8.62612ZM31.1302 13.9651H30.1302V19.0001H31.1302H32.1302V13.9651H31.1302ZM31.1302 19.0001V18.0001H28.4702V19.0001V20.0001H31.1302V19.0001ZM28.4702 19.0001H29.4702V6.70712H28.4702H27.4702V19.0001H28.4702ZM28.4702 6.70712V7.70712H33.2012V6.70712V5.70712H28.4702V6.70712ZM33.2012 6.70712V7.70712C33.8159 7.70712 34.0975 7.8677 34.2394 8.0188C34.3924 8.18164 34.5572 8.51824 34.5572 9.21512H35.5572H36.5572C36.5572 8.24 36.3294 7.3226 35.6971 6.64945C35.0537 5.96454 34.1573 5.70712 33.2012 5.70712V6.70712ZM35.5572 9.21512H34.5572V10.6401H35.5572H36.5572V9.21512H35.5572ZM35.5572 10.6401H34.5572C34.5572 11.0362 34.4856 11.2679 34.4135 11.3968C34.3524 11.5063 34.2683 11.5857 34.1142 11.6452L34.4742 12.5781L34.8343 13.511C35.4021 13.2919 35.8596 12.909 36.1594 12.3724C36.4484 11.8554 36.5572 11.2573 36.5572 10.6401H35.5572ZM34.4742 12.5781L34.1355 13.519C34.2619 13.5645 34.3061 13.6153 34.3329 13.6592C34.3689 13.7181 34.4242 13.8551 34.4242 14.1361H35.4242H36.4242C36.4242 13.6065 36.3213 13.0785 36.0405 12.618C35.7507 12.1426 35.3199 11.8197 34.813 11.6372L34.4742 12.5781ZM35.4242 14.1361H34.4242V19.0001H35.4242H36.4242V14.1361H35.4242ZM35.4242 19.0001V18.0001H32.7642V19.0001V20.0001H35.4242V19.0001ZM32.7642 19.0001H33.7642V14.3451H32.7642H31.7642V19.0001H32.7642ZM32.7642 14.3451H33.7642C33.7642 14.0767 33.7014 13.6897 33.399 13.3714C33.0874 13.0434 32.6912 12.9651 32.4032 12.9651V13.9651V14.9651C32.356 14.9651 32.1402 14.9501 31.949 14.7489C31.7669 14.5572 31.7642 14.3602 31.7642 14.3451H32.7642ZM32.4032 13.9651V12.9651H31.1302V13.9651V14.9651H32.4032V13.9651ZM31.1302 8.51212H30.1302V12.1031H31.1302H32.1302V8.51212H31.1302ZM31.1302 12.1031V13.1031H32.5362V12.1031V11.1031H31.1302V12.1031ZM32.5362 12.1031V13.1031C32.926 13.1031 33.2929 12.9396 33.5515 12.6293L32.7832 11.9891L32.015 11.3489C32.0696 11.2834 32.1494 11.2154 32.2549 11.1667C32.3598 11.1182 32.4593 11.1031 32.5362 11.1031V12.1031ZM32.7832 11.9891L33.4903 12.6962C33.7413 12.4453 33.8972 12.107 33.8972 11.7231H32.8972H31.8972C31.8972 11.6453 31.9126 11.5581 31.9496 11.4717C31.9861 11.3865 32.0344 11.3237 32.0761 11.282L32.7832 11.9891ZM32.8972 11.7231H33.8972V8.89212H32.8972H31.8972V11.7231H32.8972ZM32.8972 8.89212H33.8972C33.8972 8.50823 33.7413 8.16992 33.4903 7.91901L32.7832 8.62612L32.0761 9.33323C32.0344 9.29153 31.9861 9.22877 31.9496 9.14354C31.9126 9.05716 31.8972 8.96992 31.8972 8.89212H32.8972ZM32.7832 8.62612L33.5515 7.98594C33.2929 7.67563 32.926 7.51212 32.5362 7.51212V8.51212V9.51212C32.4593 9.51212 32.3598 9.497 32.2549 9.44858C32.1494 9.39985 32.0696 9.33185 32.015 9.2663L32.7832 8.62612ZM32.5362 8.51212V7.51212H31.1302V8.51212V9.51212H32.5362V8.51212ZM44.5042 19.0001V20.0001H45.5042V19.0001H44.5042ZM41.8442 19.0001H40.8442V20.0001H41.8442V19.0001ZM41.8442 14.8771H42.8442V13.8771H41.8442V14.8771ZM39.9252 14.8771V13.8771H38.9252V14.8771H39.9252ZM39.9252 19.0001V20.0001H40.9252V19.0001H39.9252ZM37.2652 19.0001H36.2652V20.0001H37.2652V19.0001ZM39.9252 12.8251H38.9252V13.8251H39.9252V12.8251ZM41.8442 12.8251V13.8251H42.8442V12.8251H41.8442ZM41.7302 8.43612L40.9619 9.07631L40.991 9.11115L41.023 9.14322L41.7302 8.43612ZM40.0202 8.43612L39.3131 7.72901L39.281 7.76109L39.2519 7.79594L40.0202 8.43612ZM42.1482 6.51712V7.51712C42.7628 7.51712 43.0444 7.6777 43.1863 7.8288C43.3393 7.99164 43.5042 8.32824 43.5042 9.02512H44.5042H45.5042C45.5042 8.05 45.2764 7.1326 44.644 6.45945C44.0006 5.77454 43.1042 5.51712 42.1482 5.51712V6.51712ZM44.5042 9.02512H43.5042V19.0001H44.5042H45.5042V9.02512H44.5042ZM44.5042 19.0001V18.0001H41.8442V19.0001V20.0001H44.5042V19.0001ZM41.8442 19.0001H42.8442V14.8771H41.8442H40.8442V19.0001H41.8442ZM41.8442 14.8771V13.8771H39.9252V14.8771V15.8771H41.8442V14.8771ZM39.9252 14.8771H38.9252V19.0001H39.9252H40.9252V14.8771H39.9252ZM39.9252 19.0001V18.0001H37.2652V19.0001V20.0001H39.9252V19.0001ZM37.2652 19.0001H38.2652V9.02512H37.2652H36.2652V19.0001H37.2652ZM37.2652 9.02512H38.2652C38.2652 8.32824 38.43 7.99164 38.583 7.8288C38.7249 7.6777 39.0065 7.51712 39.6212 7.51712V6.51712V5.51712C38.6651 5.51712 37.7687 5.77454 37.1253 6.45945C36.493 7.1326 36.2652 8.05 36.2652 9.02512H37.2652ZM39.6212 6.51712V7.51712H42.1482V6.51712V5.51712H39.6212V6.51712ZM39.9252 12.8251V13.8251H41.8442V12.8251V11.8251H39.9252V12.8251ZM41.8442 12.8251H42.8442V8.70212H41.8442H40.8442V12.8251H41.8442ZM41.8442 8.70212H42.8442C42.8442 8.31823 42.6882 7.97993 42.4373 7.72902L41.7302 8.43612L41.023 9.14322C40.9813 9.10152 40.933 9.03877 40.8965 8.95354C40.8595 8.86716 40.8442 8.77992 40.8442 8.70212H41.8442ZM41.7302 8.43612L42.4984 7.79593C42.2398 7.48562 41.8729 7.32212 41.4832 7.32212V8.32212V9.32212C41.4062 9.32212 41.3068 9.307 41.2019 9.25858C41.0963 9.20986 41.0166 9.14186 40.9619 9.07631L41.7302 8.43612ZM41.4832 8.32212V7.32212H40.2862V8.32212V9.32212H41.4832V8.32212ZM40.2862 8.32212V7.32212C39.9023 7.32212 39.564 7.4781 39.3131 7.72901L40.0202 8.43612L40.7273 9.14323C40.6856 9.18493 40.6228 9.23324 40.5376 9.26977C40.4512 9.30679 40.364 9.32212 40.2862 9.32212V8.32212ZM40.0202 8.43612L39.2519 7.79594C39.0349 8.05636 38.9252 8.37305 38.9252 8.70212H39.9252H40.9252C40.9252 8.75731 40.9162 8.82439 40.8907 8.89596C40.865 8.96786 40.8281 9.02864 40.7884 9.0763L40.0202 8.43612ZM39.9252 8.70212H38.9252V12.8251H39.9252H40.9252V8.70212H39.9252ZM53.3078 9.93712V10.9371H54.3078V9.93712H53.3078ZM50.7808 9.93712H49.7808V10.9371H50.7808V9.93712ZM50.6668 8.70212L49.8986 9.34231L49.9277 9.37715L49.9597 9.40923L50.6668 8.70212ZM49.1088 8.70212L48.4017 7.99501L48.3697 8.02709L48.3406 8.06194L49.1088 8.70212ZM49.1088 11.4191L48.3406 12.0593L48.3697 12.0942L48.4017 12.1262L49.1088 11.4191ZM51.0848 11.5331L51.101 10.5333L51.0929 10.5331H51.0848V11.5331ZM46.4868 15.4091V14.4091H45.4868V15.4091H46.4868ZM49.0138 15.4091H50.0138V14.4091H49.0138V15.4091ZM49.1088 17.0431L48.3406 17.6833L48.3697 17.7182L48.4017 17.7502L49.1088 17.0431ZM50.7998 17.0431L50.0927 16.336L50.0607 16.3681L50.0316 16.4029L50.7998 17.0431ZM50.7998 14.0981L50.0316 14.7383L50.0607 14.7732L50.0927 14.8052L50.7998 14.0981ZM53.3078 9.93712V8.93712H50.7808V9.93712V10.9371H53.3078V9.93712ZM50.7808 9.93712H51.7808V8.96812H50.7808H49.7808V9.93712H50.7808ZM50.7808 8.96812H51.7808C51.7808 8.58424 51.6249 8.24593 51.3739 7.99502L50.6668 8.70212L49.9597 9.40923C49.918 9.36752 49.8697 9.30477 49.8332 9.21954C49.7962 9.13316 49.7808 9.04592 49.7808 8.96812H50.7808ZM50.6668 8.70212L51.4351 8.06194C51.1765 7.75162 50.8096 7.58812 50.4198 7.58812V8.58812V9.58812C50.3429 9.58812 50.2434 9.573 50.1385 9.52458C50.033 9.47586 49.9532 9.40785 49.8986 9.34231L50.6668 8.70212ZM50.4198 8.58812V7.58812H49.3748V8.58812V9.58812H50.4198V8.58812ZM49.3748 8.58812V7.58812C48.991 7.58812 48.6526 7.7441 48.4017 7.99501L49.1088 8.70212L49.8159 9.40923C49.7742 9.45093 49.7115 9.49924 49.6263 9.53577C49.5399 9.57279 49.4526 9.58812 49.3748 9.58812V8.58812ZM49.1088 8.70212L48.3406 8.06194C48.1236 8.32236 48.0138 8.63905 48.0138 8.96812H49.0138H50.0138C50.0138 9.02331 50.0049 9.09039 49.9793 9.16196C49.9537 9.23385 49.9168 9.29464 49.8771 9.3423L49.1088 8.70212ZM49.0138 8.96812H48.0138V11.1531H49.0138H50.0138V8.96812H49.0138ZM49.0138 11.1531H48.0138C48.0138 11.4822 48.1236 11.7989 48.3406 12.0593L49.1088 11.4191L49.8771 10.7789C49.9168 10.8266 49.9537 10.8874 49.9793 10.9593C50.0049 11.0309 50.0138 11.0979 50.0138 11.1531H49.0138ZM49.1088 11.4191L48.4017 12.1262C48.6526 12.3771 48.991 12.5331 49.3748 12.5331V11.5331V10.5331C49.4526 10.5331 49.5399 10.5485 49.6263 10.5855C49.7115 10.622 49.7742 10.6703 49.8159 10.712L49.1088 11.4191ZM49.3748 11.5331V12.5331H51.0848V11.5331V10.5331H49.3748V11.5331ZM51.0848 11.5331L51.0687 12.533C51.6864 12.543 51.9757 12.707 52.123 12.8638C52.2783 13.0291 52.4408 13.3618 52.4408 14.0411H53.4408H54.4408C54.4408 13.0738 54.2107 12.1651 53.5807 11.4944C52.9427 10.8153 52.054 10.5486 51.101 10.5333L51.0848 11.5331ZM53.4408 14.0411H52.4408V16.6821H53.4408H54.4408V14.0411H53.4408ZM53.4408 16.6821H52.4408C52.4408 17.379 52.276 17.7156 52.123 17.8784C51.9811 18.0295 51.6995 18.1901 51.0848 18.1901V19.1901V20.1901C52.0409 20.1901 52.9373 19.9327 53.5807 19.2478C54.213 18.5746 54.4408 17.6572 54.4408 16.6821H53.4408ZM51.0848 19.1901V18.1901H48.8428V19.1901V20.1901H51.0848V19.1901ZM48.8428 19.1901V18.1901C48.2282 18.1901 47.9466 18.0295 47.8047 17.8784C47.6517 17.7156 47.4868 17.379 47.4868 16.6821H46.4868H45.4868C45.4868 17.6572 45.7146 18.5746 46.347 19.2478C46.9904 19.9327 47.8868 20.1901 48.8428 20.1901V19.1901ZM46.4868 16.6821H47.4868V15.4091H46.4868H45.4868V16.6821H46.4868ZM46.4868 15.4091V16.4091H49.0138V15.4091V14.4091H46.4868V15.4091ZM49.0138 15.4091H48.0138V16.7771H49.0138H50.0138V15.4091H49.0138ZM49.0138 16.7771H48.0138C48.0138 17.1062 48.1236 17.4229 48.3406 17.6833L49.1088 17.0431L49.8771 16.4029C49.9168 16.4506 49.9537 16.5114 49.9793 16.5833C50.0049 16.6549 50.0138 16.7219 50.0138 16.7771H49.0138ZM49.1088 17.0431L48.4017 17.7502C48.6526 18.0011 48.991 18.1571 49.3748 18.1571V17.1571V16.1571C49.4526 16.1571 49.5399 16.1725 49.6263 16.2095C49.7115 16.246 49.7742 16.2943 49.8159 16.336L49.1088 17.0431ZM49.3748 17.1571V18.1571H50.5528V17.1571V16.1571H49.3748V17.1571ZM50.5528 17.1571V18.1571C50.9426 18.1571 51.3095 17.9936 51.5681 17.6833L50.7998 17.0431L50.0316 16.4029C50.0862 16.3374 50.166 16.2694 50.2715 16.2207C50.3764 16.1722 50.4759 16.1571 50.5528 16.1571V17.1571ZM50.7998 17.0431L51.5069 17.7502C51.7579 17.4993 51.9138 17.161 51.9138 16.7771H50.9138H49.9138C49.9138 16.6993 49.9292 16.6121 49.9662 16.5257C50.0027 16.4405 50.051 16.3777 50.0927 16.336L50.7998 17.0431ZM50.9138 16.7771H51.9138V14.3641H50.9138H49.9138V16.7771H50.9138ZM50.9138 14.3641H51.9138C51.9138 13.9802 51.7579 13.6419 51.5069 13.391L50.7998 14.0981L50.0927 14.8052C50.051 14.7635 50.0027 14.7008 49.9662 14.6155C49.9292 14.5292 49.9138 14.4419 49.9138 14.3641H50.9138ZM50.7998 14.0981L51.5681 13.4579C51.3095 13.1476 50.9426 12.9841 50.5528 12.9841V13.9841V14.9841C50.4759 14.9841 50.3764 14.969 50.2715 14.9206C50.166 14.8719 50.0862 14.8039 50.0316 14.7383L50.7998 14.0981ZM50.5528 13.9841V12.9841H48.8428V13.9841V14.9841H50.5528V13.9841ZM48.8428 13.9841V12.9841C48.2282 12.9841 47.9466 12.8235 47.8047 12.6724C47.6517 12.5096 47.4868 12.173 47.4868 11.4761H46.4868H45.4868C45.4868 12.4512 45.7146 13.3686 46.347 14.0418C46.9904 14.7267 47.8868 14.9841 48.8428 14.9841V13.9841ZM46.4868 11.4761H47.4868V9.02512H46.4868H45.4868V11.4761H46.4868ZM46.4868 9.02512H47.4868C47.4868 8.32824 47.6517 7.99164 47.8047 7.8288C47.9466 7.6777 48.2282 7.51712 48.8428 7.51712V6.51712V5.51712C47.8868 5.51712 46.9904 5.77454 46.347 6.45945C45.7146 7.1326 45.4868 8.05 45.4868 9.02512H46.4868ZM48.8428 6.51712V7.51712H50.9518V6.51712V5.51712H48.8428V6.51712ZM50.9518 6.51712V7.51712C51.5665 7.51712 51.8481 7.6777 51.99 7.8288C52.143 7.99164 52.3078 8.32824 52.3078 9.02512H53.3078H54.3078C54.3078 8.05 54.08 7.1326 53.4477 6.45945C52.8043 5.77454 51.9079 5.51712 50.9518 5.51712V6.51712ZM53.3078 9.02512H52.3078V9.93712H53.3078H54.3078V9.02512H53.3078ZM62.01 9.93712V10.9371H63.01V9.93712H62.01ZM59.483 9.93712H58.483V10.9371H59.483V9.93712ZM59.369 8.70212L58.6008 9.34231L58.6298 9.37715L58.6619 9.40923L59.369 8.70212ZM57.811 8.70212L57.1039 7.99501L57.0718 8.02709L57.0428 8.06194L57.811 8.70212ZM57.811 11.4191L57.0428 12.0593L57.0718 12.0942L57.1039 12.1262L57.811 11.4191ZM59.787 11.5331L59.8031 10.5333L59.7951 10.5331H59.787V11.5331ZM55.189 15.4091V14.4091H54.189V15.4091H55.189ZM57.716 15.4091H58.716V14.4091H57.716V15.4091ZM57.811 17.0431L57.0428 17.6833L57.0718 17.7182L57.1039 17.7502L57.811 17.0431ZM59.502 17.0431L58.7949 16.336L58.7628 16.3681L58.7338 16.4029L59.502 17.0431ZM59.502 14.0981L58.7338 14.7383L58.7628 14.7732L58.7949 14.8052L59.502 14.0981ZM62.01 9.93712V8.93712H59.483V9.93712V10.9371H62.01V9.93712ZM59.483 9.93712H60.483V8.96812H59.483H58.483V9.93712H59.483ZM59.483 8.96812H60.483C60.483 8.58424 60.327 8.24593 60.0761 7.99502L59.369 8.70212L58.6619 9.40923C58.6202 9.36752 58.5719 9.30477 58.5353 9.21954C58.4983 9.13316 58.483 9.04592 58.483 8.96812H59.483ZM59.369 8.70212L60.1372 8.06194C59.8786 7.75162 59.5118 7.58812 59.122 7.58812V8.58812V9.58812C59.0451 9.58812 58.9456 9.573 58.8407 9.52458C58.7351 9.47586 58.6554 9.40785 58.6008 9.34231L59.369 8.70212ZM59.122 8.58812V7.58812H58.077V8.58812V9.58812H59.122V8.58812ZM58.077 8.58812V7.58812C57.6931 7.58812 57.3548 7.7441 57.1039 7.99501L57.811 8.70212L58.5181 9.40923C58.4764 9.45093 58.4136 9.49924 58.3284 9.53577C58.242 9.57279 58.1548 9.58812 58.077 9.58812V8.58812ZM57.811 8.70212L57.0428 8.06194C56.8257 8.32236 56.716 8.63905 56.716 8.96812H57.716H58.716C58.716 9.02331 58.707 9.09039 58.6815 9.16196C58.6558 9.23385 58.6189 9.29464 58.5792 9.3423L57.811 8.70212ZM57.716 8.96812H56.716V11.1531H57.716H58.716V8.96812H57.716ZM57.716 11.1531H56.716C56.716 11.4822 56.8257 11.7989 57.0428 12.0593L57.811 11.4191L58.5792 10.7789C58.6189 10.8266 58.6558 10.8874 58.6815 10.9593C58.707 11.0309 58.716 11.0979 58.716 11.1531H57.716ZM57.811 11.4191L57.1039 12.1262C57.3548 12.3771 57.6931 12.5331 58.077 12.5331V11.5331V10.5331C58.1548 10.5331 58.242 10.5485 58.3284 10.5855C58.4136 10.622 58.4764 10.6703 58.5181 10.712L57.811 11.4191ZM58.077 11.5331V12.5331H59.787V11.5331V10.5331H58.077V11.5331ZM59.787 11.5331L59.7709 12.533C60.3885 12.543 60.6778 12.707 60.8251 12.8638C60.9804 13.0291 61.143 13.3618 61.143 14.0411H62.143H63.143C63.143 13.0738 62.9129 12.1651 62.2828 11.4944C61.6448 10.8153 60.7561 10.5486 59.8031 10.5333L59.787 11.5331ZM62.143 14.0411H61.143V16.6821H62.143H63.143V14.0411H62.143ZM62.143 16.6821H61.143C61.143 17.379 60.9781 17.7156 60.8251 17.8784C60.6832 18.0295 60.4016 18.1901 59.787 18.1901V19.1901V20.1901C60.743 20.1901 61.6394 19.9327 62.2828 19.2478C62.9152 18.5746 63.143 17.6572 63.143 16.6821H62.143ZM59.787 19.1901V18.1901H57.545V19.1901V20.1901H59.787V19.1901ZM57.545 19.1901V18.1901C56.9303 18.1901 56.6488 18.0295 56.5068 17.8784C56.3539 17.7156 56.189 17.379 56.189 16.6821H55.189H54.189C54.189 17.6572 54.4168 18.5746 55.0491 19.2478C55.6925 19.9327 56.589 20.1901 57.545 20.1901V19.1901ZM55.189 16.6821H56.189V15.4091H55.189H54.189V16.6821H55.189ZM55.189 15.4091V16.4091H57.716V15.4091V14.4091H55.189V15.4091ZM57.716 15.4091H56.716V16.7771H57.716H58.716V15.4091H57.716ZM57.716 16.7771H56.716C56.716 17.1062 56.8257 17.4229 57.0428 17.6833L57.811 17.0431L58.5792 16.4029C58.6189 16.4506 58.6558 16.5114 58.6815 16.5833C58.707 16.6549 58.716 16.7219 58.716 16.7771H57.716ZM57.811 17.0431L57.1039 17.7502C57.3548 18.0011 57.6931 18.1571 58.077 18.1571V17.1571V16.1571C58.1548 16.1571 58.242 16.1725 58.3284 16.2095C58.4136 16.246 58.4764 16.2943 58.5181 16.336L57.811 17.0431ZM58.077 17.1571V18.1571H59.255V17.1571V16.1571H58.077V17.1571ZM59.255 17.1571V18.1571C59.6448 18.1571 60.0116 17.9936 60.2702 17.6833L59.502 17.0431L58.7338 16.4029C58.7884 16.3374 58.8681 16.2694 58.9737 16.2207C59.0786 16.1722 59.1781 16.1571 59.255 16.1571V17.1571ZM59.502 17.0431L60.2091 17.7502C60.46 17.4993 60.616 17.161 60.616 16.7771H59.616H58.616C58.616 16.6993 58.6313 16.6121 58.6683 16.5257C58.7049 16.4405 58.7532 16.3777 58.7949 16.336L59.502 17.0431ZM59.616 16.7771H60.616V14.3641H59.616H58.616V16.7771H59.616ZM59.616 14.3641H60.616C60.616 13.9802 60.46 13.6419 60.2091 13.391L59.502 14.0981L58.7949 14.8052C58.7532 14.7635 58.7049 14.7008 58.6683 14.6155C58.6313 14.5292 58.616 14.4419 58.616 14.3641H59.616ZM59.502 14.0981L60.2702 13.4579C60.0116 13.1476 59.6448 12.9841 59.255 12.9841V13.9841V14.9841C59.1781 14.9841 59.0786 14.969 58.9737 14.9206C58.8681 14.8719 58.7884 14.8039 58.7338 14.7383L59.502 14.0981ZM59.255 13.9841V12.9841H57.545V13.9841V14.9841H59.255V13.9841ZM57.545 13.9841V12.9841C56.9303 12.9841 56.6488 12.8235 56.5068 12.6724C56.3539 12.5096 56.189 12.173 56.189 11.4761H55.189H54.189C54.189 12.4512 54.4168 13.3686 55.0491 14.0418C55.6925 14.7267 56.589 14.9841 57.545 14.9841V13.9841ZM55.189 11.4761H56.189V9.02512H55.189H54.189V11.4761H55.189ZM55.189 9.02512H56.189C56.189 8.32824 56.3539 7.99164 56.5068 7.8288C56.6488 7.6777 56.9303 7.51712 57.545 7.51712V6.51712V5.51712C56.589 5.51712 55.6925 5.77454 55.0491 6.45945C54.4168 7.1326 54.189 8.05 54.189 9.02512H55.189ZM57.545 6.51712V7.51712H59.654V6.51712V5.51712H57.545V6.51712ZM59.654 6.51712V7.51712C60.2686 7.51712 60.5502 7.6777 60.6921 7.8288C60.8451 7.99164 61.01 8.32824 61.01 9.02512H62.01H63.01C63.01 8.05 62.7822 7.1326 62.1498 6.45945C61.5064 5.77454 60.61 5.51712 59.654 5.51712V6.51712ZM62.01 9.02512H61.01V9.93712H62.01H63.01V9.02512H62.01Z" fill="black" mask="url(#path-3-outside-1_216_140)"/>
<defs>
<filter id="filter0_i_216_140" x="-2" y="-3" width="82.8926" height="29.9641" filterUnits="userSpaceOnUse" color-interpolation-filters="sRGB">
<feFlood flood-opacity="0" result="BackgroundImageFix"/>
<feBlend mode="normal" in="SourceGraphic" in2="BackgroundImageFix" result="shape"/>
<feColorMatrix in="SourceAlpha" type="matrix" values="0 0 0 0 0 0 0 0 0 0 0 0 0 0 0 0 0 0 127 0" result="hardAlpha"/>
<feOffset dx="-2" dy="-3"/>
<feGaussianBlur stdDeviation="2"/>
<feComposite in2="hardAlpha" operator="arithmetic" k2="-1" k3="1"/>
<feColorMatrix type="matrix" values="0 0 0 0 0.00961538 0 0 0 0 0.00961538 0 0 0 0 0.00961538 0 0 0 0.25 0"/>
<feBlend mode="normal" in2="shape" result="effect1_innerShadow_216_140"/>
</filter>
</defs>
</svg>
