<svg width="81" height="27" viewBox="0 0 81 27" fill="none" xmlns="http://www.w3.org/2000/svg">
<g filter="url(#filter0_i_216_147)">
<rect width="80.8925" height="26.9642" rx="12" fill="#D07A00"/>
</g>
<rect x="0.5" y="0.5" width="79.8925" height="25.9642" rx="11.5" stroke="black"/>
<mask id="path-3-outside-1_216_147" maskUnits="userSpaceOnUse" x="13.5427" y="5.00012" width="54" height="16" fill="black">
<rect fill="white" x="13.5427" y="5.00012" width="54" height="16"/>
<path d="M18.4387 14.1171V12.1601H21.9537V16.6821C21.9537 18.3541 21.1683 19.1901 19.5977 19.1901H17.2037C15.633 19.1901 14.8477 18.3541 14.8477 16.6821V9.02512C14.8477 7.35312 15.633 6.51712 17.2037 6.51712H19.5977C21.1683 6.51712 21.9537 7.35312 21.9537 9.02512V10.1841H19.4267V8.70212C19.4267 8.60079 19.3887 8.51212 19.3127 8.43612C19.2493 8.36012 19.167 8.32212 19.0657 8.32212H17.8687C17.7673 8.32212 17.6787 8.36012 17.6027 8.43612C17.5393 8.51212 17.5077 8.60079 17.5077 8.70212V16.9861C17.5077 17.0875 17.5393 17.1761 17.6027 17.2521C17.6787 17.3281 17.7673 17.3661 17.8687 17.3661H19.0657C19.167 17.3661 19.2493 17.3281 19.3127 17.2521C19.3887 17.1761 19.4267 17.0875 19.4267 16.9861V14.1171H18.4387ZM26.0799 13.9651V19.0001H23.4199V6.70712H28.1509C29.7216 6.70712 30.5069 7.54312 30.5069 9.21512V10.6401C30.5069 11.6535 30.1459 12.2995 29.4239 12.5781C30.0573 12.8061 30.3739 13.3255 30.3739 14.1361V19.0001H27.7139V14.3451C27.7139 14.0918 27.5936 13.9651 27.3529 13.9651H26.0799ZM26.0799 8.51212V12.1031H27.4859C27.5873 12.1031 27.6696 12.0651 27.7329 11.9891C27.8089 11.9131 27.8469 11.8245 27.8469 11.7231V8.89212C27.8469 8.79079 27.8089 8.70212 27.7329 8.62612C27.6696 8.55012 27.5873 8.51212 27.4859 8.51212H26.0799ZM39.4539 9.02512V16.6821C39.4539 18.3541 38.6685 19.1901 37.0979 19.1901H34.5709C33.0002 19.1901 32.2149 18.3541 32.2149 16.6821V9.02512C32.2149 7.35312 33.0002 6.51712 34.5709 6.51712H37.0979C38.6685 6.51712 39.4539 7.35312 39.4539 9.02512ZM36.7939 16.9861V8.70212C36.7939 8.60079 36.7559 8.51212 36.6799 8.43612C36.6165 8.36012 36.5342 8.32212 36.4329 8.32212H35.2359C35.1345 8.32212 35.0459 8.36012 34.9699 8.43612C34.9065 8.51212 34.8749 8.60079 34.8749 8.70212V16.9861C34.8749 17.0875 34.9065 17.1761 34.9699 17.2521C35.0459 17.3281 35.1345 17.3661 35.2359 17.3661H36.4329C36.5342 17.3661 36.6165 17.3281 36.6799 17.2521C36.7559 17.1761 36.7939 17.0875 36.7939 16.9861ZM45.807 6.70712H48.467V16.6821C48.467 18.3541 47.6817 19.1901 46.111 19.1901H43.755C42.1843 19.1901 41.399 18.3541 41.399 16.6821V6.70712H44.059V16.9101C44.059 17.0115 44.0907 17.1001 44.154 17.1761C44.23 17.2521 44.3187 17.2901 44.42 17.2901H45.446C45.5473 17.2901 45.6297 17.2521 45.693 17.1761C45.769 17.1001 45.807 17.0115 45.807 16.9101V6.70712ZM57.3361 19.0001H54.6761V8.79712C54.6761 8.69579 54.6381 8.60712 54.5621 8.53112C54.4988 8.45512 54.4165 8.41712 54.3151 8.41712H53.2891C53.1878 8.41712 53.0991 8.45512 53.0231 8.53112C52.9598 8.60712 52.9281 8.69579 52.9281 8.79712V19.0001H50.2681V9.02512C50.2681 7.35312 51.0535 6.51712 52.6241 6.51712H54.9801C56.5508 6.51712 57.3361 7.35312 57.3361 9.02512V19.0001ZM64.0022 6.70712C65.5728 6.70712 66.3582 7.54312 66.3582 9.21512V16.4921C66.3582 18.1641 65.5728 19.0001 64.0022 19.0001H59.1192V6.70712H64.0022ZM63.6982 16.7961V8.89212C63.6982 8.79079 63.6602 8.70212 63.5842 8.62612C63.5208 8.55012 63.4385 8.51212 63.3372 8.51212H61.7792V17.1761H63.3372C63.4385 17.1761 63.5208 17.1381 63.5842 17.0621C63.6602 16.9861 63.6982 16.8975 63.6982 16.7961Z"/>
</mask>
<path d="M18.4387 14.1171V12.1601H21.9537V16.6821C21.9537 18.3541 21.1683 19.1901 19.5977 19.1901H17.2037C15.633 19.1901 14.8477 18.3541 14.8477 16.6821V9.02512C14.8477 7.35312 15.633 6.51712 17.2037 6.51712H19.5977C21.1683 6.51712 21.9537 7.35312 21.9537 9.02512V10.1841H19.4267V8.70212C19.4267 8.60079 19.3887 8.51212 19.3127 8.43612C19.2493 8.36012 19.167 8.32212 19.0657 8.32212H17.8687C17.7673 8.32212 17.6787 8.36012 17.6027 8.43612C17.5393 8.51212 17.5077 8.60079 17.5077 8.70212V16.9861C17.5077 17.0875 17.5393 17.1761 17.6027 17.2521C17.6787 17.3281 17.7673 17.3661 17.8687 17.3661H19.0657C19.167 17.3661 19.2493 17.3281 19.3127 17.2521C19.3887 17.1761 19.4267 17.0875 19.4267 16.9861V14.1171H18.4387ZM26.0799 13.9651V19.0001H23.4199V6.70712H28.1509C29.7216 6.70712 30.5069 7.54312 30.5069 9.21512V10.6401C30.5069 11.6535 30.1459 12.2995 29.4239 12.5781C30.0573 12.8061 30.3739 13.3255 30.3739 14.1361V19.0001H27.7139V14.3451C27.7139 14.0918 27.5936 13.9651 27.3529 13.9651H26.0799ZM26.0799 8.51212V12.1031H27.4859C27.5873 12.1031 27.6696 12.0651 27.7329 11.9891C27.8089 11.9131 27.8469 11.8245 27.8469 11.7231V8.89212C27.8469 8.79079 27.8089 8.70212 27.7329 8.62612C27.6696 8.55012 27.5873 8.51212 27.4859 8.51212H26.0799ZM39.4539 9.02512V16.6821C39.4539 18.3541 38.6685 19.1901 37.0979 19.1901H34.5709C33.0002 19.1901 32.2149 18.3541 32.2149 16.6821V9.02512C32.2149 7.35312 33.0002 6.51712 34.5709 6.51712H37.0979C38.6685 6.51712 39.4539 7.35312 39.4539 9.02512ZM36.7939 16.9861V8.70212C36.7939 8.60079 36.7559 8.51212 36.6799 8.43612C36.6165 8.36012 36.5342 8.32212 36.4329 8.32212H35.2359C35.1345 8.32212 35.0459 8.36012 34.9699 8.43612C34.9065 8.51212 34.8749 8.60079 34.8749 8.70212V16.9861C34.8749 17.0875 34.9065 17.1761 34.9699 17.2521C35.0459 17.3281 35.1345 17.3661 35.2359 17.3661H36.4329C36.5342 17.3661 36.6165 17.3281 36.6799 17.2521C36.7559 17.1761 36.7939 17.0875 36.7939 16.9861ZM45.807 6.70712H48.467V16.6821C48.467 18.3541 47.6817 19.1901 46.111 19.1901H43.755C42.1843 19.1901 41.399 18.3541 41.399 16.6821V6.70712H44.059V16.9101C44.059 17.0115 44.0907 17.1001 44.154 17.1761C44.23 17.2521 44.3187 17.2901 44.42 17.2901H45.446C45.5473 17.2901 45.6297 17.2521 45.693 17.1761C45.769 17.1001 45.807 17.0115 45.807 16.9101V6.70712ZM57.3361 19.0001H54.6761V8.79712C54.6761 8.69579 54.6381 8.60712 54.5621 8.53112C54.4988 8.45512 54.4165 8.41712 54.3151 8.41712H53.2891C53.1878 8.41712 53.0991 8.45512 53.0231 8.53112C52.9598 8.60712 52.9281 8.69579 52.9281 8.79712V19.0001H50.2681V9.02512C50.2681 7.35312 51.0535 6.51712 52.6241 6.51712H54.9801C56.5508 6.51712 57.3361 7.35312 57.3361 9.02512V19.0001ZM64.0022 6.70712C65.5728 6.70712 66.3582 7.54312 66.3582 9.21512V16.4921C66.3582 18.1641 65.5728 19.0001 64.0022 19.0001H59.1192V6.70712H64.0022ZM63.6982 16.7961V8.89212C63.6982 8.79079 63.6602 8.70212 63.5842 8.62612C63.5208 8.55012 63.4385 8.51212 63.3372 8.51212H61.7792V17.1761H63.3372C63.4385 17.1761 63.5208 17.1381 63.5842 17.0621C63.6602 16.9861 63.6982 16.8975 63.6982 16.7961Z" fill="white"/>
<path d="M18.4387 14.1171H17.4387V15.1171H18.4387V14.1171ZM18.4387 12.1601V11.1601H17.4387V12.1601H18.4387ZM21.9537 12.1601H22.9537V11.1601H21.9537V12.1601ZM21.9537 10.1841V11.1841H22.9537V10.1841H21.9537ZM19.4267 10.1841H18.4267V11.1841H19.4267V10.1841ZM19.3127 8.43612L18.5445 9.07631L18.5735 9.11115L18.6056 9.14322L19.3127 8.43612ZM17.6027 8.43612L16.8956 7.72901L16.8635 7.76109L16.8345 7.79594L17.6027 8.43612ZM17.6027 17.2521L16.8345 17.8923L16.8635 17.9272L16.8956 17.9592L17.6027 17.2521ZM19.3127 17.2521L18.6056 16.545L18.5735 16.5771L18.5445 16.6119L19.3127 17.2521ZM19.4267 14.1171H20.4267V13.1171H19.4267V14.1171ZM18.4387 14.1171H19.4387V12.1601H18.4387H17.4387V14.1171H18.4387ZM18.4387 12.1601V13.1601H21.9537V12.1601V11.1601H18.4387V12.1601ZM21.9537 12.1601H20.9537V16.6821H21.9537H22.9537V12.1601H21.9537ZM21.9537 16.6821H20.9537C20.9537 17.379 20.7888 17.7156 20.6358 17.8784C20.4939 18.0295 20.2123 18.1901 19.5977 18.1901V19.1901V20.1901C20.5537 20.1901 21.4501 19.9327 22.0935 19.2478C22.7259 18.5746 22.9537 17.6572 22.9537 16.6821H21.9537ZM19.5977 19.1901V18.1901H17.2037V19.1901V20.1901H19.5977V19.1901ZM17.2037 19.1901V18.1901C16.589 18.1901 16.3075 18.0295 16.1655 17.8784C16.0126 17.7156 15.8477 17.379 15.8477 16.6821H14.8477H13.8477C13.8477 17.6572 14.0755 18.5746 14.7078 19.2478C15.3512 19.9327 16.2477 20.1901 17.2037 20.1901V19.1901ZM14.8477 16.6821H15.8477V9.02512H14.8477H13.8477V16.6821H14.8477ZM14.8477 9.02512H15.8477C15.8477 8.32824 16.0126 7.99164 16.1655 7.8288C16.3075 7.6777 16.589 7.51712 17.2037 7.51712V6.51712V5.51712C16.2477 5.51712 15.3512 5.77454 14.7078 6.45945C14.0755 7.1326 13.8477 8.05 13.8477 9.02512H14.8477ZM17.2037 6.51712V7.51712H19.5977V6.51712V5.51712H17.2037V6.51712ZM19.5977 6.51712V7.51712C20.2123 7.51712 20.4939 7.6777 20.6358 7.8288C20.7888 7.99164 20.9537 8.32824 20.9537 9.02512H21.9537H22.9537C22.9537 8.05 22.7259 7.1326 22.0935 6.45945C21.4501 5.77454 20.5537 5.51712 19.5977 5.51712V6.51712ZM21.9537 9.02512H20.9537V10.1841H21.9537H22.9537V9.02512H21.9537ZM21.9537 10.1841V9.18412H19.4267V10.1841V11.1841H21.9537V10.1841ZM19.4267 10.1841H20.4267V8.70212H19.4267H18.4267V10.1841H19.4267ZM19.4267 8.70212H20.4267C20.4267 8.31823 20.2707 7.97993 20.0198 7.72902L19.3127 8.43612L18.6056 9.14322C18.5639 9.10152 18.5156 9.03877 18.479 8.95354C18.442 8.86716 18.4267 8.77992 18.4267 8.70212H19.4267ZM19.3127 8.43612L20.0809 7.79593C19.8223 7.48562 19.4555 7.32212 19.0657 7.32212V8.32212V9.32212C18.9887 9.32212 18.8893 9.307 18.7844 9.25858C18.6788 9.20986 18.5991 9.14186 18.5445 9.07631L19.3127 8.43612ZM19.0657 8.32212V7.32212H17.8687V8.32212V9.32212H19.0657V8.32212ZM17.8687 8.32212V7.32212C17.4848 7.32212 17.1465 7.4781 16.8956 7.72901L17.6027 8.43612L18.3098 9.14323C18.2681 9.18493 18.2053 9.23324 18.1201 9.26977C18.0337 9.30679 17.9465 9.32212 17.8687 9.32212V8.32212ZM17.6027 8.43612L16.8345 7.79594C16.6174 8.05636 16.5077 8.37305 16.5077 8.70212H17.5077H18.5077C18.5077 8.75731 18.4987 8.82439 18.4732 8.89596C18.4475 8.96786 18.4106 9.02864 18.3709 9.0763L17.6027 8.43612ZM17.5077 8.70212H16.5077V16.9861H17.5077H18.5077V8.70212H17.5077ZM17.5077 16.9861H16.5077C16.5077 17.3152 16.6174 17.6319 16.8345 17.8923L17.6027 17.2521L18.3709 16.6119C18.4106 16.6596 18.4475 16.7204 18.4732 16.7923C18.4987 16.8639 18.5077 16.9309 18.5077 16.9861H17.5077ZM17.6027 17.2521L16.8956 17.9592C17.1465 18.2101 17.4848 18.3661 17.8687 18.3661V17.3661V16.3661C17.9465 16.3661 18.0337 16.3815 18.1201 16.4185C18.2053 16.455 18.2681 16.5033 18.3098 16.545L17.6027 17.2521ZM17.8687 17.3661V18.3661H19.0657V17.3661V16.3661H17.8687V17.3661ZM19.0657 17.3661V18.3661C19.4555 18.3661 19.8223 18.2026 20.0809 17.8923L19.3127 17.2521L18.5445 16.6119C18.5991 16.5464 18.6788 16.4784 18.7844 16.4297C18.8893 16.3812 18.9887 16.3661 19.0657 16.3661V17.3661ZM19.3127 17.2521L20.0198 17.9592C20.2707 17.7083 20.4267 17.37 20.4267 16.9861H19.4267H18.4267C18.4267 16.9083 18.442 16.8211 18.479 16.7347C18.5156 16.6495 18.5639 16.5867 18.6056 16.545L19.3127 17.2521ZM19.4267 16.9861H20.4267V14.1171H19.4267H18.4267V16.9861H19.4267ZM19.4267 14.1171V13.1171H18.4387V14.1171V15.1171H19.4267V14.1171ZM26.0799 13.9651V12.9651H25.0799V13.9651H26.0799ZM26.0799 19.0001V20.0001H27.0799V19.0001H26.0799ZM23.4199 19.0001H22.4199V20.0001H23.4199V19.0001ZM23.4199 6.70712V5.70712H22.4199V6.70712H23.4199ZM29.4239 12.5781L29.0639 11.6452L26.5622 12.6107L29.0852 13.519L29.4239 12.5781ZM30.3739 19.0001V20.0001H31.3739V19.0001H30.3739ZM27.7139 19.0001H26.7139V20.0001H27.7139V19.0001ZM26.0799 8.51212V7.51212H25.0799V8.51212H26.0799ZM26.0799 12.1031H25.0799V13.1031H26.0799V12.1031ZM27.7329 11.9891L27.0258 11.282L26.9938 11.3141L26.9647 11.3489L27.7329 11.9891ZM27.7329 8.62612L26.9647 9.2663L26.9938 9.30115L27.0258 9.33323L27.7329 8.62612ZM26.0799 13.9651H25.0799V19.0001H26.0799H27.0799V13.9651H26.0799ZM26.0799 19.0001V18.0001H23.4199V19.0001V20.0001H26.0799V19.0001ZM23.4199 19.0001H24.4199V6.70712H23.4199H22.4199V19.0001H23.4199ZM23.4199 6.70712V7.70712H28.1509V6.70712V5.70712H23.4199V6.70712ZM28.1509 6.70712V7.70712C28.7656 7.70712 29.0472 7.8677 29.1891 8.0188C29.3421 8.18164 29.5069 8.51824 29.5069 9.21512H30.5069H31.5069C31.5069 8.24 31.2792 7.3226 30.6468 6.64945C30.0034 5.96454 29.107 5.70712 28.1509 5.70712V6.70712ZM30.5069 9.21512H29.5069V10.6401H30.5069H31.5069V9.21512H30.5069ZM30.5069 10.6401H29.5069C29.5069 11.0362 29.4353 11.2679 29.3633 11.3968C29.3021 11.5063 29.218 11.5857 29.0639 11.6452L29.4239 12.5781L29.784 13.511C30.3519 13.2919 30.8093 12.909 31.1091 12.3724C31.3981 11.8554 31.5069 11.2573 31.5069 10.6401H30.5069ZM29.4239 12.5781L29.0852 13.519C29.2116 13.5645 29.2558 13.6153 29.2826 13.6592C29.3186 13.7181 29.3739 13.8551 29.3739 14.1361H30.3739H31.3739C31.3739 13.6065 31.271 13.0785 30.9902 12.618C30.7004 12.1426 30.2696 11.8197 29.7627 11.6372L29.4239 12.5781ZM30.3739 14.1361H29.3739V19.0001H30.3739H31.3739V14.1361H30.3739ZM30.3739 19.0001V18.0001H27.7139V19.0001V20.0001H30.3739V19.0001ZM27.7139 19.0001H28.7139V14.3451H27.7139H26.7139V19.0001H27.7139ZM27.7139 14.3451H28.7139C28.7139 14.0767 28.6511 13.6897 28.3487 13.3714C28.0372 13.0434 27.6409 12.9651 27.3529 12.9651V13.9651V14.9651C27.3057 14.9651 27.0899 14.9501 26.8987 14.7489C26.7166 14.5572 26.7139 14.3602 26.7139 14.3451H27.7139ZM27.3529 13.9651V12.9651H26.0799V13.9651V14.9651H27.3529V13.9651ZM26.0799 8.51212H25.0799V12.1031H26.0799H27.0799V8.51212H26.0799ZM26.0799 12.1031V13.1031H27.4859V12.1031V11.1031H26.0799V12.1031ZM27.4859 12.1031V13.1031C27.8757 13.1031 28.2426 12.9396 28.5012 12.6293L27.7329 11.9891L26.9647 11.3489C27.0193 11.2834 27.0991 11.2154 27.2046 11.1667C27.3095 11.1182 27.409 11.1031 27.4859 11.1031V12.1031ZM27.7329 11.9891L28.4401 12.6962C28.691 12.4453 28.8469 12.107 28.8469 11.7231H27.8469H26.8469C26.8469 11.6453 26.8623 11.5581 26.8993 11.4717C26.9358 11.3865 26.9841 11.3237 27.0258 11.282L27.7329 11.9891ZM27.8469 11.7231H28.8469V8.89212H27.8469H26.8469V11.7231H27.8469ZM27.8469 8.89212H28.8469C28.8469 8.50823 28.691 8.16992 28.44 7.91901L27.7329 8.62612L27.0258 9.33323C26.9841 9.29153 26.9358 9.22877 26.8993 9.14354C26.8623 9.05716 26.8469 8.96992 26.8469 8.89212H27.8469ZM27.7329 8.62612L28.5012 7.98594C28.2426 7.67563 27.8757 7.51212 27.4859 7.51212V8.51212V9.51212C27.409 9.51212 27.3095 9.497 27.2046 9.44858C27.0991 9.39985 27.0193 9.33185 26.9647 9.2663L27.7329 8.62612ZM27.4859 8.51212V7.51212H26.0799V8.51212V9.51212H27.4859V8.51212ZM36.6799 8.43612L35.9116 9.07631L35.9407 9.11115L35.9728 9.14322L36.6799 8.43612ZM34.9699 8.43612L34.2628 7.72901L34.2307 7.76109L34.2016 7.79594L34.9699 8.43612ZM34.9699 17.2521L34.2016 17.8923L34.2307 17.9272L34.2628 17.9592L34.9699 17.2521ZM36.6799 17.2521L35.9728 16.545L35.9407 16.5771L35.9116 16.6119L36.6799 17.2521ZM39.4539 9.02512H38.4539V16.6821H39.4539H40.4539V9.02512H39.4539ZM39.4539 16.6821H38.4539C38.4539 17.379 38.289 17.7156 38.136 17.8784C37.9941 18.0295 37.7125 18.1901 37.0979 18.1901V19.1901V20.1901C38.0539 20.1901 38.9503 19.9327 39.5937 19.2478C40.2261 18.5746 40.4539 17.6572 40.4539 16.6821H39.4539ZM37.0979 19.1901V18.1901H34.5709V19.1901V20.1901H37.0979V19.1901ZM34.5709 19.1901V18.1901C33.9562 18.1901 33.6747 18.0295 33.5327 17.8784C33.3797 17.7156 33.2149 17.379 33.2149 16.6821H32.2149H31.2149C31.2149 17.6572 31.4427 18.5746 32.075 19.2478C32.7184 19.9327 33.6148 20.1901 34.5709 20.1901V19.1901ZM32.2149 16.6821H33.2149V9.02512H32.2149H31.2149V16.6821H32.2149ZM32.2149 9.02512H33.2149C33.2149 8.32824 33.3797 7.99164 33.5327 7.8288C33.6747 7.6777 33.9562 7.51712 34.5709 7.51712V6.51712V5.51712C33.6148 5.51712 32.7184 5.77454 32.075 6.45945C31.4427 7.1326 31.2149 8.05 31.2149 9.02512H32.2149ZM34.5709 6.51712V7.51712H37.0979V6.51712V5.51712H34.5709V6.51712ZM37.0979 6.51712V7.51712C37.7125 7.51712 37.9941 7.6777 38.136 7.8288C38.289 7.99164 38.4539 8.32824 38.4539 9.02512H39.4539H40.4539C40.4539 8.05 40.2261 7.1326 39.5937 6.45945C38.9503 5.77454 38.0539 5.51712 37.0979 5.51712V6.51712ZM36.7939 16.9861H37.7939V8.70212H36.7939H35.7939V16.9861H36.7939ZM36.7939 8.70212H37.7939C37.7939 8.31823 37.6379 7.97993 37.387 7.72902L36.6799 8.43612L35.9728 9.14322C35.9311 9.10152 35.8827 9.03877 35.8462 8.95354C35.8092 8.86716 35.7939 8.77992 35.7939 8.70212H36.7939ZM36.6799 8.43612L37.4481 7.79593C37.1895 7.48562 36.8227 7.32212 36.4329 7.32212V8.32212V9.32212C36.3559 9.32212 36.2565 9.307 36.1516 9.25858C36.046 9.20986 35.9663 9.14186 35.9116 9.07631L36.6799 8.43612ZM36.4329 8.32212V7.32212H35.2359V8.32212V9.32212H36.4329V8.32212ZM35.2359 8.32212V7.32212C34.852 7.32212 34.5137 7.4781 34.2628 7.72901L34.9699 8.43612L35.677 9.14323C35.6353 9.18493 35.5725 9.23324 35.4873 9.26977C35.4009 9.30679 35.3137 9.32212 35.2359 9.32212V8.32212ZM34.9699 8.43612L34.2016 7.79594C33.9846 8.05636 33.8749 8.37305 33.8749 8.70212H34.8749H35.8749C35.8749 8.75731 35.8659 8.82439 35.8404 8.89596C35.8147 8.96786 35.7778 9.02864 35.7381 9.0763L34.9699 8.43612ZM34.8749 8.70212H33.8749V16.9861H34.8749H35.8749V8.70212H34.8749ZM34.8749 16.9861H33.8749C33.8749 17.3152 33.9846 17.6319 34.2016 17.8923L34.9699 17.2521L35.7381 16.6119C35.7778 16.6596 35.8147 16.7204 35.8404 16.7923C35.8659 16.8639 35.8749 16.9309 35.8749 16.9861H34.8749ZM34.9699 17.2521L34.2628 17.9592C34.5137 18.2101 34.852 18.3661 35.2359 18.3661V17.3661V16.3661C35.3137 16.3661 35.4009 16.3815 35.4873 16.4185C35.5725 16.455 35.6353 16.5033 35.677 16.545L34.9699 17.2521ZM35.2359 17.3661V18.3661H36.4329V17.3661V16.3661H35.2359V17.3661ZM36.4329 17.3661V18.3661C36.8227 18.3661 37.1895 18.2026 37.4481 17.8923L36.6799 17.2521L35.9116 16.6119C35.9663 16.5464 36.046 16.4784 36.1516 16.4297C36.2565 16.3812 36.3559 16.3661 36.4329 16.3661V17.3661ZM36.6799 17.2521L37.387 17.9592C37.6379 17.7083 37.7939 17.37 37.7939 16.9861H36.7939H35.7939C35.7939 16.9083 35.8092 16.8211 35.8462 16.7347C35.8827 16.6495 35.9311 16.5867 35.9728 16.545L36.6799 17.2521ZM45.807 6.70712V5.70712H44.807V6.70712H45.807ZM48.467 6.70712H49.467V5.70712H48.467V6.70712ZM41.399 6.70712V5.70712H40.399V6.70712H41.399ZM44.059 6.70712H45.059V5.70712H44.059V6.70712ZM44.154 17.1761L43.3858 17.8163L43.4148 17.8512L43.4469 17.8832L44.154 17.1761ZM45.693 17.1761L44.9859 16.469L44.9538 16.5011L44.9248 16.5359L45.693 17.1761ZM45.807 6.70712V7.70712H48.467V6.70712V5.70712H45.807V6.70712ZM48.467 6.70712H47.467V16.6821H48.467H49.467V6.70712H48.467ZM48.467 16.6821H47.467C47.467 17.379 47.3021 17.7156 47.1491 17.8784C47.0072 18.0295 46.7256 18.1901 46.111 18.1901V19.1901V20.1901C47.067 20.1901 47.9634 19.9327 48.6068 19.2478C49.2392 18.5746 49.467 17.6572 49.467 16.6821H48.467ZM46.111 19.1901V18.1901H43.755V19.1901V20.1901H46.111V19.1901ZM43.755 19.1901V18.1901C43.1404 18.1901 42.8588 18.0295 42.7168 17.8784C42.5639 17.7156 42.399 17.379 42.399 16.6821H41.399H40.399C40.399 17.6572 40.6268 18.5746 41.2591 19.2478C41.9025 19.9327 42.799 20.1901 43.755 20.1901V19.1901ZM41.399 16.6821H42.399V6.70712H41.399H40.399V16.6821H41.399ZM41.399 6.70712V7.70712H44.059V6.70712V5.70712H41.399V6.70712ZM44.059 6.70712H43.059V16.9101H44.059H45.059V6.70712H44.059ZM44.059 16.9101H43.059C43.059 17.2392 43.1688 17.5559 43.3858 17.8163L44.154 17.1761L44.9222 16.5359C44.9619 16.5836 44.9988 16.6444 45.0245 16.7163C45.05 16.7879 45.059 16.8549 45.059 16.9101H44.059ZM44.154 17.1761L43.4469 17.8832C43.6978 18.1341 44.0361 18.2901 44.42 18.2901V17.2901V16.2901C44.4978 16.2901 44.585 16.3055 44.6714 16.3425C44.7566 16.379 44.8194 16.4273 44.8611 16.469L44.154 17.1761ZM44.42 17.2901V18.2901H45.446V17.2901V16.2901H44.42V17.2901ZM45.446 17.2901V18.2901C45.8358 18.2901 46.2026 18.1266 46.4612 17.8163L45.693 17.1761L44.9248 16.5359C44.9794 16.4704 45.0591 16.4024 45.1647 16.3537C45.2696 16.3052 45.3691 16.2901 45.446 16.2901V17.2901ZM45.693 17.1761L46.4001 17.8832C46.651 17.6323 46.807 17.294 46.807 16.9101H45.807H44.807C44.807 16.8323 44.8223 16.7451 44.8593 16.6587C44.8959 16.5735 44.9442 16.5107 44.9859 16.469L45.693 17.1761ZM45.807 16.9101H46.807V6.70712H45.807H44.807V16.9101H45.807ZM57.3361 19.0001V20.0001H58.3361V19.0001H57.3361ZM54.6761 19.0001H53.6761V20.0001H54.6761V19.0001ZM54.5621 8.53112L53.7939 9.1713L53.8229 9.20615L53.855 9.23823L54.5621 8.53112ZM53.0231 8.53112L52.316 7.82402L52.284 7.85609L52.2549 7.89094L53.0231 8.53112ZM52.9281 19.0001V20.0001H53.9281V19.0001H52.9281ZM50.2681 19.0001H49.2681V20.0001H50.2681V19.0001ZM57.3361 19.0001V18.0001H54.6761V19.0001V20.0001H57.3361V19.0001ZM54.6761 19.0001H55.6761V8.79712H54.6761H53.6761V19.0001H54.6761ZM54.6761 8.79712H55.6761C55.6761 8.41323 55.5201 8.07493 55.2692 7.82401L54.5621 8.53112L53.855 9.23823C53.8133 9.19653 53.765 9.13377 53.7285 9.04854C53.6915 8.96216 53.6761 8.87492 53.6761 8.79712H54.6761ZM54.5621 8.53112L55.3304 7.89094C55.0718 7.58063 54.7049 7.41712 54.3151 7.41712V8.41712V9.41712C54.2382 9.41712 54.1387 9.402 54.0338 9.35358C53.9282 9.30485 53.8485 9.23685 53.7939 9.1713L54.5621 8.53112ZM54.3151 8.41712V7.41712H53.2891V8.41712V9.41712H54.3151V8.41712ZM53.2891 8.41712V7.41712C52.9052 7.41712 52.5669 7.57311 52.316 7.82402L53.0231 8.53112L53.7302 9.23823C53.6885 9.27993 53.6258 9.32824 53.5406 9.36477C53.4542 9.40179 53.3669 9.41712 53.2891 9.41712V8.41712ZM53.0231 8.53112L52.2549 7.89094C52.0379 8.15136 51.9281 8.46805 51.9281 8.79712H52.9281H53.9281C53.9281 8.85231 53.9192 8.91939 53.8936 8.99096C53.8679 9.06286 53.8311 9.12364 53.7914 9.17131L53.0231 8.53112ZM52.9281 8.79712H51.9281V19.0001H52.9281H53.9281V8.79712H52.9281ZM52.9281 19.0001V18.0001H50.2681V19.0001V20.0001H52.9281V19.0001ZM50.2681 19.0001H51.2681V9.02512H50.2681H49.2681V19.0001H50.2681ZM50.2681 9.02512H51.2681C51.2681 8.32824 51.433 7.99164 51.586 7.8288C51.7279 7.6777 52.0095 7.51712 52.6241 7.51712V6.51712V5.51712C51.6681 5.51712 50.7717 5.77454 50.1283 6.45945C49.4959 7.1326 49.2681 8.05 49.2681 9.02512H50.2681ZM52.6241 6.51712V7.51712H54.9801V6.51712V5.51712H52.6241V6.51712ZM54.9801 6.51712V7.51712C55.5948 7.51712 55.8763 7.6777 56.0183 7.8288C56.1713 7.99164 56.3361 8.32824 56.3361 9.02512H57.3361H58.3361C58.3361 8.05 58.1083 7.1326 57.476 6.45945C56.8326 5.77454 55.9362 5.51712 54.9801 5.51712V6.51712ZM57.3361 9.02512H56.3361V19.0001H57.3361H58.3361V9.02512H57.3361ZM59.1192 19.0001H58.1192V20.0001H59.1192V19.0001ZM59.1192 6.70712V5.70712H58.1192V6.70712H59.1192ZM63.5842 8.62612L62.8159 9.26631L62.845 9.30115L62.8771 9.33323L63.5842 8.62612ZM61.7792 8.51212V7.51212H60.7792V8.51212H61.7792ZM61.7792 17.1761H60.7792V18.1761H61.7792V17.1761ZM63.5842 17.0621L62.8771 16.355L62.845 16.3871L62.8159 16.4219L63.5842 17.0621ZM64.0022 6.70712V7.70712C64.6168 7.70712 64.8984 7.8677 65.0403 8.0188C65.1933 8.18164 65.3582 8.51824 65.3582 9.21512H66.3582H67.3582C67.3582 8.24 67.1304 7.3226 66.498 6.64945C65.8546 5.96454 64.9582 5.70712 64.0022 5.70712V6.70712ZM66.3582 9.21512H65.3582V16.4921H66.3582H67.3582V9.21512H66.3582ZM66.3582 16.4921H65.3582C65.3582 17.189 65.1933 17.5256 65.0403 17.6884C64.8984 17.8395 64.6168 18.0001 64.0022 18.0001V19.0001V20.0001C64.9582 20.0001 65.8546 19.7427 66.498 19.0578C67.1304 18.3846 67.3582 17.4672 67.3582 16.4921H66.3582ZM64.0022 19.0001V18.0001H59.1192V19.0001V20.0001H64.0022V19.0001ZM59.1192 19.0001H60.1192V6.70712H59.1192H58.1192V19.0001H59.1192ZM59.1192 6.70712V7.70712H64.0022V6.70712V5.70712H59.1192V6.70712ZM63.6982 16.7961H64.6982V8.89212H63.6982H62.6982V16.7961H63.6982ZM63.6982 8.89212H64.6982C64.6982 8.50824 64.5422 8.16993 64.2913 7.91901L63.5842 8.62612L62.8771 9.33323C62.8354 9.29152 62.787 9.22877 62.7505 9.14354C62.7135 9.05716 62.6982 8.96992 62.6982 8.89212H63.6982ZM63.5842 8.62612L64.3524 7.98594C64.0938 7.67563 63.727 7.51212 63.3372 7.51212V8.51212V9.51212C63.2602 9.51212 63.1608 9.49699 63.0559 9.44858C62.9503 9.39985 62.8706 9.33185 62.8159 9.26631L63.5842 8.62612ZM63.3372 8.51212V7.51212H61.7792V8.51212V9.51212H63.3372V8.51212ZM61.7792 8.51212H60.7792V17.1761H61.7792H62.7792V8.51212H61.7792ZM61.7792 17.1761V18.1761H63.3372V17.1761V16.1761H61.7792V17.1761ZM63.3372 17.1761V18.1761C63.727 18.1761 64.0938 18.0126 64.3524 17.7023L63.5842 17.0621L62.8159 16.4219C62.8706 16.3564 62.9503 16.2884 63.0559 16.2397C63.1608 16.1912 63.2602 16.1761 63.3372 16.1761V17.1761ZM63.5842 17.0621L64.2913 17.7692C64.5422 17.5183 64.6982 17.18 64.6982 16.7961H63.6982H62.6982C62.6982 16.7183 62.7135 16.6311 62.7505 16.5447C62.787 16.4595 62.8354 16.3967 62.8771 16.355L63.5842 17.0621Z" fill="black" mask="url(#path-3-outside-1_216_147)"/>
<defs>
<filter id="filter0_i_216_147" x="-2" y="-3" width="82.8926" height="29.9641" filterUnits="userSpaceOnUse" color-interpolation-filters="sRGB">
<feFlood flood-opacity="0" result="BackgroundImageFix"/>
<feBlend mode="normal" in="SourceGraphic" in2="BackgroundImageFix" result="shape"/>
<feColorMatrix in="SourceAlpha" type="matrix" values="0 0 0 0 0 0 0 0 0 0 0 0 0 0 0 0 0 0 127 0" result="hardAlpha"/>
<feOffset dx="-2" dy="-3"/>
<feGaussianBlur stdDeviation="2"/>
<feComposite in2="hardAlpha" operator="arithmetic" k2="-1" k3="1"/>
<feColorMatrix type="matrix" values="0 0 0 0 0.00961538 0 0 0 0 0.00961538 0 0 0 0 0.00961538 0 0 0 0.25 0"/>
<feBlend mode="normal" in2="shape" result="effect1_innerShadow_216_147"/>
</filter>
</defs>
</svg>
