<svg width="81" height="28" viewBox="0 0 81 28" fill="none" xmlns="http://www.w3.org/2000/svg">
<g filter="url(#filter0_i_216_333)">
<rect width="80.8925" height="26.9642" rx="12" fill="#00FFFF"/>
</g>
<rect x="0.5" y="0.5" width="79.8925" height="25.9642" rx="11.5" stroke="black"/>
<mask id="path-3-outside-1_216_333" maskUnits="userSpaceOnUse" x="29.1775" y="5.9353" width="22" height="16" fill="black">
<rect fill="white" x="29.1775" y="5.9353" width="22" height="16"/>
<path d="M33.6468 7.6423V19.9353H30.9868V7.6423H33.6468ZM40.2045 17.9213V16.0213H42.7315V17.6173C42.7315 19.2893 41.9462 20.1253 40.3755 20.1253H37.9815C36.4108 20.1253 35.6255 19.2893 35.6255 17.6173V9.9603C35.6255 8.2883 36.4108 7.4523 37.9815 7.4523H40.3755C41.9462 7.4523 42.7315 8.2883 42.7315 9.9603V11.1193H40.2045V9.6373C40.2045 9.53597 40.1665 9.4473 40.0905 9.3713C40.0272 9.2953 39.9448 9.2573 39.8435 9.2573H38.6465C38.5452 9.2573 38.4565 9.2953 38.3805 9.3713C38.3172 9.4473 38.2855 9.53597 38.2855 9.6373V17.9213C38.2855 18.0226 38.3172 18.1113 38.3805 18.1873C38.4565 18.2633 38.5452 18.3013 38.6465 18.3013H39.8435C39.9448 18.3013 40.0272 18.2633 40.0905 18.1873C40.1665 18.1113 40.2045 18.0226 40.2045 17.9213ZM46.9877 17.7313H49.9327V19.9353H44.3277V7.6423H49.9327V9.8083H46.9877V12.6963H49.7427V14.7863H46.9877V17.7313Z"/>
</mask>
<path d="M33.6468 7.6423V19.9353H30.9868V7.6423H33.6468ZM40.2045 17.9213V16.0213H42.7315V17.6173C42.7315 19.2893 41.9462 20.1253 40.3755 20.1253H37.9815C36.4108 20.1253 35.6255 19.2893 35.6255 17.6173V9.9603C35.6255 8.2883 36.4108 7.4523 37.9815 7.4523H40.3755C41.9462 7.4523 42.7315 8.2883 42.7315 9.9603V11.1193H40.2045V9.6373C40.2045 9.53597 40.1665 9.4473 40.0905 9.3713C40.0272 9.2953 39.9448 9.2573 39.8435 9.2573H38.6465C38.5452 9.2573 38.4565 9.2953 38.3805 9.3713C38.3172 9.4473 38.2855 9.53597 38.2855 9.6373V17.9213C38.2855 18.0226 38.3172 18.1113 38.3805 18.1873C38.4565 18.2633 38.5452 18.3013 38.6465 18.3013H39.8435C39.9448 18.3013 40.0272 18.2633 40.0905 18.1873C40.1665 18.1113 40.2045 18.0226 40.2045 17.9213ZM46.9877 17.7313H49.9327V19.9353H44.3277V7.6423H49.9327V9.8083H46.9877V12.6963H49.7427V14.7863H46.9877V17.7313Z" fill="white"/>
<path d="M33.6468 7.6423H34.6468V6.6423H33.6468V7.6423ZM33.6468 19.9353V20.9353H34.6468V19.9353H33.6468ZM30.9868 19.9353H29.9868V20.9353H30.9868V19.9353ZM30.9868 7.6423V6.6423H29.9868V7.6423H30.9868ZM33.6468 7.6423H32.6468V19.9353H33.6468H34.6468V7.6423H33.6468ZM33.6468 19.9353V18.9353H30.9868V19.9353V20.9353H33.6468V19.9353ZM30.9868 19.9353H31.9868V7.6423H30.9868H29.9868V19.9353H30.9868ZM30.9868 7.6423V8.6423H33.6468V7.6423V6.6423H30.9868V7.6423ZM40.2045 16.0213V15.0213H39.2045V16.0213H40.2045ZM42.7315 16.0213H43.7315V15.0213H42.7315V16.0213ZM42.7315 11.1193V12.1193H43.7315V11.1193H42.7315ZM40.2045 11.1193H39.2045V12.1193H40.2045V11.1193ZM40.0905 9.3713L39.3223 10.0115L39.3513 10.0463L39.3834 10.0784L40.0905 9.3713ZM38.3805 9.3713L37.6734 8.66419L37.6413 8.69627L37.6123 8.73112L38.3805 9.3713ZM38.3805 18.1873L37.6123 18.8275L37.6413 18.8623L37.6734 18.8944L38.3805 18.1873ZM40.0905 18.1873L39.3834 17.4802L39.3513 17.5123L39.3223 17.5471L40.0905 18.1873ZM40.2045 17.9213H41.2045V16.0213H40.2045H39.2045V17.9213H40.2045ZM40.2045 16.0213V17.0213H42.7315V16.0213V15.0213H40.2045V16.0213ZM42.7315 16.0213H41.7315V17.6173H42.7315H43.7315V16.0213H42.7315ZM42.7315 17.6173H41.7315C41.7315 18.3142 41.5666 18.6508 41.4137 18.8136C41.2717 18.9647 40.9902 19.1253 40.3755 19.1253V20.1253V21.1253C41.3315 21.1253 42.228 20.8679 42.8714 20.183C43.5037 19.5098 43.7315 18.5924 43.7315 17.6173H42.7315ZM40.3755 20.1253V19.1253H37.9815V20.1253V21.1253H40.3755V20.1253ZM37.9815 20.1253V19.1253C37.3669 19.1253 37.0853 18.9647 36.9434 18.8136C36.7904 18.6508 36.6255 18.3142 36.6255 17.6173H35.6255H34.6255C34.6255 18.5924 34.8533 19.5098 35.4857 20.183C36.1291 20.8679 37.0255 21.1253 37.9815 21.1253V20.1253ZM35.6255 17.6173H36.6255V9.9603H35.6255H34.6255V17.6173H35.6255ZM35.6255 9.9603H36.6255C36.6255 9.26342 36.7904 8.92682 36.9434 8.76398C37.0853 8.61288 37.3669 8.4523 37.9815 8.4523V7.4523V6.4523C37.0255 6.4523 36.1291 6.70972 35.4857 7.39463C34.8533 8.06778 34.6255 8.98518 34.6255 9.9603H35.6255ZM37.9815 7.4523V8.4523H40.3755V7.4523V6.4523H37.9815V7.4523ZM40.3755 7.4523V8.4523C40.9902 8.4523 41.2717 8.61288 41.4137 8.76398C41.5666 8.92682 41.7315 9.26342 41.7315 9.9603H42.7315H43.7315C43.7315 8.98518 43.5037 8.06778 42.8714 7.39463C42.228 6.70972 41.3315 6.4523 40.3755 6.4523V7.4523ZM42.7315 9.9603H41.7315V11.1193H42.7315H43.7315V9.9603H42.7315ZM42.7315 11.1193V10.1193H40.2045V11.1193V12.1193H42.7315V11.1193ZM40.2045 11.1193H41.2045V9.6373H40.2045H39.2045V11.1193H40.2045ZM40.2045 9.6373H41.2045C41.2045 9.25342 41.0485 8.91511 40.7976 8.6642L40.0905 9.3713L39.3834 10.0784C39.3417 10.0367 39.2934 9.97395 39.2569 9.88872C39.2198 9.80234 39.2045 9.7151 39.2045 9.6373H40.2045ZM40.0905 9.3713L40.8587 8.73111C40.6001 8.4208 40.2333 8.2573 39.8435 8.2573V9.2573V10.2573C39.7666 10.2573 39.6671 10.2422 39.5622 10.1938C39.4566 10.145 39.3769 10.077 39.3223 10.0115L40.0905 9.3713ZM39.8435 9.2573V8.2573H38.6465V9.2573V10.2573H39.8435V9.2573ZM38.6465 9.2573V8.2573C38.2626 8.2573 37.9243 8.41328 37.6734 8.66419L38.3805 9.3713L39.0876 10.0784C39.0459 10.1201 38.9832 10.1684 38.8979 10.2049C38.8115 10.242 38.7243 10.2573 38.6465 10.2573V9.2573ZM38.3805 9.3713L37.6123 8.73112C37.3953 8.99154 37.2855 9.30823 37.2855 9.6373H38.2855H39.2855C39.2855 9.69249 39.2766 9.75957 39.251 9.83114C39.2253 9.90304 39.1885 9.96382 39.1487 10.0115L38.3805 9.3713ZM38.2855 9.6373H37.2855V17.9213H38.2855H39.2855V9.6373H38.2855ZM38.2855 17.9213H37.2855C37.2855 18.2504 37.3953 18.5671 37.6123 18.8275L38.3805 18.1873L39.1487 17.5471C39.1885 17.5948 39.2253 17.6556 39.251 17.7275C39.2766 17.799 39.2855 17.8661 39.2855 17.9213H38.2855ZM38.3805 18.1873L37.6734 18.8944C37.9243 19.1453 38.2626 19.3013 38.6465 19.3013V18.3013V17.3013C38.7243 17.3013 38.8115 17.3166 38.8979 17.3537C38.9832 17.3902 39.0459 17.4385 39.0876 17.4802L38.3805 18.1873ZM38.6465 18.3013V19.3013H39.8435V18.3013V17.3013H38.6465V18.3013ZM39.8435 18.3013V19.3013C40.2333 19.3013 40.6001 19.1378 40.8587 18.8275L40.0905 18.1873L39.3223 17.5471C39.3769 17.4816 39.4566 17.4136 39.5622 17.3648C39.6671 17.3164 39.7666 17.3013 39.8435 17.3013V18.3013ZM40.0905 18.1873L40.7976 18.8944C41.0485 18.6435 41.2045 18.3052 41.2045 17.9213H40.2045H39.2045C39.2045 17.8435 39.2198 17.7563 39.2569 17.6699C39.2934 17.5847 39.3417 17.5219 39.3834 17.4802L40.0905 18.1873ZM46.9877 17.7313H45.9877V18.7313H46.9877V17.7313ZM49.9327 17.7313H50.9327V16.7313H49.9327V17.7313ZM49.9327 19.9353V20.9353H50.9327V19.9353H49.9327ZM44.3277 19.9353H43.3277V20.9353H44.3277V19.9353ZM44.3277 7.6423V6.6423H43.3277V7.6423H44.3277ZM49.9327 7.6423H50.9327V6.6423H49.9327V7.6423ZM49.9327 9.8083V10.8083H50.9327V9.8083H49.9327ZM46.9877 9.8083V8.8083H45.9877V9.8083H46.9877ZM46.9877 12.6963H45.9877V13.6963H46.9877V12.6963ZM49.7427 12.6963H50.7427V11.6963H49.7427V12.6963ZM49.7427 14.7863V15.7863H50.7427V14.7863H49.7427ZM46.9877 14.7863V13.7863H45.9877V14.7863H46.9877ZM46.9877 17.7313V18.7313H49.9327V17.7313V16.7313H46.9877V17.7313ZM49.9327 17.7313H48.9327V19.9353H49.9327H50.9327V17.7313H49.9327ZM49.9327 19.9353V18.9353H44.3277V19.9353V20.9353H49.9327V19.9353ZM44.3277 19.9353H45.3277V7.6423H44.3277H43.3277V19.9353H44.3277ZM44.3277 7.6423V8.6423H49.9327V7.6423V6.6423H44.3277V7.6423ZM49.9327 7.6423H48.9327V9.8083H49.9327H50.9327V7.6423H49.9327ZM49.9327 9.8083V8.8083H46.9877V9.8083V10.8083H49.9327V9.8083ZM46.9877 9.8083H45.9877V12.6963H46.9877H47.9877V9.8083H46.9877ZM46.9877 12.6963V13.6963H49.7427V12.6963V11.6963H46.9877V12.6963ZM49.7427 12.6963H48.7427V14.7863H49.7427H50.7427V12.6963H49.7427ZM49.7427 14.7863V13.7863H46.9877V14.7863V15.7863H49.7427V14.7863ZM46.9877 14.7863H45.9877V17.7313H46.9877H47.9877V14.7863H46.9877Z" fill="black" mask="url(#path-3-outside-1_216_333)"/>
<defs>
<filter id="filter0_i_216_333" x="-2" y="-3" width="82.8926" height="29.9641" filterUnits="userSpaceOnUse" color-interpolation-filters="sRGB">
<feFlood flood-opacity="0" result="BackgroundImageFix"/>
<feBlend mode="normal" in="SourceGraphic" in2="BackgroundImageFix" result="shape"/>
<feColorMatrix in="SourceAlpha" type="matrix" values="0 0 0 0 0 0 0 0 0 0 0 0 0 0 0 0 0 0 127 0" result="hardAlpha"/>
<feOffset dx="-2" dy="-3"/>
<feGaussianBlur stdDeviation="2"/>
<feComposite in2="hardAlpha" operator="arithmetic" k2="-1" k3="1"/>
<feColorMatrix type="matrix" values="0 0 0 0 0.00961538 0 0 0 0 0.00961538 0 0 0 0 0.00961538 0 0 0 0.25 0"/>
<feBlend mode="normal" in2="shape" result="effect1_innerShadow_216_333"/>
</filter>
</defs>
</svg>
