<svg width="81" height="28" viewBox="0 0 81 28" fill="none" xmlns="http://www.w3.org/2000/svg">
<g filter="url(#filter0_i_216_172)">
<rect y="0.00012207" width="80.8925" height="26.9642" rx="12" fill="#DEDEDE"/>
</g>
<rect x="0.5" y="0.500122" width="79.8925" height="25.9642" rx="11.5" stroke="black"/>
<mask id="path-3-outside-1_216_172" maskUnits="userSpaceOnUse" x="11" y="6" width="58" height="16" fill="black">
<rect fill="white" x="11" y="6" width="58" height="16"/>
<path d="M20.018 20H17.358V9.797C17.358 9.69567 17.32 9.607 17.244 9.531C17.1807 9.455 17.0983 9.417 16.997 9.417H15.971C15.8697 9.417 15.781 9.455 15.705 9.531C15.6417 9.607 15.61 9.69567 15.61 9.797V20H12.95V10.025C12.95 8.353 13.7353 7.517 15.306 7.517H17.662C19.2327 7.517 20.018 8.353 20.018 10.025V20ZM29.04 10.025V17.682C29.04 19.354 28.2547 20.19 26.684 20.19H24.157C22.5864 20.19 21.801 19.354 21.801 17.682V10.025C21.801 8.353 22.5864 7.517 24.157 7.517H26.684C28.2547 7.517 29.04 8.353 29.04 10.025ZM26.38 17.986V9.702C26.38 9.60067 26.342 9.512 26.266 9.436C26.2027 9.36 26.1204 9.322 26.019 9.322H24.822C24.7207 9.322 24.632 9.36 24.556 9.436C24.4927 9.512 24.461 9.60067 24.461 9.702V17.986C24.461 18.0873 24.4927 18.176 24.556 18.252C24.632 18.328 24.7207 18.366 24.822 18.366H26.019C26.1204 18.366 26.2027 18.328 26.266 18.252C26.342 18.176 26.38 18.0873 26.38 17.986ZM33.6642 14.965V20H31.0042V7.707H35.7352C37.3058 7.707 38.0912 8.543 38.0912 10.215V11.64C38.0912 12.6533 37.7302 13.2993 37.0082 13.578C37.6415 13.806 37.9582 14.3253 37.9582 15.136V20H35.2982V15.345C35.2982 15.0917 35.1778 14.965 34.9372 14.965H33.6642ZM33.6642 9.512V13.103H35.0702C35.1715 13.103 35.2538 13.065 35.3172 12.989C35.3932 12.913 35.4312 12.8243 35.4312 12.723V9.892C35.4312 9.79067 35.3932 9.702 35.3172 9.626C35.2538 9.55 35.1715 9.512 35.0702 9.512H33.6642ZM42.4401 20H39.7801V10.025C39.7801 8.353 40.5654 7.517 42.1361 7.517H43.5421C44.4668 7.517 45.1254 7.821 45.5181 8.429C45.8854 7.821 46.5441 7.517 47.4941 7.517H48.9001C50.4708 7.517 51.2561 8.353 51.2561 10.025V20H48.5961V9.797C48.5961 9.69567 48.5581 9.607 48.4821 9.531C48.4188 9.455 48.3364 9.417 48.2351 9.417H47.2091C47.1078 9.417 47.0191 9.455 46.9431 9.531C46.8798 9.607 46.8481 9.69567 46.8481 9.797V20H44.1881V9.797C44.1881 9.69567 44.1501 9.607 44.0741 9.531C44.0108 9.455 43.9284 9.417 43.8271 9.417H42.8011C42.6998 9.417 42.6111 9.455 42.5351 9.531C42.4718 9.607 42.4401 9.69567 42.4401 9.797V20ZM57.9673 7.517C59.5379 7.517 60.3233 8.353 60.3233 10.025V20H57.6633V15.877H55.7443V20H53.0843V10.025C53.0843 8.353 53.8696 7.517 55.4403 7.517H57.9673ZM55.7443 13.825H57.6633V9.702C57.6633 9.60067 57.6253 9.512 57.5493 9.436C57.4859 9.36 57.4036 9.322 57.3023 9.322H56.1053C56.0039 9.322 55.9153 9.36 55.8393 9.436C55.7759 9.512 55.7443 9.60067 55.7443 9.702V13.825ZM64.9659 17.758H67.8729V20H62.3059V7.707H64.9659V17.758Z"/>
</mask>
<path d="M20.018 20H17.358V9.797C17.358 9.69567 17.32 9.607 17.244 9.531C17.1807 9.455 17.0983 9.417 16.997 9.417H15.971C15.8697 9.417 15.781 9.455 15.705 9.531C15.6417 9.607 15.61 9.69567 15.61 9.797V20H12.95V10.025C12.95 8.353 13.7353 7.517 15.306 7.517H17.662C19.2327 7.517 20.018 8.353 20.018 10.025V20ZM29.04 10.025V17.682C29.04 19.354 28.2547 20.19 26.684 20.19H24.157C22.5864 20.19 21.801 19.354 21.801 17.682V10.025C21.801 8.353 22.5864 7.517 24.157 7.517H26.684C28.2547 7.517 29.04 8.353 29.04 10.025ZM26.38 17.986V9.702C26.38 9.60067 26.342 9.512 26.266 9.436C26.2027 9.36 26.1204 9.322 26.019 9.322H24.822C24.7207 9.322 24.632 9.36 24.556 9.436C24.4927 9.512 24.461 9.60067 24.461 9.702V17.986C24.461 18.0873 24.4927 18.176 24.556 18.252C24.632 18.328 24.7207 18.366 24.822 18.366H26.019C26.1204 18.366 26.2027 18.328 26.266 18.252C26.342 18.176 26.38 18.0873 26.38 17.986ZM33.6642 14.965V20H31.0042V7.707H35.7352C37.3058 7.707 38.0912 8.543 38.0912 10.215V11.64C38.0912 12.6533 37.7302 13.2993 37.0082 13.578C37.6415 13.806 37.9582 14.3253 37.9582 15.136V20H35.2982V15.345C35.2982 15.0917 35.1778 14.965 34.9372 14.965H33.6642ZM33.6642 9.512V13.103H35.0702C35.1715 13.103 35.2538 13.065 35.3172 12.989C35.3932 12.913 35.4312 12.8243 35.4312 12.723V9.892C35.4312 9.79067 35.3932 9.702 35.3172 9.626C35.2538 9.55 35.1715 9.512 35.0702 9.512H33.6642ZM42.4401 20H39.7801V10.025C39.7801 8.353 40.5654 7.517 42.1361 7.517H43.5421C44.4668 7.517 45.1254 7.821 45.5181 8.429C45.8854 7.821 46.5441 7.517 47.4941 7.517H48.9001C50.4708 7.517 51.2561 8.353 51.2561 10.025V20H48.5961V9.797C48.5961 9.69567 48.5581 9.607 48.4821 9.531C48.4188 9.455 48.3364 9.417 48.2351 9.417H47.2091C47.1078 9.417 47.0191 9.455 46.9431 9.531C46.8798 9.607 46.8481 9.69567 46.8481 9.797V20H44.1881V9.797C44.1881 9.69567 44.1501 9.607 44.0741 9.531C44.0108 9.455 43.9284 9.417 43.8271 9.417H42.8011C42.6998 9.417 42.6111 9.455 42.5351 9.531C42.4718 9.607 42.4401 9.69567 42.4401 9.797V20ZM57.9673 7.517C59.5379 7.517 60.3233 8.353 60.3233 10.025V20H57.6633V15.877H55.7443V20H53.0843V10.025C53.0843 8.353 53.8696 7.517 55.4403 7.517H57.9673ZM55.7443 13.825H57.6633V9.702C57.6633 9.60067 57.6253 9.512 57.5493 9.436C57.4859 9.36 57.4036 9.322 57.3023 9.322H56.1053C56.0039 9.322 55.9153 9.36 55.8393 9.436C55.7759 9.512 55.7443 9.60067 55.7443 9.702V13.825ZM64.9659 17.758H67.8729V20H62.3059V7.707H64.9659V17.758Z" fill="white"/>
<path d="M20.018 20V21H21.018V20H20.018ZM17.358 20H16.358V21H17.358V20ZM17.244 9.531L16.4758 10.1712L16.5048 10.206L16.5369 10.2381L17.244 9.531ZM15.705 9.531L14.9979 8.8239L14.9658 8.85597L14.9368 8.89081L15.705 9.531ZM15.61 20V21H16.61V20H15.61ZM12.95 20H11.95V21H12.95V20ZM20.018 20V19H17.358V20V21H20.018V20ZM17.358 20H18.358V9.797H17.358H16.358V20H17.358ZM17.358 9.797H18.358C18.358 9.41311 18.202 9.0748 17.9511 8.82389L17.244 9.531L16.5369 10.2381C16.4952 10.1964 16.4469 10.1336 16.4104 10.0484C16.3734 9.96204 16.358 9.8748 16.358 9.797H17.358ZM17.244 9.531L18.0122 8.89082C17.7536 8.58051 17.3868 8.417 16.997 8.417V9.417V10.417C16.9201 10.417 16.8206 10.4019 16.7157 10.3535C16.6101 10.3047 16.5304 10.2367 16.4758 10.1712L17.244 9.531ZM16.997 9.417V8.417H15.971V9.417V10.417H16.997V9.417ZM15.971 9.417V8.417C15.5871 8.417 15.2488 8.57298 14.9979 8.8239L15.705 9.531L16.4121 10.2381C16.3704 10.2798 16.3077 10.3281 16.2224 10.3646C16.1361 10.4017 16.0488 10.417 15.971 10.417V9.417ZM15.705 9.531L14.9368 8.89081C14.7198 9.15124 14.61 9.46793 14.61 9.797H15.61H16.61C16.61 9.85219 16.6011 9.91926 16.5755 9.99084C16.5498 10.0627 16.513 10.1235 16.4732 10.1712L15.705 9.531ZM15.61 9.797H14.61V20H15.61H16.61V9.797H15.61ZM15.61 20V19H12.95V20V21H15.61V20ZM12.95 20H13.95V10.025H12.95H11.95V20H12.95ZM12.95 10.025H13.95C13.95 9.32812 14.1149 8.99152 14.2679 8.82868C14.4098 8.67758 14.6914 8.517 15.306 8.517V7.517V6.517C14.35 6.517 13.4536 6.77442 12.8102 7.45932C12.1778 8.13248 11.95 9.04988 11.95 10.025H12.95ZM15.306 7.517V8.517H17.662V7.517V6.517H15.306V7.517ZM17.662 7.517V8.517C18.2767 8.517 18.5582 8.67758 18.7002 8.82868C18.8531 8.99152 19.018 9.32812 19.018 10.025H20.018H21.018C21.018 9.04988 20.7902 8.13248 20.1579 7.45932C19.5145 6.77442 18.618 6.517 17.662 6.517V7.517ZM20.018 10.025H19.018V20H20.018H21.018V10.025H20.018ZM26.266 9.436L25.4978 10.0762L25.5269 10.111L25.5589 10.1431L26.266 9.436ZM24.556 9.436L23.8489 8.72889L23.8169 8.76097L23.7878 8.79582L24.556 9.436ZM24.556 18.252L23.7878 18.8922L23.8169 18.927L23.8489 18.9591L24.556 18.252ZM26.266 18.252L25.5589 17.5449L25.5269 17.577L25.4978 17.6118L26.266 18.252ZM29.04 10.025H28.04V17.682H29.04H30.04V10.025H29.04ZM29.04 17.682H28.04C28.04 18.3789 27.8752 18.7155 27.7222 18.8783C27.5803 19.0294 27.2987 19.19 26.684 19.19V20.19V21.19C27.6401 21.19 28.5365 20.9326 29.1799 20.2477C29.8123 19.5745 30.04 18.6571 30.04 17.682H29.04ZM26.684 20.19V19.19H24.157V20.19V21.19H26.684V20.19ZM24.157 20.19V19.19C23.5424 19.19 23.2608 19.0294 23.1189 18.8783C22.9659 18.7155 22.801 18.3789 22.801 17.682H21.801H20.801C20.801 18.6571 21.0288 19.5745 21.6612 20.2477C22.3046 20.9326 23.201 21.19 24.157 21.19V20.19ZM21.801 17.682H22.801V10.025H21.801H20.801V17.682H21.801ZM21.801 10.025H22.801C22.801 9.32812 22.9659 8.99152 23.1189 8.82868C23.2608 8.67758 23.5424 8.517 24.157 8.517V7.517V6.517C23.201 6.517 22.3046 6.77442 21.6612 7.45932C21.0288 8.13248 20.801 9.04988 20.801 10.025H21.801ZM24.157 7.517V8.517H26.684V7.517V6.517H24.157V7.517ZM26.684 7.517V8.517C27.2987 8.517 27.5803 8.67758 27.7222 8.82868C27.8752 8.99152 28.04 9.32812 28.04 10.025H29.04H30.04C30.04 9.04988 29.8123 8.13248 29.1799 7.45932C28.5365 6.77442 27.6401 6.517 26.684 6.517V7.517ZM26.38 17.986H27.38V9.702H26.38H25.38V17.986H26.38ZM26.38 9.702H27.38C27.38 9.31811 27.2241 8.9798 26.9732 8.7289L26.266 9.436L25.5589 10.1431C25.5172 10.1014 25.4689 10.0386 25.4324 9.95342C25.3954 9.86703 25.38 9.7798 25.38 9.702H26.38ZM26.266 9.436L27.0343 8.79581C26.7757 8.4855 26.4088 8.322 26.019 8.322V9.322V10.322C25.9421 10.322 25.8426 10.3069 25.7377 10.2585C25.6322 10.2097 25.5525 10.1417 25.4978 10.0762L26.266 9.436ZM26.019 9.322V8.322H24.822V9.322V10.322H26.019V9.322ZM24.822 9.322V8.322C24.4382 8.322 24.0999 8.47798 23.8489 8.72889L24.556 9.436L25.2632 10.1431C25.2215 10.1848 25.1587 10.2331 25.0735 10.2696C24.9871 10.3067 24.8998 10.322 24.822 10.322V9.322ZM24.556 9.436L23.7878 8.79582C23.5708 9.05624 23.461 9.37293 23.461 9.702H24.461H25.461C25.461 9.75719 25.4521 9.82426 25.4265 9.89584C25.4009 9.96773 25.364 10.0285 25.3243 10.0762L24.556 9.436ZM24.461 9.702H23.461V17.986H24.461H25.461V9.702H24.461ZM24.461 17.986H23.461C23.461 18.3151 23.5708 18.6318 23.7878 18.8922L24.556 18.252L25.3243 17.6118C25.364 17.6595 25.4009 17.7203 25.4265 17.7922C25.4521 17.8637 25.461 17.9308 25.461 17.986H24.461ZM24.556 18.252L23.8489 18.9591C24.0999 19.21 24.4382 19.366 24.822 19.366V18.366V17.366C24.8998 17.366 24.9871 17.3813 25.0735 17.4184C25.1587 17.4549 25.2215 17.5032 25.2632 17.5449L24.556 18.252ZM24.822 18.366V19.366H26.019V18.366V17.366H24.822V18.366ZM26.019 18.366V19.366C26.4088 19.366 26.7757 19.2025 27.0343 18.8922L26.266 18.252L25.4978 17.6118C25.5525 17.5463 25.6322 17.4783 25.7377 17.4295C25.8426 17.3811 25.9421 17.366 26.019 17.366V18.366ZM26.266 18.252L26.9732 18.9591C27.2241 18.7082 27.38 18.3699 27.38 17.986H26.38H25.38C25.38 17.9082 25.3954 17.821 25.4324 17.7346C25.4689 17.6494 25.5172 17.5866 25.5589 17.5449L26.266 18.252ZM33.6642 14.965V13.965H32.6642V14.965H33.6642ZM33.6642 20V21H34.6642V20H33.6642ZM31.0042 20H30.0042V21H31.0042V20ZM31.0042 7.707V6.707H30.0042V7.707H31.0042ZM37.0082 13.578L36.6481 12.6451L34.1465 13.6106L36.6695 14.5189L37.0082 13.578ZM37.9582 20V21H38.9582V20H37.9582ZM35.2982 20H34.2982V21H35.2982V20ZM33.6642 9.512V8.512H32.6642V9.512H33.6642ZM33.6642 13.103H32.6642V14.103H33.6642V13.103ZM35.3172 12.989L34.6101 12.2819L34.578 12.314L34.549 12.3488L35.3172 12.989ZM35.3172 9.626L34.549 10.2662L34.578 10.301L34.6101 10.3331L35.3172 9.626ZM33.6642 14.965H32.6642V20H33.6642H34.6642V14.965H33.6642ZM33.6642 20V19H31.0042V20V21H33.6642V20ZM31.0042 20H32.0042V7.707H31.0042H30.0042V20H31.0042ZM31.0042 7.707V8.707H35.7352V7.707V6.707H31.0042V7.707ZM35.7352 7.707V8.707C36.3498 8.707 36.6314 8.86758 36.7733 9.01867C36.9263 9.18152 37.0912 9.51812 37.0912 10.215H38.0912H39.0912C39.0912 9.23988 38.8634 8.32248 38.231 7.64932C37.5876 6.96442 36.6912 6.707 35.7352 6.707V7.707ZM38.0912 10.215H37.0912V11.64H38.0912H39.0912V10.215H38.0912ZM38.0912 11.64H37.0912C37.0912 12.0361 37.0195 12.2678 36.9475 12.3967C36.8863 12.5061 36.8023 12.5856 36.6481 12.6451L37.0082 13.578L37.3682 14.5109C37.9361 14.2918 38.3935 13.9089 38.6934 13.3723C38.9823 12.8552 39.0912 12.2572 39.0912 11.64H38.0912ZM37.0082 13.578L36.6695 14.5189C36.7958 14.5644 36.8401 14.6152 36.8669 14.6591C36.9028 14.718 36.9582 14.8549 36.9582 15.136H37.9582H38.9582C38.9582 14.6064 38.8552 14.0783 38.5745 13.6179C38.2846 13.1425 37.8538 12.8196 37.3469 12.6371L37.0082 13.578ZM37.9582 15.136H36.9582V20H37.9582H38.9582V15.136H37.9582ZM37.9582 20V19H35.2982V20V21H37.9582V20ZM35.2982 20H36.2982V15.345H35.2982H34.2982V20H35.2982ZM35.2982 15.345H36.2982C36.2982 15.0766 36.2353 14.6896 35.9329 14.3713C35.6214 14.0433 35.2251 13.965 34.9372 13.965V14.965V15.965C34.8899 15.965 34.6741 15.95 34.4829 15.7487C34.3008 15.5571 34.2982 15.36 34.2982 15.345H35.2982ZM34.9372 14.965V13.965H33.6642V14.965V15.965H34.9372V14.965ZM33.6642 9.512H32.6642V13.103H33.6642H34.6642V9.512H33.6642ZM33.6642 13.103V14.103H35.0702V13.103V12.103H33.6642V13.103ZM35.0702 13.103V14.103C35.46 14.103 35.8268 13.9395 36.0854 13.6292L35.3172 12.989L34.549 12.3488C34.6036 12.2833 34.6833 12.2153 34.7889 12.1665C34.8938 12.1181 34.9932 12.103 35.0702 12.103V13.103ZM35.3172 12.989L36.0243 13.6961C36.2752 13.4452 36.4312 13.1069 36.4312 12.723H35.4312H34.4312C34.4312 12.6452 34.4465 12.558 34.4835 12.4716C34.5201 12.3864 34.5684 12.3236 34.6101 12.2819L35.3172 12.989ZM35.4312 12.723H36.4312V9.892H35.4312H34.4312V12.723H35.4312ZM35.4312 9.892H36.4312C36.4312 9.50811 36.2752 9.1698 36.0243 8.91889L35.3172 9.626L34.6101 10.3331C34.5684 10.2914 34.5201 10.2286 34.4835 10.1434C34.4465 10.057 34.4312 9.9698 34.4312 9.892H35.4312ZM35.3172 9.626L36.0854 8.98582C35.8268 8.6755 35.46 8.512 35.0702 8.512V9.512V10.512C34.9932 10.512 34.8938 10.4969 34.7889 10.4485C34.6833 10.3997 34.6036 10.3317 34.549 10.2662L35.3172 9.626ZM35.0702 9.512V8.512H33.6642V9.512V10.512H35.0702V9.512ZM42.4401 20V21H43.4401V20H42.4401ZM39.7801 20H38.7801V21H39.7801V20ZM45.5181 8.429L44.6781 8.97153L45.5464 10.316L46.374 8.94612L45.5181 8.429ZM51.2561 20V21H52.2561V20H51.2561ZM48.5961 20H47.5961V21H48.5961V20ZM48.4821 9.531L47.7139 10.1712L47.7429 10.206L47.775 10.2381L48.4821 9.531ZM46.9431 9.531L46.236 8.8239L46.2039 8.85597L46.1749 8.89081L46.9431 9.531ZM46.8481 20V21H47.8481V20H46.8481ZM44.1881 20H43.1881V21H44.1881V20ZM44.0741 9.531L43.3059 10.1712L43.3349 10.206L43.367 10.2381L44.0741 9.531ZM42.5351 9.531L41.828 8.8239L41.7959 8.85597L41.7669 8.89081L42.5351 9.531ZM42.4401 20V19H39.7801V20V21H42.4401V20ZM39.7801 20H40.7801V10.025H39.7801H38.7801V20H39.7801ZM39.7801 10.025H40.7801C40.7801 9.32812 40.945 8.99152 41.0979 8.82868C41.2399 8.67758 41.5215 8.517 42.1361 8.517V7.517V6.517C41.1801 6.517 40.2836 6.77442 39.6402 7.45932C39.0079 8.13248 38.7801 9.04988 38.7801 10.025H39.7801ZM42.1361 7.517V8.517H43.5421V7.517V6.517H42.1361V7.517ZM43.5421 7.517V8.517C44.2339 8.517 44.5208 8.72805 44.6781 8.97153L45.5181 8.429L46.3581 7.88647C45.73 6.91395 44.6996 6.517 43.5421 6.517V7.517ZM45.5181 8.429L46.374 8.94612C46.5006 8.73652 46.7611 8.517 47.4941 8.517V7.517V6.517C46.3271 6.517 45.2702 6.90548 44.6622 7.91188L45.5181 8.429ZM47.4941 7.517V8.517H48.9001V7.517V6.517H47.4941V7.517ZM48.9001 7.517V8.517C49.5147 8.517 49.7963 8.67758 49.9382 8.82868C50.0912 8.99152 50.2561 9.32812 50.2561 10.025H51.2561H52.2561C52.2561 9.04988 52.0283 8.13248 51.3959 7.45932C50.7525 6.77442 49.8561 6.517 48.9001 6.517V7.517ZM51.2561 10.025H50.2561V20H51.2561H52.2561V10.025H51.2561ZM51.2561 20V19H48.5961V20V21H51.2561V20ZM48.5961 20H49.5961V9.797H48.5961H47.5961V20H48.5961ZM48.5961 9.797H49.5961C49.5961 9.41311 49.4401 9.07481 49.1892 8.82389L48.4821 9.531L47.775 10.2381C47.7333 10.1964 47.685 10.1336 47.6484 10.0484C47.6114 9.96203 47.5961 9.8748 47.5961 9.797H48.5961ZM48.4821 9.531L49.2503 8.89082C48.9917 8.5805 48.6249 8.417 48.2351 8.417V9.417V10.417C48.1582 10.417 48.0587 10.4019 47.9538 10.3535C47.8482 10.3047 47.7685 10.2367 47.7139 10.1712L48.4821 9.531ZM48.2351 9.417V8.417H47.2091V9.417V10.417H48.2351V9.417ZM47.2091 9.417V8.417C46.8252 8.417 46.4869 8.57298 46.236 8.8239L46.9431 9.531L47.6502 10.2381C47.6085 10.2798 47.5457 10.3281 47.4605 10.3646C47.3741 10.4017 47.2869 10.417 47.2091 10.417V9.417ZM46.9431 9.531L46.1749 8.89081C45.9579 9.15124 45.8481 9.46793 45.8481 9.797H46.8481H47.8481C47.8481 9.85219 47.8391 9.91926 47.8136 9.99084C47.7879 10.0627 47.751 10.1235 47.7113 10.1712L46.9431 9.531ZM46.8481 9.797H45.8481V20H46.8481H47.8481V9.797H46.8481ZM46.8481 20V19H44.1881V20V21H46.8481V20ZM44.1881 20H45.1881V9.797H44.1881H43.1881V20H44.1881ZM44.1881 9.797H45.1881C45.1881 9.41311 45.0321 9.0748 44.7812 8.82389L44.0741 9.531L43.367 10.2381C43.3253 10.1964 43.277 10.1336 43.2404 10.0484C43.2034 9.96204 43.1881 9.8748 43.1881 9.797H44.1881ZM44.0741 9.531L44.8423 8.89082C44.5837 8.58051 44.2169 8.417 43.8271 8.417V9.417V10.417C43.7502 10.417 43.6507 10.4019 43.5458 10.3535C43.4402 10.3047 43.3605 10.2367 43.3059 10.1712L44.0741 9.531ZM43.8271 9.417V8.417H42.8011V9.417V10.417H43.8271V9.417ZM42.8011 9.417V8.417C42.4172 8.417 42.0789 8.57298 41.828 8.8239L42.5351 9.531L43.2422 10.2381C43.2005 10.2798 43.1377 10.3281 43.0525 10.3646C42.9661 10.4017 42.8789 10.417 42.8011 10.417V9.417ZM42.5351 9.531L41.7669 8.89081C41.5499 9.15124 41.4401 9.46793 41.4401 9.797H42.4401H43.4401C43.4401 9.85219 43.4311 9.91926 43.4056 9.99084C43.3799 10.0627 43.343 10.1235 43.3033 10.1712L42.5351 9.531ZM42.4401 9.797H41.4401V20H42.4401H43.4401V9.797H42.4401ZM60.3232 20V21H61.3232V20H60.3232ZM57.6632 20H56.6632V21H57.6632V20ZM57.6632 15.877H58.6632V14.877H57.6632V15.877ZM55.7443 15.877V14.877H54.7443V15.877H55.7443ZM55.7443 20V21H56.7443V20H55.7443ZM53.0843 20H52.0843V21H53.0843V20ZM55.7443 13.825H54.7443V14.825H55.7443V13.825ZM57.6632 13.825V14.825H58.6632V13.825H57.6632ZM57.5493 9.436L56.781 10.0762L56.8101 10.111L56.8421 10.1431L57.5493 9.436ZM55.8393 9.436L55.1321 8.72889L55.1001 8.76097L55.071 8.79582L55.8393 9.436ZM57.9673 7.517V8.517C58.5819 8.517 58.8635 8.67758 59.0054 8.82868C59.1584 8.99152 59.3232 9.32812 59.3232 10.025H60.3232H61.3232C61.3232 9.04988 61.0955 8.13248 60.4631 7.45932C59.8197 6.77442 58.9233 6.517 57.9673 6.517V7.517ZM60.3232 10.025H59.3232V20H60.3232H61.3232V10.025H60.3232ZM60.3232 20V19H57.6632V20V21H60.3232V20ZM57.6632 20H58.6632V15.877H57.6632H56.6632V20H57.6632ZM57.6632 15.877V14.877H55.7443V15.877V16.877H57.6632V15.877ZM55.7443 15.877H54.7443V20H55.7443H56.7443V15.877H55.7443ZM55.7443 20V19H53.0843V20V21H55.7443V20ZM53.0843 20H54.0843V10.025H53.0843H52.0843V20H53.0843ZM53.0843 10.025H54.0843C54.0843 9.32812 54.2491 8.99152 54.4021 8.82868C54.544 8.67758 54.8256 8.517 55.4403 8.517V7.517V6.517C54.4842 6.517 53.5878 6.77442 52.9444 7.45932C52.312 8.13248 52.0843 9.04988 52.0843 10.025H53.0843ZM55.4403 7.517V8.517H57.9673V7.517V6.517H55.4403V7.517ZM55.7443 13.825V14.825H57.6632V13.825V12.825H55.7443V13.825ZM57.6632 13.825H58.6632V9.702H57.6632H56.6632V13.825H57.6632ZM57.6632 9.702H58.6632C58.6632 9.31811 58.5073 8.9798 58.2564 8.7289L57.5493 9.436L56.8421 10.1431C56.8004 10.1014 56.7521 10.0386 56.7156 9.95342C56.6786 9.86703 56.6632 9.7798 56.6632 9.702H57.6632ZM57.5493 9.436L58.3175 8.79581C58.0589 8.4855 57.692 8.322 57.3022 8.322V9.322V10.322C57.2253 10.322 57.1258 10.3069 57.0209 10.2585C56.9154 10.2097 56.8357 10.1417 56.781 10.0762L57.5493 9.436ZM57.3022 9.322V8.322H56.1053V9.322V10.322H57.3022V9.322ZM56.1053 9.322V8.322C55.7214 8.322 55.3831 8.47798 55.1321 8.72889L55.8393 9.436L56.5464 10.1431C56.5047 10.1848 56.4419 10.2331 56.3567 10.2696C56.2703 10.3067 56.1831 10.322 56.1053 10.322V9.322ZM55.8393 9.436L55.071 8.79582C54.854 9.05624 54.7443 9.37293 54.7443 9.702H55.7443H56.7443C56.7443 9.75719 56.7353 9.82426 56.7097 9.89584C56.6841 9.96773 56.6472 10.0285 56.6075 10.0762L55.8393 9.436ZM55.7443 9.702H54.7443V13.825H55.7443H56.7443V9.702H55.7443ZM64.9659 17.758H63.9659V18.758H64.9659V17.758ZM67.8729 17.758H68.8729V16.758H67.8729V17.758ZM67.8729 20V21H68.8729V20H67.8729ZM62.3059 20H61.3059V21H62.3059V20ZM62.3059 7.707V6.707H61.3059V7.707H62.3059ZM64.9659 7.707H65.9659V6.707H64.9659V7.707ZM64.9659 17.758V18.758H67.8729V17.758V16.758H64.9659V17.758ZM67.8729 17.758H66.8729V20H67.8729H68.8729V17.758H67.8729ZM67.8729 20V19H62.3059V20V21H67.8729V20ZM62.3059 20H63.3059V7.707H62.3059H61.3059V20H62.3059ZM62.3059 7.707V8.707H64.9659V7.707V6.707H62.3059V7.707ZM64.9659 7.707H63.9659V17.758H64.9659H65.9659V7.707H64.9659Z" fill="black" mask="url(#path-3-outside-1_216_172)"/>
<defs>
<filter id="filter0_i_216_172" x="-2" y="-2.99988" width="82.8926" height="29.9641" filterUnits="userSpaceOnUse" color-interpolation-filters="sRGB">
<feFlood flood-opacity="0" result="BackgroundImageFix"/>
<feBlend mode="normal" in="SourceGraphic" in2="BackgroundImageFix" result="shape"/>
<feColorMatrix in="SourceAlpha" type="matrix" values="0 0 0 0 0 0 0 0 0 0 0 0 0 0 0 0 0 0 127 0" result="hardAlpha"/>
<feOffset dx="-2" dy="-3"/>
<feGaussianBlur stdDeviation="2"/>
<feComposite in2="hardAlpha" operator="arithmetic" k2="-1" k3="1"/>
<feColorMatrix type="matrix" values="0 0 0 0 0.00961538 0 0 0 0 0.00961538 0 0 0 0 0.00961538 0 0 0 0.25 0"/>
<feBlend mode="normal" in2="shape" result="effect1_innerShadow_216_172"/>
</filter>
</defs>
</svg>
