<svg width="81" height="28" viewBox="0 0 81 28" fill="none" xmlns="http://www.w3.org/2000/svg">
<g filter="url(#filter0_i_216_339)">
<rect width="80.8925" height="26.9642" rx="12" fill="#DE00AE"/>
</g>
<rect x="0.5" y="0.5" width="79.8925" height="25.9642" rx="11.5" stroke="black"/>
<mask id="path-3-outside-1_216_339" maskUnits="userSpaceOnUse" x="15.843" y="5.9353" width="50" height="16" fill="black">
<rect fill="white" x="15.843" y="5.9353" width="50" height="16"/>
<path d="M22.1533 7.6423C23.7239 7.6423 24.5093 8.4783 24.5093 10.1503V12.6013C24.5093 14.2733 23.7239 15.1093 22.1533 15.1093H20.0063V19.9353H17.3463V7.6423H22.1533ZM21.8493 12.9053V9.8463C21.8493 9.74497 21.8113 9.6563 21.7353 9.5803C21.6719 9.5043 21.5896 9.4663 21.4883 9.4663H20.0063V13.2853H21.4883C21.5896 13.2853 21.6719 13.2473 21.7353 13.1713C21.8113 13.0953 21.8493 13.0066 21.8493 12.9053ZM33.0837 9.9603V17.6173C33.0837 19.2893 32.2984 20.1253 30.7277 20.1253H28.2007C26.6301 20.1253 25.8447 19.2893 25.8447 17.6173V9.9603C25.8447 8.2883 26.6301 7.4523 28.2007 7.4523H30.7277C32.2984 7.4523 33.0837 8.2883 33.0837 9.9603ZM30.4237 17.9213V9.6373C30.4237 9.53597 30.3857 9.4473 30.3097 9.3713C30.2464 9.2953 30.1641 9.2573 30.0627 9.2573H28.8657C28.7644 9.2573 28.6757 9.2953 28.5997 9.3713C28.5364 9.4473 28.5047 9.53597 28.5047 9.6373V17.9213C28.5047 18.0226 28.5364 18.1113 28.5997 18.1873C28.6757 18.2633 28.7644 18.3013 28.8657 18.3013H30.0627C30.1641 18.3013 30.2464 18.2633 30.3097 18.1873C30.3857 18.1113 30.4237 18.0226 30.4237 17.9213ZM37.7079 7.6423V19.9353H35.0479V7.6423H37.7079ZM46.5075 10.8723H43.9805V9.9033C43.9805 9.80197 43.9425 9.7133 43.8665 9.6373C43.8032 9.5613 43.7209 9.5233 43.6195 9.5233H42.5745C42.4732 9.5233 42.3845 9.5613 42.3085 9.6373C42.2452 9.7133 42.2135 9.80197 42.2135 9.9033V12.0883C42.2135 12.1896 42.2452 12.2783 42.3085 12.3543C42.3845 12.4303 42.4732 12.4683 42.5745 12.4683H44.2845C45.8552 12.4936 46.6405 13.3296 46.6405 14.9763V17.6173C46.6405 19.2893 45.8552 20.1253 44.2845 20.1253H42.0425C40.4719 20.1253 39.6865 19.2893 39.6865 17.6173V16.3443H42.2135V17.7123C42.2135 17.8136 42.2452 17.9023 42.3085 17.9783C42.3845 18.0543 42.4732 18.0923 42.5745 18.0923H43.7525C43.8539 18.0923 43.9362 18.0543 43.9995 17.9783C44.0755 17.9023 44.1135 17.8136 44.1135 17.7123V15.2993C44.1135 15.198 44.0755 15.1093 43.9995 15.0333C43.9362 14.9573 43.8539 14.9193 43.7525 14.9193H42.0425C40.4719 14.9193 39.6865 14.0833 39.6865 12.4113V9.9603C39.6865 8.2883 40.4719 7.4523 42.0425 7.4523H44.1515C45.7222 7.4523 46.5075 8.2883 46.5075 9.9603V10.8723ZM55.6277 9.9603V17.6173C55.6277 19.2893 54.8424 20.1253 53.2717 20.1253H50.7447C49.174 20.1253 48.3887 19.2893 48.3887 17.6173V9.9603C48.3887 8.2883 49.174 7.4523 50.7447 7.4523H53.2717C54.8424 7.4523 55.6277 8.2883 55.6277 9.9603ZM52.9677 17.9213V9.6373C52.9677 9.53597 52.9297 9.4473 52.8537 9.3713C52.7904 9.2953 52.708 9.2573 52.6067 9.2573H51.4097C51.3084 9.2573 51.2197 9.2953 51.1437 9.3713C51.0804 9.4473 51.0487 9.53597 51.0487 9.6373V17.9213C51.0487 18.0226 51.0804 18.1113 51.1437 18.1873C51.2197 18.2633 51.3084 18.3013 51.4097 18.3013H52.6067C52.708 18.3013 52.7904 18.2633 52.8537 18.1873C52.9297 18.1113 52.9677 18.0226 52.9677 17.9213ZM64.6408 19.9353H61.9808V9.7323C61.9808 9.63097 61.9428 9.5423 61.8668 9.4663C61.8035 9.3903 61.7212 9.3523 61.6198 9.3523H60.5938C60.4925 9.3523 60.4038 9.3903 60.3278 9.4663C60.2645 9.5423 60.2328 9.63097 60.2328 9.7323V19.9353H57.5728V9.9603C57.5728 8.2883 58.3582 7.4523 59.9288 7.4523H62.2848C63.8555 7.4523 64.6408 8.2883 64.6408 9.9603V19.9353Z"/>
</mask>
<path d="M22.1533 7.6423C23.7239 7.6423 24.5093 8.4783 24.5093 10.1503V12.6013C24.5093 14.2733 23.7239 15.1093 22.1533 15.1093H20.0063V19.9353H17.3463V7.6423H22.1533ZM21.8493 12.9053V9.8463C21.8493 9.74497 21.8113 9.6563 21.7353 9.5803C21.6719 9.5043 21.5896 9.4663 21.4883 9.4663H20.0063V13.2853H21.4883C21.5896 13.2853 21.6719 13.2473 21.7353 13.1713C21.8113 13.0953 21.8493 13.0066 21.8493 12.9053ZM33.0837 9.9603V17.6173C33.0837 19.2893 32.2984 20.1253 30.7277 20.1253H28.2007C26.6301 20.1253 25.8447 19.2893 25.8447 17.6173V9.9603C25.8447 8.2883 26.6301 7.4523 28.2007 7.4523H30.7277C32.2984 7.4523 33.0837 8.2883 33.0837 9.9603ZM30.4237 17.9213V9.6373C30.4237 9.53597 30.3857 9.4473 30.3097 9.3713C30.2464 9.2953 30.1641 9.2573 30.0627 9.2573H28.8657C28.7644 9.2573 28.6757 9.2953 28.5997 9.3713C28.5364 9.4473 28.5047 9.53597 28.5047 9.6373V17.9213C28.5047 18.0226 28.5364 18.1113 28.5997 18.1873C28.6757 18.2633 28.7644 18.3013 28.8657 18.3013H30.0627C30.1641 18.3013 30.2464 18.2633 30.3097 18.1873C30.3857 18.1113 30.4237 18.0226 30.4237 17.9213ZM37.7079 7.6423V19.9353H35.0479V7.6423H37.7079ZM46.5075 10.8723H43.9805V9.9033C43.9805 9.80197 43.9425 9.7133 43.8665 9.6373C43.8032 9.5613 43.7209 9.5233 43.6195 9.5233H42.5745C42.4732 9.5233 42.3845 9.5613 42.3085 9.6373C42.2452 9.7133 42.2135 9.80197 42.2135 9.9033V12.0883C42.2135 12.1896 42.2452 12.2783 42.3085 12.3543C42.3845 12.4303 42.4732 12.4683 42.5745 12.4683H44.2845C45.8552 12.4936 46.6405 13.3296 46.6405 14.9763V17.6173C46.6405 19.2893 45.8552 20.1253 44.2845 20.1253H42.0425C40.4719 20.1253 39.6865 19.2893 39.6865 17.6173V16.3443H42.2135V17.7123C42.2135 17.8136 42.2452 17.9023 42.3085 17.9783C42.3845 18.0543 42.4732 18.0923 42.5745 18.0923H43.7525C43.8539 18.0923 43.9362 18.0543 43.9995 17.9783C44.0755 17.9023 44.1135 17.8136 44.1135 17.7123V15.2993C44.1135 15.198 44.0755 15.1093 43.9995 15.0333C43.9362 14.9573 43.8539 14.9193 43.7525 14.9193H42.0425C40.4719 14.9193 39.6865 14.0833 39.6865 12.4113V9.9603C39.6865 8.2883 40.4719 7.4523 42.0425 7.4523H44.1515C45.7222 7.4523 46.5075 8.2883 46.5075 9.9603V10.8723ZM55.6277 9.9603V17.6173C55.6277 19.2893 54.8424 20.1253 53.2717 20.1253H50.7447C49.174 20.1253 48.3887 19.2893 48.3887 17.6173V9.9603C48.3887 8.2883 49.174 7.4523 50.7447 7.4523H53.2717C54.8424 7.4523 55.6277 8.2883 55.6277 9.9603ZM52.9677 17.9213V9.6373C52.9677 9.53597 52.9297 9.4473 52.8537 9.3713C52.7904 9.2953 52.708 9.2573 52.6067 9.2573H51.4097C51.3084 9.2573 51.2197 9.2953 51.1437 9.3713C51.0804 9.4473 51.0487 9.53597 51.0487 9.6373V17.9213C51.0487 18.0226 51.0804 18.1113 51.1437 18.1873C51.2197 18.2633 51.3084 18.3013 51.4097 18.3013H52.6067C52.708 18.3013 52.7904 18.2633 52.8537 18.1873C52.9297 18.1113 52.9677 18.0226 52.9677 17.9213ZM64.6408 19.9353H61.9808V9.7323C61.9808 9.63097 61.9428 9.5423 61.8668 9.4663C61.8035 9.3903 61.7212 9.3523 61.6198 9.3523H60.5938C60.4925 9.3523 60.4038 9.3903 60.3278 9.4663C60.2645 9.5423 60.2328 9.63097 60.2328 9.7323V19.9353H57.5728V9.9603C57.5728 8.2883 58.3582 7.4523 59.9288 7.4523H62.2848C63.8555 7.4523 64.6408 8.2883 64.6408 9.9603V19.9353Z" fill="white"/>
<path d="M20.0063 15.1093V14.1093H19.0063V15.1093H20.0063ZM20.0063 19.9353V20.9353H21.0063V19.9353H20.0063ZM17.3463 19.9353H16.3463V20.9353H17.3463V19.9353ZM17.3463 7.6423V6.6423H16.3463V7.6423H17.3463ZM21.7353 9.5803L20.967 10.2205L20.9961 10.2553L21.0282 10.2874L21.7353 9.5803ZM20.0063 9.4663V8.4663H19.0063V9.4663H20.0063ZM20.0063 13.2853H19.0063V14.2853H20.0063V13.2853ZM21.7353 13.1713L21.0281 12.4642L20.9961 12.4963L20.967 12.5311L21.7353 13.1713ZM22.1533 7.6423V8.6423C22.7679 8.6423 23.0495 8.80289 23.1914 8.95398C23.3444 9.11682 23.5093 9.45342 23.5093 10.1503H24.5093H25.5093C25.5093 9.17518 25.2815 8.25778 24.6491 7.58463C24.0057 6.89972 23.1093 6.6423 22.1533 6.6423V7.6423ZM24.5093 10.1503H23.5093V12.6013H24.5093H25.5093V10.1503H24.5093ZM24.5093 12.6013H23.5093C23.5093 13.2982 23.3444 13.6348 23.1914 13.7976C23.0495 13.9487 22.7679 14.1093 22.1533 14.1093V15.1093V16.1093C23.1093 16.1093 24.0057 15.8519 24.6491 15.167C25.2815 14.4938 25.5093 13.5764 25.5093 12.6013H24.5093ZM22.1533 15.1093V14.1093H20.0063V15.1093V16.1093H22.1533V15.1093ZM20.0063 15.1093H19.0063V19.9353H20.0063H21.0063V15.1093H20.0063ZM20.0063 19.9353V18.9353H17.3463V19.9353V20.9353H20.0063V19.9353ZM17.3463 19.9353H18.3463V7.6423H17.3463H16.3463V19.9353H17.3463ZM17.3463 7.6423V8.6423H22.1533V7.6423V6.6423H17.3463V7.6423ZM21.8493 12.9053H22.8493V9.8463H21.8493H20.8493V12.9053H21.8493ZM21.8493 9.8463H22.8493C22.8493 9.46241 22.6933 9.12411 22.4424 8.87319L21.7353 9.5803L21.0282 10.2874C20.9864 10.2457 20.9381 10.183 20.9016 10.0977C20.8646 10.0113 20.8493 9.9241 20.8493 9.8463H21.8493ZM21.7353 9.5803L22.5035 8.94012C22.2449 8.62981 21.878 8.4663 21.4883 8.4663V9.4663V10.4663C21.4113 10.4663 21.3118 10.4512 21.2069 10.4028C21.1014 10.354 21.0217 10.286 20.967 10.2205L21.7353 9.5803ZM21.4883 9.4663V8.4663H20.0063V9.4663V10.4663H21.4883V9.4663ZM20.0063 9.4663H19.0063V13.2853H20.0063H21.0063V9.4663H20.0063ZM20.0063 13.2853V14.2853H21.4883V13.2853V12.2853H20.0063V13.2853ZM21.4883 13.2853V14.2853C21.878 14.2853 22.2449 14.1218 22.5035 13.8115L21.7353 13.1713L20.967 12.5311C21.0217 12.4656 21.1014 12.3976 21.2069 12.3488C21.3118 12.3004 21.4113 12.2853 21.4883 12.2853V13.2853ZM21.7353 13.1713L22.4424 13.8784C22.6933 13.6275 22.8493 13.2892 22.8493 12.9053H21.8493H20.8493C20.8493 12.8275 20.8646 12.7403 20.9016 12.6539C20.9381 12.5687 20.9864 12.5059 21.0281 12.4642L21.7353 13.1713ZM30.3097 9.3713L29.5415 10.0115L29.5706 10.0463L29.6026 10.0784L30.3097 9.3713ZM28.5997 9.3713L27.8926 8.66419L27.8606 8.69627L27.8315 8.73112L28.5997 9.3713ZM28.5997 18.1873L27.8315 18.8275L27.8606 18.8623L27.8926 18.8944L28.5997 18.1873ZM30.3097 18.1873L29.6026 17.4802L29.5706 17.5123L29.5415 17.5471L30.3097 18.1873ZM33.0837 9.9603H32.0837V17.6173H33.0837H34.0837V9.9603H33.0837ZM33.0837 17.6173H32.0837C32.0837 18.3142 31.9189 18.6508 31.7659 18.8136C31.624 18.9647 31.3424 19.1253 30.7277 19.1253V20.1253V21.1253C31.6838 21.1253 32.5802 20.8679 33.2236 20.183C33.856 19.5098 34.0837 18.5924 34.0837 17.6173H33.0837ZM30.7277 20.1253V19.1253H28.2007V20.1253V21.1253H30.7277V20.1253ZM28.2007 20.1253V19.1253C27.5861 19.1253 27.3045 18.9647 27.1626 18.8136C27.0096 18.6508 26.8447 18.3142 26.8447 17.6173H25.8447H24.8447C24.8447 18.5924 25.0725 19.5098 25.7049 20.183C26.3483 20.8679 27.2447 21.1253 28.2007 21.1253V20.1253ZM25.8447 17.6173H26.8447V9.9603H25.8447H24.8447V17.6173H25.8447ZM25.8447 9.9603H26.8447C26.8447 9.26342 27.0096 8.92682 27.1626 8.76398C27.3045 8.61288 27.5861 8.4523 28.2007 8.4523V7.4523V6.4523C27.2447 6.4523 26.3483 6.70972 25.7049 7.39463C25.0725 8.06778 24.8447 8.98518 24.8447 9.9603H25.8447ZM28.2007 7.4523V8.4523H30.7277V7.4523V6.4523H28.2007V7.4523ZM30.7277 7.4523V8.4523C31.3424 8.4523 31.624 8.61288 31.7659 8.76398C31.9189 8.92682 32.0837 9.26342 32.0837 9.9603H33.0837H34.0837C34.0837 8.98518 33.856 8.06778 33.2236 7.39463C32.5802 6.70972 31.6838 6.4523 30.7277 6.4523V7.4523ZM30.4237 17.9213H31.4237V9.6373H30.4237H29.4237V17.9213H30.4237ZM30.4237 9.6373H31.4237C31.4237 9.25342 31.2678 8.91511 31.0169 8.6642L30.3097 9.3713L29.6026 10.0784C29.5609 10.0367 29.5126 9.97395 29.4761 9.88872C29.4391 9.80234 29.4237 9.7151 29.4237 9.6373H30.4237ZM30.3097 9.3713L31.078 8.73111C30.8194 8.4208 30.4525 8.2573 30.0627 8.2573V9.2573V10.2573C29.9858 10.2573 29.8863 10.2422 29.7814 10.1938C29.6759 10.145 29.5962 10.077 29.5415 10.0115L30.3097 9.3713ZM30.0627 9.2573V8.2573H28.8657V9.2573V10.2573H30.0627V9.2573ZM28.8657 9.2573V8.2573C28.4819 8.2573 28.1436 8.41328 27.8926 8.66419L28.5997 9.3713L29.3069 10.0784C29.2652 10.1201 29.2024 10.1684 29.1172 10.2049C29.0308 10.242 28.9436 10.2573 28.8657 10.2573V9.2573ZM28.5997 9.3713L27.8315 8.73112C27.6145 8.99154 27.5047 9.30823 27.5047 9.6373H28.5047H29.5047C29.5047 9.69249 29.4958 9.75957 29.4702 9.83114C29.4446 9.90304 29.4077 9.96382 29.368 10.0115L28.5997 9.3713ZM28.5047 9.6373H27.5047V17.9213H28.5047H29.5047V9.6373H28.5047ZM28.5047 17.9213H27.5047C27.5047 18.2504 27.6145 18.5671 27.8315 18.8275L28.5997 18.1873L29.368 17.5471C29.4077 17.5948 29.4446 17.6556 29.4702 17.7275C29.4958 17.799 29.5047 17.8661 29.5047 17.9213H28.5047ZM28.5997 18.1873L27.8926 18.8944C28.1436 19.1453 28.4819 19.3013 28.8657 19.3013V18.3013V17.3013C28.9436 17.3013 29.0308 17.3166 29.1172 17.3537C29.2024 17.3902 29.2652 17.4385 29.3069 17.4802L28.5997 18.1873ZM28.8657 18.3013V19.3013H30.0627V18.3013V17.3013H28.8657V18.3013ZM30.0627 18.3013V19.3013C30.4525 19.3013 30.8194 19.1378 31.078 18.8275L30.3097 18.1873L29.5415 17.5471C29.5962 17.4816 29.6759 17.4136 29.7814 17.3648C29.8863 17.3164 29.9858 17.3013 30.0627 17.3013V18.3013ZM30.3097 18.1873L31.0169 18.8944C31.2678 18.6435 31.4237 18.3052 31.4237 17.9213H30.4237H29.4237C29.4237 17.8435 29.4391 17.7563 29.4761 17.6699C29.5126 17.5847 29.5609 17.5219 29.6026 17.4802L30.3097 18.1873ZM37.7079 7.6423H38.7079V6.6423H37.7079V7.6423ZM37.7079 19.9353V20.9353H38.7079V19.9353H37.7079ZM35.0479 19.9353H34.0479V20.9353H35.0479V19.9353ZM35.0479 7.6423V6.6423H34.0479V7.6423H35.0479ZM37.7079 7.6423H36.7079V19.9353H37.7079H38.7079V7.6423H37.7079ZM37.7079 19.9353V18.9353H35.0479V19.9353V20.9353H37.7079V19.9353ZM35.0479 19.9353H36.0479V7.6423H35.0479H34.0479V19.9353H35.0479ZM35.0479 7.6423V8.6423H37.7079V7.6423V6.6423H35.0479V7.6423ZM46.5075 10.8723V11.8723H47.5075V10.8723H46.5075ZM43.9805 10.8723H42.9805V11.8723H43.9805V10.8723ZM43.8665 9.6373L43.0983 10.2775L43.1274 10.3123L43.1594 10.3444L43.8665 9.6373ZM42.3085 9.6373L41.6014 8.93019L41.5694 8.96227L41.5403 8.99712L42.3085 9.6373ZM42.3085 12.3543L41.5403 12.9945L41.5694 13.0293L41.6014 13.0614L42.3085 12.3543ZM44.2845 12.4683L44.3007 11.4684L44.2926 11.4683H44.2845V12.4683ZM39.6865 16.3443V15.3443H38.6865V16.3443H39.6865ZM42.2135 16.3443H43.2135V15.3443H42.2135V16.3443ZM42.3085 17.9783L41.5403 18.6185L41.5694 18.6533L41.6014 18.6854L42.3085 17.9783ZM43.9995 17.9783L43.2924 17.2712L43.2604 17.3033L43.2313 17.3381L43.9995 17.9783ZM43.9995 15.0333L43.2313 15.6735L43.2604 15.7083L43.2924 15.7404L43.9995 15.0333ZM46.5075 10.8723V9.8723H43.9805V10.8723V11.8723H46.5075V10.8723ZM43.9805 10.8723H44.9805V9.9033H43.9805H42.9805V10.8723H43.9805ZM43.9805 9.9033H44.9805C44.9805 9.51942 44.8246 9.18111 44.5737 8.9302L43.8665 9.6373L43.1594 10.3444C43.1177 10.3027 43.0694 10.2399 43.0329 10.1547C42.9959 10.0683 42.9805 9.9811 42.9805 9.9033H43.9805ZM43.8665 9.6373L44.6348 8.99712C44.3762 8.6868 44.0093 8.5233 43.6195 8.5233V9.5233V10.5233C43.5426 10.5233 43.4431 10.5082 43.3382 10.4598C43.2327 10.411 43.1529 10.343 43.0983 10.2775L43.8665 9.6373ZM43.6195 9.5233V8.5233H42.5745V9.5233V10.5233H43.6195V9.5233ZM42.5745 9.5233V8.5233C42.1907 8.5233 41.8524 8.67928 41.6014 8.93019L42.3085 9.6373L43.0157 10.3444C42.9739 10.3861 42.9112 10.4344 42.826 10.4709C42.7396 10.508 42.6523 10.5233 42.5745 10.5233V9.5233ZM42.3085 9.6373L41.5403 8.99712C41.3233 9.25754 41.2135 9.57423 41.2135 9.9033H42.2135H43.2135C43.2135 9.95849 43.2046 10.0256 43.179 10.0971C43.1534 10.169 43.1165 10.2298 43.0768 10.2775L42.3085 9.6373ZM42.2135 9.9033H41.2135V12.0883H42.2135H43.2135V9.9033H42.2135ZM42.2135 12.0883H41.2135C41.2135 12.4174 41.3233 12.7341 41.5403 12.9945L42.3085 12.3543L43.0768 11.7141C43.1165 11.7618 43.1534 11.8226 43.179 11.8945C43.2046 11.966 43.2135 12.0331 43.2135 12.0883H42.2135ZM42.3085 12.3543L41.6014 13.0614C41.8523 13.3123 42.1907 13.4683 42.5745 13.4683V12.4683V11.4683C42.6523 11.4683 42.7396 11.4836 42.826 11.5207C42.9112 11.5572 42.9739 11.6055 43.0157 11.6472L42.3085 12.3543ZM42.5745 12.4683V13.4683H44.2845V12.4683V11.4683H42.5745V12.4683ZM44.2845 12.4683L44.2684 13.4682C44.8861 13.4781 45.1754 13.6422 45.3227 13.799C45.478 13.9643 45.6405 14.297 45.6405 14.9763H46.6405H47.6405C47.6405 14.0089 47.4104 13.1003 46.7804 12.4296C46.1424 11.7504 45.2537 11.4838 44.3007 11.4684L44.2845 12.4683ZM46.6405 14.9763H45.6405V17.6173H46.6405H47.6405V14.9763H46.6405ZM46.6405 17.6173H45.6405C45.6405 18.3142 45.4757 18.6508 45.3227 18.8136C45.1808 18.9647 44.8992 19.1253 44.2845 19.1253V20.1253V21.1253C45.2406 21.1253 46.137 20.8679 46.7804 20.183C47.4128 19.5098 47.6405 18.5924 47.6405 17.6173H46.6405ZM44.2845 20.1253V19.1253H42.0425V20.1253V21.1253H44.2845V20.1253ZM42.0425 20.1253V19.1253C41.4279 19.1253 41.1463 18.9647 41.0044 18.8136C40.8514 18.6508 40.6865 18.3142 40.6865 17.6173H39.6865H38.6865C38.6865 18.5924 38.9143 19.5098 39.5467 20.183C40.1901 20.8679 41.0865 21.1253 42.0425 21.1253V20.1253ZM39.6865 17.6173H40.6865V16.3443H39.6865H38.6865V17.6173H39.6865ZM39.6865 16.3443V17.3443H42.2135V16.3443V15.3443H39.6865V16.3443ZM42.2135 16.3443H41.2135V17.7123H42.2135H43.2135V16.3443H42.2135ZM42.2135 17.7123H41.2135C41.2135 18.0414 41.3233 18.3581 41.5403 18.6185L42.3085 17.9783L43.0768 17.3381C43.1165 17.3858 43.1534 17.4466 43.179 17.5185C43.2046 17.59 43.2135 17.6571 43.2135 17.7123H42.2135ZM42.3085 17.9783L41.6014 18.6854C41.8523 18.9363 42.1907 19.0923 42.5745 19.0923V18.0923V17.0923C42.6523 17.0923 42.7396 17.1076 42.826 17.1447C42.9112 17.1812 42.9739 17.2295 43.0157 17.2712L42.3085 17.9783ZM42.5745 18.0923V19.0923H43.7525V18.0923V17.0923H42.5745V18.0923ZM43.7525 18.0923V19.0923C44.1423 19.0923 44.5092 18.9288 44.7678 18.6185L43.9995 17.9783L43.2313 17.3381C43.2859 17.2726 43.3657 17.2046 43.4712 17.1558C43.5761 17.1074 43.6756 17.0923 43.7525 17.0923V18.0923ZM43.9995 17.9783L44.7066 18.6854C44.9576 18.4345 45.1135 18.0962 45.1135 17.7123H44.1135H43.1135C43.1135 17.6345 43.1289 17.5473 43.1659 17.4609C43.2024 17.3757 43.2507 17.3129 43.2924 17.2712L43.9995 17.9783ZM44.1135 17.7123H45.1135V15.2993H44.1135H43.1135V17.7123H44.1135ZM44.1135 15.2993H45.1135C45.1135 14.9154 44.9576 14.5771 44.7067 14.3262L43.9995 15.0333L43.2924 15.7404C43.2507 15.6987 43.2024 15.636 43.1659 15.5507C43.1289 15.4643 43.1135 15.3771 43.1135 15.2993H44.1135ZM43.9995 15.0333L44.7678 14.3931C44.5092 14.0828 44.1423 13.9193 43.7525 13.9193V14.9193V15.9193C43.6756 15.9193 43.5761 15.9042 43.4712 15.8558C43.3657 15.807 43.2859 15.739 43.2313 15.6735L43.9995 15.0333ZM43.7525 14.9193V13.9193H42.0425V14.9193V15.9193H43.7525V14.9193ZM42.0425 14.9193V13.9193C41.4279 13.9193 41.1463 13.7587 41.0044 13.6076C40.8514 13.4448 40.6865 13.1082 40.6865 12.4113H39.6865H38.6865C38.6865 13.3864 38.9143 14.3038 39.5467 14.977C40.1901 15.6619 41.0865 15.9193 42.0425 15.9193V14.9193ZM39.6865 12.4113H40.6865V9.9603H39.6865H38.6865V12.4113H39.6865ZM39.6865 9.9603H40.6865C40.6865 9.26342 40.8514 8.92682 41.0044 8.76398C41.1463 8.61288 41.4279 8.4523 42.0425 8.4523V7.4523V6.4523C41.0865 6.4523 40.1901 6.70972 39.5467 7.39463C38.9143 8.06778 38.6865 8.98518 38.6865 9.9603H39.6865ZM42.0425 7.4523V8.4523H44.1515V7.4523V6.4523H42.0425V7.4523ZM44.1515 7.4523V8.4523C44.7662 8.4523 45.0478 8.61288 45.1897 8.76398C45.3427 8.92682 45.5075 9.26342 45.5075 9.9603H46.5075H47.5075C47.5075 8.98518 47.2798 8.06778 46.6474 7.39463C46.004 6.70972 45.1076 6.4523 44.1515 6.4523V7.4523ZM46.5075 9.9603H45.5075V10.8723H46.5075H47.5075V9.9603H46.5075ZM52.8537 9.3713L52.0855 10.0115L52.1145 10.0463L52.1466 10.0784L52.8537 9.3713ZM51.1437 9.3713L50.4366 8.66419L50.4045 8.69627L50.3755 8.73112L51.1437 9.3713ZM51.1437 18.1873L50.3755 18.8275L50.4045 18.8623L50.4366 18.8944L51.1437 18.1873ZM52.8537 18.1873L52.1466 17.4802L52.1145 17.5123L52.0855 17.5471L52.8537 18.1873ZM55.6277 9.9603H54.6277V17.6173H55.6277H56.6277V9.9603H55.6277ZM55.6277 17.6173H54.6277C54.6277 18.3142 54.4628 18.6508 54.3098 18.8136C54.1679 18.9647 53.8863 19.1253 53.2717 19.1253V20.1253V21.1253C54.2277 21.1253 55.1241 20.8679 55.7675 20.183C56.3999 19.5098 56.6277 18.5924 56.6277 17.6173H55.6277ZM53.2717 20.1253V19.1253H50.7447V20.1253V21.1253H53.2717V20.1253ZM50.7447 20.1253V19.1253C50.1301 19.1253 49.8485 18.9647 49.7065 18.8136C49.5536 18.6508 49.3887 18.3142 49.3887 17.6173H48.3887H47.3887C47.3887 18.5924 47.6165 19.5098 48.2488 20.183C48.8922 20.8679 49.7887 21.1253 50.7447 21.1253V20.1253ZM48.3887 17.6173H49.3887V9.9603H48.3887H47.3887V17.6173H48.3887ZM48.3887 9.9603H49.3887C49.3887 9.26342 49.5536 8.92682 49.7065 8.76398C49.8485 8.61288 50.1301 8.4523 50.7447 8.4523V7.4523V6.4523C49.7887 6.4523 48.8922 6.70972 48.2488 7.39463C47.6165 8.06778 47.3887 8.98518 47.3887 9.9603H48.3887ZM50.7447 7.4523V8.4523H53.2717V7.4523V6.4523H50.7447V7.4523ZM53.2717 7.4523V8.4523C53.8863 8.4523 54.1679 8.61288 54.3098 8.76398C54.4628 8.92682 54.6277 9.26342 54.6277 9.9603H55.6277H56.6277C56.6277 8.98518 56.3999 8.06778 55.7675 7.39463C55.1241 6.70972 54.2277 6.4523 53.2717 6.4523V7.4523ZM52.9677 17.9213H53.9677V9.6373H52.9677H51.9677V17.9213H52.9677ZM52.9677 9.6373H53.9677C53.9677 9.25342 53.8117 8.91511 53.5608 8.6642L52.8537 9.3713L52.1466 10.0784C52.1049 10.0367 52.0566 9.97395 52.0201 9.88872C51.983 9.80234 51.9677 9.7151 51.9677 9.6373H52.9677ZM52.8537 9.3713L53.6219 8.73111C53.3633 8.4208 52.9965 8.2573 52.6067 8.2573V9.2573V10.2573C52.5298 10.2573 52.4303 10.2422 52.3254 10.1938C52.2198 10.145 52.1401 10.077 52.0855 10.0115L52.8537 9.3713ZM52.6067 9.2573V8.2573H51.4097V9.2573V10.2573H52.6067V9.2573ZM51.4097 9.2573V8.2573C51.0258 8.2573 50.6875 8.41328 50.4366 8.66419L51.1437 9.3713L51.8508 10.0784C51.8091 10.1201 51.7463 10.1684 51.6611 10.2049C51.5747 10.242 51.4875 10.2573 51.4097 10.2573V9.2573ZM51.1437 9.3713L50.3755 8.73112C50.1585 8.99154 50.0487 9.30823 50.0487 9.6373H51.0487H52.0487C52.0487 9.69249 52.0397 9.75957 52.0142 9.83114C51.9885 9.90304 51.9516 9.96382 51.9119 10.0115L51.1437 9.3713ZM51.0487 9.6373H50.0487V17.9213H51.0487H52.0487V9.6373H51.0487ZM51.0487 17.9213H50.0487C50.0487 18.2504 50.1585 18.5671 50.3755 18.8275L51.1437 18.1873L51.9119 17.5471C51.9516 17.5948 51.9885 17.6556 52.0142 17.7275C52.0397 17.799 52.0487 17.8661 52.0487 17.9213H51.0487ZM51.1437 18.1873L50.4366 18.8944C50.6875 19.1453 51.0258 19.3013 51.4097 19.3013V18.3013V17.3013C51.4875 17.3013 51.5747 17.3166 51.6611 17.3537C51.7463 17.3902 51.8091 17.4385 51.8508 17.4802L51.1437 18.1873ZM51.4097 18.3013V19.3013H52.6067V18.3013V17.3013H51.4097V18.3013ZM52.6067 18.3013V19.3013C52.9965 19.3013 53.3633 19.1378 53.6219 18.8275L52.8537 18.1873L52.0855 17.5471C52.1401 17.4816 52.2198 17.4136 52.3254 17.3648C52.4303 17.3164 52.5298 17.3013 52.6067 17.3013V18.3013ZM52.8537 18.1873L53.5608 18.8944C53.8117 18.6435 53.9677 18.3052 53.9677 17.9213H52.9677H51.9677C51.9677 17.8435 51.983 17.7563 52.0201 17.6699C52.0566 17.5847 52.1049 17.5219 52.1466 17.4802L52.8537 18.1873ZM64.6408 19.9353V20.9353H65.6408V19.9353H64.6408ZM61.9808 19.9353H60.9808V20.9353H61.9808V19.9353ZM61.8668 9.4663L61.0986 10.1065L61.1276 10.1413L61.1597 10.1734L61.8668 9.4663ZM60.3278 9.4663L59.6207 8.7592L59.5886 8.79127L59.5596 8.82612L60.3278 9.4663ZM60.2328 19.9353V20.9353H61.2328V19.9353H60.2328ZM57.5728 19.9353H56.5728V20.9353H57.5728V19.9353ZM64.6408 19.9353V18.9353H61.9808V19.9353V20.9353H64.6408V19.9353ZM61.9808 19.9353H62.9808V9.7323H61.9808H60.9808V19.9353H61.9808ZM61.9808 9.7323H62.9808C62.9808 9.34842 62.8248 9.01011 62.5739 8.75919L61.8668 9.4663L61.1597 10.1734C61.118 10.1317 61.0697 10.069 61.0332 9.98372C60.9962 9.89734 60.9808 9.8101 60.9808 9.7323H61.9808ZM61.8668 9.4663L62.635 8.82612C62.3764 8.51581 62.0096 8.3523 61.6198 8.3523V9.3523V10.3523C61.5429 10.3523 61.4434 10.3372 61.3385 10.2888C61.2329 10.24 61.1532 10.172 61.0986 10.1065L61.8668 9.4663ZM61.6198 9.3523V8.3523H60.5938V9.3523V10.3523H61.6198V9.3523ZM60.5938 9.3523V8.3523C60.2099 8.3523 59.8716 8.50829 59.6207 8.7592L60.3278 9.4663L61.0349 10.1734C60.9932 10.2151 60.9305 10.2634 60.8452 10.2999C60.7589 10.337 60.6716 10.3523 60.5938 10.3523V9.3523ZM60.3278 9.4663L59.5596 8.82612C59.3426 9.08654 59.2328 9.40323 59.2328 9.7323H60.2328H61.2328C61.2328 9.78749 61.2239 9.85457 61.1983 9.92614C61.1726 9.99804 61.1358 10.0588 61.096 10.1065L60.3278 9.4663ZM60.2328 9.7323H59.2328V19.9353H60.2328H61.2328V9.7323H60.2328ZM60.2328 19.9353V18.9353H57.5728V19.9353V20.9353H60.2328V19.9353ZM57.5728 19.9353H58.5728V9.9603H57.5728H56.5728V19.9353H57.5728ZM57.5728 9.9603H58.5728C58.5728 9.26342 58.7377 8.92682 58.8907 8.76398C59.0326 8.61288 59.3142 8.4523 59.9288 8.4523V7.4523V6.4523C58.9728 6.4523 58.0764 6.70972 57.433 7.39463C56.8006 8.06778 56.5728 8.98518 56.5728 9.9603H57.5728ZM59.9288 7.4523V8.4523H62.2848V7.4523V6.4523H59.9288V7.4523ZM62.2848 7.4523V8.4523C62.8995 8.4523 63.181 8.61288 63.323 8.76398C63.4759 8.92682 63.6408 9.26342 63.6408 9.9603H64.6408H65.6408C65.6408 8.98518 65.413 8.06778 64.7807 7.39463C64.1373 6.70972 63.2408 6.4523 62.2848 6.4523V7.4523ZM64.6408 9.9603H63.6408V19.9353H64.6408H65.6408V9.9603H64.6408Z" fill="black" mask="url(#path-3-outside-1_216_339)"/>
<defs>
<filter id="filter0_i_216_339" x="-2" y="-3" width="82.8926" height="29.9641" filterUnits="userSpaceOnUse" color-interpolation-filters="sRGB">
<feFlood flood-opacity="0" result="BackgroundImageFix"/>
<feBlend mode="normal" in="SourceGraphic" in2="BackgroundImageFix" result="shape"/>
<feColorMatrix in="SourceAlpha" type="matrix" values="0 0 0 0 0 0 0 0 0 0 0 0 0 0 0 0 0 0 127 0" result="hardAlpha"/>
<feOffset dx="-2" dy="-3"/>
<feGaussianBlur stdDeviation="2"/>
<feComposite in2="hardAlpha" operator="arithmetic" k2="-1" k3="1"/>
<feColorMatrix type="matrix" values="0 0 0 0 0.00961538 0 0 0 0 0.00961538 0 0 0 0 0.00961538 0 0 0 0.25 0"/>
<feBlend mode="normal" in2="shape" result="effect1_innerShadow_216_339"/>
</filter>
</defs>
</svg>
