<svg width="81" height="28" viewBox="0 0 81 28" fill="none" xmlns="http://www.w3.org/2000/svg">
<g filter="url(#filter0_i_216_169)">
<rect width="80.8925" height="26.9642" rx="12" fill="#C640FB"/>
</g>
<rect x="0.5" y="0.5" width="79.8925" height="25.9642" rx="11.5" stroke="black"/>
<mask id="path-3-outside-1_216_169" maskUnits="userSpaceOnUse" x="11.5427" y="5.96765" width="58" height="16" fill="black">
<rect fill="white" x="11.5427" y="5.96765" width="58" height="16"/>
<path d="M17.975 7.67465C19.5457 7.67465 20.331 8.51065 20.331 10.1827V12.6337C20.331 14.3057 19.5457 15.1417 17.975 15.1417H15.828V19.9677H13.168V7.67465H17.975ZM17.671 12.9377V9.87865C17.671 9.77732 17.633 9.68865 17.557 9.61265C17.4937 9.53665 17.4114 9.49865 17.31 9.49865H15.828V13.3177H17.31C17.4114 13.3177 17.4937 13.2797 17.557 13.2037C17.633 13.1277 17.671 13.039 17.671 12.9377ZM28.4875 10.9047H25.9605V9.93565C25.9605 9.83432 25.9225 9.74565 25.8465 9.66965C25.7832 9.59365 25.7009 9.55565 25.5995 9.55565H24.5545C24.4532 9.55565 24.3645 9.59365 24.2885 9.66965C24.2252 9.74565 24.1935 9.83432 24.1935 9.93565V12.1207C24.1935 12.222 24.2252 12.3107 24.2885 12.3867C24.3645 12.4627 24.4532 12.5007 24.5545 12.5007H26.2645C27.8352 12.526 28.6205 13.362 28.6205 15.0087V17.6497C28.6205 19.3217 27.8352 20.1577 26.2645 20.1577H24.0225C22.4519 20.1577 21.6665 19.3217 21.6665 17.6497V16.3767H24.1935V17.7447C24.1935 17.846 24.2252 17.9347 24.2885 18.0107C24.3645 18.0867 24.4532 18.1247 24.5545 18.1247H25.7325C25.8339 18.1247 25.9162 18.0867 25.9795 18.0107C26.0555 17.9347 26.0935 17.846 26.0935 17.7447V15.3317C26.0935 15.2303 26.0555 15.1417 25.9795 15.0657C25.9162 14.9897 25.8339 14.9517 25.7325 14.9517H24.0225C22.4519 14.9517 21.6665 14.1157 21.6665 12.4437V9.99265C21.6665 8.32065 22.4519 7.48465 24.0225 7.48465H26.1315C27.7022 7.48465 28.4875 8.32065 28.4875 9.99265V10.9047ZM37.4937 7.67465L34.8527 15.4837V19.9677H32.1927V15.4837L29.5517 7.67465H32.0597L33.5227 12.8047L34.9857 7.67465H37.4937ZM43.2045 17.9537V16.0537H45.7315V17.6497C45.7315 19.3217 44.9462 20.1577 43.3755 20.1577H40.9815C39.4108 20.1577 38.6255 19.3217 38.6255 17.6497V9.99265C38.6255 8.32065 39.4108 7.48465 40.9815 7.48465H43.3755C44.9462 7.48465 45.7315 8.32065 45.7315 9.99265V11.1517H43.2045V9.66965C43.2045 9.56832 43.1665 9.47965 43.0905 9.40365C43.0272 9.32765 42.9448 9.28965 42.8435 9.28965H41.6465C41.5452 9.28965 41.4565 9.32765 41.3805 9.40365C41.3172 9.47965 41.2855 9.56832 41.2855 9.66965V17.9537C41.2855 18.055 41.3172 18.1437 41.3805 18.2197C41.4565 18.2957 41.5452 18.3337 41.6465 18.3337H42.8435C42.9448 18.3337 43.0272 18.2957 43.0905 18.2197C43.1665 18.1437 43.2045 18.055 43.2045 17.9537ZM49.9877 15.1417V19.9677H47.3277V7.67465H49.9877V12.8237H52.0967V7.67465H54.7567V19.9677H52.0967V15.1417H49.9877ZM59.3207 7.67465V19.9677H56.6607V7.67465H59.3207ZM65.8783 17.9537V16.0537H68.4053V17.6497C68.4053 19.3217 67.62 20.1577 66.0493 20.1577H63.6553C62.0847 20.1577 61.2993 19.3217 61.2993 17.6497V9.99265C61.2993 8.32065 62.0847 7.48465 63.6553 7.48465H66.0493C67.62 7.48465 68.4053 8.32065 68.4053 9.99265V11.1517H65.8783V9.66965C65.8783 9.56832 65.8403 9.47965 65.7643 9.40365C65.701 9.32765 65.6187 9.28965 65.5173 9.28965H64.3203C64.219 9.28965 64.1303 9.32765 64.0543 9.40365C63.991 9.47965 63.9593 9.56832 63.9593 9.66965V17.9537C63.9593 18.055 63.991 18.1437 64.0543 18.2197C64.1303 18.2957 64.219 18.3337 64.3203 18.3337H65.5173C65.6187 18.3337 65.701 18.2957 65.7643 18.2197C65.8403 18.1437 65.8783 18.055 65.8783 17.9537Z"/>
</mask>
<path d="M17.975 7.67465C19.5457 7.67465 20.331 8.51065 20.331 10.1827V12.6337C20.331 14.3057 19.5457 15.1417 17.975 15.1417H15.828V19.9677H13.168V7.67465H17.975ZM17.671 12.9377V9.87865C17.671 9.77732 17.633 9.68865 17.557 9.61265C17.4937 9.53665 17.4114 9.49865 17.31 9.49865H15.828V13.3177H17.31C17.4114 13.3177 17.4937 13.2797 17.557 13.2037C17.633 13.1277 17.671 13.039 17.671 12.9377ZM28.4875 10.9047H25.9605V9.93565C25.9605 9.83432 25.9225 9.74565 25.8465 9.66965C25.7832 9.59365 25.7009 9.55565 25.5995 9.55565H24.5545C24.4532 9.55565 24.3645 9.59365 24.2885 9.66965C24.2252 9.74565 24.1935 9.83432 24.1935 9.93565V12.1207C24.1935 12.222 24.2252 12.3107 24.2885 12.3867C24.3645 12.4627 24.4532 12.5007 24.5545 12.5007H26.2645C27.8352 12.526 28.6205 13.362 28.6205 15.0087V17.6497C28.6205 19.3217 27.8352 20.1577 26.2645 20.1577H24.0225C22.4519 20.1577 21.6665 19.3217 21.6665 17.6497V16.3767H24.1935V17.7447C24.1935 17.846 24.2252 17.9347 24.2885 18.0107C24.3645 18.0867 24.4532 18.1247 24.5545 18.1247H25.7325C25.8339 18.1247 25.9162 18.0867 25.9795 18.0107C26.0555 17.9347 26.0935 17.846 26.0935 17.7447V15.3317C26.0935 15.2303 26.0555 15.1417 25.9795 15.0657C25.9162 14.9897 25.8339 14.9517 25.7325 14.9517H24.0225C22.4519 14.9517 21.6665 14.1157 21.6665 12.4437V9.99265C21.6665 8.32065 22.4519 7.48465 24.0225 7.48465H26.1315C27.7022 7.48465 28.4875 8.32065 28.4875 9.99265V10.9047ZM37.4937 7.67465L34.8527 15.4837V19.9677H32.1927V15.4837L29.5517 7.67465H32.0597L33.5227 12.8047L34.9857 7.67465H37.4937ZM43.2045 17.9537V16.0537H45.7315V17.6497C45.7315 19.3217 44.9462 20.1577 43.3755 20.1577H40.9815C39.4108 20.1577 38.6255 19.3217 38.6255 17.6497V9.99265C38.6255 8.32065 39.4108 7.48465 40.9815 7.48465H43.3755C44.9462 7.48465 45.7315 8.32065 45.7315 9.99265V11.1517H43.2045V9.66965C43.2045 9.56832 43.1665 9.47965 43.0905 9.40365C43.0272 9.32765 42.9448 9.28965 42.8435 9.28965H41.6465C41.5452 9.28965 41.4565 9.32765 41.3805 9.40365C41.3172 9.47965 41.2855 9.56832 41.2855 9.66965V17.9537C41.2855 18.055 41.3172 18.1437 41.3805 18.2197C41.4565 18.2957 41.5452 18.3337 41.6465 18.3337H42.8435C42.9448 18.3337 43.0272 18.2957 43.0905 18.2197C43.1665 18.1437 43.2045 18.055 43.2045 17.9537ZM49.9877 15.1417V19.9677H47.3277V7.67465H49.9877V12.8237H52.0967V7.67465H54.7567V19.9677H52.0967V15.1417H49.9877ZM59.3207 7.67465V19.9677H56.6607V7.67465H59.3207ZM65.8783 17.9537V16.0537H68.4053V17.6497C68.4053 19.3217 67.62 20.1577 66.0493 20.1577H63.6553C62.0847 20.1577 61.2993 19.3217 61.2993 17.6497V9.99265C61.2993 8.32065 62.0847 7.48465 63.6553 7.48465H66.0493C67.62 7.48465 68.4053 8.32065 68.4053 9.99265V11.1517H65.8783V9.66965C65.8783 9.56832 65.8403 9.47965 65.7643 9.40365C65.701 9.32765 65.6187 9.28965 65.5173 9.28965H64.3203C64.219 9.28965 64.1303 9.32765 64.0543 9.40365C63.991 9.47965 63.9593 9.56832 63.9593 9.66965V17.9537C63.9593 18.055 63.991 18.1437 64.0543 18.2197C64.1303 18.2957 64.219 18.3337 64.3203 18.3337H65.5173C65.6187 18.3337 65.701 18.2957 65.7643 18.2197C65.8403 18.1437 65.8783 18.055 65.8783 17.9537Z" fill="white"/>
<path d="M15.828 15.1417V14.1417H14.828V15.1417H15.828ZM15.828 19.9677V20.9677H16.828V19.9677H15.828ZM13.168 19.9677H12.168V20.9677H13.168V19.9677ZM13.168 7.67465V6.67465H12.168V7.67465H13.168ZM17.557 9.61265L16.7888 10.2528L16.8179 10.2877L16.8499 10.3198L17.557 9.61265ZM15.828 9.49865V8.49865H14.828V9.49865H15.828ZM15.828 13.3177H14.828V14.3177H15.828V13.3177ZM17.557 13.2037L16.8499 12.4965L16.8179 12.5286L16.7888 12.5635L17.557 13.2037ZM17.975 7.67465V8.67465C18.5897 8.67465 18.8713 8.83523 19.0132 8.98633C19.1662 9.14917 19.331 9.48577 19.331 10.1827H20.331H21.331C21.331 9.20753 21.1032 8.29013 20.4709 7.61698C19.8275 6.93207 18.9311 6.67465 17.975 6.67465V7.67465ZM20.331 10.1827H19.331V12.6337H20.331H21.331V10.1827H20.331ZM20.331 12.6337H19.331C19.331 13.3305 19.1662 13.6671 19.0132 13.83C18.8713 13.9811 18.5897 14.1417 17.975 14.1417V15.1417V16.1417C18.9311 16.1417 19.8275 15.8842 20.4709 15.1993C21.1032 14.5262 21.331 13.6088 21.331 12.6337H20.331ZM17.975 15.1417V14.1417H15.828V15.1417V16.1417H17.975V15.1417ZM15.828 15.1417H14.828V19.9677H15.828H16.828V15.1417H15.828ZM15.828 19.9677V18.9677H13.168V19.9677V20.9677H15.828V19.9677ZM13.168 19.9677H14.168V7.67465H13.168H12.168V19.9677H13.168ZM13.168 7.67465V8.67465H17.975V7.67465V6.67465H13.168V7.67465ZM17.671 12.9377H18.671V9.87865H17.671H16.671V12.9377H17.671ZM17.671 9.87865H18.671C18.671 9.49476 18.5151 9.15645 18.2641 8.90554L17.557 9.61265L16.8499 10.3198C16.8082 10.2781 16.7599 10.2153 16.7234 10.1301C16.6864 10.0437 16.671 9.95645 16.671 9.87865H17.671ZM17.557 9.61265L18.3253 8.97247C18.0667 8.66215 17.6998 8.49865 17.31 8.49865V9.49865V10.4987C17.2331 10.4987 17.1336 10.4835 17.0287 10.4351C16.9232 10.3864 16.8434 10.3184 16.7888 10.2528L17.557 9.61265ZM17.31 9.49865V8.49865H15.828V9.49865V10.4987H17.31V9.49865ZM15.828 9.49865H14.828V13.3177H15.828H16.828V9.49865H15.828ZM15.828 13.3177V14.3177H17.31V13.3177V12.3177H15.828V13.3177ZM17.31 13.3177V14.3177C17.6998 14.3177 18.0667 14.1541 18.3253 13.8438L17.557 13.2037L16.7888 12.5635C16.8434 12.4979 16.9232 12.4299 17.0287 12.3812C17.1336 12.3328 17.2331 12.3177 17.31 12.3177V13.3177ZM17.557 13.2037L18.2641 13.9108C18.5151 13.6598 18.671 13.3215 18.671 12.9377H17.671H16.671C16.671 12.8598 16.6864 12.7726 16.7234 12.6862C16.7599 12.601 16.8082 12.5382 16.8499 12.4965L17.557 13.2037ZM28.4875 10.9047V11.9047H29.4875V10.9047H28.4875ZM25.9605 10.9047H24.9605V11.9047H25.9605V10.9047ZM25.8465 9.66965L25.0783 10.3098L25.1073 10.3447L25.1394 10.3768L25.8465 9.66965ZM24.2885 9.66965L23.5814 8.96254L23.5493 8.99462L23.5203 9.02947L24.2885 9.66965ZM24.2885 12.3867L23.5203 13.0268L23.5493 13.0617L23.5814 13.0938L24.2885 12.3867ZM26.2645 12.5007L26.2807 11.5008L26.2726 11.5007H26.2645V12.5007ZM21.6665 16.3767V15.3767H20.6665V16.3767H21.6665ZM24.1935 16.3767H25.1935V15.3767H24.1935V16.3767ZM24.2885 18.0107L23.5203 18.6508L23.5493 18.6857L23.5814 18.7178L24.2885 18.0107ZM25.9795 18.0107L25.2724 17.3035L25.2403 17.3356L25.2113 17.3705L25.9795 18.0107ZM25.9795 15.0657L25.2113 15.7058L25.2403 15.7407L25.2724 15.7728L25.9795 15.0657ZM28.4875 10.9047V9.90465H25.9605V10.9047V11.9047H28.4875V10.9047ZM25.9605 10.9047H26.9605V9.93565H25.9605H24.9605V10.9047H25.9605ZM25.9605 9.93565H26.9605C26.9605 9.55176 26.8045 9.21346 26.5536 8.96255L25.8465 9.66965L25.1394 10.3768C25.0977 10.3351 25.0494 10.2723 25.0129 10.1871C24.9759 10.1007 24.9605 10.0135 24.9605 9.93565H25.9605ZM25.8465 9.66965L26.6147 9.02946C26.3562 8.71915 25.9893 8.55565 25.5995 8.55565V9.55565V10.5557C25.5226 10.5557 25.4231 10.5405 25.3182 10.4921C25.2126 10.4434 25.1329 10.3754 25.0783 10.3098L25.8465 9.66965ZM25.5995 9.55565V8.55565H24.5545V9.55565V10.5557H25.5995V9.55565ZM24.5545 9.55565V8.55565C24.1706 8.55565 23.8323 8.71163 23.5814 8.96254L24.2885 9.66965L24.9956 10.3768C24.9539 10.4185 24.8912 10.4668 24.8059 10.5033C24.7196 10.5403 24.6323 10.5557 24.5545 10.5557V9.55565ZM24.2885 9.66965L23.5203 9.02947C23.3033 9.28989 23.1935 9.60658 23.1935 9.93565H24.1935H25.1935C25.1935 9.99084 25.1846 10.0579 25.159 10.1295C25.1333 10.2014 25.0965 10.2622 25.0567 10.3098L24.2885 9.66965ZM24.1935 9.93565H23.1935V12.1207H24.1935H25.1935V9.93565H24.1935ZM24.1935 12.1207H23.1935C23.1935 12.4497 23.3033 12.7664 23.5203 13.0268L24.2885 12.3867L25.0567 11.7465C25.0965 11.7941 25.1333 11.8549 25.159 11.9268C25.1846 11.9984 25.1935 12.0655 25.1935 12.1207H24.1935ZM24.2885 12.3867L23.5814 13.0938C23.8323 13.3447 24.1706 13.5007 24.5545 13.5007V12.5007V11.5007C24.6323 11.5007 24.7196 11.516 24.8059 11.553C24.8912 11.5895 24.9539 11.6378 24.9956 11.6795L24.2885 12.3867ZM24.5545 12.5007V13.5007H26.2645V12.5007V11.5007H24.5545V12.5007ZM26.2645 12.5007L26.2484 13.5005C26.866 13.5105 27.1554 13.6745 27.3027 13.8313C27.458 13.9966 27.6205 14.3294 27.6205 15.0087H28.6205H29.6205C29.6205 14.0413 29.3904 13.1327 28.7604 12.462C28.1224 11.7828 27.2337 11.5162 26.2807 11.5008L26.2645 12.5007ZM28.6205 15.0087H27.6205V17.6497H28.6205H29.6205V15.0087H28.6205ZM28.6205 17.6497H27.6205C27.6205 18.3465 27.4557 18.6831 27.3027 18.846C27.1607 18.9971 26.8792 19.1577 26.2645 19.1577V20.1577V21.1577C27.2206 21.1577 28.117 20.9002 28.7604 20.2153C29.3927 19.5422 29.6205 18.6248 29.6205 17.6497H28.6205ZM26.2645 20.1577V19.1577H24.0225V20.1577V21.1577H26.2645V20.1577ZM24.0225 20.1577V19.1577C23.4079 19.1577 23.1263 18.9971 22.9844 18.846C22.8314 18.6831 22.6665 18.3465 22.6665 17.6497H21.6665H20.6665C20.6665 18.6248 20.8943 19.5422 21.5267 20.2153C22.1701 20.9002 23.0665 21.1577 24.0225 21.1577V20.1577ZM21.6665 17.6497H22.6665V16.3767H21.6665H20.6665V17.6497H21.6665ZM21.6665 16.3767V17.3767H24.1935V16.3767V15.3767H21.6665V16.3767ZM24.1935 16.3767H23.1935V17.7447H24.1935H25.1935V16.3767H24.1935ZM24.1935 17.7447H23.1935C23.1935 18.0737 23.3033 18.3904 23.5203 18.6508L24.2885 18.0107L25.0567 17.3705C25.0965 17.4181 25.1333 17.4789 25.159 17.5508C25.1846 17.6224 25.1935 17.6895 25.1935 17.7447H24.1935ZM24.2885 18.0107L23.5814 18.7178C23.8323 18.9687 24.1706 19.1247 24.5545 19.1247V18.1247V17.1247C24.6323 17.1247 24.7196 17.14 24.8059 17.177C24.8912 17.2135 24.9539 17.2618 24.9956 17.3035L24.2885 18.0107ZM24.5545 18.1247V19.1247H25.7325V18.1247V17.1247H24.5545V18.1247ZM25.7325 18.1247V19.1247C26.1223 19.1247 26.4892 18.9611 26.7477 18.6508L25.9795 18.0107L25.2113 17.3705C25.2659 17.3049 25.3456 17.2369 25.4512 17.1882C25.5561 17.1398 25.6556 17.1247 25.7325 17.1247V18.1247ZM25.9795 18.0107L26.6866 18.7178C26.9375 18.4668 27.0935 18.1285 27.0935 17.7447H26.0935H25.0935C25.0935 17.6668 25.1089 17.5796 25.1459 17.4932C25.1824 17.408 25.2307 17.3452 25.2724 17.3035L25.9795 18.0107ZM26.0935 17.7447H27.0935V15.3317H26.0935H25.0935V17.7447H26.0935ZM26.0935 15.3317H27.0935C27.0935 14.9478 26.9375 14.6095 26.6866 14.3585L25.9795 15.0657L25.2724 15.7728C25.2307 15.7311 25.1824 15.6683 25.1459 15.5831C25.1089 15.4967 25.0935 15.4095 25.0935 15.3317H26.0935ZM25.9795 15.0657L26.7477 14.4255C26.4892 14.1152 26.1223 13.9517 25.7325 13.9517V14.9517V15.9517C25.6556 15.9517 25.5561 15.9365 25.4512 15.8881C25.3456 15.8394 25.2659 15.7714 25.2113 15.7058L25.9795 15.0657ZM25.7325 14.9517V13.9517H24.0225V14.9517V15.9517H25.7325V14.9517ZM24.0225 14.9517V13.9517C23.4079 13.9517 23.1263 13.7911 22.9844 13.64C22.8314 13.4771 22.6665 13.1405 22.6665 12.4437H21.6665H20.6665C20.6665 13.4188 20.8943 14.3362 21.5267 15.0093C22.1701 15.6942 23.0665 15.9517 24.0225 15.9517V14.9517ZM21.6665 12.4437H22.6665V9.99265H21.6665H20.6665V12.4437H21.6665ZM21.6665 9.99265H22.6665C22.6665 9.29577 22.8314 8.95917 22.9844 8.79633C23.1263 8.64523 23.4079 8.48465 24.0225 8.48465V7.48465V6.48465C23.0665 6.48465 22.1701 6.74207 21.5267 7.42698C20.8943 8.10013 20.6665 9.01753 20.6665 9.99265H21.6665ZM24.0225 7.48465V8.48465H26.1315V7.48465V6.48465H24.0225V7.48465ZM26.1315 7.48465V8.48465C26.7462 8.48465 27.0277 8.64523 27.1697 8.79633C27.3227 8.95917 27.4875 9.29577 27.4875 9.99265H28.4875H29.4875C29.4875 9.01753 29.2597 8.10013 28.6274 7.42698C27.984 6.74207 27.0876 6.48465 26.1315 6.48465V7.48465ZM28.4875 9.99265H27.4875V10.9047H28.4875H29.4875V9.99265H28.4875ZM37.4937 7.67465L38.441 7.99502L38.8875 6.67465H37.4937V7.67465ZM34.8527 15.4837L33.9054 15.1633L33.8527 15.3191V15.4837H34.8527ZM34.8527 19.9677V20.9677H35.8527V19.9677H34.8527ZM32.1927 19.9677H31.1927V20.9677H32.1927V19.9677ZM32.1927 15.4837H33.1927V15.3191L33.14 15.1633L32.1927 15.4837ZM29.5517 7.67465V6.67465H28.1578L28.6044 7.99502L29.5517 7.67465ZM32.0597 7.67465L33.0213 7.4004L32.8144 6.67465H32.0597V7.67465ZM33.5227 12.8047L32.561 13.0789L33.5227 16.451L34.4843 13.0789L33.5227 12.8047ZM34.9857 7.67465V6.67465H34.231L34.024 7.4004L34.9857 7.67465ZM37.4937 7.67465L36.5464 7.35428L33.9054 15.1633L34.8527 15.4837L35.8 15.804L38.441 7.99502L37.4937 7.67465ZM34.8527 15.4837H33.8527V19.9677H34.8527H35.8527V15.4837H34.8527ZM34.8527 19.9677V18.9677H32.1927V19.9677V20.9677H34.8527V19.9677ZM32.1927 19.9677H33.1927V15.4837H32.1927H31.1927V19.9677H32.1927ZM32.1927 15.4837L33.14 15.1633L30.499 7.35428L29.5517 7.67465L28.6044 7.99502L31.2454 15.804L32.1927 15.4837ZM29.5517 7.67465V8.67465H32.0597V7.67465V6.67465H29.5517V7.67465ZM32.0597 7.67465L31.098 7.9489L32.561 13.0789L33.5227 12.8047L34.4843 12.5304L33.0213 7.4004L32.0597 7.67465ZM33.5227 12.8047L34.4843 13.0789L35.9473 7.9489L34.9857 7.67465L34.024 7.4004L32.561 12.5304L33.5227 12.8047ZM34.9857 7.67465V8.67465H37.4937V7.67465V6.67465H34.9857V7.67465ZM43.2045 16.0537V15.0537H42.2045V16.0537H43.2045ZM45.7315 16.0537H46.7315V15.0537H45.7315V16.0537ZM45.7315 11.1517V12.1517H46.7315V11.1517H45.7315ZM43.2045 11.1517H42.2045V12.1517H43.2045V11.1517ZM43.0905 9.40365L42.3223 10.0438L42.3513 10.0787L42.3834 10.1108L43.0905 9.40365ZM41.3805 9.40365L40.6734 8.69654L40.6413 8.72862L40.6123 8.76347L41.3805 9.40365ZM41.3805 18.2197L40.6123 18.8598L40.6413 18.8947L40.6734 18.9268L41.3805 18.2197ZM43.0905 18.2197L42.3834 17.5125L42.3513 17.5446L42.3223 17.5795L43.0905 18.2197ZM43.2045 17.9537H44.2045V16.0537H43.2045H42.2045V17.9537H43.2045ZM43.2045 16.0537V17.0537H45.7315V16.0537V15.0537H43.2045V16.0537ZM45.7315 16.0537H44.7315V17.6497H45.7315H46.7315V16.0537H45.7315ZM45.7315 17.6497H44.7315C44.7315 18.3465 44.5666 18.6831 44.4137 18.846C44.2717 18.9971 43.9902 19.1577 43.3755 19.1577V20.1577V21.1577C44.3315 21.1577 45.228 20.9002 45.8714 20.2153C46.5037 19.5422 46.7315 18.6248 46.7315 17.6497H45.7315ZM43.3755 20.1577V19.1577H40.9815V20.1577V21.1577H43.3755V20.1577ZM40.9815 20.1577V19.1577C40.3669 19.1577 40.0853 18.9971 39.9434 18.846C39.7904 18.6831 39.6255 18.3465 39.6255 17.6497H38.6255H37.6255C37.6255 18.6248 37.8533 19.5422 38.4857 20.2153C39.1291 20.9002 40.0255 21.1577 40.9815 21.1577V20.1577ZM38.6255 17.6497H39.6255V9.99265H38.6255H37.6255V17.6497H38.6255ZM38.6255 9.99265H39.6255C39.6255 9.29577 39.7904 8.95917 39.9434 8.79633C40.0853 8.64523 40.3669 8.48465 40.9815 8.48465V7.48465V6.48465C40.0255 6.48465 39.1291 6.74207 38.4857 7.42698C37.8533 8.10013 37.6255 9.01753 37.6255 9.99265H38.6255ZM40.9815 7.48465V8.48465H43.3755V7.48465V6.48465H40.9815V7.48465ZM43.3755 7.48465V8.48465C43.9902 8.48465 44.2717 8.64523 44.4137 8.79633C44.5666 8.95917 44.7315 9.29577 44.7315 9.99265H45.7315H46.7315C46.7315 9.01753 46.5037 8.10013 45.8714 7.42698C45.228 6.74207 44.3315 6.48465 43.3755 6.48465V7.48465ZM45.7315 9.99265H44.7315V11.1517H45.7315H46.7315V9.99265H45.7315ZM45.7315 11.1517V10.1517H43.2045V11.1517V12.1517H45.7315V11.1517ZM43.2045 11.1517H44.2045V9.66965H43.2045H42.2045V11.1517H43.2045ZM43.2045 9.66965H44.2045C44.2045 9.28576 44.0485 8.94746 43.7976 8.69655L43.0905 9.40365L42.3834 10.1108C42.3417 10.0691 42.2934 10.0063 42.2569 9.92107C42.2198 9.83469 42.2045 9.74745 42.2045 9.66965H43.2045ZM43.0905 9.40365L43.8587 8.76346C43.6001 8.45315 43.2333 8.28965 42.8435 8.28965V9.28965V10.2897C42.7666 10.2897 42.6671 10.2745 42.5622 10.2261C42.4566 10.1774 42.3769 10.1094 42.3223 10.0438L43.0905 9.40365ZM42.8435 9.28965V8.28965H41.6465V9.28965V10.2897H42.8435V9.28965ZM41.6465 9.28965V8.28965C41.2626 8.28965 40.9243 8.44563 40.6734 8.69654L41.3805 9.40365L42.0876 10.1108C42.0459 10.1525 41.9832 10.2008 41.8979 10.2373C41.8115 10.2743 41.7243 10.2897 41.6465 10.2897V9.28965ZM41.3805 9.40365L40.6123 8.76347C40.3953 9.02389 40.2855 9.34058 40.2855 9.66965H41.2855H42.2855C42.2855 9.72484 42.2766 9.79192 42.251 9.86349C42.2253 9.93538 42.1885 9.99617 42.1487 10.0438L41.3805 9.40365ZM41.2855 9.66965H40.2855V17.9537H41.2855H42.2855V9.66965H41.2855ZM41.2855 17.9537H40.2855C40.2855 18.2827 40.3953 18.5994 40.6123 18.8598L41.3805 18.2197L42.1487 17.5795C42.1885 17.6271 42.2253 17.6879 42.251 17.7598C42.2766 17.8314 42.2855 17.8985 42.2855 17.9537H41.2855ZM41.3805 18.2197L40.6734 18.9268C40.9243 19.1777 41.2626 19.3337 41.6465 19.3337V18.3337V17.3337C41.7243 17.3337 41.8115 17.349 41.8979 17.386C41.9832 17.4225 42.0459 17.4708 42.0876 17.5125L41.3805 18.2197ZM41.6465 18.3337V19.3337H42.8435V18.3337V17.3337H41.6465V18.3337ZM42.8435 18.3337V19.3337C43.2333 19.3337 43.6001 19.1701 43.8587 18.8598L43.0905 18.2197L42.3223 17.5795C42.3769 17.5139 42.4566 17.4459 42.5622 17.3972C42.6671 17.3488 42.7666 17.3337 42.8435 17.3337V18.3337ZM43.0905 18.2197L43.7976 18.9268C44.0485 18.6758 44.2045 18.3375 44.2045 17.9537H43.2045H42.2045C42.2045 17.8759 42.2198 17.7886 42.2569 17.7022C42.2934 17.617 42.3417 17.5542 42.3834 17.5125L43.0905 18.2197ZM49.9877 15.1417V14.1417H48.9877V15.1417H49.9877ZM49.9877 19.9677V20.9677H50.9877V19.9677H49.9877ZM47.3277 19.9677H46.3277V20.9677H47.3277V19.9677ZM47.3277 7.67465V6.67465H46.3277V7.67465H47.3277ZM49.9877 7.67465H50.9877V6.67465H49.9877V7.67465ZM49.9877 12.8237H48.9877V13.8237H49.9877V12.8237ZM52.0967 12.8237V13.8237H53.0967V12.8237H52.0967ZM52.0967 7.67465V6.67465H51.0967V7.67465H52.0967ZM54.7567 7.67465H55.7567V6.67465H54.7567V7.67465ZM54.7567 19.9677V20.9677H55.7567V19.9677H54.7567ZM52.0967 19.9677H51.0967V20.9677H52.0967V19.9677ZM52.0967 15.1417H53.0967V14.1417H52.0967V15.1417ZM49.9877 15.1417H48.9877V19.9677H49.9877H50.9877V15.1417H49.9877ZM49.9877 19.9677V18.9677H47.3277V19.9677V20.9677H49.9877V19.9677ZM47.3277 19.9677H48.3277V7.67465H47.3277H46.3277V19.9677H47.3277ZM47.3277 7.67465V8.67465H49.9877V7.67465V6.67465H47.3277V7.67465ZM49.9877 7.67465H48.9877V12.8237H49.9877H50.9877V7.67465H49.9877ZM49.9877 12.8237V13.8237H52.0967V12.8237V11.8237H49.9877V12.8237ZM52.0967 12.8237H53.0967V7.67465H52.0967H51.0967V12.8237H52.0967ZM52.0967 7.67465V8.67465H54.7567V7.67465V6.67465H52.0967V7.67465ZM54.7567 7.67465H53.7567V19.9677H54.7567H55.7567V7.67465H54.7567ZM54.7567 19.9677V18.9677H52.0967V19.9677V20.9677H54.7567V19.9677ZM52.0967 19.9677H53.0967V15.1417H52.0967H51.0967V19.9677H52.0967ZM52.0967 15.1417V14.1417H49.9877V15.1417V16.1417H52.0967V15.1417ZM59.3207 7.67465H60.3207V6.67465H59.3207V7.67465ZM59.3207 19.9677V20.9677H60.3207V19.9677H59.3207ZM56.6607 19.9677H55.6607V20.9677H56.6607V19.9677ZM56.6607 7.67465V6.67465H55.6607V7.67465H56.6607ZM59.3207 7.67465H58.3207V19.9677H59.3207H60.3207V7.67465H59.3207ZM59.3207 19.9677V18.9677H56.6607V19.9677V20.9677H59.3207V19.9677ZM56.6607 19.9677H57.6607V7.67465H56.6607H55.6607V19.9677H56.6607ZM56.6607 7.67465V8.67465H59.3207V7.67465V6.67465H56.6607V7.67465ZM65.8783 16.0537V15.0537H64.8783V16.0537H65.8783ZM68.4053 16.0537H69.4053V15.0537H68.4053V16.0537ZM68.4053 11.1517V12.1517H69.4053V11.1517H68.4053ZM65.8783 11.1517H64.8783V12.1517H65.8783V11.1517ZM65.7643 9.40365L64.9961 10.0438L65.0252 10.0787L65.0572 10.1108L65.7643 9.40365ZM64.0543 9.40365L63.3472 8.69654L63.3152 8.72862L63.2861 8.76347L64.0543 9.40365ZM64.0543 18.2197L63.2861 18.8598L63.3152 18.8947L63.3472 18.9268L64.0543 18.2197ZM65.7643 18.2197L65.0572 17.5125L65.0252 17.5446L64.9961 17.5795L65.7643 18.2197ZM65.8783 17.9537H66.8783V16.0537H65.8783H64.8783V17.9537H65.8783ZM65.8783 16.0537V17.0537H68.4053V16.0537V15.0537H65.8783V16.0537ZM68.4053 16.0537H67.4053V17.6497H68.4053H69.4053V16.0537H68.4053ZM68.4053 17.6497H67.4053C67.4053 18.3465 67.2405 18.6831 67.0875 18.846C66.9456 18.9971 66.664 19.1577 66.0493 19.1577V20.1577V21.1577C67.0054 21.1577 67.9018 20.9002 68.5452 20.2153C69.1775 19.5422 69.4053 18.6248 69.4053 17.6497H68.4053ZM66.0493 20.1577V19.1577H63.6553V20.1577V21.1577H66.0493V20.1577ZM63.6553 20.1577V19.1577C63.0407 19.1577 62.7591 18.9971 62.6172 18.846C62.4642 18.6831 62.2993 18.3465 62.2993 17.6497H61.2993H60.2993C60.2993 18.6248 60.5271 19.5422 61.1595 20.2153C61.8029 20.9002 62.6993 21.1577 63.6553 21.1577V20.1577ZM61.2993 17.6497H62.2993V9.99265H61.2993H60.2993V17.6497H61.2993ZM61.2993 9.99265H62.2993C62.2993 9.29577 62.4642 8.95917 62.6172 8.79633C62.7591 8.64523 63.0407 8.48465 63.6553 8.48465V7.48465V6.48465C62.6993 6.48465 61.8029 6.74207 61.1595 7.42698C60.5271 8.10013 60.2993 9.01753 60.2993 9.99265H61.2993ZM63.6553 7.48465V8.48465H66.0493V7.48465V6.48465H63.6553V7.48465ZM66.0493 7.48465V8.48465C66.664 8.48465 66.9456 8.64523 67.0875 8.79633C67.2405 8.95917 67.4053 9.29577 67.4053 9.99265H68.4053H69.4053C69.4053 9.01753 69.1775 8.10013 68.5452 7.42698C67.9018 6.74207 67.0054 6.48465 66.0493 6.48465V7.48465ZM68.4053 9.99265H67.4053V11.1517H68.4053H69.4053V9.99265H68.4053ZM68.4053 11.1517V10.1517H65.8783V11.1517V12.1517H68.4053V11.1517ZM65.8783 11.1517H66.8783V9.66965H65.8783H64.8783V11.1517H65.8783ZM65.8783 9.66965H66.8783C66.8783 9.28576 66.7224 8.94746 66.4715 8.69655L65.7643 9.40365L65.0572 10.1108C65.0155 10.0691 64.9672 10.0063 64.9307 9.92107C64.8937 9.83469 64.8783 9.74745 64.8783 9.66965H65.8783ZM65.7643 9.40365L66.5326 8.76346C66.274 8.45315 65.9071 8.28965 65.5173 8.28965V9.28965V10.2897C65.4404 10.2897 65.3409 10.2745 65.236 10.2261C65.1305 10.1774 65.0507 10.1094 64.9961 10.0438L65.7643 9.40365ZM65.5173 9.28965V8.28965H64.3203V9.28965V10.2897H65.5173V9.28965ZM64.3203 9.28965V8.28965C63.9365 8.28965 63.5981 8.44563 63.3472 8.69654L64.0543 9.40365L64.7614 10.1108C64.7197 10.1525 64.657 10.2008 64.5718 10.2373C64.4854 10.2743 64.3981 10.2897 64.3203 10.2897V9.28965ZM64.0543 9.40365L63.2861 8.76347C63.0691 9.02389 62.9593 9.34058 62.9593 9.66965H63.9593H64.9593C64.9593 9.72484 64.9504 9.79192 64.9248 9.86349C64.8992 9.93538 64.8623 9.99617 64.8226 10.0438L64.0543 9.40365ZM63.9593 9.66965H62.9593V17.9537H63.9593H64.9593V9.66965H63.9593ZM63.9593 17.9537H62.9593C62.9593 18.2827 63.0691 18.5994 63.2861 18.8598L64.0543 18.2197L64.8226 17.5795C64.8623 17.6271 64.8992 17.6879 64.9248 17.7598C64.9504 17.8314 64.9593 17.8985 64.9593 17.9537H63.9593ZM64.0543 18.2197L63.3472 18.9268C63.5981 19.1777 63.9365 19.3337 64.3203 19.3337V18.3337V17.3337C64.3981 17.3337 64.4854 17.349 64.5718 17.386C64.657 17.4225 64.7197 17.4708 64.7614 17.5125L64.0543 18.2197ZM64.3203 18.3337V19.3337H65.5173V18.3337V17.3337H64.3203V18.3337ZM65.5173 18.3337V19.3337C65.9071 19.3337 66.274 19.1701 66.5326 18.8598L65.7643 18.2197L64.9961 17.5795C65.0507 17.5139 65.1305 17.4459 65.236 17.3972C65.3409 17.3488 65.4404 17.3337 65.5173 17.3337V18.3337ZM65.7643 18.2197L66.4714 18.9268C66.7224 18.6758 66.8783 18.3375 66.8783 17.9537H65.8783H64.8783C64.8783 17.8759 64.8937 17.7886 64.9307 17.7022C64.9672 17.617 65.0155 17.5542 65.0572 17.5125L65.7643 18.2197Z" fill="black" mask="url(#path-3-outside-1_216_169)"/>
<defs>
<filter id="filter0_i_216_169" x="-2" y="-3" width="82.8926" height="29.9641" filterUnits="userSpaceOnUse" color-interpolation-filters="sRGB">
<feFlood flood-opacity="0" result="BackgroundImageFix"/>
<feBlend mode="normal" in="SourceGraphic" in2="BackgroundImageFix" result="shape"/>
<feColorMatrix in="SourceAlpha" type="matrix" values="0 0 0 0 0 0 0 0 0 0 0 0 0 0 0 0 0 0 127 0" result="hardAlpha"/>
<feOffset dx="-2" dy="-3"/>
<feGaussianBlur stdDeviation="2"/>
<feComposite in2="hardAlpha" operator="arithmetic" k2="-1" k3="1"/>
<feColorMatrix type="matrix" values="0 0 0 0 0.00961538 0 0 0 0 0.00961538 0 0 0 0 0.00961538 0 0 0 0.25 0"/>
<feBlend mode="normal" in2="shape" result="effect1_innerShadow_216_169"/>
</filter>
</defs>
</svg>
