<svg width="81" height="28" viewBox="0 0 81 28" fill="none" xmlns="http://www.w3.org/2000/svg">
<g filter="url(#filter0_i_216_150)">
<rect width="80.8925" height="26.9642" rx="12" fill="#653600"/>
</g>
<rect x="0.5" y="0.5" width="79.8925" height="25.9642" rx="11.5" stroke="black"/>
<mask id="path-3-outside-1_216_150" maskUnits="userSpaceOnUse" x="22" y="6.00012" width="38" height="16" fill="black">
<rect fill="white" x="22" y="6.00012" width="38" height="16"/>
<path d="M25.8805 14.9651V20.0001H23.2205V7.70712H27.9515C29.5221 7.70712 30.3075 8.54312 30.3075 10.2151V11.6401C30.3075 12.6535 29.9465 13.2995 29.2245 13.5781C29.8578 13.8061 30.1745 14.3255 30.1745 15.1361V20.0001H27.5145V15.3451C27.5145 15.0918 27.3941 14.9651 27.1535 14.9651H25.8805ZM25.8805 9.51212V13.1031H27.2865C27.3878 13.1031 27.4701 13.0651 27.5335 12.9891C27.6095 12.9131 27.6475 12.8245 27.6475 12.7231V9.89212C27.6475 9.79079 27.6095 9.70212 27.5335 9.62612C27.4701 9.55012 27.3878 9.51212 27.2865 9.51212H25.8805ZM39.2544 10.0251V17.6821C39.2544 19.3541 38.4691 20.1901 36.8984 20.1901H34.3714C32.8007 20.1901 32.0154 19.3541 32.0154 17.6821V10.0251C32.0154 8.35312 32.8007 7.51712 34.3714 7.51712H36.8984C38.4691 7.51712 39.2544 8.35312 39.2544 10.0251ZM36.5944 17.9861V9.70212C36.5944 9.60079 36.5564 9.51212 36.4804 9.43612C36.4171 9.36012 36.3347 9.32212 36.2334 9.32212H35.0364C34.9351 9.32212 34.8464 9.36012 34.7704 9.43612C34.7071 9.51212 34.6754 9.60079 34.6754 9.70212V17.9861C34.6754 18.0875 34.7071 18.1761 34.7704 18.2521C34.8464 18.3281 34.9351 18.3661 35.0364 18.3661H36.2334C36.3347 18.3661 36.4171 18.3281 36.4804 18.2521C36.5564 18.1761 36.5944 18.0875 36.5944 17.9861ZM45.7975 17.9861V16.0861H48.3245V17.6821C48.3245 19.3541 47.5392 20.1901 45.9685 20.1901H43.5745C42.0039 20.1901 41.2185 19.3541 41.2185 17.6821V10.0251C41.2185 8.35312 42.0039 7.51712 43.5745 7.51712H45.9685C47.5392 7.51712 48.3245 8.35312 48.3245 10.0251V11.1841H45.7975V9.70212C45.7975 9.60079 45.7595 9.51212 45.6835 9.43612C45.6202 9.36012 45.5379 9.32212 45.4365 9.32212H44.2395C44.1382 9.32212 44.0495 9.36012 43.9735 9.43612C43.9102 9.51212 43.8785 9.60079 43.8785 9.70212V17.9861C43.8785 18.0875 43.9102 18.1761 43.9735 18.2521C44.0495 18.3281 44.1382 18.3661 44.2395 18.3661H45.4365C45.5379 18.3661 45.6202 18.3281 45.6835 18.2521C45.7595 18.1761 45.7975 18.0875 45.7975 17.9861ZM57.5777 7.70712L55.4877 13.3501L57.9767 20.0001H55.2597L53.4357 15.1361H52.5807V20.0001H49.9207V7.70712H52.5807V12.8561H53.2267L55.1457 7.70712H57.5777Z"/>
</mask>
<path d="M25.8805 14.9651V20.0001H23.2205V7.70712H27.9515C29.5221 7.70712 30.3075 8.54312 30.3075 10.2151V11.6401C30.3075 12.6535 29.9465 13.2995 29.2245 13.5781C29.8578 13.8061 30.1745 14.3255 30.1745 15.1361V20.0001H27.5145V15.3451C27.5145 15.0918 27.3941 14.9651 27.1535 14.9651H25.8805ZM25.8805 9.51212V13.1031H27.2865C27.3878 13.1031 27.4701 13.0651 27.5335 12.9891C27.6095 12.9131 27.6475 12.8245 27.6475 12.7231V9.89212C27.6475 9.79079 27.6095 9.70212 27.5335 9.62612C27.4701 9.55012 27.3878 9.51212 27.2865 9.51212H25.8805ZM39.2544 10.0251V17.6821C39.2544 19.3541 38.4691 20.1901 36.8984 20.1901H34.3714C32.8007 20.1901 32.0154 19.3541 32.0154 17.6821V10.0251C32.0154 8.35312 32.8007 7.51712 34.3714 7.51712H36.8984C38.4691 7.51712 39.2544 8.35312 39.2544 10.0251ZM36.5944 17.9861V9.70212C36.5944 9.60079 36.5564 9.51212 36.4804 9.43612C36.4171 9.36012 36.3347 9.32212 36.2334 9.32212H35.0364C34.9351 9.32212 34.8464 9.36012 34.7704 9.43612C34.7071 9.51212 34.6754 9.60079 34.6754 9.70212V17.9861C34.6754 18.0875 34.7071 18.1761 34.7704 18.2521C34.8464 18.3281 34.9351 18.3661 35.0364 18.3661H36.2334C36.3347 18.3661 36.4171 18.3281 36.4804 18.2521C36.5564 18.1761 36.5944 18.0875 36.5944 17.9861ZM45.7975 17.9861V16.0861H48.3245V17.6821C48.3245 19.3541 47.5392 20.1901 45.9685 20.1901H43.5745C42.0039 20.1901 41.2185 19.3541 41.2185 17.6821V10.0251C41.2185 8.35312 42.0039 7.51712 43.5745 7.51712H45.9685C47.5392 7.51712 48.3245 8.35312 48.3245 10.0251V11.1841H45.7975V9.70212C45.7975 9.60079 45.7595 9.51212 45.6835 9.43612C45.6202 9.36012 45.5379 9.32212 45.4365 9.32212H44.2395C44.1382 9.32212 44.0495 9.36012 43.9735 9.43612C43.9102 9.51212 43.8785 9.60079 43.8785 9.70212V17.9861C43.8785 18.0875 43.9102 18.1761 43.9735 18.2521C44.0495 18.3281 44.1382 18.3661 44.2395 18.3661H45.4365C45.5379 18.3661 45.6202 18.3281 45.6835 18.2521C45.7595 18.1761 45.7975 18.0875 45.7975 17.9861ZM57.5777 7.70712L55.4877 13.3501L57.9767 20.0001H55.2597L53.4357 15.1361H52.5807V20.0001H49.9207V7.70712H52.5807V12.8561H53.2267L55.1457 7.70712H57.5777Z" fill="white"/>
<path d="M25.8805 14.9651V13.9651H24.8805V14.9651H25.8805ZM25.8805 20.0001V21.0001H26.8805V20.0001H25.8805ZM23.2205 20.0001H22.2205V21.0001H23.2205V20.0001ZM23.2205 7.70712V6.70712H22.2205V7.70712H23.2205ZM29.2245 13.5781L28.8644 12.6452L26.3628 13.6107L28.8858 14.519L29.2245 13.5781ZM30.1745 20.0001V21.0001H31.1745V20.0001H30.1745ZM27.5145 20.0001H26.5145V21.0001H27.5145V20.0001ZM25.8805 9.51212V8.51212H24.8805V9.51212H25.8805ZM25.8805 13.1031H24.8805V14.1031H25.8805V13.1031ZM27.5335 12.9891L26.8264 12.282L26.7943 12.3141L26.7653 12.3489L27.5335 12.9891ZM27.5335 9.62612L26.7653 10.2663L26.7943 10.3012L26.8264 10.3332L27.5335 9.62612ZM25.8805 14.9651H24.8805V20.0001H25.8805H26.8805V14.9651H25.8805ZM25.8805 20.0001V19.0001H23.2205V20.0001V21.0001H25.8805V20.0001ZM23.2205 20.0001H24.2205V7.70712H23.2205H22.2205V20.0001H23.2205ZM23.2205 7.70712V8.70712H27.9515V7.70712V6.70712H23.2205V7.70712ZM27.9515 7.70712V8.70712C28.5661 8.70712 28.8477 8.8677 28.9896 9.0188C29.1426 9.18164 29.3075 9.51824 29.3075 10.2151H30.3075H31.3075C31.3075 9.24 31.0797 8.3226 30.4473 7.64945C29.8039 6.96454 28.9075 6.70712 27.9515 6.70712V7.70712ZM30.3075 10.2151H29.3075V11.6401H30.3075H31.3075V10.2151H30.3075ZM30.3075 11.6401H29.3075C29.3075 12.0362 29.2358 12.2679 29.1638 12.3968C29.1026 12.5063 29.0186 12.5857 28.8644 12.6452L29.2245 13.5781L29.5846 14.511C30.1524 14.2919 30.6098 13.909 30.9097 13.3724C31.1986 12.8554 31.3075 12.2573 31.3075 11.6401H30.3075ZM29.2245 13.5781L28.8858 14.519C29.0122 14.5645 29.0564 14.6153 29.0832 14.6592C29.1191 14.7181 29.1745 14.8551 29.1745 15.1361H30.1745H31.1745C31.1745 14.6065 31.0715 14.0785 30.7908 13.618C30.5009 13.1426 30.0701 12.8197 29.5632 12.6372L29.2245 13.5781ZM30.1745 15.1361H29.1745V20.0001H30.1745H31.1745V15.1361H30.1745ZM30.1745 20.0001V19.0001H27.5145V20.0001V21.0001H30.1745V20.0001ZM27.5145 20.0001H28.5145V15.3451H27.5145H26.5145V20.0001H27.5145ZM27.5145 15.3451H28.5145C28.5145 15.0767 28.4516 14.6897 28.1492 14.3714C27.8377 14.0434 27.4414 13.9651 27.1535 13.9651V14.9651V15.9651C27.1062 15.9651 26.8904 15.9501 26.6992 15.7489C26.5172 15.5572 26.5145 15.3602 26.5145 15.3451H27.5145ZM27.1535 14.9651V13.9651H25.8805V14.9651V15.9651H27.1535V14.9651ZM25.8805 9.51212H24.8805V13.1031H25.8805H26.8805V9.51212H25.8805ZM25.8805 13.1031V14.1031H27.2865V13.1031V12.1031H25.8805V13.1031ZM27.2865 13.1031V14.1031C27.6763 14.1031 28.0431 13.9396 28.3017 13.6293L27.5335 12.9891L26.7653 12.3489C26.8199 12.2834 26.8996 12.2154 27.0052 12.1667C27.1101 12.1182 27.2095 12.1031 27.2865 12.1031V13.1031ZM27.5335 12.9891L28.2406 13.6962C28.4915 13.4453 28.6475 13.107 28.6475 12.7231H27.6475H26.6475C26.6475 12.6453 26.6628 12.5581 26.6998 12.4717C26.7364 12.3865 26.7847 12.3237 26.8264 12.282L27.5335 12.9891ZM27.6475 12.7231H28.6475V9.89212H27.6475H26.6475V12.7231H27.6475ZM27.6475 9.89212H28.6475C28.6475 9.50823 28.4915 9.16992 28.2406 8.91901L27.5335 9.62612L26.8264 10.3332C26.7847 10.2915 26.7364 10.2288 26.6998 10.1435C26.6628 10.0572 26.6475 9.96992 26.6475 9.89212H27.6475ZM27.5335 9.62612L28.3017 8.98594C28.0431 8.67563 27.6763 8.51212 27.2865 8.51212V9.51212V10.5121C27.2095 10.5121 27.1101 10.497 27.0052 10.4486C26.8996 10.3999 26.8199 10.3319 26.7653 10.2663L27.5335 9.62612ZM27.2865 9.51212V8.51212H25.8805V9.51212V10.5121H27.2865V9.51212ZM36.4804 9.43612L35.7122 10.0763L35.7412 10.1112L35.7733 10.1432L36.4804 9.43612ZM34.7704 9.43612L34.0633 8.72901L34.0312 8.76109L34.0022 8.79594L34.7704 9.43612ZM34.7704 18.2521L34.0022 18.8923L34.0312 18.9272L34.0633 18.9592L34.7704 18.2521ZM36.4804 18.2521L35.7733 17.545L35.7412 17.5771L35.7122 17.6119L36.4804 18.2521ZM39.2544 10.0251H38.2544V17.6821H39.2544H40.2544V10.0251H39.2544ZM39.2544 17.6821H38.2544C38.2544 18.379 38.0895 18.7156 37.9366 18.8784C37.7946 19.0295 37.513 19.1901 36.8984 19.1901V20.1901V21.1901C37.8544 21.1901 38.7509 20.9327 39.3943 20.2478C40.0266 19.5746 40.2544 18.6572 40.2544 17.6821H39.2544ZM36.8984 20.1901V19.1901H34.3714V20.1901V21.1901H36.8984V20.1901ZM34.3714 20.1901V19.1901C33.7568 19.1901 33.4752 19.0295 33.3333 18.8784C33.1803 18.7156 33.0154 18.379 33.0154 17.6821H32.0154H31.0154C31.0154 18.6572 31.2432 19.5746 31.8756 20.2478C32.519 20.9327 33.4154 21.1901 34.3714 21.1901V20.1901ZM32.0154 17.6821H33.0154V10.0251H32.0154H31.0154V17.6821H32.0154ZM32.0154 10.0251H33.0154C33.0154 9.32824 33.1803 8.99164 33.3333 8.8288C33.4752 8.6777 33.7568 8.51712 34.3714 8.51712V7.51712V6.51712C33.4154 6.51712 32.519 6.77454 31.8756 7.45945C31.2432 8.1326 31.0154 9.05 31.0154 10.0251H32.0154ZM34.3714 7.51712V8.51712H36.8984V7.51712V6.51712H34.3714V7.51712ZM36.8984 7.51712V8.51712C37.513 8.51712 37.7946 8.6777 37.9366 8.8288C38.0895 8.99164 38.2544 9.32824 38.2544 10.0251H39.2544H40.2544C40.2544 9.05 40.0266 8.1326 39.3942 7.45945C38.7509 6.77454 37.8544 6.51712 36.8984 6.51712V7.51712ZM36.5944 17.9861H37.5944V9.70212H36.5944H35.5944V17.9861H36.5944ZM36.5944 9.70212H37.5944C37.5944 9.31823 37.4384 8.97993 37.1875 8.72902L36.4804 9.43612L35.7733 10.1432C35.7316 10.1015 35.6833 10.0388 35.6468 9.95354C35.6097 9.86716 35.5944 9.77992 35.5944 9.70212H36.5944ZM36.4804 9.43612L37.2486 8.79593C36.99 8.48562 36.6232 8.32212 36.2334 8.32212V9.32212V10.3221C36.1565 10.3221 36.057 10.307 35.9521 10.2586C35.8465 10.2099 35.7668 10.1419 35.7122 10.0763L36.4804 9.43612ZM36.2334 9.32212V8.32212H35.0364V9.32212V10.3221H36.2334V9.32212ZM35.0364 9.32212V8.32212C34.6525 8.32212 34.3142 8.4781 34.0633 8.72901L34.7704 9.43612L35.4775 10.1432C35.4358 10.1849 35.3731 10.2332 35.2878 10.2698C35.2014 10.3068 35.1142 10.3221 35.0364 10.3221V9.32212ZM34.7704 9.43612L34.0022 8.79594C33.7852 9.05636 33.6754 9.37305 33.6754 9.70212H34.6754H35.6754C35.6754 9.75731 35.6665 9.82439 35.6409 9.89596C35.6152 9.96786 35.5783 10.0286 35.5386 10.0763L34.7704 9.43612ZM34.6754 9.70212H33.6754V17.9861H34.6754H35.6754V9.70212H34.6754ZM34.6754 17.9861H33.6754C33.6754 18.3152 33.7852 18.6319 34.0022 18.8923L34.7704 18.2521L35.5386 17.6119C35.5783 17.6596 35.6152 17.7204 35.6409 17.7923C35.6665 17.8639 35.6754 17.9309 35.6754 17.9861H34.6754ZM34.7704 18.2521L34.0633 18.9592C34.3142 19.2101 34.6525 19.3661 35.0364 19.3661V18.3661V17.3661C35.1142 17.3661 35.2014 17.3815 35.2878 17.4185C35.3731 17.455 35.4358 17.5033 35.4775 17.545L34.7704 18.2521ZM35.0364 18.3661V19.3661H36.2334V18.3661V17.3661H35.0364V18.3661ZM36.2334 18.3661V19.3661C36.6232 19.3661 36.99 19.2026 37.2486 18.8923L36.4804 18.2521L35.7122 17.6119C35.7668 17.5464 35.8465 17.4784 35.9521 17.4297C36.057 17.3812 36.1565 17.3661 36.2334 17.3661V18.3661ZM36.4804 18.2521L37.1875 18.9592C37.4384 18.7083 37.5944 18.37 37.5944 17.9861H36.5944H35.5944C35.5944 17.9083 35.6097 17.8211 35.6468 17.7347C35.6833 17.6495 35.7316 17.5867 35.7733 17.545L36.4804 18.2521ZM45.7975 16.0861V15.0861H44.7975V16.0861H45.7975ZM48.3245 16.0861H49.3245V15.0861H48.3245V16.0861ZM48.3245 11.1841V12.1841H49.3245V11.1841H48.3245ZM45.7975 11.1841H44.7975V12.1841H45.7975V11.1841ZM45.6835 9.43612L44.9153 10.0763L44.9443 10.1112L44.9764 10.1432L45.6835 9.43612ZM43.9735 9.43612L43.2664 8.72901L43.2343 8.76109L43.2053 8.79594L43.9735 9.43612ZM43.9735 18.2521L43.2053 18.8923L43.2343 18.9272L43.2664 18.9592L43.9735 18.2521ZM45.6835 18.2521L44.9764 17.545L44.9443 17.5771L44.9153 17.6119L45.6835 18.2521ZM45.7975 17.9861H46.7975V16.0861H45.7975H44.7975V17.9861H45.7975ZM45.7975 16.0861V17.0861H48.3245V16.0861V15.0861H45.7975V16.0861ZM48.3245 16.0861H47.3245V17.6821H48.3245H49.3245V16.0861H48.3245ZM48.3245 17.6821H47.3245C47.3245 18.379 47.1597 18.7156 47.0067 18.8784C46.8647 19.0295 46.5832 19.1901 45.9685 19.1901V20.1901V21.1901C46.9246 21.1901 47.821 20.9327 48.4644 20.2478C49.0967 19.5746 49.3245 18.6572 49.3245 17.6821H48.3245ZM45.9685 20.1901V19.1901H43.5745V20.1901V21.1901H45.9685V20.1901ZM43.5745 20.1901V19.1901C42.9599 19.1901 42.6783 19.0295 42.5364 18.8784C42.3834 18.7156 42.2185 18.379 42.2185 17.6821H41.2185H40.2185C40.2185 18.6572 40.4463 19.5746 41.0787 20.2478C41.7221 20.9327 42.6185 21.1901 43.5745 21.1901V20.1901ZM41.2185 17.6821H42.2185V10.0251H41.2185H40.2185V17.6821H41.2185ZM41.2185 10.0251H42.2185C42.2185 9.32824 42.3834 8.99164 42.5364 8.8288C42.6783 8.6777 42.9599 8.51712 43.5745 8.51712V7.51712V6.51712C42.6185 6.51712 41.7221 6.77454 41.0787 7.45945C40.4463 8.1326 40.2185 9.05 40.2185 10.0251H41.2185ZM43.5745 7.51712V8.51712H45.9685V7.51712V6.51712H43.5745V7.51712ZM45.9685 7.51712V8.51712C46.5832 8.51712 46.8647 8.6777 47.0067 8.8288C47.1597 8.99164 47.3245 9.32824 47.3245 10.0251H48.3245H49.3245C49.3245 9.05 49.0967 8.1326 48.4644 7.45945C47.821 6.77454 46.9246 6.51712 45.9685 6.51712V7.51712ZM48.3245 10.0251H47.3245V11.1841H48.3245H49.3245V10.0251H48.3245ZM48.3245 11.1841V10.1841H45.7975V11.1841V12.1841H48.3245V11.1841ZM45.7975 11.1841H46.7975V9.70212H45.7975H44.7975V11.1841H45.7975ZM45.7975 9.70212H46.7975C46.7975 9.31823 46.6415 8.97993 46.3906 8.72902L45.6835 9.43612L44.9764 10.1432C44.9347 10.1015 44.8864 10.0388 44.8499 9.95354C44.8129 9.86716 44.7975 9.77992 44.7975 9.70212H45.7975ZM45.6835 9.43612L46.4517 8.79593C46.1932 8.48562 45.8263 8.32212 45.4365 8.32212V9.32212V10.3221C45.3596 10.3221 45.2601 10.307 45.1552 10.2586C45.0497 10.2099 44.9699 10.1419 44.9153 10.0763L45.6835 9.43612ZM45.4365 9.32212V8.32212H44.2395V9.32212V10.3221H45.4365V9.32212ZM44.2395 9.32212V8.32212C43.8556 8.32212 43.5173 8.4781 43.2664 8.72901L43.9735 9.43612L44.6806 10.1432C44.6389 10.1849 44.5762 10.2332 44.4909 10.2698C44.4046 10.3068 44.3173 10.3221 44.2395 10.3221V9.32212ZM43.9735 9.43612L43.2053 8.79594C42.9883 9.05636 42.8785 9.37305 42.8785 9.70212H43.8785H44.8785C44.8785 9.75731 44.8696 9.82439 44.844 9.89596C44.8183 9.96786 44.7815 10.0286 44.7418 10.0763L43.9735 9.43612ZM43.8785 9.70212H42.8785V17.9861H43.8785H44.8785V9.70212H43.8785ZM43.8785 17.9861H42.8785C42.8785 18.3152 42.9883 18.6319 43.2053 18.8923L43.9735 18.2521L44.7417 17.6119C44.7815 17.6596 44.8183 17.7204 44.844 17.7923C44.8696 17.8639 44.8785 17.9309 44.8785 17.9861H43.8785ZM43.9735 18.2521L43.2664 18.9592C43.5173 19.2101 43.8556 19.3661 44.2395 19.3661V18.3661V17.3661C44.3173 17.3661 44.4046 17.3815 44.4909 17.4185C44.5762 17.455 44.6389 17.5033 44.6806 17.545L43.9735 18.2521ZM44.2395 18.3661V19.3661H45.4365V18.3661V17.3661H44.2395V18.3661ZM45.4365 18.3661V19.3661C45.8263 19.3661 46.1932 19.2026 46.4517 18.8923L45.6835 18.2521L44.9153 17.6119C44.9699 17.5464 45.0496 17.4784 45.1552 17.4297C45.2601 17.3812 45.3596 17.3661 45.4365 17.3661V18.3661ZM45.6835 18.2521L46.3906 18.9592C46.6415 18.7083 46.7975 18.37 46.7975 17.9861H45.7975H44.7975C44.7975 17.9083 44.8129 17.8211 44.8499 17.7347C44.8864 17.6495 44.9347 17.5867 44.9764 17.545L45.6835 18.2521ZM57.5777 7.70712L58.5154 8.05444L59.0144 6.70712H57.5777V7.70712ZM55.4877 13.3501L54.5499 13.0028L54.4206 13.352L54.5511 13.7007L55.4877 13.3501ZM57.9767 20.0001V21.0001H59.4187L58.9132 19.6496L57.9767 20.0001ZM55.2597 20.0001L54.3233 20.3512L54.5667 21.0001H55.2597V20.0001ZM53.4357 15.1361L54.372 14.785L54.1287 14.1361H53.4357V15.1361ZM52.5807 15.1361V14.1361H51.5807V15.1361H52.5807ZM52.5807 20.0001V21.0001H53.5807V20.0001H52.5807ZM49.9207 20.0001H48.9207V21.0001H49.9207V20.0001ZM49.9207 7.70712V6.70712H48.9207V7.70712H49.9207ZM52.5807 7.70712H53.5807V6.70712H52.5807V7.70712ZM52.5807 12.8561H51.5807V13.8561H52.5807V12.8561ZM53.2267 12.8561V13.8561H53.9212L54.1637 13.2053L53.2267 12.8561ZM55.1457 7.70712V6.70712H54.4512L54.2086 7.35789L55.1457 7.70712ZM57.5777 7.70712L56.6399 7.35981L54.5499 13.0028L55.4877 13.3501L56.4254 13.6974L58.5154 8.05444L57.5777 7.70712ZM55.4877 13.3501L54.5511 13.7007L57.0401 20.3507L57.9767 20.0001L58.9132 19.6496L56.4242 12.9996L55.4877 13.3501ZM57.9767 20.0001V19.0001H55.2597V20.0001V21.0001H57.9767V20.0001ZM55.2597 20.0001L56.196 19.649L54.372 14.785L53.4357 15.1361L52.4993 15.4872L54.3233 20.3512L55.2597 20.0001ZM53.4357 15.1361V14.1361H52.5807V15.1361V16.1361H53.4357V15.1361ZM52.5807 15.1361H51.5807V20.0001H52.5807H53.5807V15.1361H52.5807ZM52.5807 20.0001V19.0001H49.9207V20.0001V21.0001H52.5807V20.0001ZM49.9207 20.0001H50.9207V7.70712H49.9207H48.9207V20.0001H49.9207ZM49.9207 7.70712V8.70712H52.5807V7.70712V6.70712H49.9207V7.70712ZM52.5807 7.70712H51.5807V12.8561H52.5807H53.5807V7.70712H52.5807ZM52.5807 12.8561V13.8561H53.2267V12.8561V11.8561H52.5807V12.8561ZM53.2267 12.8561L54.1637 13.2053L56.0827 8.05635L55.1457 7.70712L54.2086 7.35789L52.2896 12.5069L53.2267 12.8561ZM55.1457 7.70712V8.70712H57.5777V7.70712V6.70712H55.1457V7.70712Z" fill="black" mask="url(#path-3-outside-1_216_150)"/>
<defs>
<filter id="filter0_i_216_150" x="-2" y="-3" width="82.8926" height="29.9641" filterUnits="userSpaceOnUse" color-interpolation-filters="sRGB">
<feFlood flood-opacity="0" result="BackgroundImageFix"/>
<feBlend mode="normal" in="SourceGraphic" in2="BackgroundImageFix" result="shape"/>
<feColorMatrix in="SourceAlpha" type="matrix" values="0 0 0 0 0 0 0 0 0 0 0 0 0 0 0 0 0 0 127 0" result="hardAlpha"/>
<feOffset dx="-2" dy="-3"/>
<feGaussianBlur stdDeviation="2"/>
<feComposite in2="hardAlpha" operator="arithmetic" k2="-1" k3="1"/>
<feColorMatrix type="matrix" values="0 0 0 0 0.00961538 0 0 0 0 0.00961538 0 0 0 0 0.00961538 0 0 0 0.25 0"/>
<feBlend mode="normal" in2="shape" result="effect1_innerShadow_216_150"/>
</filter>
</defs>
</svg>
