<svg width="81" height="28" viewBox="0 0 81 28" fill="none" xmlns="http://www.w3.org/2000/svg">
<g filter="url(#filter0_i_216_330)">
<rect width="80.8925" height="26.9642" rx="12" fill="#BABABA"/>
</g>
<rect x="0.5" y="0.5" width="79.8925" height="25.9642" rx="11.5" stroke="black"/>
<mask id="path-3-outside-1_216_330" maskUnits="userSpaceOnUse" x="21" y="5.9353" width="39" height="16" fill="black">
<rect fill="white" x="21" y="5.9353" width="39" height="16"/>
<path d="M29.3828 10.8723H26.8558V9.9033C26.8558 9.80197 26.8178 9.7133 26.7418 9.6373C26.6785 9.5613 26.5961 9.5233 26.4948 9.5233H25.4498C25.3485 9.5233 25.2598 9.5613 25.1838 9.6373C25.1205 9.7133 25.0888 9.80197 25.0888 9.9033V12.0883C25.0888 12.1896 25.1205 12.2783 25.1838 12.3543C25.2598 12.4303 25.3485 12.4683 25.4498 12.4683H27.1598C28.7305 12.4936 29.5158 13.3296 29.5158 14.9763V17.6173C29.5158 19.2893 28.7305 20.1253 27.1598 20.1253H24.9178C23.3471 20.1253 22.5618 19.2893 22.5618 17.6173V16.3443H25.0888V17.7123C25.0888 17.8136 25.1205 17.9023 25.1838 17.9783C25.2598 18.0543 25.3485 18.0923 25.4498 18.0923H26.6278C26.7291 18.0923 26.8115 18.0543 26.8748 17.9783C26.9508 17.9023 26.9888 17.8136 26.9888 17.7123V15.2993C26.9888 15.198 26.9508 15.1093 26.8748 15.0333C26.8115 14.9573 26.7291 14.9193 26.6278 14.9193H24.9178C23.3471 14.9193 22.5618 14.0833 22.5618 12.4113V9.9603C22.5618 8.2883 23.3471 7.4523 24.9178 7.4523H27.0268C28.5975 7.4523 29.3828 8.2883 29.3828 9.9603V10.8723ZM30.5609 9.9033V7.6423H37.2109V9.9033H35.2159V19.9353H32.5559V9.9033H30.5609ZM41.086 17.7313H44.031V19.9353H38.426V7.6423H44.031V9.8083H41.086V12.6963H43.841V14.7863H41.086V17.7313ZM48.2296 17.7313H51.1746V19.9353H45.5696V7.6423H51.1746V9.8083H48.2296V12.6963H50.9846V14.7863H48.2296V17.7313ZM55.3732 17.6933H58.2802V19.9353H52.7132V7.6423H55.3732V17.6933Z"/>
</mask>
<path d="M29.3828 10.8723H26.8558V9.9033C26.8558 9.80197 26.8178 9.7133 26.7418 9.6373C26.6785 9.5613 26.5961 9.5233 26.4948 9.5233H25.4498C25.3485 9.5233 25.2598 9.5613 25.1838 9.6373C25.1205 9.7133 25.0888 9.80197 25.0888 9.9033V12.0883C25.0888 12.1896 25.1205 12.2783 25.1838 12.3543C25.2598 12.4303 25.3485 12.4683 25.4498 12.4683H27.1598C28.7305 12.4936 29.5158 13.3296 29.5158 14.9763V17.6173C29.5158 19.2893 28.7305 20.1253 27.1598 20.1253H24.9178C23.3471 20.1253 22.5618 19.2893 22.5618 17.6173V16.3443H25.0888V17.7123C25.0888 17.8136 25.1205 17.9023 25.1838 17.9783C25.2598 18.0543 25.3485 18.0923 25.4498 18.0923H26.6278C26.7291 18.0923 26.8115 18.0543 26.8748 17.9783C26.9508 17.9023 26.9888 17.8136 26.9888 17.7123V15.2993C26.9888 15.198 26.9508 15.1093 26.8748 15.0333C26.8115 14.9573 26.7291 14.9193 26.6278 14.9193H24.9178C23.3471 14.9193 22.5618 14.0833 22.5618 12.4113V9.9603C22.5618 8.2883 23.3471 7.4523 24.9178 7.4523H27.0268C28.5975 7.4523 29.3828 8.2883 29.3828 9.9603V10.8723ZM30.5609 9.9033V7.6423H37.2109V9.9033H35.2159V19.9353H32.5559V9.9033H30.5609ZM41.086 17.7313H44.031V19.9353H38.426V7.6423H44.031V9.8083H41.086V12.6963H43.841V14.7863H41.086V17.7313ZM48.2296 17.7313H51.1746V19.9353H45.5696V7.6423H51.1746V9.8083H48.2296V12.6963H50.9846V14.7863H48.2296V17.7313ZM55.3732 17.6933H58.2802V19.9353H52.7132V7.6423H55.3732V17.6933Z" fill="white"/>
<path d="M29.3828 10.8723V11.8723H30.3828V10.8723H29.3828ZM26.8558 10.8723H25.8558V11.8723H26.8558V10.8723ZM26.7418 9.6373L25.9736 10.2775L26.0026 10.3123L26.0347 10.3444L26.7418 9.6373ZM25.1838 9.6373L24.4767 8.93019L24.4446 8.96227L24.4156 8.99712L25.1838 9.6373ZM25.1838 12.3543L24.4156 12.9945L24.4446 13.0293L24.4767 13.0614L25.1838 12.3543ZM27.1598 12.4683L27.1759 11.4684L27.1679 11.4683H27.1598V12.4683ZM22.5618 16.3443V15.3443H21.5618V16.3443H22.5618ZM25.0888 16.3443H26.0888V15.3443H25.0888V16.3443ZM25.1838 17.9783L24.4156 18.6185L24.4446 18.6533L24.4767 18.6854L25.1838 17.9783ZM26.8748 17.9783L26.1677 17.2712L26.1356 17.3033L26.1066 17.3381L26.8748 17.9783ZM26.8748 15.0333L26.1066 15.6735L26.1356 15.7083L26.1677 15.7404L26.8748 15.0333ZM29.3828 10.8723V9.8723H26.8558V10.8723V11.8723H29.3828V10.8723ZM26.8558 10.8723H27.8558V9.9033H26.8558H25.8558V10.8723H26.8558ZM26.8558 9.9033H27.8558C27.8558 9.51942 27.6998 9.18111 27.4489 8.9302L26.7418 9.6373L26.0347 10.3444C25.993 10.3027 25.9447 10.2399 25.9081 10.1547C25.8711 10.0683 25.8558 9.9811 25.8558 9.9033H26.8558ZM26.7418 9.6373L27.51 8.99712C27.2514 8.6868 26.8846 8.5233 26.4948 8.5233V9.5233V10.5233C26.4179 10.5233 26.3184 10.5082 26.2135 10.4598C26.1079 10.411 26.0282 10.343 25.9736 10.2775L26.7418 9.6373ZM26.4948 9.5233V8.5233H25.4498V9.5233V10.5233H26.4948V9.5233ZM25.4498 9.5233V8.5233C25.0659 8.5233 24.7276 8.67928 24.4767 8.93019L25.1838 9.6373L25.8909 10.3444C25.8492 10.3861 25.7864 10.4344 25.7012 10.4709C25.6148 10.508 25.5276 10.5233 25.4498 10.5233V9.5233ZM25.1838 9.6373L24.4156 8.99712C24.1986 9.25754 24.0888 9.57423 24.0888 9.9033H25.0888H26.0888C26.0888 9.95849 26.0798 10.0256 26.0543 10.0971C26.0286 10.169 25.9917 10.2298 25.952 10.2775L25.1838 9.6373ZM25.0888 9.9033H24.0888V12.0883H25.0888H26.0888V9.9033H25.0888ZM25.0888 12.0883H24.0888C24.0888 12.4174 24.1986 12.7341 24.4156 12.9945L25.1838 12.3543L25.952 11.7141C25.9917 11.7618 26.0286 11.8226 26.0543 11.8945C26.0798 11.966 26.0888 12.0331 26.0888 12.0883H25.0888ZM25.1838 12.3543L24.4767 13.0614C24.7276 13.3123 25.0659 13.4683 25.4498 13.4683V12.4683V11.4683C25.5276 11.4683 25.6148 11.4836 25.7012 11.5207C25.7864 11.5572 25.8492 11.6055 25.8909 11.6472L25.1838 12.3543ZM25.4498 12.4683V13.4683H27.1598V12.4683V11.4683H25.4498V12.4683ZM27.1598 12.4683L27.1437 13.4682C27.7613 13.4781 28.0506 13.6422 28.1979 13.799C28.3532 13.9643 28.5158 14.297 28.5158 14.9763H29.5158H30.5158C30.5158 14.0089 30.2857 13.1003 29.6556 12.4296C29.0176 11.7504 28.1289 11.4838 27.1759 11.4684L27.1598 12.4683ZM29.5158 14.9763H28.5158V17.6173H29.5158H30.5158V14.9763H29.5158ZM29.5158 17.6173H28.5158C28.5158 18.3142 28.3509 18.6508 28.1979 18.8136C28.056 18.9647 27.7744 19.1253 27.1598 19.1253V20.1253V21.1253C28.1158 21.1253 29.0122 20.8679 29.6556 20.183C30.288 19.5098 30.5158 18.5924 30.5158 17.6173H29.5158ZM27.1598 20.1253V19.1253H24.9178V20.1253V21.1253H27.1598V20.1253ZM24.9178 20.1253V19.1253C24.3032 19.1253 24.0216 18.9647 23.8796 18.8136C23.7267 18.6508 23.5618 18.3142 23.5618 17.6173H22.5618H21.5618C21.5618 18.5924 21.7896 19.5098 22.4219 20.183C23.0653 20.8679 23.9618 21.1253 24.9178 21.1253V20.1253ZM22.5618 17.6173H23.5618V16.3443H22.5618H21.5618V17.6173H22.5618ZM22.5618 16.3443V17.3443H25.0888V16.3443V15.3443H22.5618V16.3443ZM25.0888 16.3443H24.0888V17.7123H25.0888H26.0888V16.3443H25.0888ZM25.0888 17.7123H24.0888C24.0888 18.0414 24.1986 18.3581 24.4156 18.6185L25.1838 17.9783L25.952 17.3381C25.9917 17.3858 26.0286 17.4466 26.0543 17.5185C26.0798 17.59 26.0888 17.6571 26.0888 17.7123H25.0888ZM25.1838 17.9783L24.4767 18.6854C24.7276 18.9363 25.0659 19.0923 25.4498 19.0923V18.0923V17.0923C25.5276 17.0923 25.6148 17.1076 25.7012 17.1447C25.7864 17.1812 25.8492 17.2295 25.8909 17.2712L25.1838 17.9783ZM25.4498 18.0923V19.0923H26.6278V18.0923V17.0923H25.4498V18.0923ZM26.6278 18.0923V19.0923C27.0176 19.0923 27.3844 18.9288 27.643 18.6185L26.8748 17.9783L26.1066 17.3381C26.1612 17.2726 26.2409 17.2046 26.3465 17.1558C26.4514 17.1074 26.5509 17.0923 26.6278 17.0923V18.0923ZM26.8748 17.9783L27.5819 18.6854C27.8328 18.4345 27.9888 18.0962 27.9888 17.7123H26.9888H25.9888C25.9888 17.6345 26.0041 17.5473 26.0411 17.4609C26.0777 17.3757 26.126 17.3129 26.1677 17.2712L26.8748 17.9783ZM26.9888 17.7123H27.9888V15.2993H26.9888H25.9888V17.7123H26.9888ZM26.9888 15.2993H27.9888C27.9888 14.9154 27.8328 14.5771 27.5819 14.3262L26.8748 15.0333L26.1677 15.7404C26.126 15.6987 26.0777 15.636 26.0411 15.5507C26.0041 15.4643 25.9888 15.3771 25.9888 15.2993H26.9888ZM26.8748 15.0333L27.643 14.3931C27.3844 14.0828 27.0176 13.9193 26.6278 13.9193V14.9193V15.9193C26.5509 15.9193 26.4514 15.9042 26.3465 15.8558C26.2409 15.807 26.1612 15.739 26.1066 15.6735L26.8748 15.0333ZM26.6278 14.9193V13.9193H24.9178V14.9193V15.9193H26.6278V14.9193ZM24.9178 14.9193V13.9193C24.3032 13.9193 24.0216 13.7587 23.8796 13.6076C23.7267 13.4448 23.5618 13.1082 23.5618 12.4113H22.5618H21.5618C21.5618 13.3864 21.7896 14.3038 22.4219 14.977C23.0653 15.6619 23.9618 15.9193 24.9178 15.9193V14.9193ZM22.5618 12.4113H23.5618V9.9603H22.5618H21.5618V12.4113H22.5618ZM22.5618 9.9603H23.5618C23.5618 9.26342 23.7267 8.92682 23.8796 8.76398C24.0216 8.61288 24.3032 8.4523 24.9178 8.4523V7.4523V6.4523C23.9618 6.4523 23.0653 6.70972 22.4219 7.39463C21.7896 8.06778 21.5618 8.98518 21.5618 9.9603H22.5618ZM24.9178 7.4523V8.4523H27.0268V7.4523V6.4523H24.9178V7.4523ZM27.0268 7.4523V8.4523C27.6414 8.4523 27.923 8.61288 28.0649 8.76398C28.2179 8.92682 28.3828 9.26342 28.3828 9.9603H29.3828H30.3828C30.3828 8.98518 30.155 8.06778 29.5226 7.39463C28.8792 6.70972 27.9828 6.4523 27.0268 6.4523V7.4523ZM29.3828 9.9603H28.3828V10.8723H29.3828H30.3828V9.9603H29.3828ZM30.5609 9.9033H29.5609V10.9033H30.5609V9.9033ZM30.5609 7.6423V6.6423H29.5609V7.6423H30.5609ZM37.2109 7.6423H38.2109V6.6423H37.2109V7.6423ZM37.2109 9.9033V10.9033H38.2109V9.9033H37.2109ZM35.2159 9.9033V8.9033H34.2159V9.9033H35.2159ZM35.2159 19.9353V20.9353H36.2159V19.9353H35.2159ZM32.5559 19.9353H31.5559V20.9353H32.5559V19.9353ZM32.5559 9.9033H33.5559V8.9033H32.5559V9.9033ZM30.5609 9.9033H31.5609V7.6423H30.5609H29.5609V9.9033H30.5609ZM30.5609 7.6423V8.6423H37.2109V7.6423V6.6423H30.5609V7.6423ZM37.2109 7.6423H36.2109V9.9033H37.2109H38.2109V7.6423H37.2109ZM37.2109 9.9033V8.9033H35.2159V9.9033V10.9033H37.2109V9.9033ZM35.2159 9.9033H34.2159V19.9353H35.2159H36.2159V9.9033H35.2159ZM35.2159 19.9353V18.9353H32.5559V19.9353V20.9353H35.2159V19.9353ZM32.5559 19.9353H33.5559V9.9033H32.5559H31.5559V19.9353H32.5559ZM32.5559 9.9033V8.9033H30.5609V9.9033V10.9033H32.5559V9.9033ZM41.086 17.7313H40.086V18.7313H41.086V17.7313ZM44.031 17.7313H45.031V16.7313H44.031V17.7313ZM44.031 19.9353V20.9353H45.031V19.9353H44.031ZM38.426 19.9353H37.426V20.9353H38.426V19.9353ZM38.426 7.6423V6.6423H37.426V7.6423H38.426ZM44.031 7.6423H45.031V6.6423H44.031V7.6423ZM44.031 9.8083V10.8083H45.031V9.8083H44.031ZM41.086 9.8083V8.8083H40.086V9.8083H41.086ZM41.086 12.6963H40.086V13.6963H41.086V12.6963ZM43.841 12.6963H44.841V11.6963H43.841V12.6963ZM43.841 14.7863V15.7863H44.841V14.7863H43.841ZM41.086 14.7863V13.7863H40.086V14.7863H41.086ZM41.086 17.7313V18.7313H44.031V17.7313V16.7313H41.086V17.7313ZM44.031 17.7313H43.031V19.9353H44.031H45.031V17.7313H44.031ZM44.031 19.9353V18.9353H38.426V19.9353V20.9353H44.031V19.9353ZM38.426 19.9353H39.426V7.6423H38.426H37.426V19.9353H38.426ZM38.426 7.6423V8.6423H44.031V7.6423V6.6423H38.426V7.6423ZM44.031 7.6423H43.031V9.8083H44.031H45.031V7.6423H44.031ZM44.031 9.8083V8.8083H41.086V9.8083V10.8083H44.031V9.8083ZM41.086 9.8083H40.086V12.6963H41.086H42.086V9.8083H41.086ZM41.086 12.6963V13.6963H43.841V12.6963V11.6963H41.086V12.6963ZM43.841 12.6963H42.841V14.7863H43.841H44.841V12.6963H43.841ZM43.841 14.7863V13.7863H41.086V14.7863V15.7863H43.841V14.7863ZM41.086 14.7863H40.086V17.7313H41.086H42.086V14.7863H41.086ZM48.2296 17.7313H47.2296V18.7313H48.2296V17.7313ZM51.1746 17.7313H52.1746V16.7313H51.1746V17.7313ZM51.1746 19.9353V20.9353H52.1746V19.9353H51.1746ZM45.5696 19.9353H44.5696V20.9353H45.5696V19.9353ZM45.5696 7.6423V6.6423H44.5696V7.6423H45.5696ZM51.1746 7.6423H52.1746V6.6423H51.1746V7.6423ZM51.1746 9.8083V10.8083H52.1746V9.8083H51.1746ZM48.2296 9.8083V8.8083H47.2296V9.8083H48.2296ZM48.2296 12.6963H47.2296V13.6963H48.2296V12.6963ZM50.9846 12.6963H51.9846V11.6963H50.9846V12.6963ZM50.9846 14.7863V15.7863H51.9846V14.7863H50.9846ZM48.2296 14.7863V13.7863H47.2296V14.7863H48.2296ZM48.2296 17.7313V18.7313H51.1746V17.7313V16.7313H48.2296V17.7313ZM51.1746 17.7313H50.1746V19.9353H51.1746H52.1746V17.7313H51.1746ZM51.1746 19.9353V18.9353H45.5696V19.9353V20.9353H51.1746V19.9353ZM45.5696 19.9353H46.5696V7.6423H45.5696H44.5696V19.9353H45.5696ZM45.5696 7.6423V8.6423H51.1746V7.6423V6.6423H45.5696V7.6423ZM51.1746 7.6423H50.1746V9.8083H51.1746H52.1746V7.6423H51.1746ZM51.1746 9.8083V8.8083H48.2296V9.8083V10.8083H51.1746V9.8083ZM48.2296 9.8083H47.2296V12.6963H48.2296H49.2296V9.8083H48.2296ZM48.2296 12.6963V13.6963H50.9846V12.6963V11.6963H48.2296V12.6963ZM50.9846 12.6963H49.9846V14.7863H50.9846H51.9846V12.6963H50.9846ZM50.9846 14.7863V13.7863H48.2296V14.7863V15.7863H50.9846V14.7863ZM48.2296 14.7863H47.2296V17.7313H48.2296H49.2296V14.7863H48.2296ZM55.3732 17.6933H54.3732V18.6933H55.3732V17.6933ZM58.2802 17.6933H59.2802V16.6933H58.2802V17.6933ZM58.2802 19.9353V20.9353H59.2802V19.9353H58.2802ZM52.7132 19.9353H51.7132V20.9353H52.7132V19.9353ZM52.7132 7.6423V6.6423H51.7132V7.6423H52.7132ZM55.3732 7.6423H56.3732V6.6423H55.3732V7.6423ZM55.3732 17.6933V18.6933H58.2802V17.6933V16.6933H55.3732V17.6933ZM58.2802 17.6933H57.2802V19.9353H58.2802H59.2802V17.6933H58.2802ZM58.2802 19.9353V18.9353H52.7132V19.9353V20.9353H58.2802V19.9353ZM52.7132 19.9353H53.7132V7.6423H52.7132H51.7132V19.9353H52.7132ZM52.7132 7.6423V8.6423H55.3732V7.6423V6.6423H52.7132V7.6423ZM55.3732 7.6423H54.3732V17.6933H55.3732H56.3732V7.6423H55.3732Z" fill="black" mask="url(#path-3-outside-1_216_330)"/>
<defs>
<filter id="filter0_i_216_330" x="-2" y="-3" width="82.8926" height="29.9641" filterUnits="userSpaceOnUse" color-interpolation-filters="sRGB">
<feFlood flood-opacity="0" result="BackgroundImageFix"/>
<feBlend mode="normal" in="SourceGraphic" in2="BackgroundImageFix" result="shape"/>
<feColorMatrix in="SourceAlpha" type="matrix" values="0 0 0 0 0 0 0 0 0 0 0 0 0 0 0 0 0 0 127 0" result="hardAlpha"/>
<feOffset dx="-2" dy="-3"/>
<feGaussianBlur stdDeviation="2"/>
<feComposite in2="hardAlpha" operator="arithmetic" k2="-1" k3="1"/>
<feColorMatrix type="matrix" values="0 0 0 0 0.00961538 0 0 0 0 0.00961538 0 0 0 0 0.00961538 0 0 0 0.25 0"/>
<feBlend mode="normal" in2="shape" result="effect1_innerShadow_216_330"/>
</filter>
</defs>
</svg>
