<svg width="81" height="27" viewBox="0 0 81 27" fill="none" xmlns="http://www.w3.org/2000/svg">
<g filter="url(#filter0_i_216_140)">
<rect width="80.8925" height="26.9642" rx="12" fill="#00DEB9"/>
</g>
<rect x="0.5" y="0.5" width="79.8925" height="25.9642" rx="11.5" stroke="black"/>
<mask id="path-3-outside-1_216_140" maskUnits="userSpaceOnUse" x="27.843" y="5.00012" width="26" height="16" fill="black">
<rect fill="white" x="27.843" y="5.00012" width="26" height="16"/>
<path d="M33.7763 13.9651C33.675 13.9651 33.5863 14.0031 33.5103 14.0791C33.447 14.1551 33.4153 14.2438 33.4153 14.3451V15.3901H31.1923V14.3071C31.1923 12.6351 31.9776 11.7991 33.5483 11.7991H33.6433C33.7446 11.7991 33.827 11.7611 33.8903 11.6851C33.9663 11.6091 34.0043 11.5205 34.0043 11.4191V9.15812C34.0043 9.05679 33.9663 8.96812 33.8903 8.89212C33.827 8.81612 33.7446 8.77812 33.6433 8.77812H32.1993C32.098 8.77812 32.0093 8.81612 31.9333 8.89212C31.87 8.96812 31.8383 9.05679 31.8383 9.15812V10.1271H29.4823V9.21512C29.4823 7.54312 30.2676 6.70712 31.8383 6.70712H33.9473C35.518 6.70712 36.3033 7.54312 36.3033 9.21512V11.4571C36.3033 13.1291 35.518 13.9651 33.9473 13.9651H33.7763ZM30.9833 17.8221C30.9833 17.4421 31.1163 17.1191 31.3823 16.8531C31.6483 16.5871 31.9713 16.4541 32.3513 16.4541C32.7313 16.4541 33.0543 16.5871 33.3203 16.8531C33.5863 17.1191 33.7193 17.4421 33.7193 17.8221C33.7193 18.2021 33.5863 18.5251 33.3203 18.7911C33.0543 19.0571 32.7313 19.1901 32.3513 19.1901C31.9713 19.1901 31.6483 19.0571 31.3823 18.7911C31.1163 18.5251 30.9833 18.2021 30.9833 17.8221ZM41.8105 13.9651C41.7091 13.9651 41.6205 14.0031 41.5445 14.0791C41.4811 14.1551 41.4495 14.2438 41.4495 14.3451V15.3901H39.2265V14.3071C39.2265 12.6351 40.0118 11.7991 41.5825 11.7991H41.6775C41.7788 11.7991 41.8611 11.7611 41.9245 11.6851C42.0005 11.6091 42.0385 11.5205 42.0385 11.4191V9.15812C42.0385 9.05679 42.0005 8.96812 41.9245 8.89212C41.8611 8.81612 41.7788 8.77812 41.6775 8.77812H40.2335C40.1321 8.77812 40.0435 8.81612 39.9675 8.89212C39.9041 8.96812 39.8725 9.05679 39.8725 9.15812V10.1271H37.5165V9.21512C37.5165 7.54312 38.3018 6.70712 39.8725 6.70712H41.9815C43.5521 6.70712 44.3375 7.54312 44.3375 9.21512V11.4571C44.3375 13.1291 43.5521 13.9651 41.9815 13.9651H41.8105ZM39.0175 17.8221C39.0175 17.4421 39.1505 17.1191 39.4165 16.8531C39.6825 16.5871 40.0055 16.4541 40.3855 16.4541C40.7655 16.4541 41.0885 16.5871 41.3545 16.8531C41.6205 17.1191 41.7535 17.4421 41.7535 17.8221C41.7535 18.2021 41.6205 18.5251 41.3545 18.7911C41.0885 19.0571 40.7655 19.1901 40.3855 19.1901C40.0055 19.1901 39.6825 19.0571 39.4165 18.7911C39.1505 18.5251 39.0175 18.2021 39.0175 17.8221ZM49.8446 13.9651C49.7433 13.9651 49.6546 14.0031 49.5786 14.0791C49.5153 14.1551 49.4836 14.2438 49.4836 14.3451V15.3901H47.2606V14.3071C47.2606 12.6351 48.046 11.7991 49.6166 11.7991H49.7116C49.813 11.7991 49.8953 11.7611 49.9586 11.6851C50.0346 11.6091 50.0726 11.5205 50.0726 11.4191V9.15812C50.0726 9.05679 50.0346 8.96812 49.9586 8.89212C49.8953 8.81612 49.813 8.77812 49.7116 8.77812H48.2676C48.1663 8.77812 48.0776 8.81612 48.0016 8.89212C47.9383 8.96812 47.9066 9.05679 47.9066 9.15812V10.1271H45.5506V9.21512C45.5506 7.54312 46.336 6.70712 47.9066 6.70712H50.0156C51.5863 6.70712 52.3716 7.54312 52.3716 9.21512V11.4571C52.3716 13.1291 51.5863 13.9651 50.0156 13.9651H49.8446ZM47.0516 17.8221C47.0516 17.4421 47.1846 17.1191 47.4506 16.8531C47.7166 16.5871 48.0396 16.4541 48.4196 16.4541C48.7996 16.4541 49.1226 16.5871 49.3886 16.8531C49.6546 17.1191 49.7876 17.4421 49.7876 17.8221C49.7876 18.2021 49.6546 18.5251 49.3886 18.7911C49.1226 19.0571 48.7996 19.1901 48.4196 19.1901C48.0396 19.1901 47.7166 19.0571 47.4506 18.7911C47.1846 18.5251 47.0516 18.2021 47.0516 17.8221Z"/>
</mask>
<path d="M33.7763 13.9651C33.675 13.9651 33.5863 14.0031 33.5103 14.0791C33.447 14.1551 33.4153 14.2438 33.4153 14.3451V15.3901H31.1923V14.3071C31.1923 12.6351 31.9776 11.7991 33.5483 11.7991H33.6433C33.7446 11.7991 33.827 11.7611 33.8903 11.6851C33.9663 11.6091 34.0043 11.5205 34.0043 11.4191V9.15812C34.0043 9.05679 33.9663 8.96812 33.8903 8.89212C33.827 8.81612 33.7446 8.77812 33.6433 8.77812H32.1993C32.098 8.77812 32.0093 8.81612 31.9333 8.89212C31.87 8.96812 31.8383 9.05679 31.8383 9.15812V10.1271H29.4823V9.21512C29.4823 7.54312 30.2676 6.70712 31.8383 6.70712H33.9473C35.518 6.70712 36.3033 7.54312 36.3033 9.21512V11.4571C36.3033 13.1291 35.518 13.9651 33.9473 13.9651H33.7763ZM30.9833 17.8221C30.9833 17.4421 31.1163 17.1191 31.3823 16.8531C31.6483 16.5871 31.9713 16.4541 32.3513 16.4541C32.7313 16.4541 33.0543 16.5871 33.3203 16.8531C33.5863 17.1191 33.7193 17.4421 33.7193 17.8221C33.7193 18.2021 33.5863 18.5251 33.3203 18.7911C33.0543 19.0571 32.7313 19.1901 32.3513 19.1901C31.9713 19.1901 31.6483 19.0571 31.3823 18.7911C31.1163 18.5251 30.9833 18.2021 30.9833 17.8221ZM41.8105 13.9651C41.7091 13.9651 41.6205 14.0031 41.5445 14.0791C41.4811 14.1551 41.4495 14.2438 41.4495 14.3451V15.3901H39.2265V14.3071C39.2265 12.6351 40.0118 11.7991 41.5825 11.7991H41.6775C41.7788 11.7991 41.8611 11.7611 41.9245 11.6851C42.0005 11.6091 42.0385 11.5205 42.0385 11.4191V9.15812C42.0385 9.05679 42.0005 8.96812 41.9245 8.89212C41.8611 8.81612 41.7788 8.77812 41.6775 8.77812H40.2335C40.1321 8.77812 40.0435 8.81612 39.9675 8.89212C39.9041 8.96812 39.8725 9.05679 39.8725 9.15812V10.1271H37.5165V9.21512C37.5165 7.54312 38.3018 6.70712 39.8725 6.70712H41.9815C43.5521 6.70712 44.3375 7.54312 44.3375 9.21512V11.4571C44.3375 13.1291 43.5521 13.9651 41.9815 13.9651H41.8105ZM39.0175 17.8221C39.0175 17.4421 39.1505 17.1191 39.4165 16.8531C39.6825 16.5871 40.0055 16.4541 40.3855 16.4541C40.7655 16.4541 41.0885 16.5871 41.3545 16.8531C41.6205 17.1191 41.7535 17.4421 41.7535 17.8221C41.7535 18.2021 41.6205 18.5251 41.3545 18.7911C41.0885 19.0571 40.7655 19.1901 40.3855 19.1901C40.0055 19.1901 39.6825 19.0571 39.4165 18.7911C39.1505 18.5251 39.0175 18.2021 39.0175 17.8221ZM49.8446 13.9651C49.7433 13.9651 49.6546 14.0031 49.5786 14.0791C49.5153 14.1551 49.4836 14.2438 49.4836 14.3451V15.3901H47.2606V14.3071C47.2606 12.6351 48.046 11.7991 49.6166 11.7991H49.7116C49.813 11.7991 49.8953 11.7611 49.9586 11.6851C50.0346 11.6091 50.0726 11.5205 50.0726 11.4191V9.15812C50.0726 9.05679 50.0346 8.96812 49.9586 8.89212C49.8953 8.81612 49.813 8.77812 49.7116 8.77812H48.2676C48.1663 8.77812 48.0776 8.81612 48.0016 8.89212C47.9383 8.96812 47.9066 9.05679 47.9066 9.15812V10.1271H45.5506V9.21512C45.5506 7.54312 46.336 6.70712 47.9066 6.70712H50.0156C51.5863 6.70712 52.3716 7.54312 52.3716 9.21512V11.4571C52.3716 13.1291 51.5863 13.9651 50.0156 13.9651H49.8446ZM47.0516 17.8221C47.0516 17.4421 47.1846 17.1191 47.4506 16.8531C47.7166 16.5871 48.0396 16.4541 48.4196 16.4541C48.7996 16.4541 49.1226 16.5871 49.3886 16.8531C49.6546 17.1191 49.7876 17.4421 49.7876 17.8221C49.7876 18.2021 49.6546 18.5251 49.3886 18.7911C49.1226 19.0571 48.7996 19.1901 48.4196 19.1901C48.0396 19.1901 47.7166 19.0571 47.4506 18.7911C47.1846 18.5251 47.0516 18.2021 47.0516 17.8221Z" fill="white"/>
<path d="M33.5103 14.0791L32.8032 13.372L32.7711 13.4041L32.7421 13.4389L33.5103 14.0791ZM33.4153 15.3901V16.3901H34.4153V15.3901H33.4153ZM31.1923 15.3901H30.1923V16.3901H31.1923V15.3901ZM33.8903 11.6851L33.1832 10.978L33.1511 11.0101L33.1221 11.0449L33.8903 11.6851ZM33.8903 8.89212L33.1221 9.5323L33.1511 9.56715L33.1832 9.59923L33.8903 8.89212ZM31.9333 8.89212L31.2262 8.18502L31.1941 8.21709L31.1651 8.25194L31.9333 8.89212ZM31.8383 10.1271V11.1271H32.8383V10.1271H31.8383ZM29.4823 10.1271H28.4823V11.1271H29.4823V10.1271ZM31.3823 16.8531L32.0894 17.5602V17.5602L31.3823 16.8531ZM33.3203 18.7911L32.6132 18.084V18.084L33.3203 18.7911ZM31.3823 18.7911L32.0894 18.084H32.0894L31.3823 18.7911ZM33.7763 13.9651V12.9651C33.3924 12.9651 33.0541 13.1211 32.8032 13.372L33.5103 14.0791L34.2174 14.7862C34.1757 14.8279 34.1129 14.8762 34.0277 14.9128C33.9413 14.9498 33.8541 14.9651 33.7763 14.9651V13.9651ZM33.5103 14.0791L32.7421 13.4389C32.525 13.6994 32.4153 14.0161 32.4153 14.3451H33.4153H34.4153C34.4153 14.4003 34.4063 14.4674 34.3808 14.539C34.3551 14.6109 34.3182 14.6716 34.2785 14.7193L33.5103 14.0791ZM33.4153 14.3451H32.4153V15.3901H33.4153H34.4153V14.3451H33.4153ZM33.4153 15.3901V14.3901H31.1923V15.3901V16.3901H33.4153V15.3901ZM31.1923 15.3901H32.1923V14.3071H31.1923H30.1923V15.3901H31.1923ZM31.1923 14.3071H32.1923C32.1923 13.6102 32.3572 13.2736 32.5101 13.1108C32.6521 12.9597 32.9336 12.7991 33.5483 12.7991V11.7991V10.7991C32.5923 10.7991 31.6958 11.0565 31.0524 11.7414C30.4201 12.4146 30.1923 13.332 30.1923 14.3071H31.1923ZM33.5483 11.7991V12.7991H33.6433V11.7991V10.7991H33.5483V11.7991ZM33.6433 11.7991V12.7991C34.0331 12.7991 34.3999 12.6356 34.6585 12.3253L33.8903 11.6851L33.1221 11.0449C33.1767 10.9794 33.2564 10.9114 33.362 10.8627C33.4669 10.8142 33.5663 10.7991 33.6433 10.7991V11.7991ZM33.8903 11.6851L34.5974 12.3922C34.8483 12.1413 35.0043 11.803 35.0043 11.4191H34.0043H33.0043C33.0043 11.3413 33.0196 11.2541 33.0566 11.1677C33.0932 11.0825 33.1415 11.0197 33.1832 10.978L33.8903 11.6851ZM34.0043 11.4191H35.0043V9.15812H34.0043H33.0043V11.4191H34.0043ZM34.0043 9.15812H35.0043C35.0043 8.77423 34.8483 8.43592 34.5974 8.18501L33.8903 8.89212L33.1832 9.59923C33.1415 9.55753 33.0932 9.49477 33.0566 9.40954C33.0196 9.32316 33.0043 9.23592 33.0043 9.15812H34.0043ZM33.8903 8.89212L34.6585 8.25194C34.3999 7.94163 34.0331 7.77812 33.6433 7.77812V8.77812V9.77812C33.5663 9.77812 33.4669 9.763 33.362 9.71458C33.2564 9.66585 33.1767 9.59785 33.1221 9.5323L33.8903 8.89212ZM33.6433 8.77812V7.77812H32.1993V8.77812V9.77812H33.6433V8.77812ZM32.1993 8.77812V7.77812C31.8154 7.77812 31.4771 7.93411 31.2262 8.18502L31.9333 8.89212L32.6404 9.59923C32.5987 9.64093 32.5359 9.68924 32.4507 9.72577C32.3643 9.76279 32.2771 9.77812 32.1993 9.77812V8.77812ZM31.9333 8.89212L31.1651 8.25194C30.948 8.51236 30.8383 8.82905 30.8383 9.15812H31.8383H32.8383C32.8383 9.21331 32.8293 9.28039 32.8038 9.35196C32.7781 9.42386 32.7412 9.48464 32.7015 9.53231L31.9333 8.89212ZM31.8383 9.15812H30.8383V10.1271H31.8383H32.8383V9.15812H31.8383ZM31.8383 10.1271V9.12712H29.4823V10.1271V11.1271H31.8383V10.1271ZM29.4823 10.1271H30.4823V9.21512H29.4823H28.4823V10.1271H29.4823ZM29.4823 9.21512H30.4823C30.4823 8.51824 30.6472 8.18164 30.8001 8.0188C30.9421 7.8677 31.2236 7.70712 31.8383 7.70712V6.70712V5.70712C30.8823 5.70712 29.9858 5.96454 29.3424 6.64945C28.7101 7.3226 28.4823 8.24 28.4823 9.21512H29.4823ZM31.8383 6.70712V7.70712H33.9473V6.70712V5.70712H31.8383V6.70712ZM33.9473 6.70712V7.70712C34.5619 7.70712 34.8435 7.8677 34.9854 8.0188C35.1384 8.18164 35.3033 8.51824 35.3033 9.21512H36.3033H37.3033C37.3033 8.24 37.0755 7.3226 36.4431 6.64945C35.7997 5.96454 34.9033 5.70712 33.9473 5.70712V6.70712ZM36.3033 9.21512H35.3033V11.4571H36.3033H37.3033V9.21512H36.3033ZM36.3033 11.4571H35.3033C35.3033 12.154 35.1384 12.4906 34.9854 12.6534C34.8435 12.8045 34.5619 12.9651 33.9473 12.9651V13.9651V14.9651C34.9033 14.9651 35.7997 14.7077 36.4431 14.0228C37.0755 13.3496 37.3033 12.4322 37.3033 11.4571H36.3033ZM33.9473 13.9651V12.9651H33.7763V13.9651V14.9651H33.9473V13.9651ZM30.9833 17.8221H31.9833C31.9833 17.7043 32.0131 17.6366 32.0894 17.5602L31.3823 16.8531L30.6752 16.146C30.2195 16.6017 29.9833 17.1799 29.9833 17.8221H30.9833ZM31.3823 16.8531L32.0894 17.5602C32.1657 17.4839 32.2335 17.4541 32.3513 17.4541V16.4541V15.4541C31.7091 15.4541 31.1308 15.6903 30.6752 16.146L31.3823 16.8531ZM32.3513 16.4541V17.4541C32.4691 17.4541 32.5368 17.4839 32.6132 17.5602L33.3203 16.8531L34.0274 16.146C33.5717 15.6903 32.9935 15.4541 32.3513 15.4541V16.4541ZM33.3203 16.8531L32.6132 17.5602C32.6895 17.6366 32.7193 17.7043 32.7193 17.8221H33.7193H34.7193C34.7193 17.1799 34.4831 16.6017 34.0274 16.146L33.3203 16.8531ZM33.7193 17.8221H32.7193C32.7193 17.9399 32.6895 18.0077 32.6132 18.084L33.3203 18.7911L34.0274 19.4982C34.4831 19.0426 34.7193 18.4643 34.7193 17.8221H33.7193ZM33.3203 18.7911L32.6132 18.084C32.5368 18.1603 32.4691 18.1901 32.3513 18.1901V19.1901V20.1901C32.9935 20.1901 33.5717 19.9539 34.0274 19.4982L33.3203 18.7911ZM32.3513 19.1901V18.1901C32.2335 18.1901 32.1657 18.1603 32.0894 18.084L31.3823 18.7911L30.6752 19.4982C31.1308 19.9539 31.7091 20.1901 32.3513 20.1901V19.1901ZM31.3823 18.7911L32.0894 18.084C32.0131 18.0077 31.9833 17.9399 31.9833 17.8221H30.9833H29.9833C29.9833 18.4643 30.2195 19.0426 30.6752 19.4982L31.3823 18.7911ZM41.5445 14.0791L40.8374 13.372L40.8053 13.4041L40.7762 13.4389L41.5445 14.0791ZM41.4495 15.3901V16.3901H42.4495V15.3901H41.4495ZM39.2265 15.3901H38.2265V16.3901H39.2265V15.3901ZM41.9245 11.6851L41.2174 10.978L41.1853 11.0101L41.1562 11.0449L41.9245 11.6851ZM41.9245 8.89212L41.1562 9.5323L41.1853 9.56715L41.2174 9.59923L41.9245 8.89212ZM39.9675 8.89212L39.2604 8.18502L39.2283 8.21709L39.1992 8.25194L39.9675 8.89212ZM39.8725 10.1271V11.1271H40.8725V10.1271H39.8725ZM37.5165 10.1271H36.5165V11.1271H37.5165V10.1271ZM39.4165 16.8531L40.1236 17.5602V17.5602L39.4165 16.8531ZM41.3545 18.7911L40.6474 18.084V18.084L41.3545 18.7911ZM39.4165 18.7911L40.1236 18.084V18.084L39.4165 18.7911ZM41.8105 13.9651V12.9651C41.4266 12.9651 41.0883 13.1211 40.8374 13.372L41.5445 14.0791L42.2516 14.7862C42.2099 14.8279 42.1471 14.8762 42.0619 14.9128C41.9755 14.9498 41.8883 14.9651 41.8105 14.9651V13.9651ZM41.5445 14.0791L40.7762 13.4389C40.5592 13.6994 40.4495 14.0161 40.4495 14.3451H41.4495H42.4495C42.4495 14.4003 42.4405 14.4674 42.415 14.539C42.3893 14.6109 42.3524 14.6716 42.3127 14.7193L41.5445 14.0791ZM41.4495 14.3451H40.4495V15.3901H41.4495H42.4495V14.3451H41.4495ZM41.4495 15.3901V14.3901H39.2265V15.3901V16.3901H41.4495V15.3901ZM39.2265 15.3901H40.2265V14.3071H39.2265H38.2265V15.3901H39.2265ZM39.2265 14.3071H40.2265C40.2265 13.6102 40.3913 13.2736 40.5443 13.1108C40.6862 12.9597 40.9678 12.7991 41.5825 12.7991V11.7991V10.7991C40.6264 10.7991 39.73 11.0565 39.0866 11.7414C38.4543 12.4146 38.2265 13.332 38.2265 14.3071H39.2265ZM41.5825 11.7991V12.7991H41.6775V11.7991V10.7991H41.5825V11.7991ZM41.6775 11.7991V12.7991C42.0673 12.7991 42.4341 12.6356 42.6927 12.3253L41.9245 11.6851L41.1562 11.0449C41.2109 10.9794 41.2906 10.9114 41.3962 10.8627C41.5011 10.8142 41.6005 10.7991 41.6775 10.7991V11.7991ZM41.9245 11.6851L42.6316 12.3922C42.8825 12.1413 43.0385 11.803 43.0385 11.4191H42.0385H41.0385C41.0385 11.3413 41.0538 11.2541 41.0908 11.1677C41.1273 11.0825 41.1757 11.0197 41.2174 10.978L41.9245 11.6851ZM42.0385 11.4191H43.0385V9.15812H42.0385H41.0385V11.4191H42.0385ZM42.0385 9.15812H43.0385C43.0385 8.77423 42.8825 8.43592 42.6316 8.18501L41.9245 8.89212L41.2174 9.59923C41.1757 9.55753 41.1273 9.49477 41.0908 9.40954C41.0538 9.32316 41.0385 9.23592 41.0385 9.15812H42.0385ZM41.9245 8.89212L42.6927 8.25194C42.4341 7.94163 42.0673 7.77812 41.6775 7.77812V8.77812V9.77812C41.6005 9.77812 41.5011 9.763 41.3962 9.71458C41.2906 9.66585 41.2109 9.59785 41.1562 9.5323L41.9245 8.89212ZM41.6775 8.77812V7.77812H40.2335V8.77812V9.77812H41.6775V8.77812ZM40.2335 8.77812V7.77812C39.8496 7.77812 39.5113 7.93411 39.2604 8.18502L39.9675 8.89212L40.6746 9.59923C40.6329 9.64093 40.5701 9.68924 40.4849 9.72577C40.3985 9.76279 40.3113 9.77812 40.2335 9.77812V8.77812ZM39.9675 8.89212L39.1992 8.25194C38.9822 8.51236 38.8725 8.82905 38.8725 9.15812H39.8725H40.8725C40.8725 9.21331 40.8635 9.28039 40.838 9.35196C40.8123 9.42386 40.7754 9.48464 40.7357 9.53231L39.9675 8.89212ZM39.8725 9.15812H38.8725V10.1271H39.8725H40.8725V9.15812H39.8725ZM39.8725 10.1271V9.12712H37.5165V10.1271V11.1271H39.8725V10.1271ZM37.5165 10.1271H38.5165V9.21512H37.5165H36.5165V10.1271H37.5165ZM37.5165 9.21512H38.5165C38.5165 8.51824 38.6813 8.18164 38.8343 8.0188C38.9762 7.8677 39.2578 7.70712 39.8725 7.70712V6.70712V5.70712C38.9164 5.70712 38.02 5.96454 37.3766 6.64945C36.7443 7.3226 36.5165 8.24 36.5165 9.21512H37.5165ZM39.8725 6.70712V7.70712H41.9815V6.70712V5.70712H39.8725V6.70712ZM41.9815 6.70712V7.70712C42.5961 7.70712 42.8777 7.8677 43.0196 8.0188C43.1726 8.18164 43.3375 8.51824 43.3375 9.21512H44.3375H45.3375C45.3375 8.24 45.1097 7.3226 44.4773 6.64945C43.8339 5.96454 42.9375 5.70712 41.9815 5.70712V6.70712ZM44.3375 9.21512H43.3375V11.4571H44.3375H45.3375V9.21512H44.3375ZM44.3375 11.4571H43.3375C43.3375 12.154 43.1726 12.4906 43.0196 12.6534C42.8777 12.8045 42.5961 12.9651 41.9815 12.9651V13.9651V14.9651C42.9375 14.9651 43.8339 14.7077 44.4773 14.0228C45.1097 13.3496 45.3375 12.4322 45.3375 11.4571H44.3375ZM41.9815 13.9651V12.9651H41.8105V13.9651V14.9651H41.9815V13.9651ZM39.0175 17.8221H40.0175C40.0175 17.7043 40.0472 17.6366 40.1236 17.5602L39.4165 16.8531L38.7094 16.146C38.2537 16.6017 38.0175 17.1799 38.0175 17.8221H39.0175ZM39.4165 16.8531L40.1236 17.5602C40.1999 17.4839 40.2677 17.4541 40.3855 17.4541V16.4541V15.4541C39.7433 15.4541 39.165 15.6903 38.7094 16.146L39.4165 16.8531ZM40.3855 16.4541V17.4541C40.5033 17.4541 40.571 17.4839 40.6474 17.5602L41.3545 16.8531L42.0616 16.146C41.6059 15.6903 41.0277 15.4541 40.3855 15.4541V16.4541ZM41.3545 16.8531L40.6474 17.5602C40.7237 17.6366 40.7535 17.7043 40.7535 17.8221H41.7535H42.7535C42.7535 17.1799 42.5172 16.6017 42.0616 16.146L41.3545 16.8531ZM41.7535 17.8221H40.7535C40.7535 17.9399 40.7237 18.0077 40.6474 18.084L41.3545 18.7911L42.0616 19.4982C42.5172 19.0426 42.7535 18.4643 42.7535 17.8221H41.7535ZM41.3545 18.7911L40.6474 18.084C40.571 18.1603 40.5033 18.1901 40.3855 18.1901V19.1901V20.1901C41.0277 20.1901 41.6059 19.9539 42.0616 19.4982L41.3545 18.7911ZM40.3855 19.1901V18.1901C40.2677 18.1901 40.1999 18.1603 40.1236 18.084L39.4165 18.7911L38.7094 19.4982C39.165 19.9539 39.7433 20.1901 40.3855 20.1901V19.1901ZM39.4165 18.7911L40.1236 18.084C40.0472 18.0077 40.0175 17.9399 40.0175 17.8221H39.0175H38.0175C38.0175 18.4643 38.2537 19.0426 38.7094 19.4982L39.4165 18.7911ZM49.5786 14.0791L48.8715 13.372L48.8395 13.4041L48.8104 13.4389L49.5786 14.0791ZM49.4836 15.3901V16.3901H50.4836V15.3901H49.4836ZM47.2606 15.3901H46.2606V16.3901H47.2606V15.3901ZM49.9586 11.6851L49.2515 10.978L49.2195 11.0101L49.1904 11.0449L49.9586 11.6851ZM49.9586 8.89212L49.1904 9.5323L49.2195 9.56715L49.2515 9.59923L49.9586 8.89212ZM48.0016 8.89212L47.2945 8.18502L47.2625 8.21709L47.2334 8.25194L48.0016 8.89212ZM47.9066 10.1271V11.1271H48.9066V10.1271H47.9066ZM45.5506 10.1271H44.5506V11.1271H45.5506V10.1271ZM47.4506 16.8531L48.1577 17.5602V17.5602L47.4506 16.8531ZM49.3886 18.7911L48.6815 18.084V18.084L49.3886 18.7911ZM47.4506 18.7911L48.1577 18.084V18.084L47.4506 18.7911ZM49.8446 13.9651V12.9651C49.4608 12.9651 49.1224 13.1211 48.8715 13.372L49.5786 14.0791L50.2858 14.7862C50.244 14.8279 50.1813 14.8762 50.0961 14.9128C50.0097 14.9498 49.9224 14.9651 49.8446 14.9651V13.9651ZM49.5786 14.0791L48.8104 13.4389C48.5934 13.6994 48.4836 14.0161 48.4836 14.3451H49.4836H50.4836C50.4836 14.4003 50.4747 14.4674 50.4491 14.539C50.4235 14.6109 50.3866 14.6716 50.3469 14.7193L49.5786 14.0791ZM49.4836 14.3451H48.4836V15.3901H49.4836H50.4836V14.3451H49.4836ZM49.4836 15.3901V14.3901H47.2606V15.3901V16.3901H49.4836V15.3901ZM47.2606 15.3901H48.2606V14.3071H47.2606H46.2606V15.3901H47.2606ZM47.2606 14.3071H48.2606C48.2606 13.6102 48.4255 13.2736 48.5785 13.1108C48.7204 12.9597 49.002 12.7991 49.6166 12.7991V11.7991V10.7991C48.6606 10.7991 47.7642 11.0565 47.1208 11.7414C46.4884 12.4146 46.2606 13.332 46.2606 14.3071H47.2606ZM49.6166 11.7991V12.7991H49.7116V11.7991V10.7991H49.6166V11.7991ZM49.7116 11.7991V12.7991C50.1014 12.7991 50.4683 12.6356 50.7269 12.3253L49.9586 11.6851L49.1904 11.0449C49.245 10.9794 49.3248 10.9114 49.4303 10.8627C49.5352 10.8142 49.6347 10.7991 49.7116 10.7991V11.7991ZM49.9586 11.6851L50.6657 12.3922C50.9167 12.1413 51.0726 11.803 51.0726 11.4191H50.0726H49.0726C49.0726 11.3413 49.088 11.2541 49.125 11.1677C49.1615 11.0825 49.2098 11.0197 49.2515 10.978L49.9586 11.6851ZM50.0726 11.4191H51.0726V9.15812H50.0726H49.0726V11.4191H50.0726ZM50.0726 9.15812H51.0726C51.0726 8.77423 50.9167 8.43592 50.6657 8.18501L49.9586 8.89212L49.2515 9.59923C49.2098 9.55753 49.1615 9.49477 49.125 9.40954C49.088 9.32316 49.0726 9.23592 49.0726 9.15812H50.0726ZM49.9586 8.89212L50.7269 8.25194C50.4683 7.94163 50.1014 7.77812 49.7116 7.77812V8.77812V9.77812C49.6347 9.77812 49.5352 9.763 49.4303 9.71458C49.3248 9.66585 49.245 9.59785 49.1904 9.5323L49.9586 8.89212ZM49.7116 8.77812V7.77812H48.2676V8.77812V9.77812H49.7116V8.77812ZM48.2676 8.77812V7.77812C47.8838 7.77812 47.5454 7.93411 47.2945 8.18502L48.0016 8.89212L48.7088 9.59923C48.667 9.64093 48.6043 9.68924 48.5191 9.72577C48.4327 9.76279 48.3454 9.77812 48.2676 9.77812V8.77812ZM48.0016 8.89212L47.2334 8.25194C47.0164 8.51236 46.9066 8.82905 46.9066 9.15812H47.9066H48.9066C48.9066 9.21331 48.8977 9.28039 48.8721 9.35196C48.8465 9.42386 48.8096 9.48464 48.7699 9.53231L48.0016 8.89212ZM47.9066 9.15812H46.9066V10.1271H47.9066H48.9066V9.15812H47.9066ZM47.9066 10.1271V9.12712H45.5506V10.1271V11.1271H47.9066V10.1271ZM45.5506 10.1271H46.5506V9.21512H45.5506H44.5506V10.1271H45.5506ZM45.5506 9.21512H46.5506C46.5506 8.51824 46.7155 8.18164 46.8685 8.0188C47.0104 7.8677 47.292 7.70712 47.9066 7.70712V6.70712V5.70712C46.9506 5.70712 46.0542 5.96454 45.4108 6.64945C44.7784 7.3226 44.5506 8.24 44.5506 9.21512H45.5506ZM47.9066 6.70712V7.70712H50.0156V6.70712V5.70712H47.9066V6.70712ZM50.0156 6.70712V7.70712C50.6303 7.70712 50.9119 7.8677 51.0538 8.0188C51.2068 8.18164 51.3716 8.51824 51.3716 9.21512H52.3716H53.3716C53.3716 8.24 53.1438 7.3226 52.5115 6.64945C51.8681 5.96454 50.9717 5.70712 50.0156 5.70712V6.70712ZM52.3716 9.21512H51.3716V11.4571H52.3716H53.3716V9.21512H52.3716ZM52.3716 11.4571H51.3716C51.3716 12.154 51.2068 12.4906 51.0538 12.6534C50.9119 12.8045 50.6303 12.9651 50.0156 12.9651V13.9651V14.9651C50.9717 14.9651 51.8681 14.7077 52.5115 14.0228C53.1438 13.3496 53.3716 12.4322 53.3716 11.4571H52.3716ZM50.0156 13.9651V12.9651H49.8446V13.9651V14.9651H50.0156V13.9651ZM47.0516 17.8221H48.0516C48.0516 17.7043 48.0814 17.6366 48.1577 17.5602L47.4506 16.8531L46.7435 16.146C46.2879 16.6017 46.0516 17.1799 46.0516 17.8221H47.0516ZM47.4506 16.8531L48.1577 17.5602C48.2341 17.4839 48.3018 17.4541 48.4196 17.4541V16.4541V15.4541C47.7775 15.4541 47.1992 15.6903 46.7435 16.146L47.4506 16.8531ZM48.4196 16.4541V17.4541C48.5375 17.4541 48.6052 17.4839 48.6815 17.5602L49.3886 16.8531L50.0957 16.146C49.6401 15.6903 49.0618 15.4541 48.4196 15.4541V16.4541ZM49.3886 16.8531L48.6815 17.5602C48.7579 17.6366 48.7876 17.7043 48.7876 17.8221H49.7876H50.7876C50.7876 17.1799 50.5514 16.6017 50.0957 16.146L49.3886 16.8531ZM49.7876 17.8221H48.7876C48.7876 17.9399 48.7579 18.0077 48.6815 18.084L49.3886 18.7911L50.0957 19.4982C50.5514 19.0426 50.7876 18.4643 50.7876 17.8221H49.7876ZM49.3886 18.7911L48.6815 18.084C48.6052 18.1603 48.5375 18.1901 48.4196 18.1901V19.1901V20.1901C49.0618 20.1901 49.6401 19.9539 50.0957 19.4982L49.3886 18.7911ZM48.4196 19.1901V18.1901C48.3018 18.1901 48.2341 18.1603 48.1577 18.084L47.4506 18.7911L46.7435 19.4982C47.1992 19.9539 47.7775 20.1901 48.4196 20.1901V19.1901ZM47.4506 18.7911L48.1577 18.084C48.0814 18.0077 48.0516 17.9399 48.0516 17.8221H47.0516H46.0516C46.0516 18.4643 46.2879 19.0426 46.7435 19.4982L47.4506 18.7911Z" fill="black" mask="url(#path-3-outside-1_216_140)"/>
<defs>
<filter id="filter0_i_216_140" x="-2" y="-3" width="82.8926" height="29.9641" filterUnits="userSpaceOnUse" color-interpolation-filters="sRGB">
<feFlood flood-opacity="0" result="BackgroundImageFix"/>
<feBlend mode="normal" in="SourceGraphic" in2="BackgroundImageFix" result="shape"/>
<feColorMatrix in="SourceAlpha" type="matrix" values="0 0 0 0 0 0 0 0 0 0 0 0 0 0 0 0 0 0 127 0" result="hardAlpha"/>
<feOffset dx="-2" dy="-3"/>
<feGaussianBlur stdDeviation="2"/>
<feComposite in2="hardAlpha" operator="arithmetic" k2="-1" k3="1"/>
<feColorMatrix type="matrix" values="0 0 0 0 0.00961538 0 0 0 0 0.00961538 0 0 0 0 0.00961538 0 0 0 0.25 0"/>
<feBlend mode="normal" in2="shape" result="effect1_innerShadow_216_140"/>
</filter>
</defs>
</svg>
