<svg width="81" height="27" viewBox="0 0 81 27" fill="none" xmlns="http://www.w3.org/2000/svg">
<g filter="url(#filter0_i_216_136)">
<rect width="80.8925" height="26.9642" rx="12" fill="#006FFF"/>
</g>
<rect x="0.5" y="0.5" width="79.8925" height="25.9642" rx="11.5" stroke="black"/>
<mask id="path-3-outside-1_216_136" maskUnits="userSpaceOnUse" x="16.5273" y="5.00012" width="48" height="15" fill="black">
<rect fill="white" x="16.5273" y="5.00012" width="48" height="15"/>
<path d="M23.2419 6.70712H25.598L27.023 15.9601L28.087 6.70712H30.6709L28.676 19.0001H25.655L24.42 11.4571L23.185 19.0001H20.1639L18.1689 6.70712H20.7529L21.817 15.9601L23.2419 6.70712ZM37.0175 6.51712C38.5882 6.51712 39.3735 7.35312 39.3735 9.02512V19.0001H36.7135V14.8771H34.7945V19.0001H32.1345V9.02512C32.1345 7.35312 32.9199 6.51712 34.4905 6.51712H37.0175ZM34.7945 12.8251H36.7135V8.70212C36.7135 8.60079 36.6755 8.51212 36.5995 8.43612C36.5362 8.36012 36.4539 8.32212 36.3525 8.32212H35.1555C35.0542 8.32212 34.9655 8.36012 34.8895 8.43612C34.8262 8.51212 34.7945 8.60079 34.7945 8.70212V12.8251ZM40.6532 8.96812V6.70712H47.3032V8.96812H45.3082V19.0001H42.6482V8.96812H40.6532ZM51.1783 16.7961H54.1233V19.0001H48.5183V6.70712H54.1233V8.87312H51.1783V11.7611H53.9333V13.8511H51.1783V16.7961ZM58.3219 13.9651V19.0001H55.6619V6.70712H60.3929C61.9636 6.70712 62.7489 7.54312 62.7489 9.21512V10.6401C62.7489 11.6535 62.3879 12.2995 61.6659 12.5781C62.2992 12.8061 62.6159 13.3255 62.6159 14.1361V19.0001H59.9559V14.3451C59.9559 14.0918 59.8356 13.9651 59.5949 13.9651H58.3219ZM58.3219 8.51212V12.1031H59.7279C59.8292 12.1031 59.9116 12.0651 59.9749 11.9891C60.0509 11.9131 60.0889 11.8245 60.0889 11.7231V8.89212C60.0889 8.79079 60.0509 8.70212 59.9749 8.62612C59.9116 8.55012 59.8292 8.51212 59.7279 8.51212H58.3219Z"/>
</mask>
<path d="M23.2419 6.70712H25.598L27.023 15.9601L28.087 6.70712H30.6709L28.676 19.0001H25.655L24.42 11.4571L23.185 19.0001H20.1639L18.1689 6.70712H20.7529L21.817 15.9601L23.2419 6.70712ZM37.0175 6.51712C38.5882 6.51712 39.3735 7.35312 39.3735 9.02512V19.0001H36.7135V14.8771H34.7945V19.0001H32.1345V9.02512C32.1345 7.35312 32.9199 6.51712 34.4905 6.51712H37.0175ZM34.7945 12.8251H36.7135V8.70212C36.7135 8.60079 36.6755 8.51212 36.5995 8.43612C36.5362 8.36012 36.4539 8.32212 36.3525 8.32212H35.1555C35.0542 8.32212 34.9655 8.36012 34.8895 8.43612C34.8262 8.51212 34.7945 8.60079 34.7945 8.70212V12.8251ZM40.6532 8.96812V6.70712H47.3032V8.96812H45.3082V19.0001H42.6482V8.96812H40.6532ZM51.1783 16.7961H54.1233V19.0001H48.5183V6.70712H54.1233V8.87312H51.1783V11.7611H53.9333V13.8511H51.1783V16.7961ZM58.3219 13.9651V19.0001H55.6619V6.70712H60.3929C61.9636 6.70712 62.7489 7.54312 62.7489 9.21512V10.6401C62.7489 11.6535 62.3879 12.2995 61.6659 12.5781C62.2992 12.8061 62.6159 13.3255 62.6159 14.1361V19.0001H59.9559V14.3451C59.9559 14.0918 59.8356 13.9651 59.5949 13.9651H58.3219ZM58.3219 8.51212V12.1031H59.7279C59.8292 12.1031 59.9116 12.0651 59.9749 11.9891C60.0509 11.9131 60.0889 11.8245 60.0889 11.7231V8.89212C60.0889 8.79079 60.0509 8.70212 59.9749 8.62612C59.9116 8.55012 59.8292 8.51212 59.7279 8.51212H58.3219Z" fill="white"/>
<path d="M23.242 6.70712V5.70712H22.3842L22.2536 6.55491L23.242 6.70712ZM25.5979 6.70712L26.5863 6.55491L26.4557 5.70712H25.5979V6.70712ZM27.0229 15.9601L26.0346 16.1123L28.0164 16.0744L27.0229 15.9601ZM28.087 6.70712V5.70712H27.1954L27.0935 6.59289L28.087 6.70712ZM30.6709 6.70712L31.658 6.86731L31.8463 5.70712H30.6709V6.70712ZM28.676 19.0001V20.0001H29.5267L29.663 19.1603L28.676 19.0001ZM25.6549 19.0001L24.6681 19.1617L24.8054 20.0001H25.6549V19.0001ZM24.42 11.4571L25.4068 11.2955H23.4331L24.42 11.4571ZM23.1849 19.0001V20.0001H24.0345L24.1718 19.1617L23.1849 19.0001ZM20.1639 19.0001L19.1769 19.1603L19.3132 20.0001H20.1639V19.0001ZM18.169 6.70712V5.70712H16.9936L17.1819 6.86731L18.169 6.70712ZM20.753 6.70712L21.7464 6.59289L21.6446 5.70712H20.753V6.70712ZM21.8169 15.9601L20.8235 16.0744L22.8053 16.1123L21.8169 15.9601ZM23.242 6.70712V7.70712H25.5979V6.70712V5.70712H23.242V6.70712ZM25.5979 6.70712L24.6096 6.85933L26.0346 16.1123L27.0229 15.9601L28.0113 15.8079L26.5863 6.55491L25.5979 6.70712ZM27.0229 15.9601L28.0164 16.0744L29.0804 6.82136L28.087 6.70712L27.0935 6.59289L26.0295 15.8459L27.0229 15.9601ZM28.087 6.70712V7.70712H30.6709V6.70712V5.70712H28.087V6.70712ZM30.6709 6.70712L29.6839 6.54693L27.6889 18.8399L28.676 19.0001L29.663 19.1603L31.658 6.86731L30.6709 6.70712ZM28.676 19.0001V18.0001H25.6549V19.0001V20.0001H28.676V19.0001ZM25.6549 19.0001L26.6418 18.8385L25.4068 11.2955L24.42 11.4571L23.4331 11.6187L24.6681 19.1617L25.6549 19.0001ZM24.42 11.4571L23.4331 11.2955L22.1981 18.8385L23.1849 19.0001L24.1718 19.1617L25.4068 11.6187L24.42 11.4571ZM23.1849 19.0001V18.0001H20.1639V19.0001V20.0001H23.1849V19.0001ZM20.1639 19.0001L21.151 18.8399L19.156 6.54693L18.169 6.70712L17.1819 6.86731L19.1769 19.1603L20.1639 19.0001ZM18.169 6.70712V7.70712H20.753V6.70712V5.70712H18.169V6.70712ZM20.753 6.70712L19.7595 6.82136L20.8235 16.0744L21.8169 15.9601L22.8104 15.8459L21.7464 6.59289L20.753 6.70712ZM21.8169 15.9601L22.8053 16.1123L24.2303 6.85933L23.242 6.70712L22.2536 6.55491L20.8286 15.8079L21.8169 15.9601ZM39.3735 19.0001V20.0001H40.3735V19.0001H39.3735ZM36.7135 19.0001H35.7135V20.0001H36.7135V19.0001ZM36.7135 14.8771H37.7135V13.8771H36.7135V14.8771ZM34.7945 14.8771V13.8771H33.7945V14.8771H34.7945ZM34.7945 19.0001V20.0001H35.7945V19.0001H34.7945ZM32.1345 19.0001H31.1345V20.0001H32.1345V19.0001ZM34.7945 12.8251H33.7945V13.8251H34.7945V12.8251ZM36.7135 12.8251V13.8251H37.7135V12.8251H36.7135ZM36.5995 8.43612L35.8313 9.07631L35.8604 9.11115L35.8924 9.14322L36.5995 8.43612ZM34.8895 8.43612L34.1824 7.72901L34.1504 7.76109L34.1213 7.79594L34.8895 8.43612ZM37.0175 6.51712V7.51712C37.6322 7.51712 37.9138 7.6777 38.0557 7.8288C38.2087 7.99164 38.3735 8.32824 38.3735 9.02512H39.3735H40.3735C40.3735 8.05 40.1458 7.1326 39.5134 6.45945C38.87 5.77454 37.9736 5.51712 37.0175 5.51712V6.51712ZM39.3735 9.02512H38.3735V19.0001H39.3735H40.3735V9.02512H39.3735ZM39.3735 19.0001V18.0001H36.7135V19.0001V20.0001H39.3735V19.0001ZM36.7135 19.0001H37.7135V14.8771H36.7135H35.7135V19.0001H36.7135ZM36.7135 14.8771V13.8771H34.7945V14.8771V15.8771H36.7135V14.8771ZM34.7945 14.8771H33.7945V19.0001H34.7945H35.7945V14.8771H34.7945ZM34.7945 19.0001V18.0001H32.1345V19.0001V20.0001H34.7945V19.0001ZM32.1345 19.0001H33.1345V9.02512H32.1345H31.1345V19.0001H32.1345ZM32.1345 9.02512H33.1345C33.1345 8.32824 33.2994 7.99164 33.4524 7.8288C33.5943 7.6777 33.8759 7.51712 34.4905 7.51712V6.51712V5.51712C33.5345 5.51712 32.6381 5.77454 31.9947 6.45945C31.3623 7.1326 31.1345 8.05 31.1345 9.02512H32.1345ZM34.4905 6.51712V7.51712H37.0175V6.51712V5.51712H34.4905V6.51712ZM34.7945 12.8251V13.8251H36.7135V12.8251V11.8251H34.7945V12.8251ZM36.7135 12.8251H37.7135V8.70212H36.7135H35.7135V12.8251H36.7135ZM36.7135 8.70212H37.7135C37.7135 8.31823 37.5576 7.97993 37.3067 7.72902L36.5995 8.43612L35.8924 9.14322C35.8507 9.10152 35.8024 9.03877 35.7659 8.95354C35.7289 8.86716 35.7135 8.77992 35.7135 8.70212H36.7135ZM36.5995 8.43612L37.3678 7.79593C37.1092 7.48562 36.7423 7.32212 36.3525 7.32212V8.32212V9.32212C36.2756 9.32212 36.1761 9.307 36.0712 9.25858C35.9657 9.20986 35.8859 9.14186 35.8313 9.07631L36.5995 8.43612ZM36.3525 8.32212V7.32212H35.1555V8.32212V9.32212H36.3525V8.32212ZM35.1555 8.32212V7.32212C34.7717 7.32212 34.4333 7.4781 34.1824 7.72901L34.8895 8.43612L35.5966 9.14323C35.5549 9.18493 35.4922 9.23324 35.407 9.26977C35.3206 9.30679 35.2333 9.32212 35.1555 9.32212V8.32212ZM34.8895 8.43612L34.1213 7.79594C33.9043 8.05636 33.7945 8.37305 33.7945 8.70212H34.7945H35.7945C35.7945 8.75731 35.7856 8.82439 35.76 8.89596C35.7344 8.96786 35.6975 9.02864 35.6578 9.0763L34.8895 8.43612ZM34.7945 8.70212H33.7945V12.8251H34.7945H35.7945V8.70212H34.7945ZM40.6532 8.96812H39.6532V9.96812H40.6532V8.96812ZM40.6532 6.70712V5.70712H39.6532V6.70712H40.6532ZM47.3032 6.70712H48.3032V5.70712H47.3032V6.70712ZM47.3032 8.96812V9.96812H48.3032V8.96812H47.3032ZM45.3082 8.96812V7.96812H44.3082V8.96812H45.3082ZM45.3082 19.0001V20.0001H46.3082V19.0001H45.3082ZM42.6482 19.0001H41.6482V20.0001H42.6482V19.0001ZM42.6482 8.96812H43.6482V7.96812H42.6482V8.96812ZM40.6532 8.96812H41.6532V6.70712H40.6532H39.6532V8.96812H40.6532ZM40.6532 6.70712V7.70712H47.3032V6.70712V5.70712H40.6532V6.70712ZM47.3032 6.70712H46.3032V8.96812H47.3032H48.3032V6.70712H47.3032ZM47.3032 8.96812V7.96812H45.3082V8.96812V9.96812H47.3032V8.96812ZM45.3082 8.96812H44.3082V19.0001H45.3082H46.3082V8.96812H45.3082ZM45.3082 19.0001V18.0001H42.6482V19.0001V20.0001H45.3082V19.0001ZM42.6482 19.0001H43.6482V8.96812H42.6482H41.6482V19.0001H42.6482ZM42.6482 8.96812V7.96812H40.6532V8.96812V9.96812H42.6482V8.96812ZM51.1783 16.7961H50.1783V17.7961H51.1783V16.7961ZM54.1233 16.7961H55.1233V15.7961H54.1233V16.7961ZM54.1233 19.0001V20.0001H55.1233V19.0001H54.1233ZM48.5183 19.0001H47.5183V20.0001H48.5183V19.0001ZM48.5183 6.70712V5.70712H47.5183V6.70712H48.5183ZM54.1233 6.70712H55.1233V5.70712H54.1233V6.70712ZM54.1233 8.87312V9.87312H55.1233V8.87312H54.1233ZM51.1783 8.87312V7.87312H50.1783V8.87312H51.1783ZM51.1783 11.7611H50.1783V12.7611H51.1783V11.7611ZM53.9333 11.7611H54.9333V10.7611H53.9333V11.7611ZM53.9333 13.8511V14.8511H54.9333V13.8511H53.9333ZM51.1783 13.8511V12.8511H50.1783V13.8511H51.1783ZM51.1783 16.7961V17.7961H54.1233V16.7961V15.7961H51.1783V16.7961ZM54.1233 16.7961H53.1233V19.0001H54.1233H55.1233V16.7961H54.1233ZM54.1233 19.0001V18.0001H48.5183V19.0001V20.0001H54.1233V19.0001ZM48.5183 19.0001H49.5183V6.70712H48.5183H47.5183V19.0001H48.5183ZM48.5183 6.70712V7.70712H54.1233V6.70712V5.70712H48.5183V6.70712ZM54.1233 6.70712H53.1233V8.87312H54.1233H55.1233V6.70712H54.1233ZM54.1233 8.87312V7.87312H51.1783V8.87312V9.87312H54.1233V8.87312ZM51.1783 8.87312H50.1783V11.7611H51.1783H52.1783V8.87312H51.1783ZM51.1783 11.7611V12.7611H53.9333V11.7611V10.7611H51.1783V11.7611ZM53.9333 11.7611H52.9333V13.8511H53.9333H54.9333V11.7611H53.9333ZM53.9333 13.8511V12.8511H51.1783V13.8511V14.8511H53.9333V13.8511ZM51.1783 13.8511H50.1783V16.7961H51.1783H52.1783V13.8511H51.1783ZM58.3219 13.9651V12.9651H57.3219V13.9651H58.3219ZM58.3219 19.0001V20.0001H59.3219V19.0001H58.3219ZM55.6619 19.0001H54.6619V20.0001H55.6619V19.0001ZM55.6619 6.70712V5.70712H54.6619V6.70712H55.6619ZM61.6659 12.5781L61.3058 11.6452L58.8042 12.6107L61.3272 13.519L61.6659 12.5781ZM62.6159 19.0001V20.0001H63.6159V19.0001H62.6159ZM59.9559 19.0001H58.9559V20.0001H59.9559V19.0001ZM58.3219 8.51212V7.51212H57.3219V8.51212H58.3219ZM58.3219 12.1031H57.3219V13.1031H58.3219V12.1031ZM59.9749 11.9891L59.2678 11.282L59.2357 11.3141L59.2067 11.3489L59.9749 11.9891ZM59.9749 8.62612L59.2067 9.2663L59.2357 9.30115L59.2678 9.33323L59.9749 8.62612ZM58.3219 13.9651H57.3219V19.0001H58.3219H59.3219V13.9651H58.3219ZM58.3219 19.0001V18.0001H55.6619V19.0001V20.0001H58.3219V19.0001ZM55.6619 19.0001H56.6619V6.70712H55.6619H54.6619V19.0001H55.6619ZM55.6619 6.70712V7.70712H60.3929V6.70712V5.70712H55.6619V6.70712ZM60.3929 6.70712V7.70712C61.0075 7.70712 61.2891 7.8677 61.431 8.0188C61.584 8.18164 61.7489 8.51824 61.7489 9.21512H62.7489H63.7489C63.7489 8.24 63.5211 7.3226 62.8887 6.64945C62.2453 5.96454 61.3489 5.70712 60.3929 5.70712V6.70712ZM62.7489 9.21512H61.7489V10.6401H62.7489H63.7489V9.21512H62.7489ZM62.7489 10.6401H61.7489C61.7489 11.0362 61.6772 11.2679 61.6052 11.3968C61.544 11.5063 61.46 11.5857 61.3058 11.6452L61.6659 12.5781L62.026 13.511C62.5938 13.2919 63.0513 12.909 63.3511 12.3724C63.64 11.8554 63.7489 11.2573 63.7489 10.6401H62.7489ZM61.6659 12.5781L61.3272 13.519C61.4536 13.5645 61.4978 13.6153 61.5246 13.6592C61.5605 13.7181 61.6159 13.8551 61.6159 14.1361H62.6159H63.6159C63.6159 13.6065 63.5129 13.0785 63.2322 12.618C62.9423 12.1426 62.5115 11.8197 62.0046 11.6372L61.6659 12.5781ZM62.6159 14.1361H61.6159V19.0001H62.6159H63.6159V14.1361H62.6159ZM62.6159 19.0001V18.0001H59.9559V19.0001V20.0001H62.6159V19.0001ZM59.9559 19.0001H60.9559V14.3451H59.9559H58.9559V19.0001H59.9559ZM59.9559 14.3451H60.9559C60.9559 14.0767 60.8931 13.6897 60.5906 13.3714C60.2791 13.0434 59.8828 12.9651 59.5949 12.9651V13.9651V14.9651C59.5476 14.9651 59.3318 14.9501 59.1406 14.7489C58.9586 14.5572 58.9559 14.3602 58.9559 14.3451H59.9559ZM59.5949 13.9651V12.9651H58.3219V13.9651V14.9651H59.5949V13.9651ZM58.3219 8.51212H57.3219V12.1031H58.3219H59.3219V8.51212H58.3219ZM58.3219 12.1031V13.1031H59.7279V12.1031V11.1031H58.3219V12.1031ZM59.7279 12.1031V13.1031C60.1177 13.1031 60.4845 12.9396 60.7431 12.6293L59.9749 11.9891L59.2067 11.3489C59.2613 11.2834 59.341 11.2154 59.4466 11.1667C59.5515 11.1182 59.651 11.1031 59.7279 11.1031V12.1031ZM59.9749 11.9891L60.682 12.6962C60.9329 12.4453 61.0889 12.107 61.0889 11.7231H60.0889H59.0889C59.0889 11.6453 59.1042 11.5581 59.1412 11.4717C59.1778 11.3865 59.2261 11.3237 59.2678 11.282L59.9749 11.9891ZM60.0889 11.7231H61.0889V8.89212H60.0889H59.0889V11.7231H60.0889ZM60.0889 8.89212H61.0889C61.0889 8.50823 60.9329 8.16992 60.682 7.91901L59.9749 8.62612L59.2678 9.33323C59.2261 9.29153 59.1778 9.22877 59.1412 9.14354C59.1042 9.05716 59.0889 8.96992 59.0889 8.89212H60.0889ZM59.9749 8.62612L60.7431 7.98594C60.4845 7.67563 60.1177 7.51212 59.7279 7.51212V8.51212V9.51212C59.6509 9.51212 59.5515 9.497 59.4466 9.44858C59.341 9.39985 59.2613 9.33185 59.2067 9.2663L59.9749 8.62612ZM59.7279 8.51212V7.51212H58.3219V8.51212V9.51212H59.7279V8.51212Z" fill="black" mask="url(#path-3-outside-1_216_136)"/>
<defs>
<filter id="filter0_i_216_136" x="-2" y="-3" width="82.8926" height="29.9641" filterUnits="userSpaceOnUse" color-interpolation-filters="sRGB">
<feFlood flood-opacity="0" result="BackgroundImageFix"/>
<feBlend mode="normal" in="SourceGraphic" in2="BackgroundImageFix" result="shape"/>
<feColorMatrix in="SourceAlpha" type="matrix" values="0 0 0 0 0 0 0 0 0 0 0 0 0 0 0 0 0 0 127 0" result="hardAlpha"/>
<feOffset dx="-2" dy="-3"/>
<feGaussianBlur stdDeviation="2"/>
<feComposite in2="hardAlpha" operator="arithmetic" k2="-1" k3="1"/>
<feColorMatrix type="matrix" values="0 0 0 0 0.00961538 0 0 0 0 0.00961538 0 0 0 0 0.00961538 0 0 0 0.25 0"/>
<feBlend mode="normal" in2="shape" result="effect1_innerShadow_216_136"/>
</filter>
</defs>
</svg>
